<svg xmlns="http://www.w3.org/2000/svg" xmlns:xlink="http://www.w3.org/1999/xlink" viewBox="0 0 549 396"><defs><path id="Path_412" fill="#5440cc" d="M248.7-6.7c-.8 0-2.2-1.1-3-1.3-2.5-.4-4.9-.8-7.2-1.4-7.3-1.6-14.8-3.3-22.5-3.6-16.2-.8-32.9 6.3-49 9-5.3.8-10.5 2-15.7 2.4-1.8.1-6.1-.4-7.8.4-.7.3 1.3-.1 2-.1a43 43 0 0 1 4.6.1c4.5.4 8.8 1.7 13.3 2.2 7.6.9 15.3 1 22.7 2.2 5.7 1 11 3 16.8 3.5a56 56 0 0 0 22.8-2.3c3.3-1.1 10.5-5.8 13.8-4.6l4-2.8a14.9 14.9 0 0 0-.6 1.5l-1 4.7a78 78 0 0 0-1.2 14.8c.3 10 6.5 17.9 8.8 27.2a51.8 51.8 0 0 1 1.4 10.2v1.1c-.3 1.4-.6 3.1-.1 3.8.3.5.2-1.2.2-1.8v-2c0-.7.3-1.4.3-1.8.9-5 2.6-9.9 3.5-15 1.8-10 5-20.4 3.8-30.4A37.6 37.6 0 0 0 256.2-1c-1.1-2.6-3.3-5-3.2-8.2L249.2-7a.7.7 0 0 0 .1-.2l-.6.4Zm.1 0-.6.4.6-.4Zm-26 25.5c0-.4-.6.7-.9 1l-1.5 2.3a25 25 0 0 0-3 7 77.1 77.1 0 0 0-2.3 22.7c.6 12.2 5 22.4 8.9 33.4 3.3 9.3 6 19 8.7 28.4l4.3 14.7c.2.5 1 4.9 1.5 5a7.3 7.3 0 0 0 0-1.1l.3-2.4 1-7.9c1.3-7.8 3.3-15.6 4.4-23.4 2.4-17.7-6.6-32.2-10-48.5-1.7-8-2.8-18.4-1.8-27 .4-2.8 1.8-5.6 2.5-8.4.7-2.8.5-5.9 1-8.7l-13.1 13ZM42 73.5h2l4-.6a56 56 0 0 0 11.3-2.8c11-4 20.7-11 31.6-15 32.5-11.8 65.4 4.2 97.8-10.4a53 53 0 0 0 18.5-11.5l6-7-2-.4-4.3-1.1a110.1 110.1 0 0 0-13.3-1.8c-13.7-1.4-26.7-1-40.7.1-16 1.2-33.7.5-49.6 5.8-23.8 8-43.2 27.4-61 44.7-.4 0-.5.2-.4.4l.4-.4Zm142.5-10.4c.5-.2-.7.8-1 1.3l-1.5 2.4a67.7 67.7 0 0 0-4.2 8.4 62.9 62.9 0 0 0-5.1 28.2c.6 10.5 5.4 20 9.5 29.2 5 11.2 9.8 22.4 15.2 33.3 3.2 6.4 7.5 13.1 9.5 20.1a55.8 55.8 0 0 1 1.7 8l.2 2.4c0 .5 0 1.8.2 1.4 1.8-4.7 1.3-10.4 3-15.3 4.5-13 13.2-25.4 11.8-39.2-.8-8-4.6-15.3-8-22.2-5.2-10.8-11-21.4-15.5-32.6-4-10.3-4.2-19-2.6-30.3.4-3.2 1.5-6.2 2.2-9.4 0-.3.7-2.6.5-2.8-.4-.4-3.3 2.7-3.6 3-4 3.6-7.5 8.6-10.6 12.9l-1.8 1.2Zm-7.2 5.5c-.2.2-7-1.2-7.4-1.2-5.4-.4-11 .1-16.4.6-17.2 1.3-32 5.7-48.2 13.3-25.3 12-46.8 29-70.3 44.4-14.2 9.3-27.6 19.2-44.3 21 1.8.7 6 0 7.9-.1 6.9-.7 13.8-2.3 20.7-2.7 18.8-1.1 38.2-3.3 56.4-10.7 20-8.1 37.8-21.6 56.2-32.8 4.6-2.8 9.3-5.6 14.3-7.3 5.9-2 11.9-2.8 17-6.9 4-3 5.9-7.6 8.5-11.5l5.6-6Zm-7.9 175c-.6 1.6-1 3.2-.6 4.2.3 1 .5-2.3.6-3.4v-.8l2.6-6.5c3-9 6.2-18.5 7.5-27.6 2-15.7-3-29-6-43.5-2.1-10.2-1.9-20.8-3.7-31-1.5-8.3-4.9-16.4-5.8-24.7-.4-3-.5-6.1-.8-9.1l-.4-3.1c0-.5.4-2 0-1.6-1.1 1-2 4.8-2.7 6-2.9 5.7-5.6 11.2-8.1 16.9l-2.9 2.6c-1-.8-.7 2.6-.9 4a70.3 70.3 0 0 0-.7 7.1 66 66 0 0 0 3 22c6.5 21.3 15 40.9 17.8 63.6a159.3 159.3 0 0 1 1.3 19c0 2 0 3.9-.2 5.8ZM160 98.8l-2.6 3.5a115.3 115.3 0 0 1-11 10.7 139.3 139.3 0 0 1-24.7 18.7c-9 5-18.8 8.2-28 12.5-6.9 3-13.8 6.2-20 10.6a122.2 122.2 0 0 0-29.7 32c-6.1 9-10.1 19.1-15.8 28.4-2.5 4-5.9 7.4-9 11 .4 0 2-1.5 2.3-1.7l6.8-5.3a266.7 266.7 0 0 1 27.4-19c10.4-6.1 21-12.4 31.7-18 17.4-9.3 37.2-19.3 49.6-35.5 4.4-5.7 6.4-12.3 9-18.7 2.7-7 6-13.8 9-20.7l5-8.5.2-.3-.2.3Zm-22 59.5-1.5 2.6a54 54 0 0 1-9.9 11.4c-13.8 12.8-31 21.5-47.1 30.6-26.5 14.9-45 41.1-59.7 66.8-5.7 10-10.2 20.7-16.4 30.6.6 0 2.2-1.3 2.6-1.6a89.3 89.3 0 0 0 8.2-7.2c10.4-9.6 20.2-19.7 30.5-29.2A100.9 100.9 0 0 1 68.3 246c12.6-6.3 26.8-11.6 37.2-21.6 5-4.9 8.2-10.8 11.6-16.7a226.8 226.8 0 0 0 12.9-24.4c-2.8 8.4-4.4 18.4-9 26l-.9 2.1c-.2 0-2 7.2-2 7.6a128 128 0 0 0-5.2 24.6c-1 10.9 1.5 21.4 2.9 32 1.2 9.4 1.5 19 2 28.4a62 62 0 0 1-4.6 34.6c2.8-1.7 3.6-4.9 5-8.3 3-6.6 6-13.3 8.6-20 6.2-16.3 8.3-32.8 12-49.4 1.7-7.7 4.8-15.3 6.3-23.1a68.1 68.1 0 0 0 .3-23c-1.5-9.4-7.6-16.8-9-26.2a88.2 88.2 0 0 1-1-11l-.7-6a1 1 0 0 0-.5.5c.3-1.7.3-3.6 1.2-5.2l2.6-8.5c.4-.8.6-1.4.4-1.4l-.4 1.4Zm-32 75.4c-.1-.2-2.6.8-2.8.9a62.4 62.4 0 0 0-9.1 4c-10.2 6.2-16.3 18.8-22.8 28-22.5 31.7-11 72-32.9 103.8.2 0 1.7-1.2 1.8-1.3 2-1.3 3.8-2.8 5.7-4.3a68.9 68.9 0 0 0 21-24.8c10.7-22.6 18.2-46.2 27.4-69.2 3-7.6 7.8-14.5 10.7-22.1 2.7-7.5 4-15.2 6.9-22.6l-5.9 7.6Z" data-name="Path 412"/></defs><defs><clipPath id="clip-path"><use xlink:href="#Path_412" data-name="Path 412"/></clipPath><clipPath id="clip-Bladeren_3_"><path d="M0 0h549v396H0z"/></clipPath><style>.cls-5{fill-rule:evenodd;fill:#f9e2d2}</style></defs><g id="Bladeren_3_" clip-path="url(#clip-Bladeren_3_)" data-name="Bladeren [3]"><g id="No_Dodos__Blad_2" data-name="No Dodos [_Blad 2" transform="rotate(42 166.3 378)"><use xlink:href="#Path_412" id="Path_370" fill-rule="evenodd" data-name="Path 370" transform="translate(-1.7 27.9)"/><g id="Group_28" clip-path="url(#clip-path)" data-name="Group 28" transform="translate(-1.7 27.9)"><path id="Path_371" d="M74.9-4.2a39.8 39.8 0 0 1-4.6 9.4 46 46 0 0 1-6.6 8.3c-3.5 3.3-7.4 6-11 9L50 25a95.9 95.9 0 0 0-11.2 13.5 142.3 142.3 0 0 0-9 14.9 106.5 106.5 0 0 0-6.8 16 122.7 122.7 0 0 0-4.2 16.7c-1.5 8.3-2.4 16.9-4.2 25.3a89.4 89.4 0 0 1-2.8 10.8 58.8 58.8 0 0 1-7 13.5C.6 142.1-4.4 148.1-9 154.1a.4.4 0 0 1-.5.2.3.3 0 0 1 0-.5c4.4-6.1 9.4-12.1 13.6-18.5a58 58 0 0 0 6.6-13.3 88.8 88.8 0 0 0 2.8-10.7c1.7-8.4 2.5-17 4-25.2a123.2 123.2 0 0 1 4.3-17 106 106 0 0 1 7-16.3 139.6 139.6 0 0 1 9.1-15 95.7 95.7 0 0 1 11.5-13.6l2.6-2.4c3.7-3 7.6-5.7 11-8.9a45.4 45.4 0 0 0 6.6-8 39.8 39.8 0 0 0 4.5-9.2.4.4 0 0 1 .5-.3.3.3 0 0 1 .2.4Z" class="cls-5" data-name="Path 371" transform="translate(40.7 224.8)"/><path id="Path_372" d="m47.1-2.3-1 .9C45-.2 43.8 1.2 42.5 2.3c-2.3 1.9-4.8 3.6-7.2 5.4l-3 2.4A92.6 92.6 0 0 0 23 20a140 140 0 0 0-8 10.8 61 61 0 0 0-3.3 5.6L7.3 45-.3 59.7-3.5 66a.4.4 0 0 1-.4.3.3.3 0 0 1-.2-.5l3-6.4 7.4-14.8c1.4-3 2.7-6 4.2-8.8A57.8 57.8 0 0 1 14 30a134.6 134.6 0 0 1 8.2-10.8 92 92 0 0 1 9.5-9.8q1.4-1.3 3-2.4c2.5-1.8 5-3.5 7.3-5.4 1.3-1 2.5-2.4 3.8-3.5l1-1a.4.4 0 0 1 .5.1.4.4 0 0 1 0 .5Z" class="cls-5" data-name="Path 372" transform="translate(59.4 234.1)"/><path id="Path_373" d="M72.2-4A20 20 0 0 1 70-.6l-3.7 4.5c-3.7 4.3-7.7 8.5-11.6 12.7L52 19.7a138.5 138.5 0 0 0-12.2 17 186.3 186.3 0 0 0-9.7 18.1 58.1 58.1 0 0 0-4.4 14.4c-1.4 7.3-1.7 14.7-2.8 22.1a82.1 82.1 0 0 1-3.1 13.1 86.3 86.3 0 0 1-5.2 12.7 51.8 51.8 0 0 1-8 11.2c-4.7 5.1-10.1 9.7-15 14.5a.4.4 0 0 1-.4 0 .3.3 0 0 1 0-.4c4.7-4.9 10-9.5 14.7-14.6a50.6 50.6 0 0 0 7.7-11 85.2 85.2 0 0 0 5-12.6 81.2 81.2 0 0 0 3-12.9c1-7.5 1.4-14.9 2.8-22.2A59 59 0 0 1 29 54.4a184 184 0 0 1 9.9-18.3 137.8 137.8 0 0 1 12.3-17l2.9-3.2c3.8-4.2 7.8-8.3 11.5-12.6l3.8-4.4a20.3 20.3 0 0 0 2.1-3.1.4.4 0 0 1 .5-.2.3.3 0 0 1 .2.5Z" class="cls-5" data-name="Path 373" transform="translate(38.5 238)"/><path id="Path_374" d="m56-2.8-4 4.7-9.4 11.5C37.7 19 33 24.5 29 30.4A73.5 73.5 0 0 0 22 43a73.8 73.8 0 0 0-4 11.6c-1.2 4.7-2 9.4-2.9 14-.9 4.8-1.8 9.6-3.2 14.2a125.4 125.4 0 0 1-8 20.5 213.5 213.5 0 0 1-11 19.3.4.4 0 0 1-.4.1.3.3 0 0 1-.1-.4A211.6 211.6 0 0 0 3 102.9a123.6 123.6 0 0 0 7.7-20.3c1.3-4.6 2.2-9.3 3.1-14 .9-4.7 1.7-9.4 3-14.1a75.5 75.5 0 0 1 4-12A73.5 73.5 0 0 1 28 30c4.1-6 9-11.4 13.8-17.1l9.5-11.3 4.2-4.8a.4.4 0 0 1 .5 0 .4.4 0 0 1 0 .5Z" class="cls-5" data-name="Path 374" transform="translate(54 247)"/><path id="Path_375" d="M37.2-1.6a.1.1 0 0 1-.1 0l-.2.2A136.4 136.4 0 0 0 26.5 11a70.1 70.1 0 0 0-4.2 6.2 52.2 52.2 0 0 0-4.5 10A142.4 142.4 0 0 0 14 42c-.8 3.3-1.5 6.7-2.5 10a147 147 0 0 1-7 18.6A184.7 184.7 0 0 1-5 88.4a.4.4 0 0 1-.5.1.3.3 0 0 1 0-.4 190.1 190.1 0 0 0 8.9-17.9 146.7 146.7 0 0 0 6.7-18.5L13 41.2a176 176 0 0 1 2.6-10.7 56.9 56.9 0 0 1 5.9-13.8 70.7 70.7 0 0 1 4.3-6.2c2.4-3 4.9-6 7.5-8.8L36-1.5a4 4 0 0 1 .9-.7.5.5 0 0 1 .4 0 .4.4 0 0 1 .2.4.5.5 0 0 1-.3.3Zm-.1 0a1.2 1.2 0 0 0-.2 0 .5.5 0 0 0 .2 0Z" class="cls-5" data-name="Path 375" transform="translate(62.2 268.3)"/><path id="Path_376" d="M127.5-7.2a7.7 7.7 0 0 0-2.3 2.1c-1.7 2-3.2 4.8-4.5 6.2a101.6 101.6 0 0 1-8.2 8c-2.9 2.6-5.9 5-8.9 7.3C91 25.5 77.1 32.2 64.2 40.6a109.9 109.9 0 0 0-15.6 12.2 157 157 0 0 0-19 22.1A455.8 455.8 0 0 0 11 103.4C5 113-1 122.8-7.6 131.9a.4.4 0 0 1-.5.1.3.3 0 0 1 0-.5c6.4-9.1 12.3-18.8 18.2-28.6 5.9-9.7 11.8-19.4 18.4-28.6a157.5 157.5 0 0 1 19.2-22.4 111.1 111.1 0 0 1 15.9-12.3c12.9-8.4 26.9-15 39.5-24 3-2.2 6-4.6 8.9-7.1a101.2 101.2 0 0 0 8-8c1.4-1.3 3-4 4.6-6a8.8 8.8 0 0 1 2.6-2.3.4.4 0 0 1 .5.1.4.4 0 0 1-.2.5Z" class="cls-5" data-name="Path 376" transform="translate(9.5 171.8)"/><path id="Path_377" d="M125.2-7.3a.5.5 0 0 1 .2-.4.4.4 0 0 1 .5.1.5.5 0 0 1 0 .5 2.9 2.9 0 0 1-.4.7c-.8 1-2.3 2.4-2.5 2.6l-5.4 6a63.4 63.4 0 0 1-3.9 3.8 51.7 51.7 0 0 1-5.9 4.5c-3 2-6.2 4-9.3 5.8-8.3 5.1-16.8 9.7-25 14.7-3.6 2.1-7 4.3-10.5 6.7a99.6 99.6 0 0 0-15.7 13.9c-3.6 3.9-7 8-10.1 12a914.2 914.2 0 0 0-23.7 33.8l-21 32.1a.4.4 0 0 1-.5.2.3.3 0 0 1 0-.5c6.9-10.7 13.6-21.5 20.6-32.2a901.1 901.1 0 0 1 23.6-34 169 169 0 0 1 10.2-12.2 100.4 100.4 0 0 1 16-14C66 34.2 69.4 32 73 30c8.3-5 16.9-9.5 25.1-14.5 3.2-1.9 6.4-3.7 9.4-5.7a52.4 52.4 0 0 0 5.8-4.4 69 69 0 0 0 3.8-3.8l5.5-6a31 31 0 0 0 2.7-2.8v-.1Z" class="cls-5" data-name="Path 377" transform="translate(8.8 180.5)"/><path id="Path_378" d="M106.8-6A50.7 50.7 0 0 1 98 .3C93.4 3 88.4 5.1 83.8 7.5A139.1 139.1 0 0 0 61 22.3a181 181 0 0 0-18.9 17 332 332 0 0 0-26.9 32.8 673.5 673.5 0 0 0-21 31.7.4.4 0 0 1-.5.1.3.3 0 0 1-.1-.5 649 649 0 0 1 20.7-31.9 312.2 312.2 0 0 1 27-33 178.8 178.8 0 0 1 19-17.2c3.7-2.7 7.4-5.4 11.3-7.9a136.4 136.4 0 0 1 11.8-6.8c4.7-2.3 9.6-4.5 14.3-7a48.7 48.7 0 0 0 8.7-6 .4.4 0 0 1 .5 0 .4.4 0 0 1 0 .4Z" class="cls-5" data-name="Path 378" transform="translate(18 197.2)"/><path id="Path_379" d="M80.2-4.4a3 3 0 0 1-1.1.7l-2.4.7A148.6 148.6 0 0 0 69.3.4c-4.2 2-8.3 4-12.4 6.4a137.5 137.5 0 0 0-11.8 7.4A136.2 136.2 0 0 0 28 29 169.4 169.4 0 0 0 6.3 55c-3.6 5.2-7 10.5-10 15.9a.4.4 0 0 1-.6.1.3.3 0 0 1 0-.4 243.3 243.3 0 0 1 21-31.3c3.3-4 6.7-7.7 10.3-11.3a133.2 133.2 0 0 1 17.5-14.7A142.2 142.2 0 0 1 69-.5a161.6 161.6 0 0 1 7.5-3.2l2.4-.7a2.2 2.2 0 0 0 .7-.4.4.4 0 0 1 .6 0 .4.4 0 0 1 0 .4Z" class="cls-5" data-name="Path 379" transform="translate(41.3 207.3)"/><path id="Path_380" d="M56-2.7A118.7 118.7 0 0 0 36.6 7.6a158.4 158.4 0 0 0-23.2 18.3q-4.1 3.7-8 7.7L-2 41.8a.4.4 0 0 1-.5.1.3.3 0 0 1 0-.5c2.3-2.8 4.7-5.6 7.3-8.4l7.8-8A161 161 0 0 1 24 15.3a145.4 145.4 0 0 1 12.2-8.6A116.3 116.3 0 0 1 55.8-3.4a.3.3 0 0 1 .5.2.4.4 0 0 1-.3.5Z" class="cls-5" data-name="Path 380" transform="translate(61.8 212)"/><path id="Path_381" d="M41.7-2.4a.4.4 0 0 1 .5-.1.4.4 0 0 1 0 .5 2.6 2.6 0 0 1-1 .6c-1 .5-2.9 1-3.4 1.3a86.2 86.2 0 0 0-11.3 6.6A124.8 124.8 0 0 0 12.1 18l-6.8 6-6.6 6.4a.4.4 0 0 1-.5 0 .3.3 0 0 1 0-.4 281 281 0 0 1 16-15.6l4.5-3.8q3.5-2.6 7.3-5A101.2 101.2 0 0 1 37.6-1l3-1a8.9 8.9 0 0 0 .9-.4l.2-.1Zm0 0Z" class="cls-5" data-name="Path 381" transform="translate(73.3 217.3)"/><path id="Path_382" d="M133.8-7.7a17 17 0 0 1-2.3 2.7c-2 2-4.3 3.7-6 5.5a93.2 93.2 0 0 1-20.7 16.2c-8.7 5.2-18 9.4-27 14-9 4.5-17.9 9.3-26 15.6A154.1 154.1 0 0 0 40 56.5a102.5 102.5 0 0 0-10.4 11.6c-6 7.9-10.8 16.6-16.3 24.8q-2.1 3.2-4.4 6.1a65.7 65.7 0 0 1-5.8 6.6c-3 3.1-6.4 6-9.7 8.9a.4.4 0 0 1-.5 0 .4.4 0 0 1 0-.5 164 164 0 0 0 9.7-9 67.6 67.6 0 0 0 5.6-6.5c6-7.9 10.6-16.7 16.1-25l4.3-6a104.7 104.7 0 0 1 10.6-11.9 153.7 153.7 0 0 1 12-10.3c8-6.4 17-11.2 26.1-15.7 9.1-4.5 18.3-8.6 27-13.7A91.7 91.7 0 0 0 125 0c1.7-1.8 4-3.6 6-5.5a17 17 0 0 0 2.3-2.6.4.4 0 0 1 .5-.1.4.4 0 0 1 0 .5Z" class="cls-5" data-name="Path 382" transform="translate(19.8 118.6)"/><path id="Path_383" d="m107.3-5.8-1 .8-3 1.7-4.6 2.8L93.9 2l-17 8.7-11.3 5.9c-5.8 3-11.8 6.2-17.5 9.7A99.3 99.3 0 0 0 37 34a130.7 130.7 0 0 0-18.7 19 465 465 0 0 0-23 32.9.4.4 0 0 1-.5.2.3.3 0 0 1-.1-.5c7-11 14.4-22.5 22.8-33a147 147 0 0 1 10.8-12.2c2.6-2.5 5.3-5 8-7.3a100 100 0 0 1 11.2-7.8 1289.5 1289.5 0 0 1 29-15.5l17-8.5Q96 .1 98.3-1.3l4.7-2.6 3-1.8 1-.7a1.1 1.1 0 0 1 .5-.2.4.4 0 0 1 .4.1.5.5 0 0 1 0 .5.4.4 0 0 1-.5.2Zm-.1-.4Z" class="cls-5" data-name="Path 383" transform="translate(37.6 133.4)"/><path id="Path_384" d="M95.8-5.4h.1c1.7-.7 2.3-.8 2-.5.2.2-.2.5-1.6 1.1h-.1l-1.6.8L92-2.5 86.1.7l-2.5 1.4a262 262 0 0 1-5 2.6C72 8 65.2 11 58.6 14.5a149.2 149.2 0 0 0-18 11.3q-4.4 3.1-8.5 6.5l-8 7A196.6 196.6 0 0 0 9.3 54.9q-7 8-13.1 16.8a.4.4 0 0 1-.5.2.3.3 0 0 1-.1-.5 222 222 0 0 1 13-17.1 188 188 0 0 1 14.7-15.7 170.6 170.6 0 0 1 16.6-13.8A147.6 147.6 0 0 1 58 13.5l5-2.5c6.7-3.3 13.5-6.3 20.1-9.7A70 70 0 0 0 85.7 0l5.9-3.2 2.7-1.5 1.5-.7Z" class="cls-5" data-name="Path 384" transform="translate(45.4 140.5)"/><path id="Path_385" d="M91.3-5a3.6 3.6 0 0 1-1.1.7l-2.5 1-2.2 1L80.2.6c-7.5 3.8-15.3 7-23 10.7a167 167 0 0 0-9.6 5A119.3 119.3 0 0 0 33 25.9a145.2 145.2 0 0 0-13.4 11.6 185.8 185.8 0 0 0-22.9 27 .4.4 0 0 1-.5.1.3.3 0 0 1 0-.5 232.8 232.8 0 0 1 22.6-27.4A138.6 138.6 0 0 1 32.2 25a117 117 0 0 1 15-9.8c3.1-1.8 6.4-3.4 9.7-5 7.6-3.5 15.4-6.6 23-10.4L85.2-3a95 95 0 0 1 2.2-1L90-5a2.8 2.8 0 0 0 .9-.5.4.4 0 0 1 .5 0 .4.4 0 0 1 0 .5Z" class="cls-5" data-name="Path 385" transform="translate(48.1 148)"/><path id="Path_386" d="M72.8-3.8A22.8 22.8 0 0 0 67.2-2C63-.1 58.3 2.8 54.7 4.5a167.8 167.8 0 0 0-18.6 10.7q-6 4-11.8 8.4t-11.1 9.2q-8 7-15.6 15a.4.4 0 0 1-.5.1.3.3 0 0 1 0-.5c5-5.4 10-10.6 15.4-15.4q5.4-5 11.1-9.4c3.8-3 7.8-5.8 11.9-8.4A163 163 0 0 1 54.4 3.6C58 2 62.6-.9 67-2.8a23.1 23.1 0 0 1 5.8-1.7.3.3 0 0 1 .3.3.4.4 0 0 1-.3.4Z" class="cls-5" data-name="Path 386" transform="translate(61.7 154)"/><path id="Path_387" d="m54.3-2.6-.4.2-.6.2-1 .3a111.4 111.4 0 0 0-9.8 4.5 200.7 200.7 0 0 0-19.2 11.6A261.2 261.2 0 0 0 7 25.9a148 148 0 0 0-8.5 7.3.4.4 0 0 1-.5 0 .4.4 0 0 1 0-.5q4-4 8.4-7.6a166 166 0 0 1 8.9-6.9q3.6-2.6 7.4-5a258.2 258.2 0 0 1 24.9-14A50 50 0 0 1 53-3a6 6 0 0 1 .7-.2l.7-.2a.7.7 0 0 1 .3 0 .3.3 0 0 1 .2.3.4.4 0 0 1 0 .3.4.4 0 0 1-.6.2Zm0-.5Zm0 .5h.2-.1Z" class="cls-5" data-name="Path 387" transform="translate(76.8 159)"/><path id="Path_388" d="M.5 0a1 1 0 0 1 .6.6A5.7 5.7 0 0 1 1.6 2c.4 1.7.6 4.1.8 4.7a123 123 0 0 0 6 19 262.3 262.3 0 0 1 11.4 34.7c1 4.8 2 9.6 2.7 14.5a136.2 136.2 0 0 1 1.2 22.6c0 3-.4 6-.8 8.9l-2 13.3a.4.4 0 0 1-.4.3.3.3 0 0 1-.3-.4c.5-4.5 1.3-8.8 1.8-13.2a85.4 85.4 0 0 0 .7-8.8 137.6 137.6 0 0 0-1.5-22.4 175.6 175.6 0 0 0-6.5-28.5c-2.2-7-4.6-14-7.3-20.6A130.8 130.8 0 0 1 1.5 6.9c-.1-.5-.3-3-.7-4.7A5.3 5.3 0 0 0 .4 1C.4.8.3.7.2.7A.3.3 0 0 1 0 .3.4.4 0 0 1 .5 0Z" class="cls-5" data-name="Path 388" transform="translate(147.5 133.4)"/><path id="Path_389" d="M.7.1a9.6 9.6 0 0 1 1 2.6c.6 2.1.9 4.6 1.4 6.4l2 6.5 3.4 9.7c.8 2.3 1.5 4.5 2 6.8 1.5 5.4 2.6 10.8 4 16.1 1.4 4.8 2.8 9.6 4 14.6a152 152 0 0 1 3.2 14.9 112 112 0 0 1 1.8 20.5 49.2 49.2 0 0 1-1 8.7c-1.3 6.6-3.4 13.1-4.2 19.8a.4.4 0 0 1-.4.3.3.3 0 0 1-.3-.3c.7-6.7 2.7-13.3 4-19.9a50.3 50.3 0 0 0 .8-8.4 114.2 114.2 0 0 0-2-20.3 311 311 0 0 0-7.1-29.4c-1.4-5.4-2.5-10.8-3.8-16.2a74 74 0 0 0-2-6.7L4.3 16l-2-6.5C1.8 7.6 1.6 5.2 1 3A8.8 8.8 0 0 0 0 .6.4.4 0 0 1 .2 0a.4.4 0 0 1 .5 0Z" class="cls-5" data-name="Path 389" transform="translate(151 125.7)"/><path id="Path_390" d="M.8.5v.3c.3.4.8.8 1 1.2l.7 2L4 8.2c1.8 5.4 3.8 10.7 5.7 16a161.2 161.2 0 0 1 7.1 25.6c1.5 7.5 2.6 15.2 3.7 22.7.8 5.8 1.7 11.6 2.1 17.5a76.9 76.9 0 0 1 0 12 70.5 70.5 0 0 1-1.7 9.5c-1.1 4.7-2.6 9.5-4 14a.4.4 0 0 1-.4.3.3.3 0 0 1-.2-.4c1.3-4.5 2.7-9.3 3.7-14a70.7 70.7 0 0 0 1.5-9.4 76.5 76.5 0 0 0 0-11.7c-.5-6-1.4-11.7-2.3-17.4-1.1-7.6-2.2-15.2-3.6-22.7a170 170 0 0 0-6.9-25.6l-5.6-16-1.4-4.4A58 58 0 0 0 1 2.4a3 3 0 0 0-.5-.8A2 2 0 0 1 0 1a.9.9 0 0 1 0-.8.4.4 0 0 1 .7-.2.4.4 0 0 1 0 .5Z" class="cls-5" data-name="Path 390" transform="translate(153.2 119)"/><path id="Path_391" d="M.8.5v.1a9.4 9.4 0 0 1 .4 1l.5 2c0 .5.2.9.3 1.3a257.2 257.2 0 0 0 3 9.5c2 5.8 4 11.5 5.6 17.4 1.1 3.9 2.1 7.8 3 11.8 1.3 6.1 2.9 12.3 4.3 18.6 1 4.2 2 8.4 2.6 12.6a91.6 91.6 0 0 1 1.3 21.7 120 120 0 0 1-1.1 10.3 65.2 65.2 0 0 1-1.6 7c-1.3 4.6-3 9-4.4 13.6a48.2 48.2 0 0 0-1.4 6 .4.4 0 0 1-.4.3.3.3 0 0 1-.3-.4 47.7 47.7 0 0 1 1.3-6c1.3-4.6 3-9 4.3-13.7a63.2 63.2 0 0 0 1.4-6.8c.5-3.4.8-6.8 1-10.2a91.5 91.5 0 0 0-1.4-21.4 235 235 0 0 0-2.5-12.5C15 56.4 13.6 50 12.3 44c-.8-4-1.8-8-2.8-11.8A365.2 365.2 0 0 0 2.9 11L1.3 5.2.9 4 .5 2 0 1a1 1 0 0 1 0-.7.5.5 0 0 1 .2-.3.5.5 0 0 1 .5 0 .4.4 0 0 1 .1.6Zm0-.1H.6Z" class="cls-5" data-name="Path 391" transform="translate(156.4 111.2)"/><path id="Path_392" d="M.7.2a31.7 31.7 0 0 0 .8 4.6c.8 3.4 2.1 6.8 3 10.2a267 267 0 0 0 5.7 18.3l1.9 5.8 3 8.7 3 8.7a.4.4 0 0 1-.3.4.3.3 0 0 1-.5-.1l-4.6-12.2a570.8 570.8 0 0 1-6.5-19c-1-3.4-2-6.8-2.8-10.2-.7-2.9-1.7-5.8-2.4-8.8A35.4 35.4 0 0 1 0 .4.4.4 0 0 1 .3 0a.3.3 0 0 1 .4.3Z" class="cls-5" data-name="Path 392" transform="translate(159 102)"/><path id="Path_393" d="M5.2.3a.5.5 0 0 1 0-.1.4.4 0 0 1 .3-.5.6.6 0 0 1 .4 0 .4.4 0 0 1 .2.3 1 1 0 0 1-.2.6l-.7 1.1-.8 2-.6 1.9c-.5 1.3-.8 2.7-1.2 4l-1.3 6.1A111 111 0 0 0-1 32.5 57.5 57.5 0 0 0 .3 48.8 75.4 75.4 0 0 0 4.6 61c2.6 6 5.7 11.7 8.5 17.5 1.7 3.7 3.3 7.4 4.8 11.2 2.2 5.7 4.3 11.4 6.3 17.2 1.1 3.2 2.5 6.3 3.7 9.5.5 1.3 1 2.7 1.3 4.2a30 30 0 0 1 .9 5.8c.2 4.6-.2 9.1 0 13.8a.4.4 0 0 1-.3.4.3.3 0 0 1-.4-.2c-.3-4.7.1-9.3-.2-13.8a30.3 30.3 0 0 0-1-5.7c-.3-1.4-.8-2.7-1.3-4-1.2-3.3-2.6-6.3-3.8-9.5a316.6 316.6 0 0 0-11.2-28.2c-2.8-5.8-6-11.6-8.5-17.5A75.7 75.7 0 0 1-.8 49.2 58.3 58.3 0 0 1-2 32.6a111.9 111.9 0 0 1 2.4-17l1.4-6.1a50.3 50.3 0 0 1 1.9-6l.7-2L5.2.4Z" class="cls-5" data-name="Path 393" transform="translate(179 64.6)"/><path id="Path_394" d="M7 .1a27.7 27.7 0 0 0-2.6 6.1C3.4 9.5 2.6 13 1.9 16a103 103 0 0 0-3.2 25.7A67.6 67.6 0 0 0 3 66c3.4 8.5 8.7 15.9 12.6 24a63.6 63.6 0 0 1 2.7 6.4 120.1 120.1 0 0 1 5.1 21c1.7 10.8 2.4 21.8 3.2 32.8a.4.4 0 0 1-.3.4.3.3 0 0 1-.4-.3c-1-10.9-1.7-21.9-3.6-32.6A119.5 119.5 0 0 0 17.2 97c-.8-2.1-1.7-4.2-2.7-6.2-4-8.2-9.2-15.6-12.6-24.1a68.4 68.4 0 0 1-4.3-24.9 103.6 103.6 0 0 1 3.4-26c.8-3 1.5-6.4 2.6-9.7A28.8 28.8 0 0 1 6.3-.2a.4.4 0 0 1 .5-.2.3.3 0 0 1 .1.5Z" class="cls-5" data-name="Path 394" transform="translate(184.8 54.9)"/><path id="Path_395" d="M7.6 0a90.5 90.5 0 0 0-8.9 38.6A105 105 0 0 0 5.3 76a109.6 109.6 0 0 0 5 11.3c2 3.7 3.9 7.4 5.6 11.2a63 63 0 0 1 3.6 10.2 55.4 55.4 0 0 1 1.6 13.5c0 10.5-2 21.4-1.4 31.9a.4.4 0 0 1-.4.4.3.3 0 0 1-.4-.3c-.6-10.5 1.2-21.3 1-31.9a54 54 0 0 0-1.5-13.2 62.9 62.9 0 0 0-3.7-10C13 95.3 11 91.7 9.2 88A105.6 105.6 0 0 1 4 76.5a105.7 105.7 0 0 1-6.3-37.7 91.6 91.6 0 0 1 9.2-39 .4.4 0 0 1 .5-.2.3.3 0 0 1 .2.5Z" class="cls-5" data-name="Path 395" transform="translate(189.2 47.6)"/><path id="Path_396" d="M8 0v-.2a.5.5 0 0 1 0-.2.6.6 0 0 1 .4-.1.3.3 0 0 1 .3.2.3.3 0 0 1 0 .3l-.3.6-.6 1.2-.9 1.7-.7 1.7-2.4 5.9-2 6a73.2 73.2 0 0 0-3 17.5A82.2 82.2 0 0 0 .2 52c.7 4.1 1.4 8.3 2.4 12.3a77 77 0 0 0 2.2 8c3 8.3 6.5 16.2 9.3 24.5a88.2 88.2 0 0 1 4 17.3 68.9 68.9 0 0 1 .1 14.7c-1 11.4-3.9 23-4.2 34.2a.4.4 0 0 1-.3.4.3.3 0 0 1-.4-.3c.2-11.2 3-22.9 3.9-34.3a67.6 67.6 0 0 0-.2-14.4 90.3 90.3 0 0 0-4.2-17C10 89 6.4 81 3.5 72.7a77 77 0 0 1-2.3-8A196 196 0 0 1-1 52.1a82.5 82.5 0 0 1-1-17.5 73.5 73.5 0 0 1 3-17.7l2-6 2.4-6 .8-1.7.9-1.7.6-1.2A2.8 2.8 0 0 1 8 0Zm.6.2ZM8-.1a.8.8 0 0 1 0-.1v.1Z" class="cls-5" data-name="Path 396" transform="translate(194 41.3)"/><path id="Path_397" d="M3.6.2C3 2.8 2 5.2 1.4 7.7A27 27 0 0 0 .6 11a79 79 0 0 0-1 13.2 94.3 94.3 0 0 0 1 13c1.3 9.3 4.2 18.1 7 27 2 5.8 4 11.7 5.4 17.7a98 98 0 0 1 2.2 11.6 69 69 0 0 1-.3 17.2c-1.8 13.3-6.1 26.9-7.6 40a.4.4 0 0 1-.4.4.3.3 0 0 1-.3-.4c1.3-13.1 5.5-26.7 7.1-40a68 68 0 0 0 .2-16.9 97.4 97.4 0 0 0-2.2-11.4c-1.5-6-3.4-11.9-5.3-17.8-2.8-8.9-5.7-17.7-7-27.2a95.2 95.2 0 0 1-.8-13A81 81 0 0 1-.2 10.8a30.4 30.4 0 0 1 .8-3.3C1.3 5 2.2 2.5 2.8 0a.4.4 0 0 1 .5-.3.3.3 0 0 1 .3.4Z" class="cls-5" data-name="Path 397" transform="translate(200.2 53)"/><path id="Path_398" d="M.8.3a21.4 21.4 0 0 0 .3 7.4A96 96 0 0 0 4.3 18 96.6 96.6 0 0 1 7 28.2a84 84 0 0 1 1.5 10.4 39.3 39.3 0 0 1-.5 8.7 117.2 117.2 0 0 1-3 12.9l-4.3 15c-1 3.4-1.9 6.8-3 10.1a.4.4 0 0 1-.4.3.3.3 0 0 1-.2-.4l2-7.5c1.7-6 3.1-11.8 4.7-17.7a117.3 117.3 0 0 0 3-12.7 37.8 37.8 0 0 0 .4-8.4 84 84 0 0 0-1.4-10.4 93.5 93.5 0 0 0-2.4-10 96.6 96.6 0 0 1-3-10.6A22.4 22.4 0 0 1 0 .3.4.4 0 0 1 .5 0a.3.3 0 0 1 .3.4Z" class="cls-5" data-name="Path 398" transform="translate(212.6 109.5)"/><path id="Path_399" d="M2.9.4a16.3 16.3 0 0 0-1.4 5C1 8 1 10.9.8 13.2c-.4 3.7-1 7.6-1.3 11.4A33.3 33.3 0 0 0-.3 32a39.8 39.8 0 0 0 2 7.6c2 5.7 5 11.2 7 16.8.8 2.5 1.5 5 2.1 7.6l2.7 11.7c.7 3.4 1.7 6.6 2.6 10a66.6 66.6 0 0 1 2 9.1c1 6.3 1.7 12.7 3 18.9a.4.4 0 0 1-.3.4.3.3 0 0 1-.5-.2c-1.3-6.2-2.1-12.5-3.3-18.8a231.3 231.3 0 0 0-2-9c-1-3.3-2-6.6-2.8-10-.9-4-1.7-7.8-2.7-11.6-.6-2.6-1.3-5.1-2.1-7.6-2-5.6-4.9-11.1-6.9-16.8a40.6 40.6 0 0 1-2-7.8 33.9 33.9 0 0 1 0-7.6c.3-3.9 1-7.8 1.4-11.5.3-2.6.4-6 1-9.2a14.5 14.5 0 0 1 1.3-4 .4.4 0 0 1 .5-.1.3.3 0 0 1 .2.5Z" class="cls-5" data-name="Path 399" transform="translate(218.2 23)"/><path id="Path_400" d="M1.5.5A4.3 4.3 0 0 0 1 2.2V5l-.5 5.5c0 1.9-.2 3.7-.3 5.5-.2 4.3-.7 8.8-.8 13.2a41.3 41.3 0 0 0 .5 8.5 32.4 32.4 0 0 0 1.4 5l3 7.2a143 143 0 0 1 5.3 15 144.6 144.6 0 0 1 4.1 18.7 183.4 183.4 0 0 1 2 19.1c.2 5.6 0 11.2.1 16.8l.2 4.1a.4.4 0 0 1-.4.4.3.3 0 0 1-.3-.2l-.2-4.2c-.3-5.6-.2-11.2-.5-16.7a188.2 188.2 0 0 0-2.1-19 145 145 0 0 0-4.2-18.4 183 183 0 0 0-5.2-15l-3-7.3A32.3 32.3 0 0 1-1.2 38a42.2 42.2 0 0 1-.5-8.7c.1-4.4.7-9 1-13.2A281.7 281.7 0 0 1 0 5c0-1 0-2.3.2-3.4A4.2 4.2 0 0 1 .8 0a.4.4 0 0 1 .6-.1.4.4 0 0 1 0 .5Z" class="cls-5" data-name="Path 400" transform="translate(222.7 17)"/><path id="Path_401" d="M1.1.1a1.4 1.4 0 0 1 0 .7 82.1 82.1 0 0 0-.8 8.5c0 4.8-.2 9.7 0 14.5a78.2 78.2 0 0 0 .8 9.4 48.8 48.8 0 0 0 1.4 6.2c2.4 8 6.4 15.6 8 24 .7 3 1.1 6.2 1.5 9.3.5 4.8.8 9.5 1 14.3.2 12-.6 24-1.4 36.1a.4.4 0 0 1-.4.4.3.3 0 0 1-.4-.3c.7-12 1.4-24.1 1-36a171.7 171.7 0 0 0-2.5-23.4c-1.6-8.4-5.6-15.9-8-24A48 48 0 0 1 0 33.5 74.6 74.6 0 0 1-.8 24c0-4.9.1-9.8.3-14.5a84.2 84.2 0 0 1 .4-6.6L.3 1A1.5 1.5 0 0 0 .4.5.4.4 0 0 1 .6 0a.3.3 0 0 1 .5.2Z" class="cls-5" data-name="Path 401" transform="translate(226.9 16)"/><path id="Path_402" d="M2.7 0a2.7 2.7 0 0 1 0 1.2c-.2.8-.5 1.7-.5 2.2l-.8 5.2c-.2.7-.2 1.4-.3 2.2-.7 5-1.4 10-1.7 15a64 64 0 0 0 0 10A49.3 49.3 0 0 0 1 44.1c1.7 6.5 4.4 12.6 6.6 19a61.9 61.9 0 0 1 3.1 13.3 96.3 96.3 0 0 1 .1 17.2c-.5 6.7-1.5 13.4-2.4 20.2-1 6.7-2 13.4-2.3 20.1a.4.4 0 0 1-.4.4.3.3 0 0 1-.3-.4c.3-6.7 1.1-13.4 2-20.1s1.8-13.5 2.2-20.1a94.3 94.3 0 0 0-.2-17 69.9 69.9 0 0 0-4.2-16.2c-1.9-5.3-4-10.5-5.4-16a52.4 52.4 0 0 1-1.4-8.4 65.2 65.2 0 0 1 0-10.1c.4-5 1.1-10.1 1.8-15.2 0-.8.2-1.5.3-2.3l.9-5.1c0-.5.4-1.5.5-2.3a1.9 1.9 0 0 0 0-.7.4.4 0 0 1 .3-.5.3.3 0 0 1 .5.2Z" class="cls-5" data-name="Path 402" transform="translate(231.5 8.2)"/><path id="Path_403" d="M110 .4a7 7 0 0 1-.8-.2l-3-.8c-5.8-.9-11.8-1.9-17.8-2.4a99.8 99.8 0 0 0-12-.5l-4.5.3-6.7 1L47 .7l-7.8 1c-5.2.7-10.5 1.2-15.7 1.4-7.8.4-15.6.5-23.3.7a.3.3 0 0 1-.3-.3.4.4 0 0 1 .4-.4l23.3-1a197.8 197.8 0 0 0 24.7-3l9.1-1.4c2.6-.4 5.3-.8 7.9-1 2.2-.4 4.5-.8 6.7-1a40.4 40.4 0 0 1 4.5-.4 101.5 101.5 0 0 1 12.2.6c6 .7 12 1.7 17.8 2.7l3 .8.8.2a.3.3 0 0 1 .3.4.5.5 0 0 1-.5.4Z" class="cls-5" data-name="Path 403" transform="translate(136.1 -5)"/><path id="Path_404" d="M103.5.3A105.4 105.4 0 0 0 80.7-1c-7 .3-13.9 1-20.9 1.7l-14 1.4c-5.3.4-10.7.7-16.1.9a141.4 141.4 0 0 1-18.3-.8L.2.7A.3.3 0 0 1 0 .3.4.4 0 0 1 .4 0l11.2 1.3a119.4 119.4 0 0 0 18.2.4c5.3-.1 10.7-.5 16-1 4.7-.3 9.4-.8 14-1.2 7-.7 14-1.3 21-1.5a105.4 105.4 0 0 1 23 1.6.3.3 0 0 1 .2.4.5.5 0 0 1-.5.3Z" class="cls-5" data-name="Path 404" transform="translate(135.2 -3)"/><path id="Path_405" d="M86 0v-.1a5 5 0 0 0-1.2-.2H76l-9.3.2-16 .3-10.5.1-8 .1h-8L.4.8A.3.3 0 0 1 0 .3.4.4 0 0 1 .4 0l20-.6a2169.7 2169.7 0 0 1 29.8-.5h32a26.1 26.1 0 0 1 3.6.1c.6.1 1 .4 1 .6a.4.4 0 0 1-.2.5.4.4 0 0 1-.5-.1Zm0 0Z" class="cls-5" data-name="Path 405" transform="translate(148.4 .6)"/><path id="Path_406" d="M67.4 3.7h-1.8a81.6 81.6 0 0 0-6.2.5l-6.4.6-9.4.8a105.6 105.6 0 0 1-13.4.2L25 5.4q-4-.4-7.8-1.2c-4-.7-7.8-1.9-11.8-2.7A47.5 47.5 0 0 0 .3.7.3.3 0 0 1 0 .3.4.4 0 0 1 .4 0a52.5 52.5 0 0 1 5.3.6c4 .8 7.9 1.8 11.9 2.5a106.7 106.7 0 0 0 12.9 1.4 109.6 109.6 0 0 0 13.1-.1l9.5-.6a214.6 214.6 0 0 0 12.5-1l1.9.1a.9.9 0 0 1 .2 0 .3.3 0 0 1 .2.5.4.4 0 0 1-.5.3Zm-.2-.4Zm0 .2a.3.3 0 0 1 0-.2.4.4 0 0 0 0 .2Z" class="cls-5" data-name="Path 406" transform="translate(165.1 -.8)"/><path id="Path_407" d="M170-2.3a6.9 6.9 0 0 1-2.4 0c-1.8-.1-3.6-.7-5-1l-6.7-.8a62.3 62.3 0 0 0-6.7-.3c-5.7 0-11.3.3-17 .4H125c-4.7 0-9.4-.7-14.2-1a68 68 0 0 0-12.6.2c-4.6.3-9.2.9-13.8 1.4L72.3-2a52.2 52.2 0 0 0-8 1.7A54.1 54.1 0 0 0 52.2 5c-5.7 3.4-11 7.6-16.7 11.8-3.5 2.6-7.3 4.9-10.8 7.5a47 47 0 0 0-4.4 3.4c-4.7 4-8.7 8-13.1 11.7a70.4 70.4 0 0 1-9.6 6.9.3.3 0 0 1-.5-.1.4.4 0 0 1 .2-.5 71.4 71.4 0 0 0 9.4-6.8c4.4-3.8 8.4-7.8 13-11.9 1.4-1.3 2.9-2.4 4.4-3.6 3.5-2.6 7.3-4.9 10.8-7.5 5.8-4.3 11-8.5 16.7-12a54.6 54.6 0 0 1 12.5-5.6 53 53 0 0 1 8.2-1.7c4-.5 8.1-.8 12.1-1.2 4.6-.6 9.3-1.1 13.9-1.5a106.5 106.5 0 0 1 12.8-.1c4.7.3 9.3 1 14.1 1.1l7.2.1c5.6 0 11.2-.3 16.9-.3a68.4 68.4 0 0 1 6.8.3l6.7 1c1.4.2 3.2.8 5 1a6.2 6.2 0 0 0 2 0 .3.3 0 0 1 .4.2.4.4 0 0 1-.3.5Z" class="cls-5" data-name="Path 407" transform="translate(40 31.4)"/><path id="Path_408" d="M167.3-4.5v-.1a.4.4 0 0 1 .4-.2.3.3 0 0 1 .4.3.8.8 0 0 1-.6.6 5.8 5.8 0 0 1-1.5.3 18.9 18.9 0 0 1-2.2 0l-3.3-.2a208 208 0 0 0-4.1-.4l-16.7-1a139.4 139.4 0 0 0-15.3-.4c-12 .3-24.1 1.6-36.2 1.5a66 66 0 0 0-29.4 7.2 158 158 0 0 0-25 15.7c-12.1 9-23.9 18.8-36 26.1a.3.3 0 0 1-.6 0 .4.4 0 0 1 .2-.6C9.5 37 21.2 27 33.2 18A155 155 0 0 1 58.3 2a66.9 66.9 0 0 1 30-7.2c12.1.1 24.2-1.1 36.2-1.4a137.1 137.1 0 0 1 15.5.5c5.5.5 11 .8 16.6 1.2l4.1.4 3.2.3a15.7 15.7 0 0 0 2.1 0l1-.2h.3Zm0 0v-.1Zm0 0Z" class="cls-5" data-name="Path 408" transform="translate(39.2 35.4)"/><path id="Path_409" d="M148.7-3.2a.5.5 0 0 1 .3-.3.3.3 0 0 1 .4.3.7.7 0 0 1-.2.5.7.7 0 0 1-.6.2c-.4 0-1.2-.4-1.7-.4l-2.7-.3-1.9-.1a343.5 343.5 0 0 0-13-.4l-24.4-.2c-5.4 0-10.8 0-16.2.2-3.9.2-7.7 0-11.6.2L72-3a104.1 104.1 0 0 0-45.5 17.4 35.7 35.7 0 0 0-4 3.2c-3 2.8-5.6 5.9-8.7 8.5a69 69 0 0 1-6.1 4.5c-3.1 2.2-6.4 4.1-9.6 6.1a.3.3 0 0 1-.4 0 .4.4 0 0 1 .1-.5c3.2-2 6.4-4 9.5-6.2a70.5 70.5 0 0 0 6-4.6c3-2.6 5.6-5.7 8.5-8.5a36.7 36.7 0 0 1 4.1-3.4A103.1 103.1 0 0 1 72.1-4.4l5-.4 11.7-.1a456 456 0 0 1 16.3-.1c8 0 16.2.3 24.2.4a243.7 243.7 0 0 1 17.8.9c.4 0 1.1.4 1.6.5Z" class="cls-5" data-name="Path 409" transform="translate(50.9 40.1)"/><path id="Path_410" d="M138-4.5a.4.4 0 0 1 .4 0 .3.3 0 0 1 .3.4.5.5 0 0 1-.3.3 1.2 1.2 0 0 1-.4.1l-3.2.2-10.2.4a986.5 986.5 0 0 1-44.4.7L66-2.7a85.3 85.3 0 0 0-9.5.6 53.8 53.8 0 0 0-8.3 1.8C44 1 39.9 2.6 35.9 4.2L28.5 7a40 40 0 0 0-4.8 2.3c-7 4.1-13 10-19.6 14.6a50.5 50.5 0 0 1-5.3 3.3.3.3 0 0 1-.5-.2.4.4 0 0 1 .2-.4 50 50 0 0 0 5.2-3.3c6.6-4.7 12.5-10.7 19.6-14.9A41.3 41.3 0 0 1 28 6l7.4-3C39.6 1.5 43.8-.1 48-1.4a54.7 54.7 0 0 1 8.5-1.8 84 84 0 0 1 9.6-.7c4.8 0 9.5.2 14.2.3a565.2 565.2 0 0 0 44.4-.3l10.2-.3 3-.1a.4.4 0 0 1 .2 0Z" class="cls-5" data-name="Path 410" transform="translate(57.9 44.8)"/><path id="Path_411" d="M130.3-4.8a34 34 0 0 0-6.5.8c-3.3.6-6.6 1.5-9.7 2.2l-6.7 1-10 .7c-7.4.3-15-.5-22.7-1.1-5-.4-10-.8-15-.9A76.5 76.5 0 0 0 43.1-.8 85 85 0 0 0 20 8.7a107.3 107.3 0 0 0-20.8 15 .4.4 0 0 1-.5 0 .3.3 0 0 1 0-.5A108.6 108.6 0 0 1 19.5 7.8C27.9 2.9 36.5-.6 43-2a77 77 0 0 1 16.6-1.4c5.1 0 10.2.5 15.2 1C82.5-1.7 90-1 97.6-1.2A135.7 135.7 0 0 0 114-2.7c3.2-.6 6.5-1.5 9.8-2.1a35.3 35.3 0 0 1 6.6-.7.3.3 0 0 1 .3.3.5.5 0 0 1-.4.4Z" class="cls-5" data-name="Path 411" transform="translate(63.1 48.5)"/></g><path id="Path_413" fill="#f2ba38" fill-rule="evenodd" d="M180.8-5.6 172.3.2a491.8 491.8 0 0 0-21.4 18c-8.7 7.8-17.6 15.2-26.2 23A181.6 181.6 0 0 0 104.2 62c-5 5.6-9.6 11.5-14.3 17.2-5.6 6.7-11.6 13.2-17.1 20-2.3 2.8-4.5 5.7-6.6 8.6A204.2 204.2 0 0 0 51 134a278.6 278.6 0 0 0-12 27.7c-8.9 23-15 48.3-24.5 71.8a157 157 0 0 1-26.9 45.3 3 3 0 0 1-4 .7 2.7 2.7 0 0 1-.1-4 151 151 0 0 0 23.5-44c8.7-23.8 14.1-49 22.2-72.2a268.9 268.9 0 0 1 12.3-29A207.5 207.5 0 0 1 58 102.7c2.3-3.2 4.7-6.3 7.2-9.3C71 86.7 77 80.3 82.8 73.6c4.9-5.6 9.7-11.5 14.7-17a190.2 190.2 0 0 1 22-21.3c9-7.6 18-14.7 26.9-22.2a490.7 490.7 0 0 1 22.5-17.9l9.2-5.8a2.9 2.9 0 0 1 4 .8 3.2 3.2 0 0 1-1.3 4.2Z" data-name="Path 413" transform="translate(113.3 -7)"/></g></g></svg>