<svg xmlns="http://www.w3.org/2000/svg" xmlns:xlink="http://www.w3.org/1999/xlink" width="549" height="396" viewBox="0 0 549 396">
  <defs>
    <style>
      .cls-1 {
        fill: #f7cc47;
      }

      .cls-2 {
        clip-path: url(#clip-Bladeren_2_);
      }

      .cls-3 {
        fill: #f9e2d2;
      }

      .cls-11, .cls-3, .cls-5, .cls-6, .cls-7, .cls-8, .cls-9 {
        fill-rule: evenodd;
      }

      .cls-4 {
        clip-path: url(#clip-path);
      }

      .cls-5 {
        fill: #a693f1;
      }

      .cls-6 {
        fill: #044928;
      }

      .cls-7 {
        fill: #f2720f;
      }

      .cls-8 {
        fill: #f2ba38;
      }

      .cls-9 {
        fill: #fee6af;
      }

      .cls-10 {
        clip-path: url(#clip-path-2);
      }

      .cls-11 {
        fill: #fcb817;
      }
    </style>
    <clipPath id="clip-path">
      <path id="Path_119" data-name="Path 119" class="cls-1" d="M55.357,7.029,26.068,0c-2.449,7.844-6.1,19.588-10.544,33.975C13.708,39.862,11.6,46.686,11.078,48.4,5.795,65.83-5.5,95.189,3.17,126.03c5.922,21.082,16.472,42.615,28.809,60.663,5.91,8.64,12.9,16.425,18.563,25.259,11.018,17.193,19.524,36.476,32.616,52.245,14.188,17.087,30.4,31.679,43.623,49.721-.428.375.281-1.1.486-1.628.433-1.1.8-2.214,1.166-3.333.967-2.946,1.869-5.911,2.894-8.834,3.181-9.068,9.835-16.085,13.022-25.03a105.928,105.928,0,0,0,4.048-13.83,76.733,76.733,0,0,0,1.277-10.544c.012-12.946.018-28.557,0-46.276-.047-56.481-.234-63.369-1.757-74.394-3.058-22.1-6.022-44.039-20.59-66.861C112.488,39.956,92.859,26.758,80.551,19.922a70.608,70.608,0,0,0-8.412-5.612A84.732,84.732,0,0,0,61.912,9.484c-2.689-1.113-4.967-1.915-6.555-2.443Z" transform="translate(0 0)"/>
    </clipPath>
    <clipPath id="clip-path-2">
      <path id="Path_119-2" data-name="Path 119" class="cls-1" d="M63.2,8.025,29.76,0c-2.8,8.954-6.962,22.363-12.037,38.787C15.65,45.508,13.242,53.3,12.647,55.251c-6.032,19.9-18.925,53.419-9.028,88.628,6.761,24.068,18.8,48.651,32.889,69.254C43.256,223,51.24,231.885,57.7,241.969,70.279,261.6,79.99,283.611,94.936,301.614c16.2,19.507,34.7,36.165,49.8,56.763-.488.428.321-1.257.555-1.859.495-1.251.916-2.528,1.331-3.805,1.1-3.364,2.133-6.748,3.3-10.085,3.631-10.352,11.228-18.364,14.866-28.575a120.946,120.946,0,0,0,4.621-15.789,87.594,87.594,0,0,0,1.458-12.037c.013-14.779.02-32.6,0-52.83-.053-64.48-.267-72.344-2.006-84.93-3.491-25.231-6.875-50.276-23.506-76.33C128.42,45.615,106.01,30.548,91.96,22.744a80.608,80.608,0,0,0-9.6-6.406,96.734,96.734,0,0,0-11.676-5.51C67.611,9.556,65.01,8.64,63.2,8.038Z" transform="translate(0 0)"/>
    </clipPath>
    <clipPath id="clip-Bladeren_2_">
      <rect width="549" height="396"/>
    </clipPath>
  </defs>
  <g id="Bladeren_2_" data-name="Bladeren [2]" class="cls-2">
    <path id="Path_78" data-name="Path 78" class="cls-3" d="M55.357,7.029,26.068,0c-2.449,7.844-6.1,19.588-10.544,33.975C13.708,39.862,11.6,46.686,11.078,48.4,5.795,65.83-5.5,95.189,3.17,126.03c5.922,21.082,16.472,42.615,28.809,60.663,5.91,8.64,12.9,16.425,18.563,25.259,11.018,17.193,19.524,36.476,32.616,52.245,14.188,17.087,30.4,31.679,43.623,49.721-.428.375.281-1.1.486-1.628.433-1.1.8-2.214,1.166-3.333.967-2.946,1.869-5.911,2.894-8.834,3.181-9.068,9.835-16.085,13.022-25.03a105.928,105.928,0,0,0,4.048-13.83,76.733,76.733,0,0,0,1.277-10.544c.012-12.946.018-28.557,0-46.276-.047-56.481-.234-63.369-1.757-74.394-3.058-22.1-6.022-44.039-20.59-66.861C112.488,39.956,92.859,26.758,80.551,19.922a70.608,70.608,0,0,0-8.412-5.612A84.732,84.732,0,0,0,61.912,9.484c-2.689-1.113-4.967-1.915-6.555-2.443Z" transform="translate(132.422 57.258) rotate(-31)"/>
    <g id="Group_18" data-name="Group 18" class="cls-4" transform="translate(132.422 57.258) rotate(-31)">
      <path id="Path_79" data-name="Path 79" class="cls-5" d="M33.808.006c-.75.885,1.587,1.7,2.29,2.63a35.7,35.7,0,0,1,3.655,6.719C44.586,19.84,50.1,30.138,53.32,41.262c.018.082-2.2,3.239-2.273,3.362-2.419,3.638-4.862,7.269-7.369,10.843C35.5,67.159,26.732,78.26,17.728,89.325c-2.513,3.093-6.754,10.017-11.253,10.4C3.359,99.98,2.182,95,1.625,92.828c-2-7.674-1.951-16.138-.949-23.947A133.258,133.258,0,0,1,5.192,47.993a186.281,186.281,0,0,1,12.12-30.267L33.808,0Z" transform="translate(-11.506 -3.778)"/>
      <path id="Path_80" data-name="Path 80" class="cls-6" d="M.086,56.358c-.428-.205.861-.387,1.265-.627A17.176,17.176,0,0,0,3.36,54.384c1.927-1.464,3.72-3.11,5.536-4.715,5.377-4.756,10.644-9.689,15.74-14.744,8.617-8.552,16.337-18.095,24.029-27.49A35.232,35.232,0,0,1,54.95,1.189C55.237.973,56.672-.269,57.088.053c.685.545.955,2.712,1.224,3.509,1.213,3.579,2.156,7.252,3.368,10.843,1.564,4.622,6.028,11.376,5.044,16.5-.439,2.29-2.618,3.925-4.282,5.342-3.169,2.677-6.192,5.541-9.32,8.271A272.879,272.879,0,0,1,25.514,65.683C18.919,70.1,11.749,73.492,5.856,78.9L.092,56.358Z" transform="translate(-10.388 50.939)"/>
      <path id="Path_81" data-name="Path 81" class="cls-7" d="M0,43.571c-.012-.053,1.716-.849,1.787-.89a38.019,38.019,0,0,0,3.222-2.15c5.325-3.86,10.386-8.06,15.763-11.85C30.191,22.044,39.7,15.524,48.842,8.489,52.351,5.789,57.025.511,61.7.013c3.778-.4,5.26,8.511,5.893,10.948,1.166,4.464,3.433,10.239,2.372,14.908-1.1,4.874-6.83,9.314-10.3,12.465a159.379,159.379,0,0,1-18.317,14.1A67.949,67.949,0,0,1,24.8,60.9c-5.36,1.763-11.024,2.32-16.255,4.522L0,43.571Z" transform="translate(-1.094 92.692)"/>
      <path id="Path_82" data-name="Path 82" class="cls-5" d="M0,31.837c.7.51,2.917.035,3.644-.076a37.206,37.206,0,0,0,9.894-3.339c11.657-5.43,24.357-11.434,34.649-19.231C51.267,6.853,54.079,4.2,57.125,1.8,58.361.832,60.071-.469,61.753.17c2.478.949,3.761,4.5,4.622,6.742.849,2.191,2.173,5.108,1.74,7.51-.457,2.5-3.163,4.786-4.839,6.5A76.4,76.4,0,0,1,47.4,33.2c-2.812,1.67-5.694,3.216-8.494,4.915-9.267,5.623-16.718,12.524-24.562,19.9Z" transform="translate(9.813 130.945)"/>
      <path id="Path_83" data-name="Path 83" class="cls-6" d="M0,40.155c.955.064,2.759-1.295,3.5-1.751a65.9,65.9,0,0,0,8.9-7.082C21.65,23.1,32.282,16.7,41.813,8.845,44.707,6.461,50.863-.68,55.145.052c1.183.2,1.4,1.757,1.658,2.7.732,2.695,1.336,5.395,2.208,8.054,1.277,3.884,4.593,9.3,4.071,13.473-.258,2.056-2.326,3.515-3.819,4.71A144.436,144.436,0,0,1,46.2,38.351C35.826,44.911,27.719,50.224,20.783,60.557Z" transform="translate(25.787 153.421)"/>
      <path id="Path_84" data-name="Path 84" class="cls-7" d="M.171,37.053c-.726-.041,1.066-1,1.652-1.447,1.254-.967,2.525-1.9,3.79-2.847a111.533,111.533,0,0,0,9.847-8.189C22.524,17.951,29.225,10.951,36.348,4.4c2.812-2.589,6.836-6.5,10.562-3.017,2.671,2.5,3.017,7.3,3.808,10.655.586,2.5,1.3,4.961,2,7.422.211.738.972,2.273.7,3.069-.363,1.007-2.244,1.968-3.034,2.531-3.075,2.179-6.455,3.971-9.706,5.887C30.584,36.889,19.73,42.091,12.161,51.317l-12-14.258Z" transform="translate(47.759 186.819)"/>
      <path id="Path_85" data-name="Path 85" class="cls-6" d="M0,31.124c3.626-1.084,6.865-4.569,9.759-6.83,5.249-4.1,10.439-8.195,15.318-12.735,4.61-4.288,9.835-9.537,16.062-11.37,5.969-1.757,7.756,9.226,9.2,13.086.275.732,2.536,4.686,1.921,5.442-.9,1.1-2.917,1.945-4.065,2.747-3.849,2.677-7.879,5.12-11.815,7.674-8.781,5.694-16.6,12.026-23.115,20.244Z" transform="translate(61.842 217.146)"/>
      <path id="Path_86" data-name="Path 86" class="cls-7" d="M.006,27.885c.6.8,1.435-1.394,2.2-2.033a48.617,48.617,0,0,1,5.284-3.643C14.685,17.634,20.6,12.128,26.641,6.147,28.018,4.776,31.855-.3,34.221.014c1.956.264,2.841,6.045,3.3,7.428.867,2.618,1.839,5.2,2.777,7.8.176.474,1.049,2.074.8,2.613-.744,1.582-3.216,3.128-4.44,4.282-1.107,1.043-2.255,2.027-3.427,2.987-1.9,1.564-3.8,3.146-5.729,4.669-5.143,4.053-10.48,7.884-15.113,12.524L0,27.885Z" transform="translate(79.691 242.55)"/>
      <path id="Path_87" data-name="Path 87" class="cls-5" d="M.1,22.055c-.51-.474,1.008-.961,1.488-1.47,1.078-1.154,2.2-2.267,3.327-3.362C9.974,12.3,15.433,7.78,20.881,3.3c.556-.457,4.3-4.258,5.126-3.069.7,1.031.07,3.456.018,4.592a49.617,49.617,0,0,0,.7,10.368c.4,2.39.926,4.768,1.453,7.135.4,1.781.791,3.556,1.16,5.342,1.482,7.222,5.957,25.633-7.205,21.867a21.567,21.567,0,0,1-4.452-1.845,34.158,34.158,0,0,1-7.228-5.594A79.894,79.894,0,0,1,1.082,30.42L.1,22.055Z" transform="translate(98.215 270.944)"/>
      <path id="Path_88" data-name="Path 88" class="cls-3" d="M44.695.185a8.069,8.069,0,0,1-1.043,2.05C42.662,3.7,41.3,5.082,40.331,6.353L32.036,17.459c-.416.551-.82,1.119-1.207,1.693-1.57,2.3-3,4.71-4.657,6.941-1.066,1.429-2.173,2.829-3.31,4.218-2.624,3.228-5.36,6.385-7.9,9.671C12.29,43.427,9.566,47,6.537,50.251A48.772,48.772,0,0,1,0,56.214,49.1,49.1,0,0,0,6.461,50.18c2.982-3.286,5.664-6.883,8.3-10.351,2.864-3.784,5.981-7.4,8.921-11.141q1.1-1.406,2.162-2.835c1.652-2.226,3.069-4.639,4.645-6.93.392-.574.8-1.148,1.218-1.7,1.951-2.583,3.878-5.178,5.828-7.762.838-1.107,1.675-2.208,2.525-3.31C41.034,4.894,42.4,3.529,43.4,2.071A8.085,8.085,0,0,0,44.419.1a.144.144,0,0,1,.187-.094A.136.136,0,0,1,44.7.19Z" transform="translate(-2.734 39.953)"/>
      <path id="Path_89" data-name="Path 89" class="cls-3" d="M49.141.276c-.187-.018-.48.357-.832.814-.7.92-1.517,2.279-1.769,2.56-1,1.107-1.91,2.238-2.794,3.392-2.08,2.718-3.931,5.541-6.01,8.347-1.564,2.115-3.245,4.13-4.856,6.2-.685.885-1.365,1.781-2.015,2.695-2.308,3.239-4.423,6.49-6.7,9.659-1.511,2.109-3.093,4.171-4.839,6.18-.515.586-1.054,1.154-1.611,1.7-1.283,1.277-2.636,2.484-3.866,3.819-1.043,1.131-1.98,2.372-3.017,3.521a18.811,18.811,0,0,1-1.4,1.418c-2.179,1.945-4.481,3.8-6.672,5.741C1.822,57.155.9,58,0,58.889c.885-.9,1.8-1.757,2.736-2.6,2.173-1.968,4.446-3.843,6.6-5.817a19.615,19.615,0,0,0,1.377-1.418c1.019-1.166,1.951-2.413,2.976-3.556,1.218-1.347,2.566-2.572,3.837-3.86.545-.551,1.072-1.113,1.582-1.7,1.722-2.009,3.275-4.083,4.768-6.192,2.249-3.181,4.352-6.438,6.643-9.689.656-.92,1.336-1.822,2.027-2.706,1.617-2.062,3.3-4.071,4.868-6.174,1.787-2.4,3.409-4.809,5.155-7.152,1.16-1.558,2.378-3.087,3.726-4.569.281-.31,1.295-2.009,2.056-2.882.322-.375.627-.586.814-.568A.146.146,0,0,1,49.3.159a.151.151,0,0,1-.164.135Z" transform="translate(-6.079 42.023)"/>
      <path id="Path_90" data-name="Path 90" class="cls-3" d="M50.711.057a.234.234,0,0,1,.018-.023.155.155,0,0,1,.211.018.18.18,0,0,1-.018.217c-.023.018-.064.064-.123.117-.316.31-1.113,1.072-1.177,1.131-.68.679-1.388,1.312-2.05,1.986-.281.287-.556.586-.814.9-1.552,1.857-3.128,3.7-4.674,5.565-1.031,1.242-2.05,2.5-3.034,3.767-.3.387-.574.773-.844,1.172-1.078,1.623-1.98,3.351-3.151,4.909-4.124,5.465-8.259,10.931-12.682,16.156-2.946,3.485-6.022,6.854-9.285,10.058a40.5,40.5,0,0,1-3.761,3.21C6.274,51.576,2.952,53.661,0,56c2.923-2.372,6.221-4.493,9.244-6.865a40.923,40.923,0,0,0,3.7-3.239c3.234-3.239,6.256-6.643,9.173-10.134,4.376-5.254,8.5-10.72,12.6-16.2,1.166-1.546,2.074-3.269,3.146-4.88.275-.4.556-.808.855-1.195,1-1.271,2.021-2.525,3.064-3.761,1.552-1.863,3.146-3.7,4.71-5.541.264-.316.551-.621.838-.914C48,2.6,48.713,1.978,49.4,1.3c.059-.059.861-.82,1.183-1.125C50.64.133,50.7.074,50.7.074h0Z" transform="translate(-7.098 46.085)"/>
      <path id="Path_91" data-name="Path 91" class="cls-3" d="M52.433.183a.167.167,0,0,1,.018-.117.157.157,0,0,1,.211-.041.236.236,0,0,1,.117.17.257.257,0,0,1-.152.228c-.164.1-.574.187-.744.3l-1.33,1c-.68.551-1.347,1.125-1.986,1.728s-1.248,1.23-1.822,1.892q-2.777,3.216-5.407,6.555t-5.149,6.772a175.146,175.146,0,0,1-11.2,13.789A151.347,151.347,0,0,1,12.331,44.907C9.935,47,7.709,49.283,5.266,51.3A28.653,28.653,0,0,1,0,54.836a28.35,28.35,0,0,0,5.219-3.591c2.413-2.044,4.622-4.358,6.988-6.473A156.222,156.222,0,0,0,24.726,32.219c3.907-4.376,7.6-8.968,11.124-13.8q2.522-3.436,5.178-6.772T46.481,5.1a23.708,23.708,0,0,1,1.857-1.9c.65-.6,1.33-1.183,2.015-1.728l1.353-1c.164-.105.533-.193.72-.287Z" transform="translate(-7.462 48.888)"/>
      <path id="Path_92" data-name="Path 92" class="cls-3" d="M65.666.289s-.018.012-.029.018a8.276,8.276,0,0,0-.767.679c-.574.445-1.154.885-1.728,1.33-.381.3-.756.6-1.119.925-2.607,2.249-4.815,4.991-7.3,7.381a26.859,26.859,0,0,1-3.462,2.847c-4.6,3.087-8.933,6.508-13.239,9.964S29.424,30.4,24.966,33.7c-2.22,1.646-4.487,3.233-6.824,4.739a73.333,73.333,0,0,1-10.48,5.893A34.631,34.631,0,0,1,0,46.653a34.234,34.234,0,0,0,7.627-2.408,72.742,72.742,0,0,0,10.4-5.992c2.32-1.523,4.563-3.134,6.766-4.792,4.423-3.327,8.669-6.871,12.963-10.345s8.669-6.889,13.28-9.982a26.04,26.04,0,0,0,3.421-2.788c2.507-2.378,4.733-5.114,7.352-7.357.369-.311.75-.615,1.136-.92.574-.451,1.154-.884,1.734-1.33.047-.035.439-.422.691-.609a.435.435,0,0,1,.351-.123A.144.144,0,0,1,65.795.2a.175.175,0,0,1-.135.088Z" transform="translate(-7.708 83.734)"/>
      <path id="Path_93" data-name="Path 93" class="cls-3" d="M61.6.118a.181.181,0,0,1,.064-.094.148.148,0,0,1,.2.041.212.212,0,0,1,.023.152A.617.617,0,0,1,61.7.435c-.363.269-1.341.785-1.71,1.025-.457.3-.908.621-1.341.955-.668.5-1.312,1.025-1.974,1.523-.943.715-1.833,1.482-2.7,2.267-2.038,1.863-3.931,3.849-6.069,5.635-2.162,1.8-4.434,3.474-6.76,5.079-5.4,3.731-11.065,7.129-16.208,11.165-3.134,2.449-5.729,5.688-8.7,8.406a24.227,24.227,0,0,1-4.159,3.128A22.994,22.994,0,0,1,9.73,40.789C6.549,42.165,3.087,43.009,0,44.6c3.069-1.623,6.52-2.5,9.683-3.919A22.091,22.091,0,0,0,12,39.488a24.269,24.269,0,0,0,4.1-3.157c2.952-2.753,5.518-6.022,8.64-8.511,5.864-4.645,12.407-8.47,18.47-12.869,1.517-1.1,3.005-2.232,4.446-3.421,2.132-1.763,4.036-3.743,6.08-5.594.873-.791,1.775-1.558,2.73-2.273.662-.5,1.312-1.019,1.986-1.517.445-.334.9-.656,1.371-.955.369-.234,1.336-.738,1.7-1.008A.566.566,0,0,0,61.6.118Z" transform="translate(-3.127 86.401)"/>
      <path id="Path_94" data-name="Path 94" class="cls-3" d="M62.268.058a.179.179,0,0,1,.059-.047.157.157,0,0,1,.2.076.173.173,0,0,1-.047.187.882.882,0,0,1-.164.105c-.387.234-1.412.767-1.464.8-.6.357-1.2.715-1.792,1.09s-1.183.75-1.757,1.142c-2.08,1.394-4.118,2.818-6.08,4.346-1.306,1.013-2.566,2.08-3.784,3.222-1.81,1.7-3.661,3.392-5.6,4.967a49.448,49.448,0,0,1-4.024,2.97c-2.367,1.552-4.844,2.9-7.246,4.376-1.025.627-2.033,1.283-3.017,1.986-1.365.984-2.712,1.992-4.042,3.011-5.342,4.1-10.444,8.447-15.886,12.448-.726.533-1.482,1.031-2.244,1.511C3.6,43.37,1.752,44.4,0,45.555c1.74-1.183,3.573-2.232,5.336-3.368.762-.5,1.505-1,2.226-1.541,5.4-4.054,10.45-8.464,15.752-12.612,1.324-1.037,2.659-2.056,4.024-3.052.984-.721,2-1.382,3.028-2.027,2.39-1.488,4.868-2.835,7.217-4.393,1.382-.908,2.7-1.9,3.989-2.946,1.933-1.564,3.784-3.251,5.594-4.932,1.23-1.142,2.507-2.208,3.825-3.228,1.968-1.523,4.036-2.941,6.121-4.323C57.7,2.741,58.291,2.366,58.888,2s1.2-.726,1.8-1.078C60.745.89,61.77.363,62.157.128c.041-.023.088-.053.111-.064Z" transform="translate(-2.4 89.402)"/>
      <path id="Path_95" data-name="Path 95" class="cls-3" d="M62.116.252a46.647,46.647,0,0,1-3.591,3.439C56.662,5.319,54.7,6.889,52.843,8.5c-2.179,1.869-4.335,3.843-6.555,5.717-1.488,1.259-3.005,2.472-4.581,3.585a65.743,65.743,0,0,1-5.881,3.69c-3.005,1.693-6.116,3.2-9.244,4.756-1.8.9-3.567,1.9-5.383,2.794-.785.381-1.57.744-2.378,1.078-1.845.75-3.708,1.382-5.594,1.962C8.816,33.436,4.346,34.491,0,36.072c4.317-1.634,8.787-2.741,13.174-4.147,1.869-.592,3.726-1.248,5.553-2.015.8-.334,1.576-.709,2.349-1.1,1.8-.914,3.556-1.933,5.354-2.847,3.1-1.576,6.186-3.116,9.191-4.821a66.648,66.648,0,0,0,5.834-3.684c1.564-1.107,3.075-2.308,4.557-3.556,2.232-1.869,4.393-3.831,6.572-5.694,1.869-1.593,3.843-3.151,5.705-4.768a47.465,47.465,0,0,0,3.6-3.4A.149.149,0,0,1,62.1.041.143.143,0,0,1,62.1.252Z" transform="translate(7.265 123.417)"/>
      <path id="Path_96" data-name="Path 96" class="cls-3" d="M72.455.247s-.053.047-.088.076c-.264.24-.926.855-.972.9-.392.34-.762.7-1.119,1.072-.844.879-1.64,1.8-2.531,2.636-.6.574-1.23,1.1-1.874,1.605-1.5,1.172-3.087,2.226-4.6,3.392-1.951,1.5-3.884,3.058-5.875,4.528-1.33.99-2.689,1.933-4.083,2.806-4.557,2.818-9.4,5.606-14.357,8.136a130.621,130.621,0,0,1-15.119,6.608c-2.138.767-4.3,1.435-6.485,2.044C10.263,35.475,5.1,36.594,0,37.941c5.085-1.406,10.239-2.577,15.3-4.054,2.162-.633,4.317-1.318,6.444-2.1a133.882,133.882,0,0,0,15.025-6.719c4.938-2.554,9.765-5.336,14.3-8.16,1.394-.861,2.741-1.8,4.065-2.777,2-1.464,3.936-3.017,5.881-4.5,1.523-1.154,3.116-2.2,4.616-3.368.638-.5,1.265-1.019,1.863-1.57.89-.826,1.687-1.746,2.536-2.618.363-.375.744-.738,1.136-1.084.053-.041.709-.656.978-.884A.4.4,0,0,1,72.443,0a.144.144,0,0,1,.047.2.224.224,0,0,1-.053.053Z" transform="translate(-2.049 125.83)"/>
      <path id="Path_97" data-name="Path 97" class="cls-3" d="M74.241.328A.16.16,0,0,1,74.271.3c.6-.328.826-.357.785-.246.041.053-.105.211-.551.457l-.064.041c-.141.082-.609.346-.8.48-.228.158-.445.328-.662.5-.322.269-.639.545-.961.814a19.791,19.791,0,0,1-1.915,1.365c-.99.627-2.021,1.207-2.993,1.822a25.5,25.5,0,0,0-2.285,1.658c-1.722,1.388-3.327,2.923-5.12,4.241-.656.475-1.33.926-2.015,1.359-1.587,1.013-3.228,1.939-4.8,2.976A158.211,158.211,0,0,1,34.784,25.944c-6.274,3.028-12.729,5.694-19.143,8.078-1.939.721-3.8,1.347-5.67,1.874a42.942,42.942,0,0,1-5.852,1.218c-.867.117-1.892.515-2.864.65A3.448,3.448,0,0,1,0,37.736a3.3,3.3,0,0,0,1.248.018c.972-.141,2-.551,2.859-.679A41.419,41.419,0,0,0,9.935,35.8c1.869-.545,3.714-1.2,5.641-1.933,6.385-2.437,12.8-5.172,19.044-8.236a161.6,161.6,0,0,0,18.042-10.21c1.576-1.031,3.222-1.956,4.809-2.958.68-.428,1.347-.867,2-1.341,1.792-1.306,3.4-2.829,5.126-4.206a25.4,25.4,0,0,1,2.326-1.67c.972-.609,2-1.183,3.005-1.8a20.669,20.669,0,0,0,1.892-1.33c.328-.269.638-.545.966-.808.223-.176.445-.351.685-.51.17-.117.6-.363.773-.457Z" transform="translate(-3.103 128.303)"/>
      <path id="Path_98" data-name="Path 98" class="cls-3" d="M68.349.118a.181.181,0,0,1,.029-.064.149.149,0,0,1,.211-.018.156.156,0,0,1,.047.176.646.646,0,0,1-.094.152c-.205.287-.779.972-.826,1.043a10.251,10.251,0,0,1-1.494,1.646c-.808.738-1.7,1.394-2.554,2.1C61.928,6.573,60.3,8.125,58.6,9.59c-.732.633-1.476,1.242-2.255,1.822-1.048.779-2.12,1.517-3.216,2.232-2.542,1.669-5.167,3.222-7.674,4.915-2.976,2-6.145,3.573-9.208,5.383-1.3.767-2.577,1.576-3.813,2.472-.873.627-1.716,1.289-2.554,1.962-3.345,2.7-6.479,5.659-9.911,8.259-.855.65-1.728,1.277-2.613,1.892-3.532,2.443-7.234,4.651-10.679,7.217-1.593,1.177-3.069,2.548-4.622,3.8C1.382,50.09.7,50.606,0,51.08c.7-.474,1.377-1,2.038-1.552,1.541-1.271,3-2.654,4.581-3.854,3.427-2.6,7.1-4.85,10.608-7.328.873-.615,1.746-1.248,2.595-1.9,3.4-2.63,6.508-5.618,9.835-8.341.832-.685,1.675-1.347,2.548-2A44.877,44.877,0,0,1,36.043,23.6c3.046-1.816,6.215-3.392,9.179-5.389,2.513-1.687,5.143-3.233,7.691-4.891,1.09-.715,2.162-1.441,3.2-2.208.767-.574,1.517-1.177,2.249-1.8,1.71-1.459,3.351-3.005,5.1-4.423.849-.691,1.746-1.33,2.554-2.068a10.162,10.162,0,0,0,1.459-1.587c.047-.064.627-.744.832-1.037.018-.024.041-.053.047-.065Z" transform="translate(9.339 148.986)"/>
      <path id="Path_99" data-name="Path 99" class="cls-3" d="M70.984.265c-1.359.9-2.665,1.851-3.942,2.841C61.9,7.072,57.207,11.611,51.859,15.3c-.633.433-1.289.838-1.956,1.213-2.636,1.494-5.477,2.659-8,4.358-1.148.773-2.267,1.587-3.368,2.419-2.589,1.951-5.1,4.007-7.732,5.893-3.544,2.525-7.193,4.9-10.767,7.392-1.529,1.066-3.04,2.156-4.522,3.286q-3.269,2.5-6.362,5.172C6.039,47.695,3.017,50.466,0,53.254c2.993-2.823,5.987-5.618,9.074-8.318,2.056-1.8,4.153-3.55,6.321-5.237,1.47-1.142,2.982-2.249,4.5-3.327,3.55-2.519,7.182-4.926,10.7-7.474,2.624-1.9,5.12-3.966,7.691-5.922,1.107-.843,2.232-1.664,3.386-2.443,2.531-1.7,5.383-2.876,8.031-4.37.656-.375,1.306-.761,1.921-1.195C56.979,11.313,61.688,6.79,66.843,2.854,68.132,1.87,69.45.921,70.815.025a.148.148,0,0,1,.164.246Z" transform="translate(8.396 150.614)"/>
      <path id="Path_100" data-name="Path 100" class="cls-3" d="M72.191.21a3.78,3.78,0,0,1-1.429,1.283c-1.283.761-3.034,1.341-3.919,1.869a38.767,38.767,0,0,0-3.532,2.618c-2.8,2.22-4.2,3.333-4.581,3.743-1.535,1.658-1.763,2.536-3.784,4.434-.68.638-1.23,1.1-1.658,1.429-1.47,1.113-3,2.132-4.557,3.1-3.626,2.267-7.4,4.294-10.9,6.754-1.9,1.33-3.7,2.812-5.547,4.206-.791.6-1.605,1.189-2.437,1.746-3.8,2.525-7.68,4.926-11.446,7.492-1.611,1.1-3.21,2.232-4.762,3.409-1.418,1.066-2.8,2.179-4.165,3.3C6.285,48.231,3.193,50.973,0,53.609c3.163-2.665,6.233-5.442,9.4-8.1,1.353-1.142,2.724-2.267,4.13-3.351,1.552-1.2,3.134-2.343,4.745-3.456,3.743-2.595,7.609-5.032,11.388-7.592.82-.557,1.623-1.142,2.408-1.746,1.845-1.418,3.632-2.905,5.536-4.253,4-2.818,8.353-5.079,12.454-7.756,1.019-.668,2.021-1.359,3-2.091.217-.164.914-.738,1.623-1.4,1.822-1.71,2.156-2.648,3.468-4.141.416-.474,1.921-1.652,4.932-4.013a39.335,39.335,0,0,1,3.6-2.63c.89-.527,2.648-1.1,3.936-1.851A3.4,3.4,0,0,0,71.933.075a.159.159,0,0,1,.205-.059A.152.152,0,0,1,72.2.221Z" transform="translate(7.763 151.946)"/>
      <path id="Path_101" data-name="Path 101" class="cls-3" d="M61.805.229a.15.15,0,0,1,.006-.17A.144.144,0,0,1,62.016.03c.152.117.135.234,0,.346-.105.094-.381.182-.5.281l-1,.967a17.277,17.277,0,0,1-1.3,1.142c-.662.539-1.359,1.043-2.027,1.582-2.2,1.763-4.458,3.456-6.754,5.1C47,11.916,43.494,14.27,39.979,16.625a30.977,30.977,0,0,0-3.737,3c-1.781,1.646-3.45,3.433-5.161,5.09-.82.8-1.67,1.57-2.536,2.326C26.53,28.8,24.427,30.467,22.406,32.2c-2.829,2.408-5.752,4.634-8.734,6.772C9.191,42.183,4.587,45.188,0,48.333c4.551-3.187,9.121-6.256,13.567-9.513,2.952-2.167,5.852-4.417,8.646-6.842,2.009-1.746,4.095-3.433,6.092-5.2.855-.756,1.7-1.529,2.507-2.326,1.7-1.67,3.374-3.468,5.155-5.114a29.862,29.862,0,0,1,3.784-3.052c3.515-2.343,7.023-4.692,10.468-7.141,2.29-1.629,4.557-3.3,6.76-5.055.674-.527,1.365-1.037,2.033-1.57.445-.357.873-.715,1.283-1.113L61.313.44a4.394,4.394,0,0,1,.48-.205Zm0-.006c-.018-.047-.012-.1.018-.07S61.835.2,61.805.224Z" transform="translate(27.105 180.57)"/>
      <path id="Path_102" data-name="Path 102" class="cls-3" d="M59.146.293,59.1.311a10.645,10.645,0,0,0-1.4.826C56.527,2.039,55.35,3,54.161,3.9c-.521.392-1.043.773-1.564,1.136C50.7,6.332,48.883,7.674,47.091,9.05c-2.695,2.062-5.319,4.2-8,6.367-3.644,2.941-7.24,5.922-10.843,8.9-5.407,4.475-10.819,8.939-16.314,13.309C8.013,40.741,4.048,43.8,0,46.769c4.013-3.011,7.937-6.121,11.827-9.279,5.448-4.428,10.8-8.962,16.179-13.467q5.377-4.5,10.825-8.933c2.683-2.167,5.319-4.294,8.025-6.35,1.8-1.371,3.638-2.706,5.541-3.995.7-.475,1.382-.984,2.068-1.506C55.5,2.461,56.5,1.652,57.517.885A10.936,10.936,0,0,1,59,.03c.223-.082.357.023.369.111a.143.143,0,0,1-.117.17.146.146,0,0,1-.1-.018Z" transform="translate(31.305 182.135)"/>
      <path id="Path_103" data-name="Path 103" class="cls-3" d="M68.618.244a19.838,19.838,0,0,1-1.8,1.388C64.383,3.3,61.548,4.614,59.246,6.459c-3.977,3.181-7.574,6.83-11.44,10.14-.967.832-1.956,1.646-2.97,2.425-3.679,2.806-7.416,5.565-11.153,8.324-5.6,4.124-11.206,8.259-16.613,12.618A159.875,159.875,0,0,0,0,55.617,157.768,157.768,0,0,1,16.923,39.79c5.372-4.411,10.948-8.593,16.531-12.752,3.726-2.771,7.457-5.53,11.13-8.341q1.511-1.16,2.964-2.4c3.878-3.3,7.486-6.935,11.481-10.1C61.348,4.35,64.2,3.044,66.656,1.38A20.28,20.28,0,0,0,68.436.033a.155.155,0,0,1,.211.018.154.154,0,0,1-.018.211Z" transform="translate(22.876 183.379)"/>
      <path id="Path_104" data-name="Path 104" class="cls-3" d="M67.716.258a7.846,7.846,0,0,1-1.359.955c-1.1.638-2.337,1.142-3.368,1.757A28.935,28.935,0,0,0,60.54,4.628c-1.189.89-2.331,1.845-3.456,2.8C51.835,11.892,47.337,17.146,42.3,21.85q-1.889,1.766-3.907,3.4A180.685,180.685,0,0,1,23.5,35.9C15.816,40.864,7.844,45.433,0,50.067c7.8-4.7,15.711-9.361,23.355-14.4A180.3,180.3,0,0,0,38.134,24.937c1.341-1.084,2.624-2.22,3.878-3.392,5.044-4.7,9.572-9.935,14.832-14.392,1.136-.955,2.29-1.916,3.485-2.8A28.261,28.261,0,0,1,62.819,2.7C63.85,2.086,65.1,1.588,66.2.955a7.561,7.561,0,0,0,1.306-.92.15.15,0,0,1,.211.017.149.149,0,0,1-.012.211Z" transform="translate(24.475 185.029)"/>
      <path id="Path_105" data-name="Path 105" class="cls-3" d="M54.653.3a4.883,4.883,0,0,0-1.4.539c-1.072.586-2.144,1.465-3.04,1.98L39.757,8.778c-3.5,2.027-7.035,3.972-10.474,6.063-2.3,1.394-4.546,2.841-6.713,4.446-3.292,2.419-6.408,5.026-9.419,7.732C8.623,31.1,4.323,35.419,0,39.748c4.27-4.387,8.511-8.769,13-12.9a121.439,121.439,0,0,1,9.355-7.849c2.167-1.623,4.423-3.11,6.719-4.51,3.439-2.1,6.982-4.03,10.491-6.057L50.055,2.516c.9-.51,1.98-1.377,3.058-1.956A5.185,5.185,0,0,1,54.606,0a.148.148,0,0,1,.176.117.147.147,0,0,1-.123.17Z" transform="translate(46.741 211.233)"/>
      <path id="Path_106" data-name="Path 106" class="cls-3" d="M63.282.273s.059.018.047.006c-.07-.111-.211.31-.316.41l-.984.8c-.5.363-1.013.715-1.529,1.06s-1.043.668-1.582.984c-.978.562-1.968,1.1-2.964,1.628-2.32,1.236-4.674,2.408-6.982,3.667-3.192,1.728-6.268,3.608-9.279,5.571-4.528,2.952-8.916,6.115-13.3,9.343C21.018,27.67,15.7,31.618,10.444,35.648Q5.19,39.672,0,43.831C4.282,40.3,8.605,36.872,12.969,33.492s8.775-6.707,13.215-10.023c4.382-3.257,8.746-6.449,13.285-9.413,3.017-1.968,6.11-3.837,9.326-5.559,2.32-1.242,4.68-2.413,7.006-3.632.99-.521,1.986-1.054,2.958-1.611.539-.3,1.06-.627,1.57-.961s1.019-.685,1.523-1.037l.967-.779c.117-.105.234-.357.357-.433a.238.238,0,0,1,.293.012.15.15,0,1,1-.187.234Z" transform="translate(38.253 212.44)"/>
      <path id="Path_107" data-name="Path 107" class="cls-3" d="M61.126.323c-.053.053-.129.141-.164.17l-.568.351c-.258.146-.51.316-.756.486s-.48.363-.709.557a16.223,16.223,0,0,1-1.716,1.271c-.879.574-1.8,1.09-2.724,1.629-2.87,1.664-5.723,3.362-8.611,5.014Q43,11.453,40.067,13.023a94.751,94.751,0,0,0-8.9,5.436c-4.3,2.929-8.418,6.11-12.606,9.314-3.989,3.04-7.949,6.039-11.639,9.367A65.464,65.464,0,0,0,0,44.286a67.313,67.313,0,0,1,6.842-7.234c3.655-3.356,7.586-6.408,11.546-9.49,4.171-3.239,8.259-6.479,12.547-9.431a91.772,91.772,0,0,1,8.939-5.471c1.951-1.031,3.884-2.109,5.805-3.2,2.888-1.64,5.758-3.321,8.634-4.973.926-.533,1.839-1.037,2.718-1.605a15.54,15.54,0,0,0,1.687-1.236,7.992,7.992,0,0,1,.738-.574c.252-.176.51-.346.779-.5l.539-.322c.07-.059.217-.234.264-.246a.16.16,0,0,1,.152.029.177.177,0,0,1,.059.152.144.144,0,0,1-.129.135ZM60.962.236A.173.173,0,0,1,60.95.183.171.171,0,0,0,60.962.236Zm.006.006Z" transform="translate(41.287 213.614)"/>
      <path id="Path_108" data-name="Path 108" class="cls-3" d="M60.921.251c-.615.474-1.248.914-1.886,1.336-1.494.978-3.04,1.863-4.546,2.859-2.255,1.494-4.546,2.923-6.854,4.317-5.4,3.257-10.89,6.315-16.249,9.642A157.215,157.215,0,0,0,14.756,30.12,124.469,124.469,0,0,0,0,44.137,123.8,123.8,0,0,1,14.609,29.944,154.373,154.373,0,0,1,31.175,18.065c5.366-3.321,10.854-6.391,16.261-9.624,2.314-1.382,4.61-2.794,6.871-4.276,1.505-.984,3.064-1.857,4.563-2.829.644-.41,1.265-.843,1.875-1.306a.156.156,0,0,1,.211.029.156.156,0,0,1-.029.211Z" transform="translate(42.629 214.477)"/>
      <path id="Path_109" data-name="Path 109" class="cls-3" d="M53.071.068A.179.179,0,0,1,53.13.021.144.144,0,0,1,53.259.01a.147.147,0,0,1,.047.252,1.782,1.782,0,0,1-.211.158l-.515.322-1.347.726c-.592.3-1.16.638-1.722.984-.844.515-1.675,1.066-2.513,1.6-1.664,1.054-3.251,2.167-4.792,3.321-2.326,1.74-4.563,3.567-6.842,5.465-2.946,2.437-5.612,5.2-8.435,7.785-1.213,1.113-2.46,2.185-3.767,3.2-.779.6-1.587,1.16-2.408,1.7-1.91,1.254-3.89,2.39-5.787,3.655-2.519,1.675-5.026,3.392-7.527,5.12S2.46,37.786,0,39.549q3.655-2.689,7.369-5.342t7.463-5.213c1.88-1.289,3.849-2.448,5.741-3.725.808-.545,1.605-1.107,2.367-1.71.861-.674,1.687-1.382,2.5-2.109,3.269-2.905,6.274-6.127,9.642-8.927,2.29-1.892,4.54-3.725,6.877-5.454,1.552-1.154,3.157-2.255,4.838-3.31.849-.527,1.675-1.072,2.531-1.582.568-.346,1.142-.674,1.74-.984L52.41.478l.5-.3.141-.1ZM53.235.3Z" transform="translate(50.566 215.802)"/>
      <path id="Path_110" data-name="Path 110" class="cls-3" d="M55.977.278l-.82.527c-.445.258-.9.521-1.341.8s-.879.551-1.312.844c-.674.457-1.336.931-1.992,1.412-2.636,1.927-5.167,3.995-7.838,5.869-3.562,2.484-7.234,4.868-10.8,7.369-1.535,1.072-3.046,2.162-4.522,3.3-1.224.937-2.413,1.91-3.591,2.905-2.759,2.314-5.424,4.733-8.172,7.064-.551.469-1.107.926-1.664,1.382C11.692,33.562,9.4,35.3,7.2,37.164c-.738.627-1.47,1.271-2.191,1.921C3.333,40.6,1.693,42.167,0,43.672c1.675-1.523,3.292-3.1,4.95-4.645.715-.662,1.429-1.312,2.167-1.951,2.173-1.886,4.446-3.655,6.666-5.5.551-.457,1.1-.926,1.64-1.394,2.724-2.355,5.366-4.8,8.1-7.146C24.7,22.028,25.886,21.044,27.1,20.1q2.214-1.722,4.522-3.333c3.567-2.5,7.252-4.868,10.813-7.351,2.683-1.857,5.219-3.913,7.867-5.823.662-.48,1.33-.949,2.009-1.406.433-.293.879-.574,1.33-.844S54.548.805,55,.554c.088-.053.48-.346.738-.474a.445.445,0,0,1,.311-.07.139.139,0,0,1,.1.182.139.139,0,0,1-.182.1Z" transform="translate(57.742 237.336)"/>
      <path id="Path_111" data-name="Path 111" class="cls-3" d="M51.994.25c-.24.193-.492.381-.744.556-1,.691-2.091,1.283-3.058,2.027C46,4.52,43.968,6.418,41.825,8.158c-.545.439-1.09.867-1.646,1.283-3.4,2.513-6.912,4.874-10.368,7.322-1.476,1.048-2.946,2.109-4.382,3.21-4.434,3.368-8.787,6.895-13.034,10.538S4,37.921,0,41.787q5.931-5.878,12.254-11.44,6.318-5.544,12.94-10.679,2.153-1.661,4.382-3.234c3.444-2.454,6.965-4.8,10.374-7.3.832-.609,1.646-1.259,2.443-1.916C44.256,5.68,46.071,4.058,48,2.587c.972-.744,2.074-1.33,3.081-2.015.252-.176.492-.351.732-.539A.15.15,0,1,1,52,.268Z" transform="translate(60.003 240.592)"/>
      <path id="Path_112" data-name="Path 112" class="cls-3" d="M43.078.249C41.6,1.854,40.05,3.365,38.445,4.812c-2.408,2.173-4.932,4.206-7.457,6.274-2.033,1.652-4.018,3.362-6.086,4.961-1.382,1.072-2.8,2.091-4.288,3.028-1.1.685-2.232,1.312-3.386,1.91-1.722.89-3.48,1.716-5.2,2.589-2.021,1.019-4.042,2.062-6.045,3.116S1.98,28.829,0,29.93q2.944-1.7,5.934-3.339t6-3.216c1.716-.9,3.456-1.752,5.161-2.665,1.136-.609,2.255-1.242,3.339-1.939,1.464-.937,2.859-1.974,4.229-3.04,2.056-1.611,4.042-3.321,6.075-4.961,2.536-2.05,5.061-4.071,7.48-6.221,1.611-1.429,3.169-2.911,4.651-4.5a.149.149,0,0,1,.211-.012.155.155,0,0,1,.012.211Z" transform="translate(64.39 245.783)"/>
      <path id="Path_113" data-name="Path 113" class="cls-3" d="M39.458.171a1.575,1.575,0,0,1-.609.814c-.6.5-1.506,1.008-1.8,1.224-1.16.884-2.273,1.8-3.374,2.753S31.509,6.884,30.437,7.88q-3.146,2.926-6.5,5.623c-3.333,2.7-6.777,5.272-10.181,7.9Q11.672,23,9.613,24.622C6.4,27.146,3.216,29.694,0,32.213c3.169-2.572,6.315-5.178,9.484-7.756q2.039-1.652,4.095-3.286c3.374-2.653,6.772-5.278,10.093-7.99,2.214-1.81,4.4-3.649,6.5-5.588,1.072-.99,2.156-1.962,3.263-2.905s2.238-1.857,3.415-2.736c.293-.217,1.195-.709,1.792-1.2a1.312,1.312,0,0,0,.51-.621A.151.151,0,0,1,39.323,0a.154.154,0,0,1,.129.164Z" transform="translate(81.378 262.098)"/>
      <path id="Path_114" data-name="Path 114" class="cls-3" d="M40.3.264c-3.854,3.28-7.644,6.666-11.5,9.964q-2.478,2.126-5,4.188c-5.542,4.458-11.2,8.711-16.747,13.127C4.669,29.436,2.314,31.351,0,33.331c2.285-2.021,4.6-3.977,6.947-5.9,5.489-4.5,11.1-8.81,16.583-13.332,1.687-1.371,3.345-2.771,5-4.177C32.4,6.637,36.224,3.293,40.108.036a.149.149,0,0,1,.211.018A.154.154,0,0,1,40.3.264Z" transform="translate(81.038 263.476)"/>
      <path id="Path_115" data-name="Path 115" class="cls-3" d="M37.712.293a1.815,1.815,0,0,0-.855.375,23.555,23.555,0,0,0-1.781,1.576c-.972.82-1.933,1.646-2.894,2.484q-2.153,1.88-4.288,3.79-4.007,3.55-8.2,6.895C13.2,20.613,6.473,25.534,0,30.747c6.391-5.313,13-10.386,19.46-15.64,2.765-2.249,5.512-4.522,8.172-6.889,1.195-1.054,2.39-2.1,3.6-3.14S33.641,3.011,34.865,2A22.013,22.013,0,0,1,36.693.422,2.055,2.055,0,0,1,37.706,0a.15.15,0,0,1,.012.3Z" transform="translate(84.242 265.128)"/>
      <path id="Path_116" data-name="Path 116" class="cls-3" d="M36.775.06A.207.207,0,0,1,36.828,0c.029-.018.3.105.152.269-.106.123-.369.416-.428.463l-.89.762L32.921,3.827c-1.957,1.71-3.831,3.515-5.752,5.26-.832.75-1.664,1.488-2.519,2.2-1.107.92-2.226,1.822-3.368,2.706-2.648,2.062-5.354,4.048-7.955,6.156C11.487,21.634,9.683,23.157,7.9,24.7c-2.671,2.32-5.29,4.7-7.9,7.088,2.572-2.437,5.143-4.862,7.779-7.234,1.757-1.582,3.538-3.128,5.36-4.639Q14.246,19,15.371,18.1c3-2.384,6.08-4.675,9.015-7.135.855-.709,1.693-1.441,2.519-2.185C28.844,7.049,30.73,5.256,32.7,3.557l2.771-2.308.89-.744c.053-.047.3-.316.4-.428,0-.006.012-.012.018-.018Z" transform="translate(85.074 267.083)"/>
      <path id="Path_117" data-name="Path 117" class="cls-3" d="M37.033.241a4.9,4.9,0,0,1-.808.732c-.656.5-1.441.931-2.015,1.406C33.2,3.2,32.194,4.025,31.2,4.868S29.23,6.561,28.258,7.422c-2.2,1.945-4.376,3.925-6.59,5.852q-2.223,1.933-4.516,3.778c-4.012,3.2-8.09,6.285-12.079,9.49-1.71,1.376-3.4,2.765-5.073,4.206,2.191-1.956,4.423-3.843,6.69-5.7,3.392-2.782,6.836-5.489,10.239-8.283,1.517-1.236,2.993-2.513,4.469-3.8,2.214-1.933,4.4-3.9,6.608-5.834q1.467-1.283,2.964-2.542c1-.832,2.015-1.658,3.034-2.466.586-.463,1.371-.9,2.039-1.388A4.8,4.8,0,0,0,36.8.053a.15.15,0,0,1,.228.193Z" transform="translate(86.41 269.094)"/>
      <path id="Path_118" data-name="Path 118" class="cls-8" d="M1.025,33.378c.246-.24,2.044-1.072,2.249-.615.428.972-.843,4.452-.89,5.553C2.039,45.7,3.925,53.06,6.145,60.03c5.969,18.786,14.217,36.336,18.581,55.608,3.485,15.394,13.637,27.127,18.382,41.737,2.882,8.9,4.112,18.206,7.258,27.092,6.883,19.459,15.793,38.2,21.65,58.027,6.643,22.482,11.124,45.89,17.128,68.606,4.095,15.511,6.514,32.405,13.35,47.02,2.759,5.9,8.465,13.069,15.98,10.433,8.951-3.14,11.206-16.525,12.588-24.479,4.551-26.149,3.433-53.136,5.647-79.525,2.29-27.309,10.351-55.619,6.385-83.127-5.682-39.47-34.778-99.746-62.819-128.97C69.508,41.227,56.949,34.221,44.051,25.927,29.078,16.3,16.56,6.836,0,0L1.019,33.378Z" transform="translate(44.368 -38.427)"/>
    </g>
    <path id="Path_78-2" data-name="Path 78" class="cls-9" d="M63.2,8.025,29.76,0c-2.8,8.954-6.962,22.363-12.037,38.787C15.65,45.508,13.242,53.3,12.647,55.251c-6.032,19.9-18.925,53.419-9.028,88.628,6.761,24.068,18.8,48.651,32.889,69.254C43.256,223,51.24,231.885,57.7,241.969,70.279,261.6,79.99,283.611,94.936,301.614c16.2,19.507,34.7,36.165,49.8,56.763-.488.428.321-1.257.555-1.859.495-1.251.916-2.528,1.331-3.805,1.1-3.364,2.133-6.748,3.3-10.085,3.631-10.352,11.228-18.364,14.866-28.575a120.946,120.946,0,0,0,4.621-15.789,87.594,87.594,0,0,0,1.458-12.037c.013-14.779.02-32.6,0-52.83-.053-64.48-.267-72.344-2.006-84.93-3.491-25.231-6.875-50.276-23.506-76.33C128.42,45.615,106.01,30.548,91.96,22.744a80.608,80.608,0,0,0-9.6-6.406,96.734,96.734,0,0,0-11.676-5.51C67.611,9.556,65.01,8.64,63.2,8.038Z" transform="translate(126.563 51.976) rotate(-11)"/>
    <g id="Group_18-2" data-name="Group 18" class="cls-10" transform="translate(126.563 50.653) rotate(-11)">
      <path id="Path_79-2" data-name="Path 79" class="cls-8" d="M38.6.007c-.856,1.01,1.812,1.939,2.615,3a40.75,40.75,0,0,1,4.173,7.67C50.9,22.65,57.2,34.407,60.872,47.106c.02.094-2.508,3.7-2.595,3.839-2.762,4.153-5.551,8.3-8.413,12.378-9.336,13.348-19.347,26.021-29.625,38.653-2.869,3.531-7.711,11.435-12.846,11.87-3.558.294-4.9-5.39-5.537-7.871C-.425,97.214-.372,87.551.772,78.637A152.132,152.132,0,0,1,5.928,54.79,212.663,212.663,0,0,1,19.764,20.236L38.6,0Z" transform="translate(-13.136 -4.313)"/>
      <path id="Path_80-2" data-name="Path 80" class="cls-7" d="M.1,64.34c-.488-.234.983-.441,1.444-.716a19.607,19.607,0,0,0,2.294-1.538c2.2-1.672,4.247-3.551,6.32-5.383,6.139-5.43,12.151-11.061,17.969-16.832,9.837-9.764,18.651-20.657,27.432-31.384a40.221,40.221,0,0,1,7.176-7.129C63.06,1.11,64.7-.307,65.173.061c.782.622,1.09,3.1,1.4,4.006,1.384,4.086,2.461,8.279,3.845,12.378C72.2,21.721,77.3,29.431,76.174,35.283c-.5,2.615-2.989,4.481-4.888,6.1-3.618,3.056-7.069,6.326-10.64,9.443A311.518,311.518,0,0,1,29.128,74.986C21.6,80.028,13.413,83.9,6.685,90.073L.1,64.34Z" transform="translate(-11.86 58.153)"/>
      <path id="Path_81-2" data-name="Path 81" class="cls-5" d="M0,49.742c-.013-.06,1.959-.97,2.04-1.016a43.4,43.4,0,0,0,3.678-2.454c6.079-4.407,11.857-9.2,18-13.529C34.467,25.166,45.327,17.723,55.76,9.691,59.765,6.609,65.1.583,70.438.015c4.313-.455,6.005,9.717,6.728,12.5,1.331,5.1,3.919,11.689,2.708,17.019-1.257,5.564-7.8,10.633-11.756,14.231a181.956,181.956,0,0,1-20.911,16.1,77.574,77.574,0,0,1-18.892,9.663C22.2,71.536,15.729,72.171,9.757,74.686L0,49.742Z" transform="translate(-1.249 105.82)"/>
      <path id="Path_82-2" data-name="Path 82" class="cls-8" d="M0,36.346c.8.582,3.33.04,4.16-.087a42.477,42.477,0,0,0,11.3-3.812c13.308-6.2,27.806-13.054,39.556-21.955,3.518-2.668,6.727-5.7,10.2-8.433C66.627.949,68.579-.535,70.5.194c2.829,1.083,4.293,5.143,5.276,7.7.97,2.5,2.481,5.831,1.986,8.573-.522,2.855-3.611,5.464-5.524,7.416A87.226,87.226,0,0,1,54.114,37.9c-3.21,1.906-6.5,3.671-9.7,5.611-10.579,6.42-19.086,14.3-28.04,22.717Z" transform="translate(11.203 149.49)"/>
      <path id="Path_83-2" data-name="Path 83" class="cls-7" d="M0,45.842c1.09.074,3.15-1.478,4-2a75.235,75.235,0,0,0,10.165-8.085C24.717,26.368,36.854,19.065,47.735,10.1,51.038,7.376,58.067-.776,62.955.06c1.351.227,1.6,2.006,1.893,3.083.836,3.076,1.525,6.159,2.521,9.2,1.458,4.434,5.243,10.62,4.648,15.381-.294,2.347-2.655,4.012-4.36,5.377A164.891,164.891,0,0,1,52.744,43.782c-11.843,7.49-21.1,13.555-29.017,25.352Z" transform="translate(29.439 175.149)"/>
      <path id="Path_84-2" data-name="Path 84" class="cls-5" d="M.195,42.3c-.829-.047,1.217-1.143,1.886-1.652,1.431-1.1,2.882-2.173,4.327-3.25A127.342,127.342,0,0,0,17.649,28.05C25.714,20.493,33.364,12.5,41.5,5.019c3.21-2.956,7.8-7.423,12.057-3.444C56.6,4.423,57,9.914,57.9,13.739c.669,2.849,1.485,5.664,2.287,8.473.241.843,1.11,2.595.8,3.5-.415,1.15-2.561,2.247-3.464,2.889-3.511,2.488-7.37,4.534-11.081,6.721C34.916,42.113,22.524,48.052,13.884,58.584L.188,42.307Z" transform="translate(54.523 213.277)"/>
      <path id="Path_85-2" data-name="Path 85" class="cls-8" d="M0,35.532c4.139-1.237,7.838-5.216,11.141-7.8,5.992-4.681,11.917-9.356,17.487-14.538C33.892,8.3,39.857,2.309,46.966.216c6.814-2.006,8.854,10.533,10.506,14.94.314.836,2.9,5.35,2.193,6.213-1.023,1.25-3.33,2.22-4.641,3.136-4.394,3.056-8.995,5.845-13.488,8.761-10.024,6.5-18.952,13.729-26.388,23.111Z" transform="translate(70.6 247.899)"/>
      <path id="Path_86-2" data-name="Path 86" class="cls-6" d="M.007,31.835c.682.916,1.638-1.592,2.514-2.32a55.5,55.5,0,0,1,6.032-4.16C16.765,20.132,23.52,13.846,30.414,7.018c1.572-1.565,5.952-7.363,8.654-7,2.234.3,3.243,6.9,3.765,8.48.99,2.989,2.1,5.938,3.17,8.9.2.542,1.2,2.367.909,2.983-.849,1.806-3.671,3.571-5.069,4.888-1.264,1.19-2.575,2.314-3.912,3.41-2.173,1.785-4.333,3.591-6.54,5.33-5.872,4.628-11.964,9-17.253,14.3L0,31.835Z" transform="translate(90.977 276.901)"/>
      <path id="Path_87-2" data-name="Path 87" class="cls-11" d="M.118,25.179c-.582-.542,1.15-1.1,1.7-1.679,1.23-1.317,2.514-2.588,3.8-3.839,5.771-5.624,12-10.78,18.223-15.9.635-.522,4.909-4.862,5.851-3.5.8,1.177.08,3.945.02,5.243a56.646,56.646,0,0,0,.8,11.837c.455,2.728,1.057,5.444,1.658,8.145.455,2.033.9,4.059,1.324,6.1,1.692,8.245,6.8,29.264-8.225,24.964a24.622,24.622,0,0,1-5.082-2.107,39,39,0,0,1-8.252-6.386A91.206,91.206,0,0,1,1.235,34.728L.111,25.179Z" transform="translate(112.125 309.317)"/>
      <path id="Path_88-2" data-name="Path 88" class="cls-3" d="M51.025.211a9.211,9.211,0,0,1-1.19,2.341c-1.13,1.672-2.688,3.25-3.792,4.7L36.573,19.932c-.475.629-.936,1.277-1.378,1.933-1.792,2.628-3.424,5.377-5.316,7.925C28.662,31.421,27.4,33.019,26.1,34.6c-3,3.685-6.119,7.289-9.015,11.041-3.056,3.932-6.166,8.011-9.623,11.723A55.679,55.679,0,0,1,0,64.175a56.057,56.057,0,0,0,7.376-6.888c3.4-3.752,6.467-7.858,9.476-11.817,3.27-4.32,6.828-8.453,10.185-12.719q1.254-1.605,2.468-3.237c1.886-2.541,3.5-5.3,5.3-7.911.448-.655.909-1.311,1.391-1.946,2.227-2.949,4.427-5.912,6.654-8.861.956-1.264,1.913-2.521,2.882-3.778,1.11-1.431,2.675-2.989,3.812-4.654A9.229,9.229,0,0,0,50.711.117.164.164,0,0,1,50.925.01a.155.155,0,0,1,.107.207Z" transform="translate(-3.122 45.611)"/>
      <path id="Path_89-2" data-name="Path 89" class="cls-3" d="M56.1.316c-.214-.02-.548.408-.95.93-.8,1.05-1.732,2.6-2.02,2.922-1.137,1.264-2.18,2.555-3.19,3.872-2.374,3.1-4.487,6.326-6.861,9.529-1.786,2.414-3.7,4.715-5.544,7.075-.782,1.01-1.558,2.033-2.3,3.076-2.635,3.7-5.049,7.41-7.644,11.027-1.725,2.407-3.531,4.761-5.524,7.055-.588.669-1.2,1.317-1.839,1.939-1.465,1.458-3.009,2.835-4.414,4.36-1.19,1.291-2.26,2.708-3.444,4.019a21.483,21.483,0,0,1-1.6,1.618c-2.488,2.22-5.116,4.333-7.617,6.554C2.08,65.25,1.023,66.22,0,67.229c1.01-1.023,2.053-2.006,3.123-2.969C5.6,62.013,8.2,59.873,10.66,57.62A22.4,22.4,0,0,0,12.231,56c1.164-1.331,2.227-2.755,3.4-4.059,1.391-1.538,2.929-2.936,4.38-4.407.622-.629,1.224-1.271,1.806-1.946,1.966-2.294,3.738-4.661,5.444-7.069,2.568-3.631,4.969-7.349,7.583-11.061.749-1.05,1.525-2.08,2.314-3.09,1.846-2.354,3.765-4.648,5.557-7.048,2.04-2.742,3.892-5.49,5.885-8.165,1.324-1.779,2.715-3.524,4.253-5.216.321-.354,1.478-2.294,2.347-3.29.368-.428.716-.669.93-.649a.166.166,0,0,1,.154.181.172.172,0,0,1-.187.154Z" transform="translate(-6.94 47.974)"/>
      <path id="Path_90-2" data-name="Path 90" class="cls-3" d="M57.893.065a.269.269,0,0,1,.02-.027.177.177,0,0,1,.241.02.206.206,0,0,1-.02.247c-.027.02-.074.074-.14.134-.361.354-1.271,1.224-1.344,1.291-.776.776-1.585,1.5-2.341,2.267-.321.328-.635.669-.93,1.03-1.772,2.12-3.571,4.226-5.337,6.353-1.177,1.418-2.341,2.849-3.464,4.3-.341.441-.655.883-.963,1.338-1.23,1.852-2.26,3.825-3.6,5.6C35.309,28.86,30.588,35.1,25.539,41.065c-3.364,3.979-6.875,7.824-10.6,11.482a46.248,46.248,0,0,1-4.293,3.665C7.162,58.88,3.37,61.261,0,63.936c3.337-2.708,7.1-5.129,10.553-7.838a46.725,46.725,0,0,0,4.226-3.7c3.691-3.7,7.142-7.583,10.472-11.569,5-6,9.7-12.238,14.385-18.491,1.331-1.765,2.367-3.732,3.591-5.571.314-.461.635-.923.976-1.364,1.137-1.451,2.307-2.882,3.5-4.293,1.772-2.127,3.591-4.22,5.377-6.326.3-.361.629-.709.956-1.043.762-.769,1.578-1.485,2.361-2.254.067-.067.983-.936,1.351-1.284.067-.054.134-.12.134-.12h0Z" transform="translate(-8.104 52.612)"/>
      <path id="Path_91-2" data-name="Path 91" class="cls-3" d="M59.859.209a.19.19,0,0,1,.02-.134A.179.179,0,0,1,60.12.028a.269.269,0,0,1,.134.194.294.294,0,0,1-.174.261C59.892.6,59.424.7,59.23.824L57.712,1.961c-.776.629-1.538,1.284-2.267,1.973s-1.424,1.4-2.08,2.16q-3.17,3.671-6.172,7.483t-5.878,7.731A199.957,199.957,0,0,1,28.528,37.049,172.782,172.782,0,0,1,14.077,51.267c-2.735,2.387-5.276,5-8.065,7.3A32.712,32.712,0,0,1,0,62.6a32.365,32.365,0,0,0,5.958-4.1c2.755-2.334,5.276-4.975,7.978-7.39A178.333,178.333,0,0,0,28.228,36.782c4.46-5,8.674-10.238,12.7-15.755Q43.806,17.1,46.839,13.3t6.226-7.47a27.064,27.064,0,0,1,2.12-2.173c.742-.689,1.518-1.351,2.3-1.973L59.03.543c.187-.12.609-.221.823-.328Z" transform="translate(-8.518 55.811)"/>
      <path id="Path_92-2" data-name="Path 92" class="cls-3" d="M74.966.33s-.02.013-.033.02a9.438,9.438,0,0,0-.876.776c-.655.508-1.317,1.01-1.973,1.518-.435.341-.863.689-1.277,1.057-2.976,2.568-5.5,5.7-8.339,8.426a30.661,30.661,0,0,1-3.952,3.25c-5.25,3.524-10.2,7.43-15.114,11.375S33.591,34.7,28.5,38.468c-2.535,1.879-5.123,3.691-7.791,5.41A83.718,83.718,0,0,1,8.747,50.606,39.536,39.536,0,0,1,0,53.261a39.083,39.083,0,0,0,8.707-2.748,83.043,83.043,0,0,0,11.87-6.841c2.648-1.739,5.209-3.578,7.724-5.47,5.049-3.8,9.9-7.844,14.8-11.81S53,18.527,58.261,15a29.728,29.728,0,0,0,3.905-3.183c2.862-2.715,5.4-5.838,8.393-8.4.421-.354.856-.7,1.3-1.05.655-.515,1.317-1.01,1.979-1.518.054-.04.5-.481.789-.7a.5.5,0,0,1,.4-.14.164.164,0,0,1,.087.221.2.2,0,0,1-.154.1Z" transform="translate(-8.799 95.593)"/>
      <path id="Path_93-2" data-name="Path 93" class="cls-3" d="M70.325.135A.207.207,0,0,1,70.4.028a.169.169,0,0,1,.234.047.242.242,0,0,1,.027.174A.7.7,0,0,1,70.438.5c-.415.308-1.531.9-1.953,1.17-.522.341-1.037.709-1.531,1.09-.762.568-1.5,1.17-2.254,1.739-1.077.816-2.093,1.692-3.083,2.588C59.29,9.21,57.13,11.477,54.69,13.517c-2.468,2.06-5.062,3.966-7.717,5.8-6.159,4.26-12.633,8.139-18.5,12.746-3.578,2.8-6.54,6.493-9.937,9.6a27.657,27.657,0,0,1-4.748,3.571,26.25,26.25,0,0,1-2.675,1.337C7.477,48.137,3.524,49.1,0,50.912c3.5-1.852,7.443-2.856,11.054-4.474A25.216,25.216,0,0,0,13.7,45.081a27.709,27.709,0,0,0,4.681-3.6c3.37-3.143,6.3-6.875,9.864-9.717,6.694-5.3,14.164-9.67,21.085-14.692,1.732-1.251,3.431-2.548,5.076-3.905,2.434-2.013,4.608-4.273,6.942-6.386,1-.9,2.026-1.779,3.116-2.595.756-.575,1.5-1.164,2.267-1.732.508-.381,1.03-.749,1.565-1.09.421-.268,1.525-.843,1.939-1.15A.65.65,0,0,0,70.325.135Z" transform="translate(-3.57 98.637)"/>
      <path id="Path_94-2" data-name="Path 94" class="cls-3" d="M71.087.066a.2.2,0,0,1,.067-.054A.179.179,0,0,1,71.381.1a.2.2,0,0,1-.054.214,1.008,1.008,0,0,1-.187.12c-.441.268-1.612.876-1.672.909-.689.408-1.371.816-2.046,1.244s-1.351.856-2.006,1.3c-2.374,1.592-4.7,3.217-6.941,4.962-1.491,1.157-2.929,2.374-4.32,3.678-2.066,1.939-4.18,3.872-6.393,5.671a56.444,56.444,0,0,1-4.594,3.39c-2.7,1.772-5.531,3.31-8.272,5-1.17.716-2.321,1.465-3.444,2.267-1.558,1.123-3.1,2.274-4.614,3.437C20.738,36.974,14.913,41.936,8.7,46.5c-.829.609-1.692,1.177-2.561,1.725C4.106,49.513,2,50.683,0,52.007c1.986-1.351,4.079-2.548,6.092-3.845.869-.568,1.719-1.137,2.541-1.759,6.159-4.628,11.93-9.663,17.982-14.4,1.511-1.184,3.036-2.347,4.594-3.484,1.123-.823,2.28-1.578,3.457-2.314,2.728-1.7,5.557-3.237,8.239-5.016,1.578-1.037,3.083-2.173,4.554-3.364,2.207-1.786,4.32-3.712,6.386-5.631,1.4-1.3,2.862-2.521,4.367-3.685,2.247-1.739,4.608-3.357,6.988-4.935.669-.448,1.344-.876,2.026-1.3s1.371-.829,2.06-1.23c.06-.033,1.23-.635,1.672-.9.047-.027.1-.06.127-.074Z" transform="translate(-2.74 102.063)"/>
      <path id="Path_95-2" data-name="Path 95" class="cls-3" d="M70.913.288a53.255,53.255,0,0,1-4.1,3.926c-2.127,1.859-4.367,3.651-6.487,5.49-2.488,2.133-4.949,4.387-7.483,6.527-1.7,1.438-3.431,2.822-5.23,4.093A75.049,75.049,0,0,1,40.9,24.536c-3.431,1.933-6.982,3.658-10.553,5.43-2.06,1.023-4.073,2.167-6.146,3.19-.9.435-1.792.849-2.715,1.23-2.107.856-4.233,1.578-6.386,2.24C10.065,38.172,4.962,39.375,0,41.181c4.929-1.866,10.031-3.13,15.04-4.735,2.133-.675,4.253-1.424,6.34-2.3.909-.381,1.8-.809,2.682-1.251,2.06-1.043,4.059-2.207,6.112-3.25,3.544-1.8,7.062-3.558,10.493-5.5a76.1,76.1,0,0,0,6.661-4.206c1.786-1.264,3.511-2.635,5.2-4.059,2.548-2.133,5.015-4.374,7.5-6.5,2.133-1.819,4.387-3.6,6.514-5.444A54.18,54.18,0,0,0,70.652.054a.17.17,0,0,1,.241-.007A.164.164,0,0,1,70.9.288Z" transform="translate(8.294 140.896)"/>
      <path id="Path_96-2" data-name="Path 96" class="cls-3" d="M82.716.282s-.06.053-.1.087c-.3.274-1.057.976-1.11,1.03-.448.388-.869.8-1.277,1.224-.963,1-1.872,2.06-2.889,3.009-.682.655-1.4,1.251-2.14,1.832-1.712,1.337-3.524,2.541-5.256,3.872-2.227,1.712-4.434,3.491-6.707,5.169-1.518,1.13-3.07,2.207-4.661,3.2-5.2,3.217-10.727,6.4-16.391,9.289a149.122,149.122,0,0,1-17.26,7.543c-2.441.876-4.909,1.638-7.4,2.334-5.8,1.625-11.7,2.9-17.521,4.44,5.8-1.6,11.69-2.942,17.467-4.628,2.468-.722,4.929-1.5,7.356-2.394a152.834,152.834,0,0,0,17.153-7.67c5.637-2.916,11.148-6.092,16.331-9.316,1.592-.983,3.13-2.053,4.641-3.17,2.28-1.672,4.494-3.444,6.714-5.136,1.739-1.317,3.558-2.514,5.27-3.845.729-.568,1.444-1.164,2.127-1.792,1.016-.943,1.926-1.993,2.9-2.989.415-.428.849-.843,1.3-1.237.06-.047.809-.749,1.117-1.01A.456.456,0,0,1,82.7,0a.164.164,0,0,1,.053.227.255.255,0,0,1-.06.06Z" transform="translate(-2.339 143.651)"/>
      <path id="Path_97-2" data-name="Path 97" class="cls-3" d="M84.756.375A.184.184,0,0,1,84.79.348c.689-.375.943-.408.9-.281.047.06-.12.241-.629.522l-.074.047c-.16.094-.7.395-.909.548-.261.181-.508.375-.756.568-.368.308-.729.622-1.1.93A22.6,22.6,0,0,1,80.035,4.24c-1.13.716-2.307,1.378-3.417,2.08a29.116,29.116,0,0,0-2.608,1.893c-1.966,1.585-3.8,3.337-5.845,4.842-.749.542-1.518,1.057-2.3,1.551-1.812,1.157-3.685,2.214-5.477,3.4A180.613,180.613,0,0,1,39.71,29.618c-7.162,3.457-14.532,6.5-21.854,9.222-2.214.823-4.333,1.538-6.473,2.14A49.02,49.02,0,0,1,4.7,42.371c-.99.134-2.16.588-3.27.742A3.937,3.937,0,0,1,0,43.08a3.764,3.764,0,0,0,1.424.02c1.11-.161,2.28-.629,3.263-.776a47.286,47.286,0,0,0,6.654-1.458c2.133-.622,4.24-1.364,6.44-2.207,7.289-2.782,14.612-5.9,21.741-9.4A184.493,184.493,0,0,0,60.12,17.6c1.8-1.177,3.678-2.234,5.49-3.377.776-.488,1.538-.99,2.28-1.531,2.046-1.491,3.885-3.23,5.851-4.8A29,29,0,0,1,76.4,5.985c1.11-.7,2.287-1.351,3.431-2.06a23.6,23.6,0,0,0,2.16-1.518c.374-.308.729-.622,1.1-.923.254-.2.508-.4.782-.582.194-.134.689-.415.883-.522Z" transform="translate(-3.543 146.473)"/>
      <path id="Path_98-2" data-name="Path 98" class="cls-3" d="M78.029.134a.207.207,0,0,1,.033-.074A.17.17,0,0,1,78.3.041a.178.178,0,0,1,.053.2.739.739,0,0,1-.107.174c-.234.328-.889,1.11-.943,1.19A11.7,11.7,0,0,1,75.6,3.485c-.923.843-1.939,1.592-2.916,2.394C70.7,7.5,68.84,9.276,66.894,10.948c-.836.722-1.685,1.418-2.575,2.08-1.2.889-2.421,1.732-3.671,2.548-2.9,1.906-5.9,3.678-8.76,5.611-3.4,2.28-7.015,4.079-10.513,6.146-1.485.876-2.943,1.8-4.354,2.822-1,.716-1.959,1.471-2.916,2.24-3.819,3.083-7.4,6.46-11.315,9.429-.976.742-1.973,1.458-2.983,2.16-4.032,2.789-8.259,5.31-12.191,8.239-1.819,1.344-3.5,2.909-5.276,4.34C1.578,57.184.8,57.773,0,58.314c.8-.542,1.572-1.144,2.327-1.772,1.759-1.451,3.424-3.029,5.23-4.4,3.912-2.963,8.105-5.537,12.111-8.366,1-.7,1.993-1.424,2.963-2.173,3.885-3,7.43-6.413,11.228-9.523.95-.782,1.913-1.538,2.909-2.28a51.223,51.223,0,0,1,4.38-2.862c3.477-2.073,7.1-3.872,10.479-6.152C54.5,18.859,57.5,17.093,60.407,15.2c1.244-.816,2.468-1.645,3.658-2.521.876-.655,1.732-1.344,2.568-2.053,1.953-1.665,3.825-3.431,5.818-5.049.97-.789,1.993-1.518,2.916-2.361A11.6,11.6,0,0,0,77.032,1.4c.054-.074.716-.849.95-1.184a.9.9,0,0,0,.053-.074Z" transform="translate(10.661 170.086)"/>
      <path id="Path_99-2" data-name="Path 99" class="cls-3" d="M81.038.3C79.486,1.325,78,2.416,76.537,3.546,70.672,8.073,65.309,13.256,59.2,17.462c-.722.495-1.471.956-2.234,1.384-3.009,1.705-6.253,3.036-9.135,4.975-1.311.883-2.588,1.812-3.845,2.762-2.956,2.227-5.818,4.574-8.827,6.728-4.046,2.882-8.212,5.591-12.291,8.439-1.745,1.217-3.471,2.461-5.163,3.752q-3.732,2.849-7.263,5.9C6.895,54.45,3.444,57.613,0,60.8c3.417-3.223,6.835-6.413,10.359-9.5,2.347-2.053,4.741-4.053,7.216-5.978,1.679-1.3,3.4-2.568,5.136-3.8,4.053-2.876,8.2-5.624,12.218-8.533,3-2.167,5.845-4.527,8.781-6.761,1.264-.963,2.548-1.9,3.865-2.789,2.889-1.946,6.146-3.283,9.168-4.989.749-.428,1.491-.869,2.193-1.364,6.112-4.173,11.489-9.336,17.374-13.83,1.471-1.123,2.976-2.207,4.534-3.23a.169.169,0,0,1,.187.281Z" transform="translate(9.585 171.944)"/>
      <path id="Path_100-2" data-name="Path 100" class="cls-3" d="M82.416.239A4.315,4.315,0,0,1,80.784,1.7c-1.465.869-3.464,1.531-4.474,2.133a44.221,44.221,0,0,0-4.033,2.989c-3.2,2.535-4.795,3.805-5.23,4.273-1.752,1.893-2.013,2.9-4.32,5.062-.776.729-1.4,1.257-1.892,1.632-1.679,1.271-3.424,2.434-5.2,3.544-4.14,2.588-8.446,4.9-12.445,7.71-2.173,1.518-4.22,3.21-6.333,4.8-.9.689-1.832,1.358-2.782,1.993-4.34,2.882-8.767,5.624-13.067,8.553-1.839,1.257-3.665,2.548-5.437,3.892-1.618,1.217-3.2,2.488-4.755,3.772C7.176,55.062,3.645,58.192,0,61.2c3.611-3.043,7.115-6.213,10.727-9.242,1.545-1.3,3.11-2.588,4.715-3.825,1.772-1.371,3.578-2.675,5.417-3.946,4.273-2.962,8.687-5.744,13-8.667.936-.635,1.852-1.3,2.749-1.993,2.107-1.618,4.146-3.317,6.32-4.855,4.568-3.217,9.536-5.8,14.217-8.854,1.164-.762,2.307-1.551,3.424-2.387.247-.187,1.043-.843,1.852-1.6,2.08-1.953,2.461-3.023,3.959-4.728.475-.542,2.193-1.886,5.631-4.581a44.914,44.914,0,0,1,4.106-3c1.016-.6,3.023-1.25,4.494-2.113A3.884,3.884,0,0,0,82.121.085a.182.182,0,0,1,.234-.067.173.173,0,0,1,.067.234Z" transform="translate(8.862 173.465)"/>
      <path id="Path_101-2" data-name="Path 101" class="cls-3" d="M70.559.262a.171.171,0,0,1,.007-.194A.165.165,0,0,1,70.8.035c.174.134.154.268,0,.395-.12.107-.435.207-.568.321l-1.144,1.1a19.716,19.716,0,0,1-1.485,1.3c-.756.615-1.551,1.19-2.314,1.806-2.514,2.013-5.089,3.946-7.711,5.825-3.919,2.815-7.925,5.5-11.937,8.192a35.362,35.362,0,0,0-4.267,3.431c-2.033,1.879-3.939,3.919-5.892,5.811-.936.909-1.906,1.792-2.9,2.655-2.3,2-4.7,3.905-7.008,5.878-3.23,2.749-6.567,5.29-9.971,7.731C10.493,48.157,5.236,51.588,0,55.179c5.2-3.638,10.412-7.142,15.488-10.86,3.37-2.474,6.681-5.042,9.871-7.811,2.294-1.993,4.674-3.919,6.955-5.938.976-.863,1.939-1.745,2.862-2.655,1.946-1.906,3.852-3.959,5.885-5.838a34.088,34.088,0,0,1,4.32-3.484c4.012-2.675,8.018-5.357,11.95-8.152,2.615-1.859,5.2-3.772,7.717-5.771.769-.6,1.558-1.184,2.321-1.792.508-.408,1-.816,1.465-1.271L70,.5a5,5,0,0,1,.548-.234Zm0-.007c-.02-.053-.013-.114.02-.08S70.592.229,70.559.255Z" transform="translate(30.944 206.144)"/>
      <path id="Path_102-2" data-name="Path 102" class="cls-3" d="M67.523.335l-.054.02a12.147,12.147,0,0,0-1.6.943c-1.337,1.03-2.682,2.127-4.039,3.156-.6.448-1.19.883-1.785,1.3-2.16,1.478-4.24,3.009-6.286,4.581-3.076,2.354-6.072,4.795-9.135,7.269-4.16,3.357-8.266,6.761-12.378,10.158-6.172,5.109-12.352,10.2-18.624,15.194C9.148,46.511,4.621,50.008,0,53.392,4.581,49.955,9.061,46.4,13.5,42.8c6.219-5.056,12.332-10.232,18.471-15.374q6.139-5.136,12.358-10.2c3.063-2.474,6.072-4.9,9.162-7.249,2.06-1.565,4.153-3.09,6.326-4.561.8-.542,1.578-1.124,2.361-1.719,1.177-.889,2.327-1.812,3.484-2.688A12.48,12.48,0,0,1,67.356.034c.254-.094.408.027.421.127a.163.163,0,0,1-.134.194.166.166,0,0,1-.114-.02Z" transform="translate(35.739 207.93)"/>
      <path id="Path_103-2" data-name="Path 103" class="cls-3" d="M78.336.279a22.654,22.654,0,0,1-2.053,1.585c-2.782,1.906-6.019,3.4-8.647,5.51-4.541,3.631-8.647,7.8-13.061,11.576-1.1.95-2.234,1.879-3.391,2.769-4.2,3.2-8.466,6.353-12.733,9.5-6.393,4.708-12.793,9.429-18.965,14.4A182.517,182.517,0,0,0,0,63.494,180.117,180.117,0,0,1,19.32,45.425c6.132-5.036,12.5-9.81,18.872-14.558C42.445,27.7,46.7,24.554,50.9,21.344q1.725-1.324,3.384-2.742c4.427-3.772,8.546-7.918,13.107-11.536,2.648-2.1,5.9-3.591,8.707-5.49A23.14,23.14,0,0,0,78.129.038a.177.177,0,0,1,.241.02A.176.176,0,0,1,78.35.3Z" transform="translate(26.116 209.35)"/>
      <path id="Path_104-2" data-name="Path 104" class="cls-3" d="M77.306.295a8.952,8.952,0,0,1-1.551,1.09c-1.251.729-2.668,1.3-3.845,2.006a33.047,33.047,0,0,0-2.8,1.892C67.757,6.3,66.453,7.39,65.169,8.48c-5.992,5.1-11.128,11.094-16.879,16.464q-2.157,2.016-4.461,3.885a206.3,206.3,0,0,1-17,12.151C18.056,46.652,8.954,51.868,0,57.157c8.9-5.37,17.936-10.686,26.663-16.438A205.83,205.83,0,0,0,43.535,28.469c1.531-1.237,3-2.535,4.427-3.872,5.758-5.37,10.927-11.342,16.932-16.431,1.3-1.09,2.615-2.187,3.979-3.2a32.254,32.254,0,0,1,2.842-1.892c1.177-.7,2.6-1.264,3.865-1.986A8.626,8.626,0,0,0,77.072.041a.171.171,0,0,1,.241.02A.17.17,0,0,1,77.3.3Z" transform="translate(27.941 211.234)"/>
      <path id="Path_105-2" data-name="Path 105" class="cls-3" d="M62.393.345A5.574,5.574,0,0,0,60.8.96c-1.224.669-2.448,1.672-3.471,2.26l-11.937,6.8c-4,2.314-8.032,4.534-11.957,6.921-2.621,1.592-5.189,3.243-7.664,5.076-3.758,2.762-7.316,5.738-10.753,8.827C9.844,35.5,4.935,40.436,0,45.378c4.875-5.009,9.717-10.011,14.839-14.732a138.657,138.657,0,0,1,10.68-8.961c2.474-1.852,5.049-3.551,7.67-5.149,3.926-2.4,7.971-4.6,11.977-6.915L57.144,2.873C58.174,2.291,59.4,1.3,60.635.639A5.92,5.92,0,0,1,62.34,0a.169.169,0,0,1,.2.134.168.168,0,0,1-.14.194Z" transform="translate(53.36 241.149)"/>
      <path id="Path_106-2" data-name="Path 106" class="cls-3" d="M72.244.312s.067.02.054.007c-.08-.127-.241.354-.361.468L70.813,1.7c-.575.415-1.157.816-1.745,1.21s-1.19.762-1.806,1.123c-1.117.642-2.247,1.257-3.384,1.859C61.23,7.3,58.542,8.638,55.907,10.075c-3.645,1.973-7.155,4.119-10.593,6.36-5.169,3.37-10.178,6.982-15.187,10.666-6.132,4.487-12.2,8.994-18.2,13.6Q5.925,45.291,0,50.039c4.889-4.026,9.824-7.945,14.806-11.8s10.018-7.657,15.087-11.442c5-3.718,9.984-7.363,15.167-10.747C48.5,13.8,52.035,11.667,55.706,9.7c2.648-1.418,5.343-2.755,8-4.146,1.13-.6,2.267-1.2,3.377-1.839.615-.341,1.21-.716,1.792-1.1s1.164-.782,1.739-1.184l1.1-.889c.134-.12.268-.408.408-.495a.272.272,0,0,1,.334.013.171.171,0,1,1-.214.267Z" transform="translate(43.67 242.527)"/>
      <path id="Path_107-2" data-name="Path 107" class="cls-3" d="M69.783.369c-.06.06-.147.16-.187.194l-.649.4c-.294.167-.582.361-.863.555s-.548.415-.809.635a18.533,18.533,0,0,1-1.959,1.451c-1,.655-2.053,1.244-3.11,1.859-3.277,1.9-6.534,3.839-9.83,5.724q-3.29,1.886-6.634,3.678a108.172,108.172,0,0,0-10.165,6.206c-4.909,3.344-9.61,6.975-14.391,10.633C16.632,35.177,12.111,38.6,7.9,42.4A74.734,74.734,0,0,0,0,50.558,76.847,76.847,0,0,1,7.811,42.3c4.173-3.832,8.66-7.316,13.181-10.833,4.761-3.7,9.429-7.4,14.324-10.767a104.77,104.77,0,0,1,10.2-6.246c2.227-1.177,4.434-2.407,6.627-3.651,3.3-1.872,6.574-3.792,9.857-5.678,1.057-.609,2.1-1.184,3.1-1.832a17.738,17.738,0,0,0,1.926-1.411,9.123,9.123,0,0,1,.843-.655c.288-.2.582-.395.889-.568l.615-.368c.08-.067.247-.268.3-.281a.183.183,0,0,1,.174.033.2.2,0,0,1,.067.174.164.164,0,0,1-.147.154ZM69.6.269a.2.2,0,0,1-.013-.06A.2.2,0,0,0,69.6.269ZM69.6.276Z" transform="translate(47.134 243.867)"/>
      <path id="Path_108-2" data-name="Path 108" class="cls-3" d="M69.549.287c-.7.542-1.424,1.043-2.153,1.525-1.705,1.117-3.471,2.127-5.189,3.263C59.632,6.78,57.017,8.412,54.382,10c-6.159,3.718-12.432,7.209-18.551,11.007A179.48,179.48,0,0,0,16.846,34.386,142.09,142.09,0,0,0,0,50.389a141.333,141.333,0,0,1,16.678-16.2A176.254,176.254,0,0,1,35.59,20.623c6.126-3.792,12.392-7.3,18.564-10.987C56.8,8.057,59.418,6.446,62,4.754c1.719-1.123,3.5-2.12,5.209-3.23.736-.468,1.445-.963,2.14-1.491a.178.178,0,0,1,.241.033.178.178,0,0,1-.033.241Z" transform="translate(48.666 244.852)"/>
      <path id="Path_109-2" data-name="Path 109" class="cls-3" d="M60.588.078a.2.2,0,0,1,.067-.054A.164.164,0,0,1,60.8.011.168.168,0,0,1,60.855.3a2.039,2.039,0,0,1-.241.181l-.588.368-1.538.829c-.675.348-1.324.729-1.966,1.123-.963.588-1.913,1.217-2.869,1.826-1.9,1.2-3.712,2.474-5.47,3.792-2.655,1.986-5.209,4.073-7.811,6.239-3.364,2.782-6.407,5.938-9.63,8.888-1.384,1.271-2.809,2.494-4.3,3.651-.889.682-1.812,1.324-2.749,1.946-2.18,1.431-4.44,2.728-6.607,4.173-2.876,1.913-5.738,3.872-8.593,5.845S2.809,43.138,0,45.151q4.173-3.07,8.413-6.1t8.52-5.952c2.147-1.471,4.394-2.8,6.554-4.253.923-.622,1.832-1.264,2.7-1.953.983-.769,1.926-1.578,2.856-2.407,3.732-3.317,7.162-7,11.007-10.192,2.615-2.16,5.183-4.253,7.851-6.226,1.772-1.317,3.6-2.575,5.524-3.778.97-.6,1.913-1.224,2.889-1.806.649-.395,1.3-.769,1.986-1.124L59.832.546,60.407.2l.16-.114Zm.187.261Z" transform="translate(57.727 246.365)"/>
      <path id="Path_110-2" data-name="Path 110" class="cls-3" d="M63.9.318l-.936.6c-.508.294-1.03.6-1.531.91s-1,.629-1.5.963c-.769.522-1.525,1.063-2.274,1.612-3.009,2.2-5.9,4.561-8.948,6.7-4.066,2.835-8.259,5.557-12.332,8.413-1.752,1.224-3.477,2.468-5.163,3.765-1.4,1.07-2.755,2.18-4.1,3.317-3.15,2.642-6.192,5.4-9.329,8.065-.629.535-1.264,1.057-1.9,1.578-2.548,2.073-5.169,4.059-7.677,6.186-.843.715-1.679,1.451-2.5,2.193C3.805,46.353,1.933,48.139,0,49.858c1.913-1.739,3.758-3.544,5.651-5.3.816-.756,1.632-1.5,2.474-2.227,2.481-2.153,5.076-4.173,7.61-6.279.629-.522,1.257-1.057,1.872-1.592,3.11-2.688,6.126-5.484,9.242-8.159,1.344-1.15,2.7-2.274,4.093-3.357q2.528-1.966,5.163-3.805c4.073-2.855,8.279-5.557,12.345-8.393,3.063-2.12,5.959-4.467,8.981-6.647.756-.548,1.518-1.083,2.294-1.6.495-.334,1-.655,1.518-.963s1.03-.609,1.552-.9c.1-.06.548-.395.843-.542a.509.509,0,0,1,.354-.08.159.159,0,0,1,.114.207A.159.159,0,0,1,63.9.331Z" transform="translate(65.919 270.949)"/>
      <path id="Path_111-2" data-name="Path 111" class="cls-3" d="M59.357.285c-.274.221-.562.435-.849.635-1.144.789-2.387,1.465-3.491,2.314-2.5,1.926-4.822,4.093-7.269,6.079-.622.5-1.244.99-1.879,1.465-3.885,2.869-7.891,5.564-11.837,8.359-1.685,1.2-3.364,2.408-5,3.665C23.968,26.647,19,30.673,14.151,34.832S4.568,43.292,0,47.705q6.771-6.711,13.99-13.061Q21.2,28.316,28.762,22.454q2.458-1.9,5-3.691c3.932-2.8,7.951-5.477,11.843-8.332.95-.7,1.879-1.438,2.789-2.187,2.127-1.759,4.2-3.611,6.4-5.29,1.11-.849,2.367-1.518,3.518-2.3.288-.2.562-.4.836-.615a.171.171,0,1,1,.214.268Z" transform="translate(68.501 274.666)"/>
      <path id="Path_112-2" data-name="Path 112" class="cls-3" d="M49.179.284c-1.685,1.832-3.457,3.558-5.29,5.21-2.749,2.481-5.631,4.8-8.513,7.162-2.321,1.886-4.588,3.838-6.948,5.664-1.578,1.224-3.2,2.387-4.9,3.457-1.251.782-2.548,1.5-3.865,2.18-1.966,1.016-3.972,1.959-5.938,2.956-2.307,1.164-4.614,2.354-6.9,3.558S2.26,32.912,0,34.169q3.36-1.936,6.774-3.812t6.848-3.671c1.959-1.023,3.946-2,5.892-3.043,1.3-.7,2.575-1.418,3.812-2.214,1.672-1.07,3.263-2.254,4.828-3.471,2.347-1.839,4.614-3.792,6.935-5.664,2.9-2.341,5.778-4.648,8.54-7.1,1.839-1.632,3.618-3.324,5.31-5.136a.17.17,0,0,1,.241-.013.176.176,0,0,1,.013.241Z" transform="translate(73.509 280.592)"/>
      <path id="Path_113-2" data-name="Path 113" class="cls-3" d="M45.046.2a1.8,1.8,0,0,1-.7.93c-.682.575-1.719,1.15-2.053,1.4-1.324,1.01-2.595,2.06-3.852,3.143S35.972,7.859,34.748,9q-3.591,3.34-7.423,6.42C23.52,18.5,19.587,21.435,15.7,24.431q-2.377,1.826-4.728,3.678C7.309,30.991,3.671,33.9,0,36.776c3.618-2.936,7.209-5.912,10.827-8.854q2.327-1.886,4.675-3.752c3.852-3.029,7.731-6.025,11.522-9.122,2.528-2.066,5.022-4.166,7.423-6.38,1.224-1.13,2.461-2.24,3.725-3.317s2.555-2.12,3.9-3.123c.334-.247,1.364-.809,2.046-1.371A1.5,1.5,0,0,0,44.7.149.173.173,0,0,1,44.893,0a.175.175,0,0,1,.147.187Z" transform="translate(92.903 299.218)"/>
      <path id="Path_114-2" data-name="Path 114" class="cls-3" d="M46,.3c-4.4,3.745-8.727,7.61-13.127,11.375q-2.829,2.427-5.711,4.781C20.838,21.547,14.378,26.4,8.045,31.445,5.33,33.6,2.642,35.791,0,38.052c2.608-2.307,5.25-4.541,7.931-6.741C14.2,26.175,20.6,21.253,26.863,16.09c1.926-1.565,3.818-3.163,5.711-4.768C36.988,7.577,41.355,3.759,45.789.041a.17.17,0,0,1,.241.02.176.176,0,0,1-.02.241Z" transform="translate(92.515 300.791)"/>
      <path id="Path_115-2" data-name="Path 115" class="cls-3" d="M43.053.334a2.071,2.071,0,0,0-.976.428,26.9,26.9,0,0,0-2.033,1.8c-1.11.936-2.207,1.879-3.3,2.835q-2.458,2.146-4.9,4.327-4.574,4.052-9.356,7.871C15.073,23.533,7.39,29.15,0,35.1c7.3-6.066,14.846-11.857,22.216-17.855,3.156-2.568,6.293-5.163,9.329-7.864,1.364-1.2,2.728-2.4,4.106-3.584S38.406,3.437,39.8,2.28A25.125,25.125,0,0,1,41.89.482,2.346,2.346,0,0,1,43.047,0a.171.171,0,0,1,.013.341Z" transform="translate(96.173 302.677)"/>
      <path id="Path_116-2" data-name="Path 116" class="cls-3" d="M41.984.069A.236.236,0,0,1,42.044,0c.033-.02.341.12.174.308-.12.14-.421.475-.488.528l-1.016.869-3.13,2.662c-2.234,1.953-4.374,4.012-6.567,6.005-.95.856-1.9,1.7-2.876,2.514-1.264,1.05-2.541,2.08-3.845,3.09-3.023,2.354-6.112,4.621-9.081,7.028-2.1,1.692-4.16,3.431-6.193,5.2C5.972,30.851,2.983,33.566,0,36.294c2.936-2.782,5.872-5.55,8.881-8.259,2.006-1.806,4.039-3.571,6.119-5.3q1.264-1.053,2.548-2.073c3.424-2.722,6.941-5.337,10.292-8.145.976-.809,1.933-1.645,2.876-2.494C32.929,8.047,35.082,6,37.329,4.061l3.163-2.635L41.509.577c.06-.053.348-.361.461-.488,0-.007.013-.013.02-.02Z" transform="translate(97.123 304.909)"/>
      <path id="Path_117-2" data-name="Path 117" class="cls-3" d="M42.278.275a5.594,5.594,0,0,1-.923.836c-.749.569-1.645,1.063-2.3,1.6-1.157.936-2.3,1.879-3.431,2.842S33.37,7.49,32.26,8.473c-2.508,2.22-5,4.481-7.523,6.681q-2.538,2.207-5.156,4.313C15,23.119,10.345,26.643,5.791,30.3,3.839,31.872,1.906,33.457,0,35.1c2.5-2.233,5.049-4.387,7.637-6.507,3.872-3.177,7.8-6.266,11.69-9.456,1.732-1.411,3.417-2.869,5.1-4.34,2.528-2.207,5.022-4.447,7.543-6.661q1.675-1.464,3.384-2.9c1.144-.95,2.3-1.893,3.464-2.815.669-.528,1.565-1.023,2.327-1.585a5.479,5.479,0,0,0,.869-.776.171.171,0,0,1,.261.221Z" transform="translate(98.647 307.204)"/>
      <path id="Path_118-2" data-name="Path 118" class="cls-6" d="M1.17,38.1c.281-.274,2.334-1.224,2.568-.7.488,1.11-.963,5.082-1.016,6.34-.395,8.426,1.759,16.832,4.293,24.79,6.814,21.446,16.23,41.482,21.212,63.483,3.979,17.574,15.568,30.969,20.985,47.647,3.29,10.158,4.695,20.784,8.286,30.929,7.858,22.215,18.029,43.615,24.717,66.245,7.584,25.666,12.7,52.389,19.554,78.322,4.675,17.708,7.436,36.995,15.241,53.679,3.15,6.734,9.663,14.92,18.243,11.91,10.218-3.584,12.793-18.865,14.371-27.946,5.2-29.852,3.919-60.661,6.447-90.788,2.615-31.176,11.817-63.5,7.289-94.9-6.487-45.06-39.7-113.873-71.716-147.236C79.353,47.066,65.015,39.068,50.289,29.6,33.2,18.611,18.905,7.8,0,0L1.164,38.1Z" transform="translate(50.652 -43.869)"/>
    </g>
  </g>
</svg>
