<svg xmlns="http://www.w3.org/2000/svg" viewBox="0 0 549 396"><defs><clipPath id="clip-path"><path id="Path_412" fill="#5440cc" d="M258 377c-.9.1-2.3 1.2-3.2 1.3l-7.1 1.4c-7.4 1.7-14.8 3.3-22.5 3.7-16.2.8-32.9-6.3-49-9-5.3-.8-10.5-2-15.7-2.4-1.9-.2-6.1.4-7.8-.4-.7-.3 1.3 0 2 .1a43 43 0 0 0 4.6-.1c4.5-.4 8.8-1.7 13.3-2.2 7.6-1 15.3-1 22.7-2.3 5.7-1 11-3 16.8-3.4a56 56 0 0 1 22.8 2.3c3.3 1 10.5 5.7 13.8 4.6l4 2.8a14.9 14.9 0 0 1-.6-1.5l-1-4.8a78 78 0 0 1-1.2-14.7c.3-10 6.5-18 8.8-27.2A51.8 51.8 0 0 0 260 315v-1.2c-.3-1.4-.6-3-.1-3.7.3-.5.2 1.1.2 1.7v2c0 .8.3 1.5.3 1.8.9 5 2.6 10 3.5 15 1.8 10.1 5 20.4 3.8 30.5a37.6 37.6 0 0 1-2.4 10.1c-1.1 2.7-3.3 5.1-3.2 8.2l-3.8-2.1a.7.7 0 0 1 .1.2l-.6-.4Zm0 0-.6-.3.6.4Zm-26-25.5c0 .4-.6-.6-.9-1l-1.5-2.2a25 25 0 0 1-3-7 77.1 77.1 0 0 1-2.3-22.7c.6-12.2 5-22.5 8.9-33.5 3.3-9.2 6-18.9 8.7-28.4l4.3-14.6c.2-.5 1-5 1.5-5a7.3 7.3 0 0 1 0 1l.3 2.5c.2 2.6.6 5.2 1 7.8 1.2 7.9 3.3 15.7 4.4 23.5 2.4 17.7-6.6 32.2-10 48.4a90.2 90.2 0 0 0-1.8 27c.4 2.9 1.8 5.7 2.5 8.4.7 3 .5 6 1 8.8l-13.2-13ZM51.2 296.8H53l4 .7a56 56 0 0 1 11.3 2.8c11 4 20.7 11 31.6 15 32.5 11.7 65.4-4.3 97.8 10.4 6.8 3 13.4 6 18.5 11.4l6 7-2 .5-4.3 1a110.1 110.1 0 0 1-13.4 1.8c-13.6 1.4-26.6 1-40.6 0-16-1.3-33.7-.5-49.6-5.8-23.8-8-43.2-27.5-61-44.8-.4 0-.5 0-.4-.3l.3.3Zm142.5 10.5c.4.2-.7-.9-1-1.3l-1.5-2.4a67.7 67.7 0 0 1-4.2-8.4 62.9 62.9 0 0 1-5-28.2c.6-10.6 5.4-20 9.5-29.2 5-11.2 9.8-22.4 15.2-33.3 3.2-6.4 7.5-13.1 9.5-20.2a55.8 55.8 0 0 0 1.7-8l.2-2.3c0-.5 0-1.9.2-1.4 1.8 4.6 1.3 10.4 3 15.3 4.5 13 13.2 25.4 11.8 39.1-.9 8-4.6 15.4-8 22.3-5.2 10.8-11 21.4-15.5 32.6-4 10.3-4.2 19-2.6 30.3.4 3.2 1.5 6.2 2.2 9.3 0 .4.7 2.6.5 2.9-.4.4-3.3-2.7-3.6-3-4-3.6-7.5-8.6-10.6-12.9l-1.8-1.2Zm-7.2-5.6c-.2-.1-7 1.2-7.4 1.3-5.4.4-11-.2-16.4-.6-17.2-1.4-32-5.7-48.2-13.4-25.3-12-46.8-29-70.3-44.3-14.2-9.3-27.6-19.3-44.3-21 1.8-.8 6 0 7.9.1 6.9.7 13.8 2.3 20.7 2.7 18.7 1 38.2 3.3 56.4 10.7 20 8.1 37.8 21.5 56.2 32.8 4.6 2.8 9.3 5.6 14.3 7.3 5.8 2 11.9 2.8 17 6.9 4 3 5.9 7.6 8.5 11.5l5.6 6Zm-7.9-174.9c-.6-1.7-1-3.3-.6-4.2.3-1.1.5 2.3.6 3.4v.8c.8 2.4 2.1 5 2.6 6.5a159 159 0 0 1 7.5 27.6c2 15.6-3 29-6 43.5-2.1 10.1-1.9 20.8-3.7 31-1.5 8.3-4.9 16.3-5.8 24.7-.4 3-.5 6-.8 9.1l-.4 3c0 .6.4 2 0 1.6-1.1-.9-2-4.8-2.7-6-2.9-5.6-5.6-11.1-8.1-16.8l-2.9-2.6c-1 .8-.7-2.6-.9-4a70.3 70.3 0 0 1-.7-7.2 66 66 0 0 1 3-22c6.5-21.3 15-40.8 17.8-63.6a159.3 159.3 0 0 0 1.3-18.9c0-2 0-4-.2-5.9Zm-9.5 144.8-2.5-3.5a115.3 115.3 0 0 0-11-10.8 139.3 139.3 0 0 0-24.7-18.7c-9-5-18.8-8.2-28-12.4a116 116 0 0 1-20-10.6 122.2 122.2 0 0 1-29.7-32c-6.1-9-10.1-19.2-15.8-28.5-2.5-4-6-7.3-9-10.9.3 0 2 1.5 2.2 1.7l7 5.3a266.7 266.7 0 0 0 27.3 19c10.4 6 21 12.3 31.7 18 17.4 9.3 37.2 19.3 49.6 35.5 4.4 5.7 6.4 12.2 9 18.6 2.7 7 6 13.9 9 20.8l5 8.4.1.4-.2-.4Zm-22-59.6-1.4-2.5A54 54 0 0 0 136 198c-13.8-12.7-31-21.5-47.1-30.5-26.5-14.9-45.1-41.1-59.8-66.8-5.7-10-10.2-20.7-16.4-30.6.6-.1 2.2 1.3 2.6 1.6a89.3 89.3 0 0 1 8.2 7.1c10.3 9.6 20.2 19.7 30.5 29.3a100.9 100.9 0 0 0 23.6 16.3c12.6 6.2 26.8 11.5 37.2 21.6 5 4.9 8.2 10.8 11.6 16.7a226.8 226.8 0 0 1 12.9 24.4c-2.8-8.4-4.4-18.4-9-26l-.9-2.1c-.2 0-2-7.3-2-7.7a128 128 0 0 1-5.2-24.5c-1-11 1.5-21.5 2.9-32 1.2-9.4 1.4-19 2-28.4a62 62 0 0 0-4.6-34.6c2.8 1.7 3.6 4.8 5 8.2 3 6.7 6 13.4 8.6 20.1 6.2 16.2 8.3 32.8 12 49.3 1.7 7.8 4.8 15.4 6.3 23.2a68.1 68.1 0 0 1 .2 23c-1.4 9.4-7.5 16.7-9 26.2a88.2 88.2 0 0 0-.9 11l-.8 6a1 1 0 0 1-.4-.6c.3 1.8.3 3.7 1.2 5.2l2.6 8.6c.4.7.6 1.4.4 1.4l-.4-1.4Zm-32-75.4c0 .3-2.5-.7-2.7-.8a62.4 62.4 0 0 1-9.1-4.1c-10.2-6-16.3-18.7-22.9-28C58 72.1 69.4 31.7 47.6 0c.2-.1 1.7 1.1 1.8 1.2 2 1.4 3.8 2.9 5.6 4.3 8.9 7 16.2 14.8 21 24.8C86.8 53 94.3 76.5 103.5 99.6c3 7.6 7.8 14.4 10.7 22.1 2.7 7.4 4 15.2 6.9 22.6l-5.9-7.7Z" data-name="Path 412"/></clipPath><clipPath id="clip-Bladeren_1_"><path d="M0 0h549v396H0z"/></clipPath><style>.cls-5{fill-rule:evenodd;fill:#f9e2d2}</style></defs><g id="Bladeren_1_" clip-path="url(#clip-Bladeren_1_)" data-name="Bladeren [1]"><g id="No_Dodos__Blad_2" data-name="No Dodos [_Blad 2" transform="rotate(138 211 238.5)"><path id="Path_370" fill="#044928" fill-rule="evenodd" d="M258 377c-.9.1-2.3 1.2-3.2 1.3l-7.1 1.4c-7.4 1.7-14.8 3.3-22.5 3.7-16.2.8-32.9-6.3-49-9-5.3-.8-10.5-2-15.7-2.4-1.9-.2-6.1.4-7.8-.4-.7-.3 1.3 0 2 .1a43 43 0 0 0 4.6-.1c4.5-.4 8.8-1.7 13.3-2.2 7.6-1 15.3-1 22.7-2.3 5.7-1 11-3 16.8-3.4a56 56 0 0 1 22.8 2.3c3.3 1 10.5 5.7 13.8 4.6l4 2.8a14.9 14.9 0 0 1-.6-1.5l-1-4.8a78 78 0 0 1-1.2-14.7c.3-10 6.5-18 8.8-27.2A51.8 51.8 0 0 0 260 315v-1.2c-.3-1.4-.6-3-.1-3.7.3-.5.2 1.1.2 1.7v2c0 .8.3 1.5.3 1.8.9 5 2.6 10 3.5 15 1.8 10.1 5 20.4 3.8 30.5a37.6 37.6 0 0 1-2.4 10.1c-1.1 2.7-3.3 5.1-3.2 8.2l-3.8-2.1a.7.7 0 0 1 .1.2l-.6-.4Zm0 0-.6-.3.6.4Zm-26-25.5c0 .4-.6-.6-.9-1l-1.5-2.2a25 25 0 0 1-3-7 77.1 77.1 0 0 1-2.3-22.7c.6-12.2 5-22.5 8.9-33.5 3.3-9.2 6-18.9 8.7-28.4l4.3-14.6c.2-.5 1-5 1.5-5a7.3 7.3 0 0 1 0 1l.3 2.5c.2 2.6.6 5.2 1 7.8 1.2 7.9 3.3 15.7 4.4 23.5 2.4 17.7-6.6 32.2-10 48.4a90.2 90.2 0 0 0-1.8 27c.4 2.9 1.8 5.7 2.5 8.4.7 3 .5 6 1 8.8l-13.2-13ZM51.2 296.8H53l4 .7a56 56 0 0 1 11.3 2.8c11 4 20.7 11 31.6 15 32.5 11.7 65.4-4.3 97.8 10.4 6.8 3 13.4 6 18.5 11.4l6 7-2 .5-4.3 1a110.1 110.1 0 0 1-13.4 1.8c-13.6 1.4-26.6 1-40.6 0-16-1.3-33.7-.5-49.6-5.8-23.8-8-43.2-27.5-61-44.8-.4 0-.5 0-.4-.3l.3.3Zm142.5 10.5c.4.2-.7-.9-1-1.3l-1.5-2.4a67.7 67.7 0 0 1-4.2-8.4 62.9 62.9 0 0 1-5-28.2c.6-10.6 5.4-20 9.5-29.2 5-11.2 9.8-22.4 15.2-33.3 3.2-6.4 7.5-13.1 9.5-20.2a55.8 55.8 0 0 0 1.7-8l.2-2.3c0-.5 0-1.9.2-1.4 1.8 4.6 1.3 10.4 3 15.3 4.5 13 13.2 25.4 11.8 39.1-.9 8-4.6 15.4-8 22.3-5.2 10.8-11 21.4-15.5 32.6-4 10.3-4.2 19-2.6 30.3.4 3.2 1.5 6.2 2.2 9.3 0 .4.7 2.6.5 2.9-.4.4-3.3-2.7-3.6-3-4-3.6-7.5-8.6-10.6-12.9l-1.8-1.2Zm-7.2-5.6c-.2-.1-7 1.2-7.4 1.3-5.4.4-11-.2-16.4-.6-17.2-1.4-32-5.7-48.2-13.4-25.3-12-46.8-29-70.3-44.3-14.2-9.3-27.6-19.3-44.3-21 1.8-.8 6 0 7.9.1 6.9.7 13.8 2.3 20.7 2.7 18.7 1 38.2 3.3 56.4 10.7 20 8.1 37.8 21.5 56.2 32.8 4.6 2.8 9.3 5.6 14.3 7.3 5.8 2 11.9 2.8 17 6.9 4 3 5.9 7.6 8.5 11.5l5.6 6Zm-7.9-174.9c-.6-1.7-1-3.3-.6-4.2.3-1.1.5 2.3.6 3.4v.8c.8 2.4 2.1 5 2.6 6.5a159 159 0 0 1 7.5 27.6c2 15.6-3 29-6 43.5-2.1 10.1-1.9 20.8-3.7 31-1.5 8.3-4.9 16.3-5.8 24.7-.4 3-.5 6-.8 9.1l-.4 3c0 .6.4 2 0 1.6-1.1-.9-2-4.8-2.7-6-2.9-5.6-5.6-11.1-8.1-16.8l-2.9-2.6c-1 .8-.7-2.6-.9-4a70.3 70.3 0 0 1-.7-7.2 66 66 0 0 1 3-22c6.5-21.3 15-40.8 17.8-63.6a159.3 159.3 0 0 0 1.3-18.9c0-2 0-4-.2-5.9Zm-9.5 144.8-2.5-3.5a115.3 115.3 0 0 0-11-10.8 139.3 139.3 0 0 0-24.7-18.7c-9-5-18.8-8.2-28-12.4a116 116 0 0 1-20-10.6 122.2 122.2 0 0 1-29.7-32c-6.1-9-10.1-19.2-15.8-28.5-2.5-4-6-7.3-9-10.9.3 0 2 1.5 2.2 1.7l7 5.3a266.7 266.7 0 0 0 27.3 19c10.4 6 21 12.3 31.7 18 17.4 9.3 37.2 19.3 49.6 35.5 4.4 5.7 6.4 12.2 9 18.6 2.7 7 6 13.9 9 20.8l5 8.4.1.4-.2-.4Zm-22-59.6-1.4-2.5A54 54 0 0 0 136 198c-13.8-12.7-31-21.5-47.1-30.5-26.5-14.9-45.1-41.1-59.8-66.8-5.7-10-10.2-20.7-16.4-30.6.6-.1 2.2 1.3 2.6 1.6a89.3 89.3 0 0 1 8.2 7.1c10.3 9.6 20.2 19.7 30.5 29.3a100.9 100.9 0 0 0 23.6 16.3c12.6 6.2 26.8 11.5 37.2 21.6 5 4.9 8.2 10.8 11.6 16.7a226.8 226.8 0 0 1 12.9 24.4c-2.8-8.4-4.4-18.4-9-26l-.9-2.1c-.2 0-2-7.3-2-7.7a128 128 0 0 1-5.2-24.5c-1-11 1.5-21.5 2.9-32 1.2-9.4 1.4-19 2-28.4a62 62 0 0 0-4.6-34.6c2.8 1.7 3.6 4.8 5 8.2 3 6.7 6 13.4 8.6 20.1 6.2 16.2 8.3 32.8 12 49.3 1.7 7.8 4.8 15.4 6.3 23.2a68.1 68.1 0 0 1 .2 23c-1.4 9.4-7.5 16.7-9 26.2a88.2 88.2 0 0 0-.9 11l-.8 6a1 1 0 0 1-.4-.6c.3 1.8.3 3.7 1.2 5.2l2.6 8.6c.4.7.6 1.4.4 1.4l-.4-1.4Zm-32-75.4c0 .3-2.5-.7-2.7-.8a62.4 62.4 0 0 1-9.1-4.1c-10.2-6-16.3-18.7-22.9-28C58 72.1 69.4 31.7 47.6 0c.2-.1 1.7 1.1 1.8 1.2 2 1.4 3.8 2.9 5.6 4.3 8.9 7 16.2 14.8 21 24.8C86.8 53 94.3 76.5 103.5 99.6c3 7.6 7.8 14.4 10.7 22.1 2.7 7.4 4 15.2 6.9 22.6l-5.9-7.7Z" data-name="Path 370"/><g id="Group_28" clip-path="url(#clip-path)" data-name="Group 28"><path id="Path_371" d="M84.5 158.5A39.8 39.8 0 0 0 80 149a46 46 0 0 0-6.7-8.3c-3.4-3.3-7.4-6-11-9l-2.6-2.4A95.9 95.9 0 0 1 48.5 116a142.3 142.3 0 0 1-9-14.9A106.5 106.5 0 0 1 32.7 85a122.7 122.7 0 0 1-4.3-16.7c-1.4-8.4-2.4-17-4.1-25.4a89.4 89.4 0 0 0-2.9-10.8 58.8 58.8 0 0 0-7-13.5C10.4 12.2 5.3 6.3.7.2A.4.4 0 0 0 .1 0a.3.3 0 0 0 0 .4C4.6 6.6 9.6 12.6 13.7 19a58 58 0 0 1 6.7 13.4A88.8 88.8 0 0 1 23 43c1.7 8.4 2.6 17 4 25.3A123.2 123.2 0 0 0 31.4 85a106 106 0 0 0 7 16.4 139.6 139.6 0 0 0 9.2 15A95.7 95.7 0 0 0 59 130l2.7 2.4c3.6 3 7.6 5.7 11 9a45.4 45.4 0 0 1 6.6 8 39.8 39.8 0 0 1 4.5 9.1.4.4 0 0 0 .4.3.3.3 0 0 0 .3-.4Z" class="cls-5" data-name="Path 371" transform="translate(40.2 -8.7)"/><path id="Path_372" d="m51.3 68.5-1-.8C49.1 66.5 48 65 46.6 64c-2.4-2-4.9-3.6-7.3-5.4l-3-2.5a92.6 92.6 0 0 1-9.2-9.7 140 140 0 0 1-8-10.8 61 61 0 0 1-3.3-5.6l-4.3-8.7L3.9 6.6.7.2A.4.4 0 0 0 .2 0a.3.3 0 0 0-.2.5l3 6.4 7.4 14.8c1.4 3 2.8 6 4.3 8.8a57.8 57.8 0 0 0 3.4 5.7 134.6 134.6 0 0 0 8.1 10.9 92 92 0 0 0 9.5 9.8l3 2.4c2.5 1.8 5 3.4 7.3 5.3l3.8 3.6 1 .9a.4.4 0 0 0 .6 0 .4.4 0 0 0-.1-.6Z" class="cls-5" data-name="Path 372" transform="translate(64.4 70)"/><path id="Path_373" d="M81.1 146.9a20 20 0 0 0-2.1-3.3l-3.8-4.4c-3.7-4.4-7.7-8.5-11.5-12.8l-2.8-3.2a138.5 138.5 0 0 1-12.1-16.9A186.3 186.3 0 0 1 39 88.1a58.1 58.1 0 0 1-4.5-14.3C33.3 66.4 33 59 31.8 51.6a82.1 82.1 0 0 0-3-13 86.3 86.3 0 0 0-5.3-12.7 51.8 51.8 0 0 0-8-11.3C10.8 9.6 5.5 5 .5.1a.4.4 0 0 0-.4 0 .3.3 0 0 0 0 .5C5 5.4 10.2 10 14.8 15.2a50.6 50.6 0 0 1 7.8 11 85.2 85.2 0 0 1 5 12.5 81.2 81.2 0 0 1 3 13c1 7.4 1.4 14.8 2.7 22.1A59 59 0 0 0 38 88.5a184 184 0 0 0 10 18.3 137.8 137.8 0 0 0 12.3 17L63 127c3.8 4.2 7.9 8.3 11.6 12.7l3.8 4.3a20.3 20.3 0 0 1 2 3.2.4.4 0 0 0 .6.2.3.3 0 0 0 .1-.5Z" class="cls-5" data-name="Path 373" transform="translate(38.8 -10.5)"/><path id="Path_374" d="m63.7 125.6-4.1-4.8-9.4-11.4c-4.8-5.7-9.5-11.2-13.6-17a73.5 73.5 0 0 1-7-12.5 73.8 73.8 0 0 1-4-11.8c-1-4.6-2-9.3-2.8-14-1-4.8-1.9-9.5-3.2-14.2a125.4 125.4 0 0 0-8-20.4A213.5 213.5 0 0 0 .6.2.4.4 0 0 0 .3 0a.3.3 0 0 0-.1.5 211.6 211.6 0 0 1 10.6 19.3 123.6 123.6 0 0 1 7.7 20.3c1.3 4.7 2.2 9.4 3 14 1 4.8 1.8 9.5 3 14.2a75.5 75.5 0 0 0 4 12 73.5 73.5 0 0 0 7.3 12.6c4.1 6 9 11.4 13.8 17l9.5 11.4a166 166 0 0 0 4.2 4.8.4.4 0 0 0 .5 0 .4.4 0 0 0 0-.5Z" class="cls-5" data-name="Path 374" transform="translate(55.6 .6)"/><path id="Path_375" d="m42.7 90.1-.2-.1-3.2-3.6c-2.5-2.9-5-5.8-7.3-8.8a70.1 70.1 0 0 1-4.2-6.2 52.2 52.2 0 0 1-4.5-10 142.4 142.4 0 0 1-3.8-14.8c-.7-3.4-1.5-6.7-2.5-10A147 147 0 0 0 10 18 184.7 184.7 0 0 0 .7.2.4.4 0 0 0 .2 0a.3.3 0 0 0-.1.5 190.1 190.1 0 0 1 9 17.8 146.7 146.7 0 0 1 6.7 18.5c1 3.6 1.8 7 2.6 10.6A176 176 0 0 0 21 58.1a56.9 56.9 0 0 0 6 13.7 70.7 70.7 0 0 0 4.3 6.3c2.3 3 4.8 6 7.4 8.8l2.9 3.2a4 4 0 0 0 .8.7.5.5 0 0 0 .5 0 .4.4 0 0 0 0-.5.5.5 0 0 0-.2-.2Zm0 0a1.2 1.2 0 0 1-.2 0 .5.5 0 0 1 .1 0h.1Z" class="cls-5" data-name="Path 375" transform="translate(65.9 13.5)"/><path id="Path_376" d="M135.7 139.2a7.7 7.7 0 0 1-2.3-2c-1.6-2-3.2-4.8-4.4-6.2a101.6 101.6 0 0 0-8.2-8c-2.9-2.7-6-5-9-7.3-12.5-9.2-26.5-15.8-39.4-24.3a109.9 109.9 0 0 1-15.6-12.1 157 157 0 0 1-19-22.1 455.8 455.8 0 0 1-18.6-28.5A465 465 0 0 0 .6.2.4.4 0 0 0 .1 0a.3.3 0 0 0 0 .4c6.5 9.2 12.3 19 18.3 28.7 5.8 9.7 11.8 19.4 18.4 28.6A157.5 157.5 0 0 0 56 80.2a111.1 111.1 0 0 0 15.8 12.3c13 8.4 27 14.9 39.5 24 3 2.2 6 4.5 9 7a101.2 101.2 0 0 1 8 8c1.3 1.4 2.9 4.1 4.6 6.1a8.8 8.8 0 0 0 2.6 2.3.4.4 0 0 0 .4-.1.4.4 0 0 0-.2-.6Z" class="cls-5" data-name="Path 376" transform="translate(10.5 66.5)"/><path id="Path_377" d="M133.3 137a.5.5 0 0 0 .2.4.4.4 0 0 0 .5 0 .5.5 0 0 0 0-.6 2.9 2.9 0 0 0-.4-.7c-.8-1-2.3-2.4-2.5-2.6l-5.4-6a63.4 63.4 0 0 0-3.9-3.8 51.7 51.7 0 0 0-5.8-4.5l-9.4-5.8c-8.2-5.1-16.8-9.6-25-14.7-3.6-2.1-7-4.3-10.4-6.7a99.6 99.6 0 0 1-15.8-13.9c-3.6-3.8-7-7.9-10.1-12a918.6 918.6 0 0 1-23.7-33.8L.6 0a.4.4 0 0 0-.4 0 .3.3 0 0 0-.1.5l20.6 32.2a901.1 901.1 0 0 0 23.6 34c3.2 4.2 6.6 8.4 10.2 12.2a100.4 100.4 0 0 0 16 14c3.5 2.5 7 4.7 10.6 6.8 8.2 5 16.8 9.5 25 14.5 3.2 1.9 6.4 3.7 9.4 5.7a52.4 52.4 0 0 1 5.8 4.4 69 69 0 0 1 3.8 3.8l5.5 6a31 31 0 0 1 2.7 2.8v.1Z" class="cls-5" data-name="Path 377" transform="translate(9.9 60.2)"/><path id="Path_378" d="M113.3 109.9a50.7 50.7 0 0 0-8.8-6.2c-4.6-2.6-9.6-4.8-14.2-7.2a170.3 170.3 0 0 1-22.8-14.8 181 181 0 0 1-18.9-17.1 332 332 0 0 1-26.9-32.8A671.3 671.3 0 0 1 .7.2.4.4 0 0 0 .1 0a.3.3 0 0 0-.1.5 648.7 648.7 0 0 0 20.7 32 310.3 310.3 0 0 0 27 33 178.8 178.8 0 0 0 19 17.1c3.7 2.8 7.4 5.4 11.3 8a136.4 136.4 0 0 0 11.8 6.7c4.7 2.4 9.6 4.5 14.3 7.1a48.7 48.7 0 0 1 8.7 6 .4.4 0 0 0 .5 0 .4.4 0 0 0 0-.5Z" class="cls-5" data-name="Path 378" transform="translate(20.6 69.3)"/><path id="Path_379" d="M84.6 75.4a3 3 0 0 0-1-.6l-2.4-.7a148.6 148.6 0 0 1-7.5-3.4c-4.2-2-8.3-4.1-12.4-6.4a137.5 137.5 0 0 1-11.7-7.5 136.2 136.2 0 0 1-17.3-14.6A169.4 169.4 0 0 1 10.7 16 200 200 0 0 1 .7.2.4.4 0 0 0 .2 0a.3.3 0 0 0-.2.5 244.3 244.3 0 0 0 21.2 31.3c3.2 3.9 6.6 7.7 10.2 11.3A133.2 133.2 0 0 0 49 57.8a142.2 142.2 0 0 0 24.4 13.7 161.6 161.6 0 0 0 7.6 3.3l2.3.7a2.2 2.2 0 0 1 .8.4.4.4 0 0 0 .5 0 .4.4 0 0 0 0-.5Z" class="cls-5" data-name="Path 379" transform="translate(46 92)"/><path id="Path_380" d="M58.6 44.7a118.7 118.7 0 0 1-19.4-10.3A158.4 158.4 0 0 1 16 16.1L8 8.4.7 0a.4.4 0 0 0-.5 0 .3.3 0 0 0 0 .4c2.2 3 4.6 5.8 7.2 8.6l7.8 8a161 161 0 0 0 11.3 9.7 145.4 145.4 0 0 0 12.2 8.6 116.3 116.3 0 0 0 19.7 10.1.3.3 0 0 0 .5-.2.4.4 0 0 0-.3-.5Z" class="cls-5" data-name="Path 380" transform="translate(68.4 116.4)"/><path id="Path_381" d="M43.6 33a.4.4 0 0 0 .5.2.4.4 0 0 0 0-.5 2.6 2.6 0 0 0-1-.7c-1-.4-2.9-1-3.4-1.3a86.8 86.8 0 0 1-11.3-6.6A124.8 124.8 0 0 1 14 12.8q-3.4-3-6.8-6.3L.6.1a.4.4 0 0 0-.5 0 .3.3 0 0 0 0 .5 282.2 282.2 0 0 0 16 15.5l4.5 3.8q3.5 2.7 7.3 5.1a101.2 101.2 0 0 0 11.6 6.5l3 1a8.9 8.9 0 0 1 .9.4l.2.2Zm0 0Z" class="cls-5" data-name="Path 381" transform="translate(80.6 122.4)"/><path id="Path_382" d="M141 122.3a17 17 0 0 0-2.4-2.8c-1.9-1.9-4.2-3.6-6-5.5A93.2 93.2 0 0 0 112 98c-8.7-5.2-17.9-9.4-27-14-9-4.5-17.8-9.3-25.9-15.6A154.1 154.1 0 0 1 47.2 58a102.5 102.5 0 0 1-10.4-11.6c-6-7.9-10.8-16.6-16.4-24.9q-2-3-4.3-6a65.7 65.7 0 0 0-5.8-6.7L.6.1a.4.4 0 0 0-.5 0 .4.4 0 0 0 0 .5 163 163 0 0 1 9.6 8.9 67.6 67.6 0 0 1 5.7 6.5c6 8 10.6 16.7 16 25l4.4 6.1A104.7 104.7 0 0 0 46.3 59a153.7 153.7 0 0 0 12 10.4c8.1 6.3 17 11.2 26.2 15.7 9 4.5 18.3 8.6 27 13.7a91.7 91.7 0 0 1 20.5 15.9c1.8 1.8 4.1 3.5 6.1 5.5a17 17 0 0 1 2.2 2.5.4.4 0 0 0 .6.2.4.4 0 0 0 0-.5Z" class="cls-5" data-name="Path 382" transform="translate(21.9 137.2)"/><path id="Path_383" d="m112.7 91.8-1-.8-3-1.7-4.7-2.8-4.8-2.5c-5.6-3-11.3-5.8-17-8.7L71 69.4c-5.8-3-11.8-6.2-17.6-9.7A99.3 99.3 0 0 1 42.6 52a130.7 130.7 0 0 1-18.7-19C15.3 22.4 7.8 11 .6.1A.4.4 0 0 0 .2 0a.3.3 0 0 0-.1.5c7 11 14.3 22.5 22.8 33a147 147 0 0 0 10.8 12.2c2.5 2.5 5.2 5 8 7.3A100 100 0 0 0 53 60.7c5.7 3.6 11.8 6.7 17.7 9.7L82 76.2l17 8.6q2.4 1.1 4.8 2.5l4.7 2.6 2.9 1.8 1 .7a1.1 1.1 0 0 0 .6.2.4.4 0 0 0 .3-.1.5.5 0 0 0 0-.5.4.4 0 0 0-.5-.2Zm-.2.4Z" class="cls-5" data-name="Path 383" transform="translate(41.4 151)"/><path id="Path_384" d="M100.3 77.2h.1c1.7.7 2.2.8 2 .5.2-.2-.3-.5-1.6-1.1h-.1l-1.6-.8-2.7-1.5-5.8-3.2-2.5-1.4a262 262 0 0 0-5-2.6c-6.7-3.3-13.4-6.3-20-9.8A149.2 149.2 0 0 1 45 46q-4.4-3.1-8.5-6.5a182 182 0 0 1-8-7A196.6 196.6 0 0 1 13.8 17Q6.8 9 .6.2A.4.4 0 0 0 .1 0a.3.3 0 0 0 0 .5c4 5.9 8.3 11.6 13 17a188 188 0 0 0 14.6 15.8A170.6 170.6 0 0 0 44.3 47a147.6 147.6 0 0 0 18.3 11.2l5 2.5c6.7 3.3 13.5 6.2 20.1 9.7l2.5 1.3 5.9 3.2 2.7 1.5 1.5.7Z" class="cls-5" data-name="Path 384" transform="translate(50.1 158)"/><path id="Path_385" d="M95.4 69.7a3.6 3.6 0 0 0-1.2-.7l-2.5-1-2.2-1.1-5.2-2.7c-7.6-3.9-15.3-7.1-23-10.8a167 167 0 0 1-9.6-4.9 119.3 119.3 0 0 1-14.8-9.7A145.2 145.2 0 0 1 23.6 27 188.2 188.2 0 0 1 .6.1a.4.4 0 0 0-.5 0 .3.3 0 0 0 0 .4A231.5 231.5 0 0 0 22.8 28a138.6 138.6 0 0 0 13.4 11.9 117 117 0 0 0 15 9.8l9.7 4.9C68.6 58 76.4 61.2 84 65l5.3 2.6 2.3 1.1 2.5 1a2.8 2.8 0 0 1 .8.4.4.4 0 0 0 .5.1.4.4 0 0 0 0-.5Z" class="cls-5" data-name="Path 385" transform="translate(53.3 157.7)"/><path id="Path_386" d="M75.8 51.8a22.8 22.8 0 0 1-5.6-1.8c-4.3-1.9-9-4.8-12.5-6.5a167.8 167.8 0 0 1-18.6-10.7q-6-4-11.8-8.4t-11.1-9.2Q8.2 8.2.6.2A.4.4 0 0 0 .1 0a.3.3 0 0 0 0 .5c5 5.4 10 10.6 15.4 15.4q5.4 5 11.1 9.4c3.8 3 7.8 5.8 11.8 8.5a163 163 0 0 0 19 10.5C61 46 65.6 48.8 70 50.7a23.1 23.1 0 0 0 5.7 1.7.3.3 0 0 0 .4-.3.4.4 0 0 0-.3-.4Z" class="cls-5" data-name="Path 386" transform="translate(67.9 168.4)"/><path id="Path_387" d="m56.4 36-.4-.3-.7-.2-.9-.3a111.4 111.4 0 0 1-9.8-4.5A200.7 200.7 0 0 1 25.4 19 261.2 261.2 0 0 1 9 7.4C6 5.1 3.3 2.7.6.1a.4.4 0 0 0-.5 0 .4.4 0 0 0 0 .5q4 4 8.4 7.6a166 166 0 0 0 8.8 6.9l7.4 5a258.2 258.2 0 0 0 25 14 50 50 0 0 0 5.5 2.2 6 6 0 0 0 .7.2l.7.2a.7.7 0 0 0 .3 0 .3.3 0 0 0 .2-.3.4.4 0 0 0-.1-.3.4.4 0 0 0-.5-.2Zm0 .4Zm0-.4h.2c0-.2 0-.1-.1 0Z" class="cls-5" data-name="Path 387" transform="translate(84 178.1)"/><path id="Path_388" d="M.5 120a1 1 0 0 0 .6-.5 5.7 5.7 0 0 0 .5-1.5c.5-1.7.7-4.1.8-4.7a123 123 0 0 1 6-19 262.3 262.3 0 0 0 11.4-34.6c1.1-4.8 2-9.7 2.7-14.6a136.2 136.2 0 0 0 1.2-22.6c0-3-.4-6-.8-8.9-.5-4.4-1.4-8.7-2-13.2a.4.4 0 0 0-.4-.4.3.3 0 0 0-.3.4c.6 4.5 1.3 8.8 1.8 13.3a85.4 85.4 0 0 1 .7 8.8 137.6 137.6 0 0 1-1.5 22.3 175.6 175.6 0 0 1-6.5 28.5c-2.1 7-4.6 14-7.3 20.6a130.8 130.8 0 0 0-5.8 19.2c-.2.5-.3 3-.7 4.7a5.3 5.3 0 0 1-.4 1.2l-.3.3a.3.3 0 0 0-.2.5.4.4 0 0 0 .5.2Z" class="cls-5" data-name="Path 388" transform="translate(156.7 117)"/><path id="Path_389" d="M.7 126.9a9.6 9.6 0 0 0 1.1-2.6c.6-2.1.8-4.6 1.3-6.4l2.1-6.5c1-3.3 2.3-6.5 3.4-9.7l2-6.8c1.4-5.3 2.5-10.8 4-16l4-14.7c1.2-4.9 2.3-9.9 3.2-14.9a112 112 0 0 0 1.7-20.5 49.2 49.2 0 0 0-1-8.6C21.3 13.6 19.1 7 18.4.4A.4.4 0 0 0 18 0a.3.3 0 0 0-.3.3c.6 6.7 2.7 13.3 3.8 20a50.3 50.3 0 0 1 .9 8.3 114.2 114.2 0 0 1-2 20.3c-.8 5-2 10-3.1 14.8-1.3 5-2.6 9.9-4 14.6C12 83.7 11 89.1 9.6 94.5c-.6 2.3-1.2 4.6-2 6.8L4.4 111l-2 6.6c-.5 1.8-.7 4.3-1.3 6.4a8.8 8.8 0 0 1-1 2.4.4.4 0 0 0 .2.6.4.4 0 0 0 .5-.1Z" class="cls-5" data-name="Path 389" transform="translate(160.1 117.6)"/><path id="Path_390" d="M.8 125.2v-.2c.3-.4.8-.8 1-1.3l.7-1.8 1.5-4.4 5.8-16c1.2-3.5 2.4-7 3.5-10.7C14.7 86 15.9 81 16.9 76c1.4-7.5 2.5-15.2 3.6-22.8a204 204 0 0 0 2.2-17.5 76.9 76.9 0 0 0-.1-12 70.5 70.5 0 0 0-1.6-9.4c-1.2-4.8-2.6-9.6-4-14a.4.4 0 0 0-.4-.3.3.3 0 0 0-.3.4c1.3 4.4 2.7 9.2 3.7 14a70.7 70.7 0 0 1 1.5 9.3 76.5 76.5 0 0 1 0 11.8C21 41.4 20 47.1 19.2 53c-1 7.5-2.2 15.2-3.6 22.7a170 170 0 0 1-6.8 25.6l-5.6 16-1.5 4.4-.6 1.8a3 3 0 0 1-.6.7 2 2 0 0 0-.5.7.9.9 0 0 0 .2.8.4.4 0 0 0 .5.1.4.4 0 0 0 .1-.5Z" class="cls-5" data-name="Path 390" transform="translate(162.3 125.7)"/><path id="Path_391" d="M.8 133.1a9.4 9.4 0 0 0 .4-1l.5-2 .3-1.4a257.1 257.1 0 0 1 3-9.5c1.9-5.7 3.8-11.5 5.5-17.3 1.1-3.9 2.2-7.8 3-11.8 1.3-6.2 2.9-12.4 4.4-18.7 1-4.1 1.8-8.3 2.5-12.5a91.6 91.6 0 0 0 1.3-21.7c-.2-3.5-.5-7-1.1-10.4A65.2 65.2 0 0 0 19 20c-1.3-4.6-3.2-9-4.5-13.7a48.2 48.2 0 0 1-1.3-6 .4.4 0 0 0-.4-.3.3.3 0 0 0-.3.4 47.7 47.7 0 0 0 1.3 6c1.3 4.5 3 9 4.3 13.7a63.2 63.2 0 0 1 1.4 6.8c.5 3.4.8 6.8 1 10.2a91.5 91.5 0 0 1-1.4 21.4A235 235 0 0 1 16.6 71c-1.4 6.3-3 12.5-4.2 18.7-.9 4-1.8 8-3 11.8A365.2 365.2 0 0 1 3 122.7l-1.6 5.7-.3 1.4-.5 2-.4 1a1 1 0 0 0-.1.5.5.5 0 0 0 .3.3.5.5 0 0 0 .4 0 .4.4 0 0 0 .1-.5Zm0 .2Z" class="cls-5" data-name="Path 391" transform="translate(165.6 125.5)"/><path id="Path_392" d="M.8 56.7a31.7 31.7 0 0 1 .7-4.5c.9-3.5 2.1-6.9 3-10.2a267 267 0 0 1 5.7-18.4l2-5.7L15 9.2l3-8.7a.4.4 0 0 0-.3-.5.3.3 0 0 0-.4.2l-4.7 12.2a570.8 570.8 0 0 0-6.5 19L3.4 41.6c-.7 2.9-1.7 5.8-2.4 8.8a35.4 35.4 0 0 0-1 6.1.4.4 0 0 0 .3.5.3.3 0 0 0 .5-.3Z" class="cls-5" data-name="Path 392" transform="translate(168.2 211.4)"/><path id="Path_393" d="M7.4 140.4a.5.5 0 0 0 0 .1.4.4 0 0 0 .3.5.6.6 0 0 0 .4 0 .4.4 0 0 0 .2-.3 1 1 0 0 0-.2-.6l-.7-1.2-.8-2-.7-1.8-1.1-4c-.5-2-1-4.1-1.3-6.2a111 111 0 0 1-2.3-16.7 57.5 57.5 0 0 1 1.3-16.4 75.4 75.4 0 0 1 4.2-12.2c2.6-6 5.7-11.6 8.5-17.5 1.8-3.6 3.4-7.4 4.9-11.2 2.2-5.6 4.2-11.4 6.3-17.2 1.1-3.2 2.5-6.2 3.7-9.4.5-1.4 1-2.8 1.3-4.2a30 30 0 0 0 .8-5.9c.3-4.5-.2-9.1 0-13.8A.4.4 0 0 0 32 0a.3.3 0 0 0-.4.3c-.3 4.7 0 9.2-.2 13.8a30.3 30.3 0 0 1-1 5.6 28 28 0 0 1-1.3 4.1l-3.8 9.4-6.4 17.2c-1.5 3.7-3.1 7.4-4.9 11-2.8 6-5.9 11.6-8.4 17.6a75.7 75.7 0 0 0-4.3 12.4 58.3 58.3 0 0 0-1.2 16.7 111.9 111.9 0 0 0 2.4 17l1.4 6a50.3 50.3 0 0 0 2 6l.7 2 .8 1.2Z" class="cls-5" data-name="Path 393" transform="translate(186 165.1)"/><path id="Path_394" d="M9.4 150.5a27.7 27.7 0 0 1-2.6-6.1c-1-3.3-1.7-6.8-2.5-9.7A103 103 0 0 1 1.1 109a67.6 67.6 0 0 1 4.4-24.4c3.4-8.5 8.7-15.8 12.6-24a63.6 63.6 0 0 0 2.7-6.3 120.1 120.1 0 0 0 5.2-21c1.7-10.9 2.3-22 3-33a.4.4 0 0 0-.3-.4.3.3 0 0 0-.4.3c-.9 10.9-1.7 21.9-3.5 32.6a119.5 119.5 0 0 1-5.3 20.8c-.8 2.1-1.7 4.2-2.7 6.2C13 68.1 7.7 75.5 4.3 84A68.4 68.4 0 0 0 0 109a103.6 103.6 0 0 0 3.4 26c.8 2.9 1.5 6.3 2.6 9.6a28.8 28.8 0 0 0 2.7 6.3.4.4 0 0 0 .6.2.3.3 0 0 0 0-.5Z" class="cls-5" data-name="Path 394" transform="translate(191.6 164.9)"/><path id="Path_395" d="M9.9 154.5a90.5 90.5 0 0 1-8.8-38.6 105 105 0 0 1 6.5-37.4 109.6 109.6 0 0 1 5.1-11.3c2-3.7 3.8-7.4 5.5-11.2A63 63 0 0 0 22 45.8a55.4 55.4 0 0 0 1.5-13.5c0-10.5-2-21.4-1.4-31.9a.4.4 0 0 0-.3-.4.3.3 0 0 0-.4.3c-.7 10.5 1.2 21.3 1 31.9a54 54 0 0 1-1.6 13.2 62.9 62.9 0 0 1-3.6 10c-1.8 3.8-3.7 7.4-5.6 11.1A105.6 105.6 0 0 0 6.4 78 105.7 105.7 0 0 0 0 115.7a91.6 91.6 0 0 0 9.2 39 .4.4 0 0 0 .6.2.3.3 0 0 0 .1-.5Z" class="cls-5" data-name="Path 395" transform="translate(196 168.3)"/><path id="Path_396" d="M10.2 163.3v.2a.5.5 0 0 0 .1.2.6.6 0 0 0 .3.1.3.3 0 0 0 .4-.2.3.3 0 0 0 0-.3l-.4-.6-.6-1.2-.8-1.7-.8-1.7-2.3-5.9-2-6a73.2 73.2 0 0 1-3-17.5 82.2 82.2 0 0 1 1.3-17.3 177 177 0 0 1 2.3-12.3A77 77 0 0 1 7 91.2c2.9-8.4 6.4-16.3 9.2-24.6a88.2 88.2 0 0 0 4.1-17.3 68.9 68.9 0 0 0 .1-14.7c-1-11.4-4-23-4.2-34.2a.4.4 0 0 0-.4-.4.3.3 0 0 0-.3.3c.1 11.2 2.9 22.9 3.8 34.3a67.6 67.6 0 0 1-.1 14.4A90.3 90.3 0 0 1 15 66c-2.8 8.3-6.4 16.3-9.2 24.6a77 77 0 0 0-2.3 8c-1 4.2-1.6 8.3-2.3 12.5a82.5 82.5 0 0 0-1.1 17.5 73.5 73.5 0 0 0 3.2 17.8l2 6 2.4 6 .8 1.7.8 1.7.6 1.2a2.8 2.8 0 0 0 .3.3Zm.6-.2Zm-.6.3a.8.8 0 0 0 0 .1c.1 0 0 0 0-.1Z" class="cls-5" data-name="Path 396" transform="translate(201 165.8)"/><path id="Path_397" d="M5 150.7c-.6-2.5-1.5-5-2.2-7.5A27 27 0 0 1 2 140a79 79 0 0 1-1-13 94.3 94.3 0 0 1 1-13c1.3-9.3 4.2-18.1 7-27 2-5.8 4-11.7 5.4-17.8a98 98 0 0 0 2.2-11.6 69 69 0 0 0-.3-17.2C14.5 27 10.2 13.5 8.6.3a.4.4 0 0 0-.3-.3.3.3 0 0 0-.4.3c1.4 13.2 5.6 26.8 7.2 40a68 68 0 0 1 .2 17 97.4 97.4 0 0 1-2.2 11.4c-1.5 6-3.4 11.9-5.3 17.7-2.9 9-5.7 17.8-7 27.2a95.2 95.2 0 0 0-.8 13.1 81 81 0 0 0 1.2 13.4 30.4 30.4 0 0 0 .7 3.3c.8 2.5 1.7 5 2.3 7.4a.4.4 0 0 0 .5.4.3.3 0 0 0 .3-.4Z" class="cls-5" data-name="Path 397" transform="translate(208 166.4)"/><path id="Path_398" d="M3.8 85.3a21.4 21.4 0 0 1 .3-7.3 96 96 0 0 1 3.2-10.4A96.6 96.6 0 0 0 10 57.5 84 84 0 0 0 11.4 47a39.3 39.3 0 0 0-.4-8.7 117.2 117.2 0 0 0-3.1-12.8L3.7 10.3.7.3A.4.4 0 0 0 .3 0a.3.3 0 0 0-.3.4L2.1 8l4.6 17.6a117.3 117.3 0 0 1 3 12.7 37.8 37.8 0 0 1 .4 8.4 84 84 0 0 1-1.3 10.4 93.5 93.5 0 0 1-2.5 10 96.6 96.6 0 0 0-3 10.6 22.4 22.4 0 0 0-.2 7.6.4.4 0 0 0 .4.3.3.3 0 0 0 .3-.3Z" class="cls-5" data-name="Path 398" transform="translate(218.8 175.3)"/><path id="Path_399" d="M4.6 113.8a16.3 16.3 0 0 1-1.4-5c-.4-2.7-.4-5.6-.7-7.8-.4-3.7-1-7.6-1.3-11.5a33.3 33.3 0 0 1 .2-7.4 39.8 39.8 0 0 1 2-7.5c2-5.7 5-11.2 7-16.8.8-2.5 1.5-5 2.1-7.7 1-3.8 1.8-7.7 2.7-11.6.7-3.4 1.7-6.7 2.6-10a66.6 66.6 0 0 0 2-9.1c1-6.3 1.7-12.7 3-19a.4.4 0 0 0-.3-.4.3.3 0 0 0-.5.2c-1.3 6.3-2.1 12.6-3.3 18.9a231.3 231.3 0 0 1-2 9c-1 3.3-2 6.6-2.8 10-.9 3.9-1.7 7.8-2.7 11.6l-2.1 7.5C7 63 4.2 68.4 2.2 74.1a40.6 40.6 0 0 0-2 7.7 33.9 33.9 0 0 0 0 7.7c.3 3.8 1 7.8 1.4 11.4.3 2.7.4 6.1 1 9.2a14.5 14.5 0 0 0 1.3 4 .4.4 0 0 0 .5.2.3.3 0 0 0 .2-.5Z" class="cls-5" data-name="Path 399" transform="translate(225.7 233.3)"/><path id="Path_400" d="M3.3 123.6a4.3 4.3 0 0 1-.4-1.7c-.2-1-.1-2.2-.2-2.9l-.4-5.5-.4-5.5c-.2-4.2-.7-8.7-.8-13.1a41.3 41.3 0 0 1 .6-8.6 32.4 32.4 0 0 1 1.3-5l3-7.2 3-7.4 2.4-7.6a144.6 144.6 0 0 0 4.2-18.6 183.4 183.4 0 0 0 1.8-19.2c.3-5.5.1-11.2.3-16.7l.1-4.2a.4.4 0 0 0-.3-.4.3.3 0 0 0-.4.3l-.2 4.2c-.2 5.5-.1 11.1-.5 16.6a188.2 188.2 0 0 1-2 19A145 145 0 0 1 10 58.5a178.3 178.3 0 0 1-5.3 15L2 81a32.3 32.3 0 0 0-1.5 5 42.2 42.2 0 0 0-.5 8.8c.2 4.4.7 8.9 1 13.1a281.7 281.7 0 0 0 .9 11.1c0 .8 0 2.2.2 3.4a4.2 4.2 0 0 0 .6 1.5.4.4 0 0 0 .5.2.4.4 0 0 0 .1-.5Z" class="cls-5" data-name="Path 400" transform="translate(230 229.3)"/><path id="Path_401" d="M2 123.4a1.4 1.4 0 0 0 0-.7l-.5-2a82.8 82.8 0 0 1-.4-6.5c0-4.8-.2-9.7 0-14.5a78.2 78.2 0 0 1 .8-9.4A48.8 48.8 0 0 1 3.3 84c2.4-8 6.5-15.6 8-24a157.1 157.1 0 0 0 2.4-23.6c.4-12-.5-24-1.3-36.1A.4.4 0 0 0 12 0a.3.3 0 0 0-.3.3c.7 12 1.3 24.1.9 36A171.7 171.7 0 0 1 10 59.7c-1.6 8.4-5.6 15.9-8 24A48 48 0 0 0 .9 90a74.6 74.6 0 0 0-.8 9.6c0 4.8.1 9.7.3 14.5a84.2 84.2 0 0 0 .4 6.5l.5 1.9a1.5 1.5 0 0 1 0 .5.4.4 0 0 0 .2.5.3.3 0 0 0 .5-.1Z" class="cls-5" data-name="Path 401" transform="translate(235.3 231)"/><path id="Path_402" d="M4.5 134.2a2.7 2.7 0 0 0 0-1.1l-.5-2.2-.8-5.2-.3-2.2c-.6-5-1.3-10-1.7-15.1a64 64 0 0 1 .1-10 49.3 49.3 0 0 1 1.5-8.2c1.8-6.5 4.5-12.6 6.6-19a61.9 61.9 0 0 0 3.2-13.3 96.3 96.3 0 0 0 0-17.2c-.4-6.7-1.4-13.5-2.4-20.2A196 196 0 0 1 8 .4a.4.4 0 0 0-.3-.4.3.3 0 0 0-.4.3c.3 6.7 1.1 13.5 2 20.2S11 34 11.4 40.6a94.3 94.3 0 0 1-.2 17 69.9 69.9 0 0 1-4.1 16.2c-2 5.3-4 10.5-5.4 16a52.4 52.4 0 0 0-1.5 8.4 65.2 65.2 0 0 0 0 10.1c.4 5 1.2 10.1 1.8 15.2l.3 2.2.9 5.2c0 .5.4 1.4.6 2.2a1.9 1.9 0 0 1 0 .8.4.4 0 0 0 .3.5.3.3 0 0 0 .4-.2Z" class="cls-5" data-name="Path 402" transform="translate(238.9 228)"/><path id="Path_403" d="M110.2 3.4a7 7 0 0 0-.8.2l-3 .8c-5.8.9-11.8 1.9-17.8 2.4a99.8 99.8 0 0 1-12 .5L72 7l-6.7-1-18.2-3A204.6 204.6 0 0 0 23.6.6L.3 0a.3.3 0 0 0-.3.3.4.4 0 0 0 .4.4l23.3 1a197.8 197.8 0 0 1 24.7 3L57.5 6l8 1c2.1.4 4.4.8 6.6 1a40.4 40.4 0 0 0 4.6.4 101.5 101.5 0 0 0 12.1-.6c6-.7 12-1.7 17.8-2.7l3-.9.8-.1a.3.3 0 0 0 .3-.4.5.5 0 0 0-.5-.4Z" class="cls-5" data-name="Path 403" transform="translate(145.1 371.6)"/><path id="Path_404" d="M103.5 2.7A105.4 105.4 0 0 1 80.7 4c-6.9-.3-13.9-1-20.9-1.7L45.8.9C40.6.5 35.2.2 29.8 0a141.4 141.4 0 0 0-18.3.8L.3 2.3a.3.3 0 0 0-.3.4.4.4 0 0 0 .4.3l11.3-1.3a119.4 119.4 0 0 1 18.1-.4c5.4.1 10.8.5 16.1 1l14 1.2c7 .7 14 1.3 21 1.5a105.4 105.4 0 0 0 22.8-1.6.3.3 0 0 0 .3-.4.5.5 0 0 0-.5-.3Z" class="cls-5" data-name="Path 404" transform="translate(144.3 370.3)"/><path id="Path_405" d="m86.1.7-.2.1a5 5 0 0 1-1.1.1h-8.9L66.6.7 50.7.5 40.1.3H24L.4 0a.3.3 0 0 0-.3.3.4.4 0 0 0 .4.4l20 .6a2169.7 2169.7 0 0 0 29.8.4l16.6.1h15.3a26.1 26.1 0 0 0 3.6-.2c.6 0 1-.3 1-.5a.4.4 0 0 0-.2-.5.4.4 0 0 0-.5.1Zm0 0Z" class="cls-5" data-name="Path 405" transform="translate(157.6 369)"/><path id="Path_406" d="M67.4 2.2h-1.8a81.6 81.6 0 0 1-6.2-.5L53.1 1 43.6.3A105.6 105.6 0 0 0 30.3.1L25 .5q-3.9.4-7.7 1.2c-4 .7-7.9 1.9-11.9 2.7a47.5 47.5 0 0 1-5.1.8.3.3 0 0 0-.3.4.4.4 0 0 0 .4.3 52.5 52.5 0 0 0 5.3-.7c4-.7 7.9-1.7 12-2.4a106.7 106.7 0 0 1 12.8-1.4 109.6 109.6 0 0 1 13.1.1l9.5.6a214.6 214.6 0 0 1 12.5 1l1.9-.1a.9.9 0 0 0 .3 0 .3.3 0 0 0 .2-.5.4.4 0 0 0-.5-.3Zm-.1.4Zm0-.2a.3.3 0 0 0 0 .2.4.4 0 0 1 0-.2Z" class="cls-5" data-name="Path 406" transform="translate(174.3 365.3)"/><path id="Path_407" d="M172.8 48.7a6.9 6.9 0 0 0-2.3-.1c-1.8.2-3.6.8-5 1l-6.7.8a62.3 62.3 0 0 1-6.7.3c-5.7 0-11.3-.3-17-.4H128c-4.7.1-9.4.8-14.2 1a68 68 0 0 1-12.6-.1l-13.8-1.5c-4-.5-8-.7-12.1-1.3a52.2 52.2 0 0 1-8-1.7 54.1 54.1 0 0 1-12.1-5.4c-5.8-3.4-11-7.5-16.7-11.7-3.6-2.7-7.3-5-10.8-7.5l-4.4-3.5c-4.7-4-8.7-8-13.1-11.7A70.4 70.4 0 0 0 .5 0 .3.3 0 0 0 0 0a.4.4 0 0 0 .2.5 71.4 71.4 0 0 1 9.4 6.9c4.4 3.7 8.4 7.7 13 11.8 1.4 1.3 2.9 2.5 4.4 3.6 3.5 2.6 7.2 5 10.8 7.5 5.8 4.3 11 8.5 16.7 12A54.6 54.6 0 0 0 67 48a53 53 0 0 0 8.1 1.7c4.1.6 8.2.8 12.2 1.3l13.8 1.4a106.5 106.5 0 0 0 12.9.1c4.7-.3 9.3-1 14-1.1h7.3l16.9.2a68.4 68.4 0 0 0 6.8-.3c2.3-.2 4.5-.5 6.7-1 1.3-.2 3.2-.8 5-1a6.2 6.2 0 0 1 2 .1.3.3 0 0 0 .4-.3.4.4 0 0 0-.3-.4Z" class="cls-5" data-name="Path 407" transform="translate(46.3 292.6)"/><path id="Path_408" d="M170.1 49.5v.1a.4.4 0 0 0 .4.2.3.3 0 0 0 .4-.3.8.8 0 0 0-.6-.6 5.8 5.8 0 0 0-1.5-.3 18.9 18.9 0 0 0-2.2 0l-3.3.2c-1.3.1-2.7.3-4.1.3-5.6.4-11.1.6-16.7 1.1a139.4 139.4 0 0 1-15.3.4c-12-.3-24.1-1.6-36.2-1.6a66 66 0 0 1-29.4-7 158 158 0 0 1-25-15.7C24.5 17.2 12.7 7.4.6.1A.3.3 0 0 0 0 0a.4.4 0 0 0 .2.6C12.3 8 24 18 36 27a155 155 0 0 0 25.1 16 66.9 66.9 0 0 0 30 7.2c12.1-.1 24.2 1.1 36.2 1.3a137.1 137.1 0 0 0 15.5-.4c5.5-.5 11-.8 16.6-1.2l4.1-.4 3.2-.3a15.7 15.7 0 0 1 2.1 0l1 .1.3.1Zm0 0Zm0 0Z" class="cls-5" data-name="Path 408" transform="translate(45.6 290)"/><path id="Path_409" d="M151 40a.5.5 0 0 0 .2.2.3.3 0 0 0 .5-.3.7.7 0 0 0-.2-.5.7.7 0 0 0-.6-.3c-.4 0-1.2.5-1.7.5l-2.8.3-1.8.1a343.5 343.5 0 0 1-13.1.4l-24.3.2c-5.4 0-10.8 0-16.2-.2-3.9-.2-7.8 0-11.6-.2-1.7-.1-3.3-.2-5-.5A103.8 103.8 0 0 1 50.8 34a103.4 103.4 0 0 1-22-11.5 35.7 35.7 0 0 1-4-3.2c-2.9-2.8-5.6-5.9-8.6-8.5A69 69 0 0 0 10 6.2C6.9 4 3.7 2 .5 0A.3.3 0 0 0 0 0a.4.4 0 0 0 .2.5c3.1 2 6.4 4 9.5 6.2a70.5 70.5 0 0 1 6 4.6c3 2.6 5.6 5.7 8.5 8.5a36.7 36.7 0 0 0 4 3.4A103.7 103.7 0 0 0 50.6 35a104.7 104.7 0 0 0 24 6l5 .4H91c5.4.2 10.8.2 16.2.2 8.2 0 16.2-.3 24.3-.4a243.7 243.7 0 0 0 17.8-.9c.4 0 1.1-.4 1.5-.5Z" class="cls-5" data-name="Path 409" transform="translate(57.8 293.6)"/><path id="Path_410" d="M139.8 31.7a.4.4 0 0 0 .3 0 .3.3 0 0 0 .2-.4.5.5 0 0 0-.2-.3 1.2 1.2 0 0 0-.5-.1l-3-.1-10.3-.5a986.5 986.5 0 0 0-44.5-.7c-4.6.1-9.4.4-14.1.3a85.3 85.3 0 0 1-9.5-.6 53.8 53.8 0 0 1-8.3-1.8A151 151 0 0 1 37.6 23l-7.4-2.8a40 40 0 0 1-4.8-2.3c-7-4-13-10-19.6-14.6A50.5 50.5 0 0 0 .5 0a.3.3 0 0 0-.5.2.4.4 0 0 0 .2.4A50 50 0 0 1 5.4 4C12 8.6 17.9 14.6 25 18.8a41.3 41.3 0 0 0 4.8 2.4l7.4 3c4.1 1.6 8.3 3.2 12.4 4.5a54.7 54.7 0 0 0 8.6 1.9 84 84 0 0 0 9.6.6c4.8 0 9.5-.2 14.2-.3a565.2 565.2 0 0 1 44.4.3l10.2.3 3 .1a.4.4 0 0 0 .2 0Z" class="cls-5" data-name="Path 410" transform="translate(65.4 298.4)"/><path id="Path_411" d="M131.7 28.6a34 34 0 0 1-6.4-.8c-3.3-.6-6.6-1.5-9.8-2.2l-6.6-1c-3.3-.3-6.7-.5-10-.6-7.6-.3-15.2.4-22.8 1-5 .5-10 .9-15 1a76.5 76.5 0 0 1-16.4-1.4A85 85 0 0 1 21.4 15 107.3 107.3 0 0 1 .6.1a.4.4 0 0 0-.5 0 .3.3 0 0 0 0 .5A108.6 108.6 0 0 0 21 16c8.4 4.9 17 8.4 23.6 9.8a77 77 0 0 0 16.6 1.4c5 0 10.1-.5 15.2-1 7.5-.6 15-1.4 22.6-1.2a135.7 135.7 0 0 1 16.5 1.5l9.7 2.1a35.3 35.3 0 0 0 6.6.7.3.3 0 0 0 .4-.3.5.5 0 0 0-.5-.4Z" class="cls-5" data-name="Path 411" transform="translate(70.8 298)"/></g><path id="Path_413" fill="#f2ba38" fill-rule="evenodd" d="m198.2 285.5-8.6-5.8c-3-2.2-5.8-4.6-8.7-7-4.3-3.6-8.5-7.3-12.6-11-8.7-7.8-17.6-15.2-26.3-23a181.6 181.6 0 0 1-20.5-20.8c-4.8-5.6-9.5-11.5-14.2-17.2-5.6-6.7-11.6-13.2-17.1-20a142 142 0 0 1-6.6-8.7 204.2 204.2 0 0 1-15.4-26 278.6 278.6 0 0 1-12-27.7c-8.8-23-14.8-48.3-24.5-71.9C25.1 30.1 16.7 14.6 5 1.2a3 3 0 0 0-4-.7 2.7 2.7 0 0 0-.2 4 151 151 0 0 1 23.6 44c8.7 23.7 14.1 49 22.2 72.2a268.9 268.9 0 0 0 12.3 29 207.5 207.5 0 0 0 16.6 27.5 162 162 0 0 0 7.2 9.2c5.7 6.8 11.8 13.2 17.6 19.9 4.9 5.6 9.7 11.4 14.7 17a190.2 190.2 0 0 0 22 21.3c8.9 7.5 18 14.7 26.9 22.2a490.7 490.7 0 0 0 22.5 17.9l9.1 5.8a2.9 2.9 0 0 0 4.1-.8 3.2 3.2 0 0 0-1.3-4.2Z" data-name="Path 413" transform="translate(106.8 125.4)"/></g></g></svg>