<svg xmlns="http://www.w3.org/2000/svg" width="577" height="686"><defs><clipPath id="b"><path fill="#fcb817" d="M371.6 34.4c4.1 6 18.7 36.5 18.3 45.8a171 171 0 0 1-10.9 40.6c-10.5 26-37.5 43.4-64.7 51.4a302.6 302.6 0 0 1-86.8 12.1c-11.6 0-23-3-34.7-2.6-13.5.4-26 4.7-39.2 5.8a92 92 0 0 1-27.2-2.7c-15.2-3.4-28.8-10.5-43.3-15.3-15.6-5.3-31.8-8.5-47.5-13.2-11.7-3.5-22.8-8.3-35.2-9.4-1.6-.2 2.2-2 3.4-3l6.3-5A127.2 127.2 0 0 0 29 120.2c9.5-11.8 18.8-24.9 32-33.4C71.2 80 83.8 76.6 95 71.8a211.4 211.4 0 0 1 38.6-13.4c21.5-4.5 43.3-5.8 64.4-12.1A191.4 191.4 0 0 0 224.5 36c9.6-4.5 18.2-10.5 27.6-15.2 11-5.5 22.4-9.5 34-13.8C297.8 3 311.5-1.3 324 .4c9 1.2 17.5 5.3 25 9.7a120 120 0 0 1 22.6 24.3Z" data-name="Path 296"/></clipPath><clipPath id="c"><path fill="#044928" d="M344.1 38.4 333.7 0l-50.3 5.6L262.1 8c-25.7 3-70.6 5.3-104.2 32a260.8 260.8 0 0 0-58.3 66.2c-7 11.6-12.4 24-19.9 35.4-14.6 22.2-33.6 42.5-45 66.3-12.4 26-20.3 52.8-34.5 78-.8-.2 1.5-.2 2.3-.2l5-.4c4.5-.5 8.8-1 13.2-1.3 13.7-1 27 3 40.5 2a160.4 160.4 0 0 0 20.4-2.5 111.2 111.2 0 0 0 14.2-4.1l59-24.6c72-30 80.6-34 93.7-41.6 26.1-15.4 52.2-30.6 71.6-60A149.5 149.5 0 0 0 344.3 75a81.7 81.7 0 0 0 1.6-13 99.3 99.3 0 0 0-.6-14.6c-.3-3.8-.8-6.9-1.2-9Z" data-name="Path 335"/></clipPath><clipPath id="d"><path fill="#044928" d="M196.4 442c.7-.5 2.9-.8 3.8-1.4q3.7-2.3 7.5-4.4c7.9-4.4 15.8-8.9 22.8-14.5 14.8-11.8 22.9-30 34.6-44.3 3.7-4.7 7.1-9.6 11.3-13.8 1.5-1.5 5.7-4.4 6.5-6.3.3-.7-1.1 1.1-1.7 1.6a49 49 0 0 1-4.1 3.5c-4.3 3.1-9.2 5.5-13.6 8.5-7.4 5.1-14.2 11-21.8 15.7-5.8 3.7-12.2 6.2-17.7 10.3a61.8 61.8 0 0 0-17.8 19.2c-1.8 3.3-3.8 12.3-7.7 14l-1 5.2a14.6 14.6 0 0 0-.8-1.6l-3.5-4.3a90.2 90.2 0 0 0-12.3-12c-9.3-7.1-22-8.3-32.4-13.5a66.6 66.6 0 0 1-10.5-6.5l-1-.8c-1-1.3-2.4-2.8-3.3-3-.7 0 .9 1.1 1.4 1.5l1.8 1.5 1.3 1.6c3.8 4.4 6.8 9.4 10.6 13.8 7.7 9 14.3 19 24.5 25.7a50.5 50.5 0 0 0 11.3 5.7c3.3 1.1 7.5 1.3 10.2 3.7l1.3-4.5a.8.8 0 0 0 .1.2l.2-.8Zm-.1.1.2-.7Zm-.6-39c.4.3 0-1-.2-1.4l-.7-2.8a25.4 25.4 0 0 0-3.8-7.5 88.8 88.8 0 0 0-18.7-18.7c-11.6-8.6-24.6-13-38-18.1-11.3-4.4-22.4-9.5-33.4-14.5l-17-7.6c-.6-.3-5.4-3-5.9-2.6a7.9 7.9 0 0 0 1 .9 153.3 153.3 0 0 1 8.3 8.6c5.9 6.7 11.2 14.1 17.4 20.8 14 15 35 19 52.7 28.4 8.8 4.7 19.2 11.6 26.1 18.8 2.3 2.4 3.6 5.5 5.5 8.1 2 2.7 4.9 4.8 7.1 7.3l-.4-19.7ZM303 223.9l-1.5 1.4-3 3.6a57.6 57.6 0 0 0-7.2 10.7c-6 11.4-8 24-13.9 35.4-17.5 33.6-60.7 47-75.5 82.7-3.1 7.4-6.2 14.6-5.7 22.7l1.1 9.9 2.2-1.2c1.6-1 3.2-1.7 4.8-2.6a136.9 136.9 0 0 0 13.2-8.9 258 258 0 0 0 35.2-31.2c12.9-13.3 28.8-26.2 37.9-42.3 13.4-24.1 12.6-53.6 12.4-80.2.2-.2.3-.4 0-.4ZM188.7 341c-.3.5-.3-1.2-.4-1.7l-.8-3a65.8 65.8 0 0 0-4-9.5 69.9 69.9 0 0 0-21.2-24.9c-10.2-7.3-23-10.7-34.8-14.5-14.5-4.5-29-9.2-43.6-13.1-8.6-2.3-18.4-4-26.5-7.7a74.4 74.4 0 0 1-8.7-4.7l-2.5-1.6c-.4-.3-1.6-1.4-1.3-1 2.6 5 8.3 8.9 11.3 13.8 7.9 13.2 11.6 29 25.3 38.2 8 5.3 17.9 8 27.1 10.5 14.4 4 29.1 7.4 43.2 12.4a69.7 69.7 0 0 1 29.9 20.6c2.4 2.6 4.2 5.8 6.5 8.6.3.3 1.7 2.5 2.2 2.5.6 0 .3-4.5.3-5 .2-5.7-1.3-12.1-2.5-17.7l.5-2.2Zm1.2-9.6c0-.3 7.1-4.6 7.5-4.9 5-3.7 9.4-8.4 13.8-13a134.9 134.9 0 0 0 29.7-46.8c11-28.4 14.4-57.5 20.8-87 3.9-17.7 6.5-35.4 19.4-49.5-2.3.8-5.2 4.5-6.8 6.1-5.4 5.8-9.9 12.3-15.5 17.9-15.3 15.2-30.2 31.7-39.3 51.2-10 21.4-13.2 45-19 67.5-1.5 5.5-3 11.3-5.8 16.4-3.3 6-7.8 11.2-8.6 18.2-.6 5.2 1.8 10.1 3.2 15l.6 8.9ZM37.7 194.9c-1-1.7-2.2-3.2-3.4-3.7-1.2-.5 1.7 2.1 2.7 3l.7.7c1.4 2.4 2.7 5.4 3.6 6.8a158 158 0 0 0 18.6 26.2c12.4 13.3 29 19.4 44.8 27.9 11 6 20.5 14 31.4 20.3 8.8 5 19 8.4 27.4 14l9 6c1 .8 2.1 1.4 3.1 2.1.5.4 1.5 1.7 1.5 1.1.2-1.5-2.6-5.1-3.2-6.5-2.6-6.4-5.2-12.6-8.2-18.8l.1-4.1c1.6-.2-1.8-2.5-2.8-3.6a81.2 81.2 0 0 0-6-6 85.3 85.3 0 0 0-22.5-14c-25-11-50.3-19-73.3-33.8A200.2 200.2 0 0 1 43 199.4l-5.3-4.5Zm139.8 100.6-1-4.6c-.6-5.4-.3-11-.1-16.5.4-11 1.1-22.2 4.4-32.8 3.3-10.6 8.8-20.5 13-30.8 3.2-7.5 6.3-15 7.8-23.1 2.7-15.3.6-31.7-3.2-46.6-3-11.5-8.7-22-12.2-33.4-1.5-4.9-1.6-10-2.1-15-.4.2-.4 2.6-.5 3l-1.2 9.2a244 244 0 0 1-6.5 35c-3.5 12.7-7 25.5-11.1 37.9-6.7 20.2-14.8 42.8-10.9 64.4 1.4 7.6 5.6 14 9.2 20.8 4 7.3 7.4 14.9 11 22.4l3.4 10 .1.5-.1-.4Zm-35-61.3-1.1-3c-1.6-5.1-2-10.7-1.8-16 .4-20.2 7.4-39.8 13.2-59 9.5-31.3 1.8-65.1-8.8-95.5-4.1-12-10-23.3-13.6-35.4-.5.4-.7 2.7-.7 3.2A80 80 0 0 0 129 40c-.2 15 .4 30.1.1 45.2a92.6 92.6 0 0 1-5.7 30.2c-5.2 14.3-12.7 29.1-12.7 44.6 0 7.5 2.7 14.3 5.1 21.3 3.2 9.5 6.5 19 11 28-5.2-8.3-12.9-17-15.9-26.2l-1-2.2c.1-.2-5-7-5.2-7.3A139.7 139.7 0 0 0 87 151.5c-9.2-8.9-20.8-14.9-31.6-21.7-9.6-6-18.5-13-27.7-19.5-11.3-8-22.2-16.5-27.4-29.4-.9 3.4 1.3 6.4 3.1 10 3.5 7.3 7 14.6 10.9 21.6 9.3 16.8 22.6 30.7 34.4 45.8 5.6 7.2 9.8 15.2 15.5 22.2a82 82 0 0 0 20.7 17.3c9.9 6 21.8 6.7 31.7 12.7a108.8 108.8 0 0 1 10.8 7.5l6.1 3.8a1 1 0 0 0 0-.7c1.2 1.5 3 2.9 3.6 4.7l5.5 8.4c.4.9.7 1.5 1 1.4l-1-1.4Zm-40.7-80.7c.3.2 1.5-2.5 1.6-2.7a59.2 59.2 0 0 0 4.2-10c3.3-12.3-2.9-26.4-5.6-38.3C92.8 61.7 46 40.3 36.2 0c-.2 0-.4 2.1-.5 2.3l-1 7.5c-1.3 12-.5 23.4 4.4 34.5 11.3 25 26.2 48.4 39.2 72.6 4.3 8 6.3 16.8 10.8 24.7 4.4 7.6 10.2 14.4 14.5 22l-1.8-10Z" data-name="Path 368"/></clipPath><clipPath id="e"><path fill="#044928" d="M213.8 7.6c-.7-.1-2-1.1-2.8-1.3l-6.2-1.6C198.4 2.9 192 1 185.3.3c-14-1.6-28 3.7-41.8 5.2-4.5.4-8.9 1.2-13.3 1.3-1.6 0-5.3-.7-6.7-.1-.6.2 1.1 0 1.7 0a37.4 37.4 0 0 1 4 .4c3.9.6 7.7 1.9 11.5 2.6 6.6 1.2 13.2 1.7 19.7 3.2 5 1.1 9.6 3.2 14.6 3.9 6.5 1 13.2 1 19.6-.8 2.7-.8 8.7-4.4 11.6-3.3l3.3-2.2a11.7 11.7 0 0 0-.4 1.3c-.3 1.3-.5 2.7-.6 4a67.4 67.4 0 0 0-.3 12.9c.8 8.7 6.6 16 9 24.2a48.5 48.5 0 0 1 1.8 9v1c-.1 1.1-.3 2.6.2 3.2.2.4 0-1 0-1.5l-.1-1.7.2-1.6c.5-4.3 1.7-8.5 2.2-12.8 1-8.8 3.2-17.6 1.6-26.5a36.3 36.3 0 0 0-2.6-9c-1.1-2.3-3.1-4.6-3.2-7.3l-3.1 1.7a.6.6 0 0 0 0-.2l-.5.4Zm0 0-.5.3.6-.3Zm-21 20.8c0-.3-.5.6-.7.9l-1.2 1.9a19.3 19.3 0 0 0-2.2 6 66.3 66.3 0 0 0-.7 19.6c1.2 10.7 5.5 19.8 9.4 29.6 3.4 8.3 6.2 16.8 9 25.3l4.6 13c.1.4 1 4.3 1.5 4.4a6.3 6.3 0 0 0 0-1v-2l.5-6.8c.7-6.8 2-13.5 2.5-20.2 1.2-15.3-7.3-28.5-11.2-42.8a80.4 80.4 0 0 1-3-23.7c.2-2.4 1.3-4.8 1.7-7.2.4-2.4.1-5 .4-7.6l-10.6 10.6Zm-152.5 38h1.4l3.5-.2a44 44 0 0 0 9.6-1.9C64 61.4 72 55.8 81 53c27.4-8.6 56.6 7.2 83.7-3.9 5.6-2.2 11.2-4.4 15.3-9l4.8-5.7-1.7-.5-3.9-1.2a99.3 99.3 0 0 0-11.5-2.3c-11.8-2-23-2.2-35-2-13.8.1-29-1.5-42.4 2.3-20 5.6-35.7 21.6-50.1 35.7-.3 0-.5.1-.3.3l.3-.3Zm122-1.4c.4-.1-.5.7-.7 1l-1.2 2a51.2 51.2 0 0 0-3.2 7.2 52.5 52.5 0 0 0-2.9 24.3c1.2 9.2 5.8 17.7 9.8 26 4.9 10 9.6 20 15 29.9 3 5.7 7 11.8 9.2 18a53.4 53.4 0 0 1 1.8 7l.4 2.2c0 .4 0 1.6.2 1.2 1.3-4 .6-9 1.8-13.2 3.1-11 10-21.4 8-33.5-1.2-7-4.7-13.6-8-19.8-5.1-9.7-10.8-19.3-15.2-29.3a51 51 0 0 1-3.9-26.6c.2-2.7 1-5.3 1.4-8 0-.3.5-2.2.3-2.5-.4-.3-2.7 2.2-3 2.4-3.1 3-5.9 7.2-8.3 10.7l-1.5 1Zm-5.9 4.4c-.1.1-6-1.4-6.4-1.4a89.4 89.4 0 0 0-14.1-.4 103.1 103.1 0 0 0-40.7 9C74 85.8 56.4 99.4 37 111.6c-11.7 7.3-22.7 15.2-37 15.9 1.6.7 5 .3 6.8.3 5.9-.2 11.7-1.2 17.7-1.2 16 0 32.7-.9 48-6.4 16.7-6 31.3-16.7 46.6-25.5a54.9 54.9 0 0 1 11.8-5.6c5-1.4 10.2-1.8 14.4-5 3.2-2.6 4.6-6.4 6.6-9.7l4.5-5Zm2.7 152.2a6.7 6.7 0 0 0-.3 3.7c.3 1 .3-2 .3-3v-.7l1.9-5.5c2.1-7.6 4.3-15.8 4.9-23.7 1-13.5-4.2-25.5-7.5-38.3-2.4-9-2.7-18.2-4.9-27.2-1.7-7.3-5-14.5-6.3-21.8-.4-2.7-.7-5.4-1.2-8l-.4-2.7c0-.5.2-1.7-.2-1.4-.9.7-1.5 4-2 5.1-2.1 4.7-4.2 9.4-6 14.2l-2.4 2.1c-.8-.7-.4 2.3-.5 3.4a60.3 60.3 0 0 0-.3 6.3 61.8 61.8 0 0 0 3.8 19.3c6.8 19 15.2 36.5 18.7 56.5a145.7 145.7 0 0 1 2.2 16.6l.2 5Zm-16-126.8c-.5.8-2 2.8-2 3a82.7 82.7 0 0 1-9 8.7c-6.1 5.6-12.7 11.1-20.1 15s-15.7 6.1-23.5 9.3c-5.7 2.4-11.5 4.7-16.6 8.2A88.1 88.1 0 0 0 48 165.3c-4.7 7.6-7.6 16.2-12 24-2 3.3-4.7 6-7.2 9 .3.1 1.7-1.2 1.9-1.3l5.6-4.3a192.5 192.5 0 0 1 22.5-15c8.7-4.8 17.5-9.7 26.4-14.1 14.4-7.1 31-14.8 40.8-28.3 3.4-4.7 4.8-10.3 6.6-15.7 2-6 4.5-11.8 6.7-17.6l3.8-7.2.2-.3-.2.3Zm-15.7 50.8-1.1 2.1a39 39 0 0 1-7.9 9.4c-11.2 10.4-25.5 17.1-39 24.2-22 11.5-36.5 33.4-47.8 55-4.4 8.5-7.7 17.5-12.4 25.8.4.1 1.8-1 2-1.2A64 64 0 0 0 28 255c8.4-7.8 16.3-16.1 24.7-24A73 73 0 0 1 72 218.4c10.4-4.8 22.4-8.7 30.8-16.9 4.1-4 6.5-9 9.1-13.9a171 171 0 0 0 9.8-20.6c-2 7.2-2.8 15.8-6.3 22.2l-.7 1.8c-.2 0-1.3 6.2-1.3 6.5-1.6 7-3 14-3.2 21.1-.2 9.5 2.5 18.9 4.3 28.1 1.5 8.3 2.2 16.6 3.3 25a53.3 53.3 0 0 1-2.1 29.8c2.2-1.3 2.8-4 3.8-6.9 2.2-5.6 4.5-11.3 6.3-17 4.4-13.9 5.4-28.2 7.6-42.4 1.1-6.7 3.4-13.1 4.3-19.9a60.6 60.6 0 0 0-1-20c-1.8-8.3-7.5-15-9.2-23.3a81.2 81.2 0 0 1-1.4-9.7l-1-5.3c-.1 0-.3.2-.4.5.2-1.5 0-3.2.8-4.5l1.8-7.3c.2-.6.4-1.2.2-1.2l-.2 1.2Zm-23.5 64c0-.2-2.1.5-2.3.6a46.5 46.5 0 0 0-7.6 3c-8.4 4.8-13 15.5-18.2 23.2-17.6 26.4-5.6 62.3-22.6 88.7.1.1 1.3-.9 1.4-1 1.6-1 3.1-2.2 4.6-3.4 7.3-5.5 13.2-12 16.7-20.5 8-19.1 13.2-39.3 19.9-59 2.2-6.4 6-12.1 8-18.6 2-6.4 2.7-13 4.7-19.3l-4.6 6.3Z" data-name="Path 502"/></clipPath><clipPath id="a"><path d="M0 0h577v686H0z"/></clipPath></defs><g clip-path="url(#a)" data-name="Verzameling bladeren"><path d="M0 0h577v686H0z"/><g fill-rule="evenodd" data-name="No Dodos [_collectie bladeren V2"><path fill="#fcb817" d="M499.2 347.8c2.6 6.8 9.4 40 6.7 49a171 171 0 0 1-20.4 36.6c-16.5 22.8-46.9 33-75.3 34.3a302.6 302.6 0 0 1-87-9.3c-11.4-3-21.7-8.5-33-11-13.3-2.9-26.4-1.7-39.6-3.8a92 92 0 0 1-25.7-9.2c-14-7-25.4-17-38.3-25.4-13.9-8.8-28.8-15.9-43-24.2-10.4-6.3-20-13.6-31.8-17.7-1.4-.5 2.7-1.4 4-2l7.4-3.4a127.2 127.2 0 0 0 22.7-13.6c12.1-9 24.3-19.6 39.2-24.6 11.6-4 24.6-4.4 36.8-6.3 13.2-2.2 27.3-4.2 40.7-3.7 21.9.9 43.3 4.9 65.4 3.8a191.4 191.4 0 0 0 28-3.4c10.4-2 20.3-5.8 30.5-8.1 12-2.7 24-3.8 36.4-5.1 12.4-1.3 26.6-2 38.4 2.6a69.8 69.8 0 0 1 22 15.4c5 5 13.6 22.7 16 29Z" data-name="Path 289"/><g clip-path="url(#b)" data-name="Group 25" transform="rotate(14 -840.8 710.8)"><path fill="#044928" d="M392.8 66c-1.5 0-4.2 2.1-5.4 2.8A73.5 73.5 0 0 0 373.6 79a101.5 101.5 0 0 0-25.6 39.5c-2.5 7.3-3.2 14.9-4.7 22.4 4.8-11.2-5.8-29.3-19-27.8-10.9 1.2-18.1 11.6-21.5 20.5.8-1.2 0-4.1-.4-5.2-2.3-5.9-8.3-7.9-14.8-7.3-16.6 1.7-25.3 19.5-25.9 33.2-.7-1 .7-4.7 1-5.7a27 27 0 0 0 .2-12.6 23.6 23.6 0 0 0-3.9-8c-9.5-12.5-24.4-3.6-28.5 8.6.3-1.4-.6-3.8-1-5-2.2-10-12-13.3-21.8-9a46 46 0 0 0-25 37.6c.1-.4-.7-2-.7-2.4a46 46 0 0 1-.5-6.2q-.1-3.7-.4-7.3c-.5-7.3-1.8-16.4-10.6-18.2a8.5 8.5 0 0 0-5.7.7 14.4 14.4 0 0 0-3.6 2.6 26.3 26.3 0 0 0-4 5.7c.5-1.3-3.6-4.5-4.4-5-5-3.4-12.6-4.3-18.6-2.3a25.8 25.8 0 0 0-10.7 8.2 54.2 54.2 0 0 0-12.6 25.2c3.6-9-2.4-20-11-24.1-13.3-6.4-32.2-6.3-47-4.3 1 0 2.6-1.1 3.5-1.5 2.7-1 5.5-1.7 8.2-2.4 22.9-6 46.9-22.8 50.6-46.3.8 0 1.7 5.3 2 6a51.7 51.7 0 0 0 6.8 11.3c4.6 6.2 12.4 12.6 21 12.7 3.7 0 7-1.7 10-3.7 6.6-4.4 11-10.1 12.8-17.6 2 4.3 1 10 5.7 13.2 5.8 4 13 .7 18.3-3a42.9 42.9 0 0 0 16.8-34.3v1.3l.3 2.2.4 6.6c.4 6.7 2 13.6 5.7 19.2 4.4 6.9 10.6 12.3 19.3 7a11 11 0 0 0 3.8-3.4c1.4-2.2 1.1-4.8 1.4-7.2a8 8 0 0 0 .3.7l.7 1.6a40.4 40.4 0 0 0 2.4 4.4 10.8 10.8 0 0 0 14.6 3.8c3.3-1.9 5.7-5.6 7.7-8.6a55.1 55.1 0 0 0 7-32.4c-1.4 2.8 1 8 1.7 10.6 2.3 7.5 5.2 16.1 11.2 21.7 2.7 2.6 6.7 4.9 10.8 3.4 6.4-2.2 9.4-12.2 11.3-17.6-.2 1.1 1.3 3.5 1.8 4.3 3.3 5 10 6.7 15.7 4a17.3 17.3 0 0 0 6.1-5c11.2-14.2-2.3-31-13.6-39.8 6.1 2.7 11 7.2 17.1 10 15.5 6.7 36.3 7.4 53.6 6l5 6Z" data-name="Path 290"/><path fill="#fcb817" d="M216.7 23.2c5.3 5.5 7.6 13.5 13 19.3 9 9.5 20.6 16.7 27.3 28 2.7 4.4 7.8 18.1-1.3 20.3-6.5 1.6-11.2-5.5-13.8-9.8-.7-1.2-2.2-5.2-4-5.2-1.5 0-2.1 3.1-2.4 4-1.1 3.4-4 10-9.1 8.2-3-1.1-4.2-4.6-5-7.2-2-6.5-2.6-13.4-5.2-19.6-1.4-3.3-3.9-7.2-8.2-7.2-4.1 0-6.4 3.6-7.7 6.8-3 7.2-1.4 15.2-5.6 22.1-2.5 4-8 8.2-13 6.3-7.2-2.6-6.8-11.4-10-16.8-3-5.3-10.3-6.7-12.4-12.6-2-5.7.8-12.3 3.5-17.5a80.3 80.3 0 0 1 30-31.4l23.9 12.3Z" data-name="Path 293"/><path fill="#fcb817" d="M144 48.4c-.7 0 1.1 1 1.6 1.5l2.4 3a103.7 103.7 0 0 1 7.2 10.8 28.7 28.7 0 0 1 3.6 23c-1.2 4.3-3.7 8.5-8.6 9.6-16.9 3.8-30.3-17.3-29.6-30.6.5-8 4.8-14.9 8.6-21.8l14.9 4.6Z" data-name="Path 294"/><path fill="#fcb817" d="M166.4 195.8c1-.2-1-1.5-1.4-2.3a28.2 28.2 0 0 1-2-5 31.4 31.4 0 0 1-.7-16.7c2.3-9.1 12-15.1 13.1-24.6.3-2.9-.2-9.3-4.2-9.9-4.5-.6-10.2 5.4-13 8.1-1.4 1.3-3.2 3.7-5.3 3.8-2.4.2-4.7-3.8-6.3-5-6-4.6-12.4-4.8-17.1 1.8-8 11.3-8 25.2-14.1 37.2-2.7 5.4-7.8 11.7-14.7 11.7l65.7.9Z" data-name="Path 295"/></g><path fill="#044928" d="m420.1 62.3-10.4-38.4-50.3 5.6-21.3 2.4c-25.7 3-70.6 5.3-104.2 32a260.8 260.8 0 0 0-58.3 66.3c-7 11.5-12.4 24-19.9 35.3-14.6 22.2-33.6 42.5-45 66.4-12.4 25.8-20.3 52.8-34.5 78-.8-.3 1.5-.3 2.3-.3l5-.4c4.5-.4 8.8-1 13.2-1.3 13.7-1 27 3 40.6 2.1a160.4 160.4 0 0 0 20.3-2.6 111.2 111.2 0 0 0 14.2-4l59-24.7c72-30 80.7-34 93.7-41.6 26.2-15.4 52.2-30.5 71.6-59.9A149.5 149.5 0 0 0 420.3 99a81.7 81.7 0 0 0 1.6-13 99.3 99.3 0 0 0-.6-14.6c-.3-3.7-.8-6.9-1.2-9Z" data-name="Path 297"/><g clip-path="url(#c)" data-name="Group 26" transform="translate(76 24)"><path fill="#f2720f" d="M170.1 29.9c0-.6 1 .8 1.7 1.1a28.6 28.6 0 0 0 3 1.7c3.2 1.5 6.4 2.7 9.7 4 9.6 3.9 19.4 7.5 29.2 10.8 16.6 5.7 33.9 9.7 50.9 13.8a57.2 57.2 0 0 1 12.1 4.1c.5.2 3 1.3 2.9 2-.3 1-2.8 2.5-3.7 3.3-3.7 3.3-7.8 6.4-11.6 9.7-4.8 4.3-10.5 13.2-17.7 14.8-3.2.7-6.7-1-9.6-2.3-5.5-2.3-11.2-4.3-16.7-6.6A437.6 437.6 0 0 1 175 65c-10-5.4-19-12.1-29.8-16.2l25-18.8Z" data-name="Path 298"/><path fill="#f9e2d2" d="m139.3 56.2 2.3 1.6c1.6 1 3.2 1.8 4.9 2.7 8.4 4.2 17.1 8 25.5 12.3 14.7 7.6 29.3 15.4 44.3 22.5 5.8 2.7 15.6 5.4 19.3 10.7 3 4.2-7.4 10.7-10 12.8-5 3.7-10.8 9.5-17.5 10.7-7 1.3-16.4-3.1-22.7-5.6a253.3 253.3 0 0 1-30-14.1 104.6 104.6 0 0 1-21.8-15.1c-5.8-5.4-10.2-11.8-16.5-16.8Z" data-name="Path 299"/><path fill="#f2ba38" d="M112.7 83.1c-.2 1.1 1.9 3.5 2.5 4.3a55.3 55.3 0 0 0 10.8 10 299.2 299.2 0 0 0 47.4 30.7c5 2.4 10.3 4.3 15.3 6.6 2 1 4.9 2.3 5.2 4.6.4 3.5-3.3 6.9-5.6 9-2.2 2.2-5 5.4-8.4 6.1-3.5.8-8.2-1.2-11.5-2.2a122.9 122.9 0 0 1-26.1-12.3l-11.9-7.4c-13.3-8-27-13.1-41.6-18.5l23.9-30.9Z" data-name="Path 300"/><path fill="#f2720f" d="M84 118.4c.5 1.2 3.5 2.6 4.5 3.2a105.3 105.3 0 0 0 15 6.8c16.6 6.5 31.7 15.7 48 22.8 5 2.2 18.2 5.6 20 11.1.6 1.5-1.2 2.6-2.3 3.4-3 2.3-6 4.4-8.8 6.9-4 3.6-8.8 10.4-14.5 12-2.8.7-6-1-8.5-2a228.4 228.4 0 0 1-20.6-10.5c-15.2-8.8-27.3-15.6-45-18.3L84 118.4Z" data-name="Path 301"/><path fill="#f9e2d2" d="M60 160.7c-.4-.9 2 .7 3 1.2l6.1 3a180.8 180.8 0 0 0 17 7.2c13 4.9 26.4 9 39.5 14 5.1 2 12.8 4.6 10.8 10.9-1.4 4.5-7.3 7.5-11 10.2-2.9 2-5.5 4.1-8.2 6.3-.8.6-2.3 2.3-3.4 2.4-1.6.1-4-1.6-5.3-2.2-4.8-2.5-9.3-5.5-13.9-8.4-14.3-8.7-28-18.8-44.8-22.8L60 160.7Z" data-name="Path 302"/><path fill="#f2ba38" d="M38.1 190.1c3.8 3.7 10.4 5.7 15.2 8 8.7 4 17.3 8 26.3 11.3 8.5 3.1 18.7 6.5 25.2 13 6.1 6-6.7 14-10.6 17.8-.8.7-4.3 5.4-5.7 5.1-2-.5-4.4-2.4-6.2-3.3-6-3.2-11.7-6.6-17.6-10-13-7.3-26.3-13.2-41-16.5L38 190.1Z" data-name="Path 303"/><path fill="#044928" d="M21.7 223c-.7 1.1 2.7 1 4 1.5a78.8 78.8 0 0 1 8.2 4.3c10.5 6.1 21.5 10.2 33 14.1 2.8 1 11.8 2.8 13 5.7.9 2.5-6 6.6-7.4 7.9l-8 7.4c-.6.5-2 2.4-2.9 2.4-2.5 0-6-2.2-8.4-3l-6-2.5-9.8-4.3c-8.5-3.9-17-8.2-26-11.2L21.8 223Z" data-name="Path 304"/><path fill="#fcb817" d="M5.2 257c.3-.8 2 .7 2.9 1l6.5 2.1c9.6 3.4 19 7.5 28.3 11.5 1 .4 8.2 2.8 7.3 4.4-.9 1.4-4.4 2-5.9 2.5a68.5 68.5 0 0 0-12.7 6.3l-8.2 5.6-6 4.2c-8.2 5.6-28.7 20.6-32.6 3a25.8 25.8 0 0 1-.6-6.2 39.2 39.2 0 0 1 2.3-11.5 92.1 92.1 0 0 1 8.7-17.3l10-5.6Z" data-name="Path 305"/><path fill="#fff" d="M288.2 58.4c0-.2-.7-.4-1.5-.5-1.7-.4-4-.6-4.5-.8-2-.6-4-1-6.1-1.5-4.9-1-9.7-1.7-14.7-2.6l-11-2.5-4.8-1-16.8-2.7a134.1 134.1 0 0 1-14.3-3.5c-2.5-.8-4.9-1.8-7.4-2.5-2.1-.6-4.3-1-6.5-1.7l-2.7-.9c-4-1.5-7.8-3.3-11.7-4.8 4 1.4 7.8 3.1 11.8 4.6l2.7 1 6.5 1.5 7.4 2.5 3.3 1c3.7 1 7.3 1.7 11 2.3 5.5 1 11 1.8 16.7 2.7l4.8 1 11.1 2.5c4.3.8 8.4 1.4 12.6 2.3 2.7.5 5.5 1.1 8.2 2 .6.1 3.5.4 5 .8.8.2 1.2.5 1.4.7a.2.2 0 0 1-.2.2.2.2 0 0 1-.3 0Z" data-name="Path 306"/><path fill="#fff" d="M283.7 61.1a.2.2 0 0 1 .2.3.3.3 0 0 1-.3 0h-.2l-2.3-.8-3.9-1.4a22 22 0 0 0-1.6-.4l-10.2-2.6a229 229 0 0 0-8.9-2c-2.8-.4-5.6-.5-8.3-1-9.7-2-19.4-4-29-6.5a238 238 0 0 1-19-5.6 65.4 65.4 0 0 1-6.5-2.8c-5-2.3-9.9-5.1-14.8-7.4 5 2.2 9.8 5 14.8 7.3a64.6 64.6 0 0 0 6.6 2.6c6.3 2.1 12.6 4 19 5.5a636 636 0 0 0 29 6.3c2.7.5 5.5.7 8.3 1.1l2 .4 6.9 1.6 10.2 2.6 1.7.5 3.9 1.4 2.2.8.2.1Z" data-name="Path 307"/><path fill="#fff" d="M280.9 64.3a.2.2 0 0 1 .1 0 .2.2 0 0 1 .2.2.3.3 0 0 1-.1.2.4.4 0 0 1-.4 0c-.2-.2-.6-.7-.9-.8l-2.1-1a56.6 56.6 0 0 0-7.1-2.6l-12-3-12-2.4a286 286 0 0 1-25-6 245 245 0 0 1-24.2-8.3c-4.3-1.7-8.7-3.1-12.9-5a44.9 44.9 0 0 1-8-4.3 45.2 45.2 0 0 0 8 4.3c4.3 1.8 8.7 3.1 13 4.8a252.7 252.7 0 0 0 24.2 8.1c8.2 2.3 16.5 4.3 25 5.9q6 1.1 12 2.5t12 3a39.6 39.6 0 0 1 7.2 2.6l2.1 1a10.8 10.8 0 0 1 .9.8Z" data-name="Path 308"/><path fill="#fff" d="M245 98.2a.4.4 0 0 0-.1 0 13 13 0 0 0-1.4-.6l-2.8-1.3-2-.8c-4.5-2-9.5-3-14.2-4.7a42.4 42.4 0 0 1-6-2.6c-6.9-3.8-14.1-7.1-21.4-10.4s-14.5-6.4-21.7-10c-3.5-1.7-7-3.5-10.5-5.5a113.7 113.7 0 0 1-14.5-9.3 51.4 51.4 0 0 1-8-7.8 51 51 0 0 0 8.1 7.8 114.9 114.9 0 0 0 14.5 9c3.5 2 7 3.8 10.6 5.5 7.2 3.5 14.5 6.6 21.8 9.8 7.3 3.3 14.5 6.6 21.5 10.4a43 43 0 0 0 5.8 2.6c4.7 1.7 9.6 2.9 14.2 4.8l2 .8 2.8 1.4 1.2.5.4.3a.2.2 0 0 1-.2.2.2.2 0 0 1-.2 0Z" data-name="Path 309"/><path fill="#fff" d="M242 100.1a.3.3 0 0 1 .2 0 .2.2 0 0 1 .1.3.2.2 0 0 1-.1.1 1 1 0 0 1-.4 0l-2.5-1.6-2-1c-1.2-.6-2.3-1-3.3-1.6l-4.7-2c-3.7-1.4-7.5-2.6-11.2-4.1-3.7-1.6-7.4-3.4-11-5.3-8.3-4.4-16.4-9.3-24.9-13.3-5.2-2.4-11-3.7-16.5-5.8a39 39 0 0 1-6.7-3.2 36.6 36.6 0 0 1-3-2.2c-3.9-3-7.3-6.7-11.3-9.5 4 2.8 7.5 6.4 11.4 9.4a36.7 36.7 0 0 0 3 2.1 38.6 38.6 0 0 0 6.7 3.2c5.5 2 11.4 3.3 16.6 5.7 9.8 4.4 19 10.1 28.6 15l7.3 3.4c3.7 1.6 7.5 2.8 11.2 4.2a61 61 0 0 1 4.7 2l3.2 1.6 2.1 1.1 2.4 1.5h.2Z" data-name="Path 310"/><path fill="#fff" d="M239.3 103.4a.2.2 0 0 1 0 .3.2.2 0 0 1-.2 0 1.6 1.6 0 0 1-.2-.1l-2-1.3-2.6-1.6-2.6-1.4a166.2 166.2 0 0 0-16.2-7.7 168 168 0 0 1-16.5-7.1c-3.5-2-6.9-4.2-10.3-6.3l-4.5-2.5-6.6-3.2c-8.7-4.1-17.6-7.8-26.3-12.1l-3.4-1.9L140 54l7.8 4.5c1.1.7 2.3 1.3 3.4 1.8 8.8 4.3 17.7 7.9 26.5 12a235.4 235.4 0 0 1 11.2 5.6l10.3 6.2a173.5 173.5 0 0 0 16.4 7.1 163.2 163.2 0 0 1 21.4 10.8l2 1.4h.1Z" data-name="Path 311"/><path fill="#fff" d="M202 132.8c-2.3-.7-4.6-1.5-6.8-2.4l-10-4.2c-3.7-1.6-7.7-3-11.5-4.7a112 112 0 0 1-16.2-8.5c-4.2-2.6-8.2-5.5-12.2-8.4l-7.1-4.9A64.2 64.2 0 0 1 129 92c-4.6-4.5-9-9.2-13.8-13.5 5 4.3 9.3 9 14 13.4a99.2 99.2 0 0 0 9.2 7.7l7.2 4.8c4 2.8 8 5.7 12.2 8.3a106.6 106.6 0 0 0 16 8.4l11.7 4.8 9.8 4.2c2.3 1 4.5 1.8 6.7 2.4a.2.2 0 0 1 .2.3.2.2 0 0 1-.3.1Z" data-name="Path 312"/><path fill="#fff" d="M199.5 135.3h-.1l-1.8-.8a25 25 0 0 0-2.1-.7l-5-1.6c-1.2-.4-2.3-.9-3.3-1.4-2.5-1.1-5-2.4-7.4-3.6l-9.7-4.5-6.2-3.4c-6.6-3.9-13.4-8.1-19.9-12.6a199 199 0 0 1-18.4-14.4c-2.4-2.1-4.7-4.3-7-6.6l-15-16c5.1 5.2 10 10.7 15.3 15.9 2.2 2.2 4.5 4.4 7 6.5a205.7 205.7 0 0 0 18.4 14.2 329.6 329.6 0 0 0 26.1 15.9l9.6 4.6c2.5 1.2 4.9 2.5 7.4 3.6l3.2 1.4 5 1.6 2.2.8 1.7.7a.6.6 0 0 1 .4.3.2.2 0 0 1-.3.1Z" data-name="Path 313"/><path fill="#fff" d="M196.8 137.5c.8.6 1 .8.8.8 0 .1-.3 0-1-.4l-1.1-.7-1.1-.5-1.7-.7a32.2 32.2 0 0 1-3-1.6l-4.3-2.5a38.2 38.2 0 0 0-3.6-1.9c-3-1.3-6-2.3-8.8-3.8l-3-1.6-7-4.1a245.8 245.8 0 0 1-25-16 339 339 0 0 1-29-24 61.3 61.3 0 0 1-5.5-6.3c-.7-1-1.9-2-2.7-3a4.4 4.4 0 0 1-.8-1.6 4.4 4.4 0 0 0 .8 1.5l2.8 3a61.3 61.3 0 0 0 5.5 6.2c1.9 2 4 3.8 6.2 5.7a352 352 0 0 0 23 18.1 252.6 252.6 0 0 0 25 16l7 4 3 1.7c2.8 1.4 5.8 2.5 8.7 3.8a41 41 0 0 1 3.7 1.9l4.3 2.6a32.6 32.6 0 0 0 3 1.5l1.6.7 1 .5 1.2.7Z" data-name="Path 314"/><path fill="#fff" d="M175 156.1a.3.3 0 0 1 .1 0 .2.2 0 0 1 .2.3.2.2 0 0 1-.2.1 1 1 0 0 1-.3 0c-.5 0-1.7-.4-1.8-.4a16.4 16.4 0 0 1-3.1-1c-1.5-.5-3-1.2-4.4-1.8l-9-3.6a61.1 61.1 0 0 1-8.8-4.4c-3.8-2-7.5-4.4-11.3-6.4-4.5-2.5-8.6-5.4-13-8a75.1 75.1 0 0 0-9.8-5.2c-5.7-2.6-11.5-4.7-17.1-7.4l-4.2-2c-5.4-3-10.7-6.1-16.2-8.8-2.6-1.3-5.3-2.3-8-3.5a42.4 42.4 0 0 1 .1 0c2.6 1.1 5.4 2.1 8 3.4 5.5 2.6 10.8 5.8 16.3 8.6l4.1 2c5.6 2.7 11.5 4.8 17.2 7.3l4.2 2c2 1 3.9 2 5.7 3.1 4.3 2.7 8.5 5.6 13 8 3.8 2 7.5 4.4 11.3 6.5a108.2 108.2 0 0 0 8.7 4.3l9 3.7 4.3 2a16.5 16.5 0 0 0 3 .8c.1 0 1.4.4 1.9.4a.5.5 0 0 0 .1 0Z" data-name="Path 315"/><path fill="#fff" d="m173.9 159-6.3-3c-8.4-4-17.3-7.2-25.5-11.5l-2.9-1.7c-3.6-2.3-7-5-10.8-7.1-1.8-1-3.5-1.9-5.3-2.7l-12.7-6L94 118a217.3 217.3 0 0 0-18-8.3 518 518 0 0 0 18.2 8c5.5 3 11 6 16.6 8.7 4.1 2.1 8.4 4 12.6 6l5.3 2.7c3.9 2 7.3 4.8 11 7.2l2.7 1.6c8.2 4.4 17.1 7.6 25.5 11.6 2.1 1 4.2 2 6.3 3.2a.2.2 0 0 1 0 .2.2.2 0 0 1-.2 0Z" data-name="Path 316"/><path fill="#fff" d="M172.6 160.4a6 6 0 0 1-2.6-1c-1.8-1-3.7-2.9-5-3.6-.7-.5-2.3-1.3-5.6-2.8-4.7-2.1-7-3.2-7.8-3.4-3.1-1-4.4-.8-8.2-2.1l-2.9-1.2a97 97 0 0 1-7-3.8c-5.2-3-10.3-6.5-15.8-9.3l-9-4.3a77 77 0 0 1-3.8-2l-17.2-9.5a189.6 189.6 0 0 0-14.4-7l-16.5-7c5.5 2.4 11 4.5 16.5 6.8a180.5 180.5 0 0 1 14.6 7c5.8 3 11.4 6.3 17.2 9.4l3.8 1.9c3 1.4 6.1 2.7 9.1 4.3 6.2 3.2 12 7.1 18.1 10.6a86.7 86.7 0 0 0 7.5 3.6c3.4 1.2 4.8 1.1 7.6 1.9a107.6 107.6 0 0 1 14.1 6.5c1.3.8 3.2 2.6 5 3.7a5.6 5.6 0 0 0 2.3 1 .2.2 0 0 1 .2.2.2.2 0 0 1-.2.1Z" data-name="Path 317"/><path fill="#fff" d="M142 186.3a.2.2 0 0 1 .2-.1.2.2 0 0 1 .2.2c0 .2-.2.3-.4.2-.2 0-.5-.4-.7-.5l-2-.6-2.2-1-3.4-1.5a625.7 625.7 0 0 1-27-13.8 49.2 49.2 0 0 0-6.3-2.8c-3.3-1.3-6.7-2.3-10-3.4l-4.6-1.8-10.6-4.5c-5-2.1-9.7-4.4-14.4-6.8-7-3.5-14-7.4-21-11.1l21.1 11c4.7 2.3 9.5 4.5 14.5 6.5l10.6 4.5 4.6 1.7c3.3 1.1 6.7 2.1 10 3.4a48.8 48.8 0 0 1 6.4 2.8 664.3 664.3 0 0 0 27 13.9l3.2 1.6 2.3.9 2 .7.5.5Zm0 0s.1-.1.1 0Z" data-name="Path 318"/><path fill="#fff" d="M141 189a.5.5 0 0 0 0-.1 17.8 17.8 0 0 0-2-1.2l-6-2.7-2.4-1.3-8.8-4.4-13.4-6c-6.1-2.8-12.3-5.4-18.5-8.1-9.2-4-18.5-8-27.7-12.2a601.8 601.8 0 0 1 0-.2l28 12 18.5 8 13.4 6.1a197.8 197.8 0 0 1 12 6l5 2.4a18.7 18.7 0 0 1 2.1 1.3c.3.3.2.5.1.5a.2.2 0 0 1-.3 0 .2.2 0 0 1 0-.1Z" data-name="Path 319"/><path fill="#fff" d="M140.1 190.8a31.5 31.5 0 0 1-3-1.4c-3.7-2-7.2-4.6-11-6.4-6.8-3-13.8-5.3-20.6-8.1l-5-2.2-18-8.8c-9-4.4-18-8.9-27-13a257 257 0 0 0-31.3-11.8 255.5 255.5 0 0 1 31.4 11.6c9.1 4 18.2 8.4 27.1 12.8l18 8.7 5 2.2c6.8 2.8 13.8 5.2 20.5 8.2 3.9 1.8 7.4 4.5 11.2 6.5a31.1 31.1 0 0 0 2.9 1.4.2.2 0 0 1 .1.2.2.2 0 0 1-.3.1Z" data-name="Path 320"/><path fill="#fff" d="M138.5 192.5a12.8 12.8 0 0 1-2.2-1l-4.4-3.1c-1.2-.8-2.5-1.4-3.7-2-2-1-4-1.8-5.9-2.6-9.2-3.9-18.8-6.4-28.2-9.9-2.3-.8-4.6-1.8-6.9-2.8-8-3.6-15.8-7.6-23.4-12-11.4-6.4-22.5-13.4-33.6-20.2 11.2 6.7 22.3 13.6 33.8 20a286.8 286.8 0 0 0 30.3 14.5c9.4 3.5 19 6 28.2 10a113.8 113.8 0 0 1 9.6 4.6l4.5 3.1a12.8 12.8 0 0 0 2 1 .2.2 0 0 1 .1.3.2.2 0 0 1-.2.1Z" data-name="Path 321"/><path fill="#fff" d="M111 217.4a7.2 7.2 0 0 0-1.5-1.4c-1.5-1-3.3-1.8-4.6-2.6l-14.5-9.2c-4.9-3-9.7-6.2-14.6-9.1a140.8 140.8 0 0 0-26.2-12.6c-8.2-3.2-16.6-6-25-8.8 8.5 2.7 16.9 5.4 25.1 8.5a193.3 193.3 0 0 1 26.4 12.4c5 3 9.7 6.1 14.6 9.2l14.5 9.3c1.3.8 3 1.6 4.5 2.6a8 8 0 0 1 1.7 1.4.2.2 0 0 1 0 .3.2.2 0 0 1-.3 0Z" data-name="Path 322"/><path fill="#fff" d="M109.7 218.1v.1c.1-.1-.5 0-.7-.2l-1.7-.7a66.3 66.3 0 0 1-8.7-5.2c-3.1-2.1-6.1-4.3-9.3-6.3-4.3-2.9-8.7-5.5-13.2-8a1464.3 1464.3 0 0 0-46.4-23.3q-8.6-4.1-17.4-8 11 4.7 21.8 9.8 10.8 5 21.5 10.3c7 3.4 14 7 20.8 10.7 4.5 2.5 9 5.2 13.2 8l9.3 6.4a150.2 150.2 0 0 0 8.6 5.3l1.6.7c.3 0 .7 0 .8.2a.3.3 0 0 1 .2.3.2.2 0 0 1-.2.2.2.2 0 0 1-.2-.3Z" data-name="Path 323"/><path fill="#fff" d="m108.5 220.6-.3-.1-.8-.5a15 15 0 0 0-2.3-1.2 27.2 27.2 0 0 1-2.8-1.3l-3.9-2.4-12-7.5c-7.5-4.7-6.4-4.3-8-5.2-7.4-4-10.6-2.7-17.2-5.3-7.6-3-5.7-6-15.8-12.3-6.1-3.8-11.7-5.7-19.6-8.8a107 107 0 0 0-13.7-4.3 109.3 109.3 0 0 1 13.7 4.2c7 2.6 13 4.7 19.7 8.6 11 6.5 9.4 9.3 17.6 12.3 5.8 2.1 9 1.6 15.6 5.2 1.6.8.4.4 8 5.2l12 7.5c1.3.8 2.5 1.7 3.8 2.4a25.4 25.4 0 0 0 2.7 1.3 12.7 12.7 0 0 1 1.2.6 13.1 13.1 0 0 1 1.2.7l.8.4.5.2a.2.2 0 0 1 0 .2h-.4Zm0-.3Zm0 0Z" data-name="Path 324"/><path fill="#fff" d="M107 222.3a.2.2 0 0 1 .2 0v.2a.2.2 0 0 1-.2.2 2.8 2.8 0 0 1-.4-.2l-.7-.4-1.8-1.2-2.4-1.5-3.7-2.2-7.4-3.9c-3.8-1.8-7.6-3.5-11.5-5.1-5-2.2-10.4-4-15.5-5.9a92.5 92.5 0 0 1-10.3-4.7l-8.5-4.9a833 833 0 0 0-23.1-12.2l11.7 6q5.8 2.9 11.5 6c3 1.5 5.7 3.2 8.6 4.8a58.8 58.8 0 0 0 8 3.7c6 2.3 12 4.2 17.8 6.7 4 1.7 7.8 3.3 11.5 5.2q3.8 1.8 7.4 4l3.7 2.1 2.4 1.5 1.8 1.3.7.4a2.3 2.3 0 0 0 .3.1Zm-.1.3Z" data-name="Path 325"/><path fill="#fff" d="m86 245.8-1.2-.7-2-1.2-1.9-1-3-1.7c-4.3-2-8.6-4-12.7-6.1l-16.6-8.9a181.8 181.8 0 0 0-13.2-6.3L21 214l-2.9-1.2c-3.8-1.7-7.5-3.5-11.3-5l-4-1.6-9.1-3.5 9.2 3.4 4 1.5 11.3 5 2.9 1.2c4.8 2 9.7 3.7 14.5 5.7l6 2.7c2.5 1.1 5 2.3 7.3 3.6 5.6 2.9 11 6 16.5 8.9 4.2 2.1 8.5 4 12.7 6.2a107.6 107.6 0 0 1 7 3.9l1 .6a.7.7 0 0 1 .3.4.2.2 0 0 1-.1.2.2.2 0 0 1-.3-.2Z" data-name="Path 326"/><path fill="#fff" d="M80.7 245.5a18 18 0 0 1-1.2-.6c-1.5-.8-3-1.8-4.6-2.5-3.6-1.7-7.3-3.1-11-4.7l-2.7-1.3L45 228l-7-3.5q-10.8-5.1-22-9.8a457.4 457.4 0 0 1 22.3 9.4l7 3.5c5.4 2.7 10.7 5.6 16.2 8.3l4 2 9.6 4 4.7 2.6 1.1.6a.2.2 0 0 1 .1.3.2.2 0 0 1-.2 0Z" data-name="Path 327"/><path fill="#fff" d="m71.1 242.9-8.8-3-13-5.6-10.3-4.5a80.7 80.7 0 0 1-11.4-6.5l-6.7-4.7-8-5.5-8-5.4 8.1 5.2q4.1 2.6 8 5.4L28 223a78.3 78.3 0 0 0 11.3 6.3l10.4 4.6c4.3 1.9 8.5 3.8 12.8 5.5a112 112 0 0 0 8.8 3.1.2.2 0 0 1 .2.2.2.2 0 0 1-.3.2Z" data-name="Path 328"/><path fill="#fff" d="M59.3 267.3a2.5 2.5 0 0 1-1.5-.3c-1-.4-2.2-1.2-2.7-1.4a114.3 114.3 0 0 0-11.6-4.8c-3.9-1.5-7.7-3-11.5-4.7-5.6-2.5-11.2-5.3-16.8-7.9L8.4 245l-16-7.3 16.1 7 6.9 3.2 16.9 7.7a226.4 226.4 0 0 0 17.3 7l5.7 2.6 2.7 1.5a2.1 2.1 0 0 0 1.1.2.2.2 0 0 1 .3.2.2.2 0 0 1-.1.2Z" data-name="Path 329"/><path fill="#fff" d="m57.7 268.7-20.3-8.3-8.6-3.7c-9.4-4.2-18.5-8.6-27.8-12.8l-12-5.3 12 5c9.4 4.2 18.6 8.5 28 12.6l8.7 3.7 20.2 8.4a.2.2 0 0 1 .1.3.2.2 0 0 1-.3 0Z" data-name="Path 330"/><path fill="#fff" d="M56 270.3a2.7 2.7 0 0 0-1-.8c-1.1-.6-2.6-1-3.2-1.3l-5.1-2L39 263l-14.2-6C14 252 3.2 246.8-7.7 241.9c11 4.7 21.8 9.9 32.8 14.7l14.1 6 6.4 2.6 6.4 2.6c.6.3 2.1.8 3.2 1.4a3.2 3.2 0 0 1 1.2 1 .2.2 0 0 1-.1.2.2.2 0 0 1-.3 0Z" data-name="Path 331"/><path fill="#fff" d="M53.7 271.1a.2.2 0 0 1 .2 0s0 .4-.3.4l-.9-.3-1.5-.6-4.8-2-10.5-4-4.5-1.9-5.7-2.5c-4.3-2-8.7-4.2-13-6.1a291.5 291.5 0 0 0-9.4-4.3q4.8 1.9 9.5 4l3.8 1.6 15 6.9 4.5 1.8 10.5 4 4.8 2.1 1.5.7.8.2Z" data-name="Path 332"/><path fill="#fff" d="M52 274.1a8.1 8.1 0 0 1-1.5-.5l-3-1.7a297 297 0 0 0-10.4-4.3l-11.9-4.7-7.8-3.3c-6.7-3-13.3-6.3-20-9.3a297 297 0 0 0 3 1.2l17.3 7.7 7.8 3.2 11.8 4.7 5.2 2.2 5.1 2.3c1 .4 2 1.1 3.1 1.6a7 7 0 0 0 1.4.6.2.2 0 1 1 0 .3Z" data-name="Path 333"/><path fill="#f2720f" d="M350.2 36c.4.2 2.7 1.8 2.2 2.3-1 1-6.2 1.4-7.7 2a84 84 0 0 0-25.2 16c-20 17-36.9 36-58.5 51.5-17.4 12.3-25.6 30.5-41.1 43.9-9.4 8.1-20.5 14.5-29.7 23-20.3 18.4-38.3 39-59.7 56.4-24.3 19.8-51.1 37.6-76.1 56.7-17 13.1-37 25-51.1 40.8-5.7 6.4-11 17-2.7 24.4 9.9 9 28.4 4.5 39.5 2 36.3-8.6 70-24.3 105-35.7 36.4-11.8 77.8-17.3 110.3-36.6 46.5-27.7 104.1-94.2 122.8-142.9 7.2-18.7 7.9-37.2 9.9-56.9 2.4-22.8 6.2-42.6 4-65.9l-42 19Z" data-name="Path 334"/></g><path fill="#044928" d="M435.2 596.5c.1-1 1.4-2.6 1.7-3.7l2.1-8.4c2.5-8.7 5-17.5 6-26.4 2-18.8-5-37.3-7-55.8-.6-5.9-1.7-11.8-1.7-17.8 0-2 1-7 .1-9-.3-.7 0 1.6 0 2.4a49 49 0 0 1-.5 5.3c-.8 5.3-2.6 10.4-3.5 15.7-1.6 8.8-2.3 17.7-4.3 26.5-1.6 6.7-4.3 13-5.3 19.8a61.8 61.8 0 0 0 1 26.2c1 3.6 6 11.3 4.4 15.3l3 4.3a14.6 14.6 0 0 0-1.7-.4c-1.8-.3-3.7-.5-5.5-.6a90.2 90.2 0 0 0-17.1.2c-11.7 1.5-21.5 9.6-32.5 13.4a66.6 66.6 0 0 1-12 2.7l-1.4.2c-1.6-.1-3.6-.3-4.4.3-.5.4 1.4 0 2 0 .9 0 1.6-.2 2.4-.3l2.1.3c5.8.4 11.4 1.8 17.2 2.3 11.8.9 23.6 3.3 35.4.8a50.5 50.5 0 0 0 12.1-4c3.2-1.5 6.2-4.4 9.8-4.6l-2.2-4a.8.8 0 0 0 .2 0l-.4-.7Zm0 .2a.8.8 0 0 0 0-.2l-.4-.5Zm-28-27.3c.4 0-.7-.5-1.1-.8l-2.6-1.5a25.4 25.4 0 0 0-8-2.6 88.8 88.8 0 0 0-26.3 0c-14.3 2.1-26.6 8.3-39.8 14.1-11 5-22.5 9-33.9 13.4l-17.4 6.7c-.6.2-5.8 1.6-6 2.2a7.9 7.9 0 0 0 1.3 0h2.8c3 0 6.1 0 9.1.3 9.1.5 18.1 2 27.2 2.3 20.5.7 38.1-11.3 57.4-17.2 9.5-2.9 21.7-5.4 31.7-5.2 3.3 0 6.4 1.5 9.6 1.9 3.3.5 6.9 0 10.2.1l-14.2-13.7ZM356.3 367v2l.4 4.6a57.6 57.6 0 0 0 2.5 12.7c3.8 12.2 11.3 22.6 15.2 34.8 11.4 36.2-9.7 76.1 5 112 3.1 7.3 6 14.7 12 20l7.8 6.2.7-2.4 1.6-5.2a136.9 136.9 0 0 0 3-15.6c2.7-16 3-31 2.9-47-.3-18.5 1.9-39-3.2-56.7-7.5-26.6-29-46.8-47.9-65.4 0-.4 0-.6-.3-.4Zm1.9 163.4c.2.6-1-.6-1.5-.9a47 47 0 0 0-2.6-1.5 65.8 65.8 0 0 0-9.6-4 69.9 69.9 0 0 0-32.6-2.5c-12.4 2-23.8 8.6-34.8 14.4-13.5 7-27 13.9-40.1 21.5-7.7 4.4-16 10.2-24.2 13.3a74.4 74.4 0 0 1-9.5 2.8l-2.8.6c-.6.1-2.2.2-1.7.3 5.3 1.6 12 .4 17.7 1.8 15 3.7 28.7 12.2 45 9 9.4-1.8 18.2-7 26.6-11.7 13-7.3 25.8-15.3 39.2-21.8 12.4-5.9 22.6-7 35.7-6.5 3.7.1 7.1 1 10.7 1.4.4 0 3 .6 3.3.3.5-.5-3-3.5-3.2-3.8-4-4.1-9.6-7.6-14.3-10.7l-1.3-2Zm-6-7.6c-.1-.2 2-8.3 2-8.7.9-6.3.6-12.7.5-19-.3-19.6-4.3-36.3-12.1-54-12.2-28-30.5-50.9-46.7-76.3-9.9-15.3-20.6-29.6-21.4-48.7-1 2.2-.5 6.8-.4 9 .2 8 1.6 15.7 1.6 23.7 0 21.6 1.1 43.8 8.4 64 8 22.2 22.5 41.2 34.3 61.2 2.9 5 5.9 10 7.5 15.6 1.9 6.6 2.4 13.5 6.8 19 3.3 4.1 8.5 5.9 12.9 8.4l6.6 5.8Zm-204 11.2c-2-.5-3.8-.7-5-.3-1.2.6 2.7.4 4 .3h1c2.8.7 5.8 1.9 7.3 2.3a158 158 0 0 0 31.8 5.4c18.2.5 34.2-7 51.3-12 12-3.6 24.5-4.6 36.6-7.9 9.8-2.6 19.4-7.5 29.3-9.5 3.5-.8 7.1-1.3 10.7-2l3.6-.8c.6 0 2.2.2 1.9-.3-1-1.1-5.5-1.8-7-2.3-6.3-2.7-12.5-5.2-19-7.4l-2.8-3c1-1.3-3-.6-4.6-.6a81.2 81.2 0 0 0-8.4 0 85.3 85.3 0 0 0-26 6c-25.3 10-48.8 22.1-75.6 27.9a200.2 200.2 0 0 1-22.3 3.7l-6.8.5Zm170-27.8-3.9-2.5c-4.3-3.4-8-7.5-11.8-11.5-7.5-8.1-14.9-16.6-20-26.4-5.3-9.8-8.3-20.7-12.6-31-3.1-7.5-6.2-15.1-10.9-21.8-8.9-12.7-22-22.9-35.2-30.7-10.2-6-21.7-9.4-32.2-15-4.5-2.4-8.2-5.9-12.1-9-.1.4 1.5 2 1.8 2.4l5.6 7.3a244 244 0 0 1 20.2 29.4c6.5 11.4 13 23 18.9 34.6 9.6 19 19.9 40.8 37.9 53.3 6.3 4.4 13.8 6 21.2 8.1 8 2.4 15.7 5.4 23.5 8.1l9.6 4.7.4.2-.4-.2Zm-68-18.5-3-1.4c-4.7-2.4-8.9-6.2-12.6-10-13.9-14.6-22.9-33.4-32.3-51-15.5-29-44.8-47.4-73.8-61.4-11.3-5.5-23.5-9.4-34.6-15.4-.2.7 1.4 2.4 1.7 2.8a80 80 0 0 0 7.8 8.7c10.4 10.8 21.5 21 32 31.8a92.6 92.6 0 0 1 17.3 25.5c6.4 13.7 11.6 29.6 22.6 40.4 5.3 5.3 12 8.2 18.6 11.5 9 4.5 18.1 8.9 27.6 12-9.5-2.1-21.1-2.9-29.7-7.2l-2.4-.9c0-.2-8.3-1.4-8.8-1.5-9.3-1.7-18.7-3.3-28.3-3.1-12.7.2-25.2 4.2-37.7 7-11 2.6-22.2 4-33.4 5.8-13.6 2.3-27.3 4-40-1.4 1.7 3 5.3 3.6 9.2 4.9 7.6 2.6 15.2 5.4 23 7.6 18.4 5.2 37.6 5.7 56.7 8 9 1.1 17.6 3.9 26.6 4.7a82 82 0 0 0 26.8-2.4c11.2-2.8 20.2-10.7 31.4-13.4a108.8 108.8 0 0 1 13-2.4c.6 0 7-1.5 7-1.6a1 1 0 0 0-.6-.4c2 .1 4.3-.1 6 .7l9.9 2c.8.4 1.5.6 1.5.4l-1.5-.3Zm-86-28.3c.4 0-.6-2.8-.7-3a59.2 59.2 0 0 0-4.1-10c-6.4-11.1-20.7-16.7-31-23.3-35.4-22.3-83.6-4.3-119-25.9-.2.2 1.1 1.8 1.2 2 1.5 2 3 4 4.7 6 7.4 9.4 16 17 27.5 21.3 25.6 9.8 52.7 15.7 79 23.7 8.7 2.6 16.3 7.4 25 9.7 8.6 2.3 17.5 3 26 5.4l-8.5-5.9Z" data-name="Path 336"/><g fill="#fff" clip-path="url(#d)" data-name="Group 27" transform="rotate(-45 502.3 231)"><path d="M105.4 170.6a39.6 39.6 0 0 1-4.6-10.5 42.6 42.6 0 0 1-1.7-11.2c0-5.1 1-10.1 1.3-15.2l.2-3.8a87.2 87.2 0 0 0-2.6-18.6 134.9 134.9 0 0 0-5.7-18A106 106 0 0 0 83.5 76 130.8 130.8 0 0 0 72 60.3C65.8 53 58.8 46 52.7 38.3a94.5 94.5 0 0 1-7.3-10.2A57.8 57.8 0 0 1 39 12.7c-2-8-3-16.3-4.6-24.3a.4.4 0 0 1 .3-.5.4.4 0 0 1 .5.3c1.6 8 2.7 16.3 5 24.2a57 57 0 0 0 6.3 15 95.3 95.3 0 0 0 7.3 10.1c6.1 7.6 13.2 14.6 19.4 22a131.3 131.3 0 0 1 11.6 15.8 105.8 105.8 0 0 1 8.8 17.5 131.3 131.3 0 0 1 5.7 18.2 88.2 88.2 0 0 1 2.5 19c0 1.2 0 2.5-.2 3.8-.4 5-1.4 10-1.5 15a41.7 41.7 0 0 0 1.7 11 38.7 38.7 0 0 0 4.4 10.3.4.4 0 0 1-.2.6.5.5 0 0 1-.6-.1Z" data-name="Path 337"/><path d="M103 155.3a12.3 12.3 0 0 0 .1-1.4c0-1.8-.2-3.8 0-5.6.2-3.2.8-6.4 1.3-9.6.1-1.4.3-2.7.3-4.1a84.8 84.8 0 0 0-.8-14.3A130.5 130.5 0 0 0 101 106a59.6 59.6 0 0 0-2.2-6.7l-4.1-9.8-6.8-16.8-3-7.2a.4.4 0 0 1 .3-.5.4.4 0 0 1 .5.2l3.1 7.1c2.5 5.5 4.8 11.1 7.2 16.7 1.4 3.2 3 6.5 4.3 9.8a56.3 56.3 0 0 1 2.2 6.8 125 125 0 0 1 2.8 14.4 83.3 83.3 0 0 1 .7 14.5c0 1.4-.3 2.8-.5 4.2-.4 3.2-1.1 6.4-1.4 9.6-.2 1.8 0 3.7 0 5.5l-.2 1.4a.4.4 0 0 1-.4.4.4.4 0 0 1-.4-.4Z" data-name="Path 338"/><path d="M97.4 157a18.9 18.9 0 0 1-1-4.2c-.4-2-.6-4.2-.8-6.2-.8-6-1-12.2-1.6-18.3l-.5-4.5a128.8 128.8 0 0 0-4.9-21.9 180.4 180.4 0 0 0-8-21 61 61 0 0 0-9.2-14C65.9 60.2 59.5 54.4 53.6 48a88.7 88.7 0 0 1-9.2-12 86.8 86.8 0 0 1-7-13.5A48.3 48.3 0 0 1 34.3 8c-.5-7.3 0-14.9-.2-22.2a.4.4 0 0 1 .4-.4.4.4 0 0 1 .4.4c.3 7.3-.1 14.8.5 22.2a47 47 0 0 0 3.3 14.2 86.4 86.4 0 0 0 7 13.1 88.4 88.4 0 0 0 9.2 11.9c5.9 6.4 12.3 12.2 17.8 18.7a61.5 61.5 0 0 1 9.3 14.4 177.6 177.6 0 0 1 8 21.2 129.1 129.1 0 0 1 4.7 22.1l.5 4.6c.5 6.1.7 12.2 1.4 18.3l.7 6.2a19.5 19.5 0 0 0 1 4 .4.4 0 0 1-.2.5.5.5 0 0 1-.6-.3Z" data-name="Path 339"/><path d="m88.8 148.9-.8-6.7-2.2-15.8c-1-7.8-1.9-15.6-3.7-23.1a70.2 70.2 0 0 0-5.2-14.6 77 77 0 0 0-7.3-11.8c-3.3-4.4-6.8-8.5-10.3-12.7-3.5-4.2-7-8.5-10.1-13A126.1 126.1 0 0 1 37.6 30a206.4 206.4 0 0 1-8-22.8.4.4 0 0 1 .2-.5.4.4 0 0 1 .5.3 207.1 207.1 0 0 0 8.4 22.5 125.7 125.7 0 0 0 11.7 21c3 4.5 6.6 8.7 10 12.9 3.6 4.2 7.2 8.4 10.4 12.7a77 77 0 0 1 7.4 12 70.5 70.5 0 0 1 5.2 15c1.8 7.6 2.6 15.4 3.5 23.3l2 15.7c.3 2.3.6 4.6.7 6.8a.4.4 0 0 1-.4.5.4.4 0 0 1-.4-.4Z" data-name="Path 340"/><path d="m77.5 123.9.1-.1v-.2a47.2 47.2 0 0 0-.5-5.1c-.4-4-1-8.1-1.7-12.1a63.8 63.8 0 0 0-2-7.9 51.6 51.6 0 0 0-5.2-11 153.3 153.3 0 0 0-10.1-13.8c-2.4-3-4.7-6.1-6.9-9.3A149 149 0 0 1 40.4 45a179 179 0 0 1-8-20.4.4.4 0 0 1 .2-.5.4.4 0 0 1 .5.2 184.4 184.4 0 0 0 8.5 20.2 149.6 149.6 0 0 0 10.9 19c2.3 3.3 4.8 6.6 7.3 9.8 2.6 3.3 5.1 6.6 7.4 10a56.7 56.7 0 0 1 7.4 14.8 64 64 0 0 1 2 8c.7 4 1.1 8.1 1.5 12.2l.4 4.6a3.6 3.6 0 0 1-.1 1.2.6.6 0 0 1-.3.3.5.5 0 0 1-.6-.2.4.4 0 0 1 0-.4Zm0-.1h.3a.8.8 0 0 0-.2 0v.1Z" data-name="Path 341"/><path d="M137.6 228.7a7 7 0 0 0 .2-3.3c-.5-2.8-1.6-6-1.8-8a91.7 91.7 0 0 1-.2-12.3 112 112 0 0 1 1.2-12.2c2.6-16.5 8.7-32.1 12.2-48.3a100 100 0 0 0 2.5-21 143.7 143.7 0 0 0-3.6-31 424.8 424.8 0 0 0-9.7-35.5 440.4 440.4 0 0 1-9.8-35.5.4.4 0 0 1 .3-.5.4.4 0 0 1 .5.3c2.7 11.8 6.4 23.5 10.2 35.4 3.7 11.7 7.4 23.5 10 35.4a144 144 0 0 1 3.6 31.4 101.5 101.5 0 0 1-2.6 21.3c-3.5 16.1-9.8 31.7-12.4 48.2a109 109 0 0 0-1.3 12 92 92 0 0 0 0 12.2c.2 2 1.4 5.2 1.8 8a7.8 7.8 0 0 1-.2 3.7.5.5 0 0 1-.6.3.4.4 0 0 1-.3-.6Z" data-name="Path 342"/><path d="M132.5 220.1a.4.4 0 0 1 .2.5.4.4 0 0 1-.6.3.6.6 0 0 1-.4-.3 2.6 2.6 0 0 1-.2-1c-.2-1.2-.2-3.5-.3-3.7l-.7-8.7c-.1-2-.2-3.8-.1-5.8a47.6 47.6 0 0 1 1-7.9c.8-3.8 1.9-7.7 2.8-11.5 2.6-10 5.9-20 8.5-30 1.1-4.3 2.1-8.7 3-13a90.4 90.4 0 0 0 1-22.5 149.3 149.3 0 0 0-2.2-16.7c-1-5.6-2.3-11.1-3.5-16.7-2.1-9-4.4-17.8-6.7-26.7-3.5-13.3-7.2-26.6-10.9-40a.4.4 0 0 1 .3-.4.4.4 0 0 1 .5.3C128 29.6 132 42.8 135.5 56A853.2 853.2 0 0 1 146 99.5a147.8 147.8 0 0 1 2.2 17 91.3 91.3 0 0 1-1.1 22.7c-.9 4.4-1.9 8.8-3 13-2.7 10.1-6 20-8.7 30.1l-3 11.4a47 47 0 0 0-1 7.8l.1 5.7.7 8.6a26.8 26.8 0 0 0 .2 4.2v.1Z" data-name="Path 343"/><path d="M124.1 199.6a46 46 0 0 1 2-11.4c1.7-5.5 4-11 5.8-16.3a136.3 136.3 0 0 0 4-14c1-4.8 1.9-9.6 2.4-14.4a165.3 165.3 0 0 0 .9-27.2c-.3-6-.8-12.1-1.6-18.2-1.2-9-2.8-18-4.8-26.9-3-13.4-6.7-26.7-10.5-39.7a.4.4 0 0 1 .3-.5.4.4 0 0 1 .5.3c4 13 7.9 26.2 11 39.7 2 8.9 3.8 18 5 27 .8 6 1.4 12.1 1.7 18.2a163.8 163.8 0 0 1-1 27.4 144.6 144.6 0 0 1-2.6 14.5 130.4 130.4 0 0 1-4.1 14.2c-2 5.3-4.3 10.7-6 16.2a45 45 0 0 0-2 11.1.4.4 0 0 1-.5.4.4.4 0 0 1-.5-.4Z" data-name="Path 344"/><path d="M116.4 188.3a2.7 2.7 0 0 1 .4-1.3c.4-.9 1.2-1.9 1.4-2.3a115.2 115.2 0 0 0 3.4-8.3 182 182 0 0 0 4.9-14.2 128.9 128.9 0 0 0 3.5-14.6 123.3 123.3 0 0 0 1.7-24.2 155.6 155.6 0 0 0-1.3-16 186.5 186.5 0 0 0-3.7-20c-1.7-6.6-3.6-13-5.7-19.5a.4.4 0 0 1 .2-.5.4.4 0 0 1 .6.3c2.2 6.4 4.3 12.9 6 19.4a176.7 176.7 0 0 1 4 20 141.4 141.4 0 0 1 1.4 16.3 122 122 0 0 1-1.9 24.4 130.8 130.8 0 0 1-3.6 14.7A180 180 0 0 1 119 185c-.2.5-1 1.5-1.4 2.4a2 2 0 0 0-.3.8.4.4 0 0 1-.4.5.4.4 0 0 1-.5-.4Z" data-name="Path 345"/><path d="M113.8 180.8a111.6 111.6 0 0 0 7.5-22.6 146 146 0 0 0 2.5-15.6 184 184 0 0 0 0-39.5.4.4 0 0 1 .3-.4.4.4 0 0 1 .4.3c.6 3.9 1 7.9 1.4 11.9q.4 6 .4 12c0 2.6 0 5.3-.2 8l-.7 7.9a135 135 0 0 1-2.8 15.7 110.8 110.8 0 0 1-8 22.6.5.5 0 0 1-.6.2.4.4 0 0 1-.2-.5Z" data-name="Path 346"/><path d="M111.2 174.4a.4.4 0 0 1-.3.5.4.4 0 0 1-.6-.3 2.5 2.5 0 0 1 .3-1.3l1.8-3.5a83.4 83.4 0 0 0 3.8-13.7 114 114 0 0 0 2.3-19.5l.2-9.8V117a.4.4 0 0 1 .3-.4.4.4 0 0 1 .4.4 266.5 266.5 0 0 1 .4 23.8l-.6 6.3q-.6 4.7-1.6 9.4a93.8 93.8 0 0 1-4.2 13.7l-1.7 3.2a9.8 9.8 0 0 0-.4.9s-.2.2 0 .2Zm0 0Z" data-name="Path 347"/><path d="m164.5 262.5.2-1.4 1-3.6 1.5-5.6 1.9-5.6 6.8-19.5 4.5-13c2.2-6.7 4.6-13.7 6.4-20.7a90.2 90.2 0 0 0 2.5-14 118.6 118.6 0 0 0-1-28.6c-2.2-14.3-6-28.5-9.7-42.2a.4.4 0 0 1 .3-.5.4.4 0 0 1 .5.3c3.8 13.7 8 27.8 10.2 42.1a133.8 133.8 0 0 1 1.6 17.3 100 100 0 0 1-.4 11.6 91.3 91.3 0 0 1-2.6 14.4c-1.7 7-4.2 14-6.5 20.7l-4.6 13-7 19.4-2 5.6q-1 2.8-1.6 5.6l-1 3.5c0 .3 0 1-.2 1.4a1.2 1.2 0 0 1-.2.5.5.5 0 0 1-.4.2.6.6 0 0 1-.5-.4.4.4 0 0 1 .2-.5Zm.5.1Z" data-name="Path 348"/><path d="M160.8 254v.1c-.8 1.8-1.3 2.3-1.4 2-.2 0-.2-.7.5-2.2v-.1l.7-1.7 1-3.2 2-6.9a102 102 0 0 1 3-8.7c2.8-7.5 6-15 8.5-22.6a137 137 0 0 0 5.4-22.2q1-5.7 1.4-11.4.5-5.7.6-11.4a176.9 176.9 0 0 0-1.2-22.8 204.9 204.9 0 0 0-3.9-22.6.4.4 0 0 1 .8-.2 202 202 0 0 1 4.3 22.6 170.7 170.7 0 0 1 1.5 23 157 157 0 0 1-2 23 136.8 136.8 0 0 1-5.6 22.4l-2 5.7c-3 7.5-6.1 15-8.7 22.6l-1 3-2.2 6.8-1 3.1-.7 1.7Z" data-name="Path 349"/><path d="M155.2 246.7a3.4 3.4 0 0 1 .4-1.4l1.2-2.6 1-2.5 2-6c3.1-8.7 7-17.1 10.2-25.6a161 161 0 0 0 4-11.1 108.8 108.8 0 0 0 3.9-18.5 132.2 132.2 0 0 0 1-19 170.2 170.2 0 0 0-1.3-18.9c-.8-6.3-1.9-12.6-3.2-18.7a.4.4 0 0 1 .3-.5.4.4 0 0 1 .5.3c1.4 6.2 2.7 12.5 3.6 18.8a162.4 162.4 0 0 1 1.6 19 125.9 125.9 0 0 1-1 19.1 107.1 107.1 0 0 1-4 18.8c-1.2 3.8-2.6 7.5-4 11.1-3.5 8.5-7.4 16.9-10.5 25.5l-2.2 6-1 2.5-1.3 2.7a2.3 2.3 0 0 0-.3 1 .5.5 0 0 1-.4.4.5.5 0 0 1-.4-.4Z" data-name="Path 350"/><path d="M153 237.5a22.9 22.9 0 0 0 3.3-5.5c2-4.8 3.3-10.4 4.9-14.5a157.4 157.4 0 0 0 6.5-22.2q1.6-7.6 2.6-15.2t1.3-15.4a225.2 225.2 0 0 0-.2-23.2.4.4 0 0 1 .4-.4.4.4 0 0 1 .4.3 213.8 213.8 0 0 1 .7 23.3c-.1 5.2-.5 10.4-1 15.5a153 153 0 0 1-2.7 15.4 154 154 0 0 1-6.9 22.4c-1.6 4-3 9.6-5.1 14.4a23.3 23.3 0 0 1-3.5 5.7.5.5 0 0 1-.6 0 .4.4 0 0 1 0-.6Z" data-name="Path 351"/><path d="m150.3 230.4.2-.5.4-.6.5-1 1.4-2.8a63 63 0 0 0 3-8 275 275 0 0 0 9.7-44.5c.5-4 .7-8 .8-12a.4.4 0 0 1 .4-.4.4.4 0 0 1 .4.4q0 6-.4 12a147 147 0 0 1-3.2 21.4 237 237 0 0 1-6 21.9 105.8 105.8 0 0 1-5.8 13.5 6.7 6.7 0 0 1-.4.6l-.4.8a.7.7 0 0 1-.3.2.5.5 0 0 1-.4 0 .5.5 0 0 1-.3-.4.4.4 0 0 1 .3-.5h.1Zm.5.3Zm-.5-.2-.1.1.1-.1Z" data-name="Path 352"/><path d="M156.5 260.5a1.5 1.5 0 0 1-1 0 8 8 0 0 1-1.8-.6c-2-1-4.3-2.7-5-3a168.9 168.9 0 0 0-22.4-9.5 369.9 369.9 0 0 1-41.5-17.1 214 214 0 0 1-15.6-8.8 169.3 169.3 0 0 1-21.5-15.9c-2.7-2.3-5.1-4.7-7.5-7.2-3.5-3.7-6.7-7.6-10.3-11.5a.4.4 0 0 1 0-.6.4.4 0 0 1 .7 0L41 197.8a101.3 101.3 0 0 0 7.5 7A171.9 171.9 0 0 0 70 220.4a232.6 232.6 0 0 0 31.7 16.3c8.2 3.5 16.6 6.8 25 9.7 4 1.4 7.7 2.9 11.5 4.5q5.6 2.4 11 5.3c.7.3 3 2 5 3a7 7 0 0 0 1.4.6.7.7 0 0 0 .5 0 .5.5 0 0 1 .6.2.4.4 0 0 1-.2.6Z" data-name="Path 353"/><path d="M160.2 268.9a13.5 13.5 0 0 1-3.3-1.1c-2.4-1.2-4.9-2.8-7-3.8l-7.7-3.2-11.7-4.7c-2.7-1-5.4-2.2-8-3.5l-18.1-9c-5.5-2.4-11.1-5-16.7-7.7-5.5-2.7-11-5.6-16.3-8.7a141.5 141.5 0 0 1-20.2-14 55.6 55.6 0 0 1-7-7.1c-5-6-9-12.5-14.4-18a.4.4 0 0 1 0-.5.4.4 0 0 1 .6 0c5.4 5.4 9.7 12 14.7 17.8a58.4 58.4 0 0 0 6.9 6.9A144.2 144.2 0 0 0 72.1 226a286 286 0 0 0 16.3 8.5c5.5 2.8 11.1 5.4 16.6 8 6.2 2.8 12 6 18 9 2.7 1.2 5.3 2.5 8 3.5l11.6 4.8c2.6 1 5.2 2.2 7.7 3.4 2.2 1 4.6 2.6 7 3.8a12.6 12.6 0 0 0 3 1 .4.4 0 1 1-.1.9Z" data-name="Path 354"/><path d="m164 275.4-.2-.2a14.7 14.7 0 0 1-2-.1l-2.3-.9-5.3-2-19.4-7.6a219.2 219.2 0 0 1-29.5-13.6c-8.1-4.5-16-9.3-23.9-14.1-6-3.7-12-7.3-17.7-11.4a93 93 0 0 1-10.9-9 78 78 0 0 1-7.2-8.3c-3.3-4.4-6.4-9.1-9.3-13.5a.4.4 0 0 1 .2-.5.4.4 0 0 1 .5.1c3 4.3 6.1 9 9.5 13.3a79.6 79.6 0 0 0 7.2 8 93.1 93.1 0 0 0 10.8 8.8c5.7 4 11.8 7.6 17.7 11.2 7.8 4.8 15.7 9.7 23.8 14.2a228.7 228.7 0 0 0 29.2 13.8l19.4 7.6 5.3 2.2 2.2.8a4.3 4.3 0 0 0 1.2.1 2.8 2.8 0 0 1 1 .2 1 1 0 0 1 .6.7.4.4 0 0 1-.3.5.5.5 0 0 1-.6-.3Z" data-name="Path 355"/><path d="M168.3 283.7h-.1l-1.3-.5-2.2-1.1-1.5-.7a300.4 300.4 0 0 0-11.1-5c-7-2.7-13.9-5.5-20.6-8.5-4.5-2-9-4.2-13.4-6.6-6.7-3.6-13.7-7-20.7-10.5-4.6-2.4-9.2-4.8-13.7-7.4a114 114 0 0 1-20.9-15.2c-2.8-2.7-5.7-5.6-8.3-8.6a71 71 0 0 1-5-6.3c-3-4.4-5.6-9.2-8.6-13.6a51.2 51.2 0 0 0-4.1-5.5.4.4 0 0 1 0-.5.4.4 0 0 1 .6 0 51.7 51.7 0 0 1 4.3 5.5c3 4.4 5.6 9.1 8.8 13.5a68.2 68.2 0 0 0 4.9 6.1c2.7 3 5.5 5.8 8.4 8.5A113.4 113.4 0 0 0 84.5 242c4.4 2.6 9 5 13.6 7.4 7 3.6 14 7 20.7 10.6 4.3 2.4 8.7 4.6 13.2 6.6 6.7 3.2 13.6 6 20.5 8.8l4.5 2 6.6 3 1.5.8 2.3 1.1 1.3.5a1.4 1.4 0 0 1 .4.2.5.5 0 0 1 .2.5.5.5 0 0 1-.5.4.5.5 0 0 1-.5-.3Zm.2 0Z" data-name="Path 356"/><path d="M174.7 292.7a40.5 40.5 0 0 0-4.8-2.8c-3.9-2-8-3.5-11.9-5.3-4.8-2.3-9.7-4.4-14.7-6.5l-6.9-2.9-7-2.8-10.4-4.2-10.5-4.2a.4.4 0 0 1-.2-.5.4.4 0 0 1 .5-.2l15.2 5.5 9 3.5 6 2.4c2.7 1 5.3 2.2 8 3.3q5.8 2.6 11.6 5.5c3.2 1.6 6.8 3 10.1 4.7a45.8 45.8 0 0 1 6.5 3.8.4.4 0 0 1 0 .6.5.5 0 0 1-.5 0Z" data-name="Path 357"/><path d="M187.3 339.3a.5.5 0 0 1 .1 0 .4.4 0 0 1 .2.7.7.7 0 0 1-.4.3.6.6 0 0 1-.4 0 1.1 1.1 0 0 1-.4-.7l-.4-1.4-1.1-2a55 55 0 0 0-3.8-5.8c-1.4-2-3-3.7-4.4-5.6a126.2 126.2 0 0 0-13.3-14.2 72 72 0 0 0-16-11.2 103.8 103.8 0 0 0-14.8-5.8c-7.6-2.5-15.5-4.3-23.2-6.5-5-1.4-9.7-3-14.4-4.7-7.1-2.5-14.1-5.2-21.2-8-3.8-1.5-7.9-2.7-11.8-4.2l-5-2.1a39.7 39.7 0 0 1-6-3.7c-4.4-3.2-8.1-7-12.6-10.3a.4.4 0 0 1 0-.5.4.4 0 0 1 .5-.1c4.5 3.2 8.3 7 12.7 10.1a39.6 39.6 0 0 0 6 3.5c1.6.8 3.2 1.4 4.9 2 3.9 1.5 8 2.7 11.8 4.1 7.1 2.7 14.1 5.4 21.2 7.9 4.7 1.6 9.4 3.1 14.3 4.5 7.7 2.2 15.6 4.1 23.3 6.6a104 104 0 0 1 15 6 72.8 72.8 0 0 1 16.2 11.5 126 126 0 0 1 13.3 14.5c1.4 1.8 3 3.7 4.3 5.6a55 55 0 0 1 3.8 6l1.1 2 .5 1.5Z" data-name="Path 358"/><path d="M189.8 352.4a28.4 28.4 0 0 0-3.3-6.5c-2.1-3.3-4.7-6.4-6.7-9.1a117 117 0 0 0-20.5-21.6 88.5 88.5 0 0 0-26-14.8c-10.7-3.7-22-5.2-32.9-8.3-2.7-.7-5.4-1.6-8-2.6a160.2 160.2 0 0 1-23.7-11.8c-11.3-6.7-21.9-14.4-32.6-22a.4.4 0 0 1 0-.5.4.4 0 0 1 .5-.1c10.8 7.4 21.5 15 32.8 21.6A161.6 161.6 0 0 0 92.9 288c2.6 1 5.3 1.8 8 2.6 10.9 3 22.2 4.6 32.9 8.3a89.4 89.4 0 0 1 26.3 15.2 117 117 0 0 1 20.6 22c2 2.8 4.5 6 6.6 9.2a29 29 0 0 1 3.3 6.8.4.4 0 0 1-.3.5.4.4 0 0 1-.5-.3Z" data-name="Path 359"/><path d="M192.2 361.7a98.2 98.2 0 0 0-27.4-35.5 136.9 136.9 0 0 0-39.7-22.8c-4.7-1.8-9.7-3.2-14.7-4.5-5-1.4-10-2.6-15-4.2A88.2 88.2 0 0 1 83 290a70 70 0 0 1-13.6-8.8c-9.6-7.9-17.8-17.5-27.8-25a.4.4 0 0 1 0-.5.4.4 0 0 1 .5 0c10.1 7.3 18.4 16.8 28.1 24.5a69 69 0 0 0 13.4 8.6 88 88 0 0 0 12.3 4.7c5 1.5 10 2.7 15 4a149.9 149.9 0 0 1 14.8 4.6 137.7 137.7 0 0 1 39.9 23.3 99 99 0 0 1 27.4 36 .4.4 0 0 1-.2.6.5.5 0 0 1-.6-.2Z" data-name="Path 360"/><path d="M193.4 370.5c.1 0 .2.1.1.2a.4.4 0 0 1 0 .1.5.5 0 0 1 0 .4.4.4 0 0 1-.6 0 .4.4 0 0 1-.2-.1l-.3-.8-.5-1.3-.9-2-.8-1.8a112.4 112.4 0 0 0-7-12 81.5 81.5 0 0 0-13.5-15.5 101.7 101.7 0 0 0-16.7-12c-4.4-2.5-8.8-5-13.3-7.3-3-1.5-6-2.9-9.1-4.1-10.1-4-20.5-7.2-30.4-11.3a117.9 117.9 0 0 1-19.4-9.7 83.3 83.3 0 0 1-13.3-11c-9.5-9.2-17.5-20-27.5-28.6a.4.4 0 0 1 0-.6.4.4 0 0 1 .5 0c10.1 8.4 18.3 19.2 27.9 28.4a82.2 82.2 0 0 0 13.2 10.6 121 121 0 0 0 19.1 9.6c10 4 20.3 7.2 30.4 11.2a107 107 0 0 1 9.3 4.3c4.5 2.3 9 4.9 13.3 7.4a102.9 102.9 0 0 1 16.9 12.3 82 82 0 0 1 13.4 15.7 99.7 99.7 0 0 1 7 12.2l.9 2 .8 1.9.5 1.3a2.7 2.7 0 0 1 .2.5Zm-.7.3Zm.7-.3a.5.5 0 0 1 .1.2l-.1-.2Z" data-name="Path 361"/><path d="M180.9 363c-1.8-2.4-3.2-5-5-7.3a30.6 30.6 0 0 0-2.2-3 91.5 91.5 0 0 0-11-10.6 116.4 116.4 0 0 0-12.7-9c-9.6-5.9-20.1-10.2-30.7-14.5-7-3-14-5.8-20.8-9.2a128.6 128.6 0 0 1-12.5-7 83 83 0 0 1-15.3-13C60 278 51.6 264.7 40.9 253.7a.4.4 0 0 1 0-.5.4.4 0 0 1 .6 0C52.3 264 61 277.3 71.7 288.5a82.3 82.3 0 0 0 15.2 12.7 129 129 0 0 0 12.3 6.9c6.7 3.3 13.7 6.2 20.7 9.1 10.6 4.5 21.1 9 30.8 15a118.3 118.3 0 0 1 12.7 9 94 94 0 0 1 11 11 34.1 34.1 0 0 1 2.4 3c1.6 2.4 3 5 4.8 7.3a.4.4 0 0 1 0 .6.5.5 0 0 1-.7-.1Z" data-name="Path 362"/><path d="M121.1 328.2a26.3 26.3 0 0 0-6.9-5.3 132.1 132.1 0 0 0-12.2-5.3c-3.9-1.6-7.8-3.5-11.5-5.5a108.7 108.7 0 0 1-10.8-6.7 46.4 46.4 0 0 1-7.5-6.8 127.4 127.4 0 0 1-9-12l-10-14.4c-2.3-3.2-4.5-6.5-6.6-9.8a.4.4 0 0 1 0-.5.4.4 0 0 1 .7 0c1.6 2.5 3.3 5 5 7.3l12 16.7a127.5 127.5 0 0 0 9 11.7 44.5 44.5 0 0 0 7.3 6.6 109.4 109.4 0 0 0 10.6 6.7 123.1 123.1 0 0 0 11.3 5.6 131.6 131.6 0 0 1 12.2 5.6 27.4 27.4 0 0 1 7 5.5.4.4 0 0 1 0 .6.5.5 0 0 1-.6 0Z" data-name="Path 363"/><path d="M193.1 398.5a17 17 0 0 0-3.3-4.8c-2.2-2.3-4.7-4.4-6.6-6.3-3-3-6-6.5-9.2-9.6a40.6 40.6 0 0 0-6.9-5.4 52.9 52.9 0 0 0-8.6-4c-7-2.7-14.5-4.5-21.3-7.2-3-1.2-6-2.6-8.9-4-4.3-2.1-8.5-4.5-12.8-6.7-3.8-2-7.7-3.6-11.5-5.4a92 92 0 0 1-10-5.3c-6.5-4-13-8-19.7-11.8a.4.4 0 0 1-.2-.6.4.4 0 0 1 .6-.1c6.8 3.6 13.3 7.7 20 11.5a233.6 233.6 0 0 0 10 5.1c3.8 1.8 7.7 3.4 11.5 5.4 4.3 2.1 8.5 4.4 12.8 6.6a131 131 0 0 0 8.8 4c6.7 2.6 14.3 4.5 21.3 7.2a54.8 54.8 0 0 1 8.7 4.3 41 41 0 0 1 7 5.6c3.3 3.1 6.3 6.6 9.2 9.7 2.2 2.2 5.3 4.8 7.5 7.6a15.3 15.3 0 0 1 2.5 3.9.4.4 0 0 1-.3.6.5.5 0 0 1-.6-.3Z" data-name="Path 364"/><path d="M195.6 405.2a4.4 4.4 0 0 0-1.1-1.6c-.8-.9-1.9-1.7-2.5-2.3l-4.6-4.4-4.7-4.4c-3.7-3.3-7.3-7-11.2-10.4a52.4 52.4 0 0 0-8.3-6 43.9 43.9 0 0 0-5.7-2.6c-3-1.1-6-2-9.1-3a190.3 190.3 0 0 1-18.4-7.2 191 191 0 0 1-20.5-10.7c-6.6-4-13-8.4-19-12.9-5.3-4-10.3-8.2-15.5-12.3l-3.9-3a.4.4 0 0 1 0-.5.4.4 0 0 1 .5-.1l4 3c5.2 4 10.3 8.1 15.6 12 6 4.4 12.4 8.6 19.1 12.6a192.5 192.5 0 0 0 20.4 10.5 237.9 237.9 0 0 0 18.1 7.2c3.2 1 6.2 2 9.2 3.2a43.2 43.2 0 0 1 6 2.8 52.8 52.8 0 0 1 8.3 6c3.9 3.5 7.5 7.3 11.2 10.6a334.6 334.6 0 0 1 9.2 9c.7.7 2 1.7 2.9 2.7a4.4 4.4 0 0 1 1 1.5.4.4 0 0 1-.4.6.5.5 0 0 1-.6-.3Z" data-name="Path 365"/><path d="M193.7 409.2a1.8 1.8 0 0 1-.7-.5c-.5-.5-1.2-1.6-1.5-1.8a97.3 97.3 0 0 0-5.5-5.2c-4.3-3.6-8.6-7.3-13.1-10.8a98.1 98.1 0 0 0-9.3-6.4 62.8 62.8 0 0 0-6.8-3.5c-9.5-4.2-19.8-6.7-28.9-11.7a156.2 156.2 0 0 1-23.5-15.7 450 450 0 0 1-31.7-28 .4.4 0 0 1 0-.6.4.4 0 0 1 .6 0c10.3 9.5 20.8 19 32 27.5a212.7 212.7 0 0 0 23.4 15.5c9 5 19.3 7.6 28.7 11.8a65 65 0 0 1 6.9 3.6 93 93 0 0 1 9.3 6.6c4.5 3.5 8.8 7.3 13 11l2.9 2.6c1 .8 1.8 1.7 2.7 2.7.3.2.8 1 1.3 1.6l.4.5a.4.4 0 0 1 .3.5.4.4 0 0 1-.5.3Z" data-name="Path 366"/><path d="M195.4 419.8a3.2 3.2 0 0 1-1-.8c-.6-.7-1.2-1.7-1.6-2l-4-4.5-1.7-2c-4-4.2-8-8.5-12.3-12.5a76 76 0 0 0-9.1-7.3 65.3 65.3 0 0 0-8.9-5c-7.4-3.5-15.3-6-23-9A83.3 83.3 0 0 1 119 369a116.3 116.3 0 0 1-15.7-12.7c-5.7-5.4-11-11.2-16.2-17a273 273 0 0 0-16.4-16.7.4.4 0 0 1 0-.6.4.4 0 0 1 .6 0 267 267 0 0 1 16.6 16.6c5.4 5.7 10.7 11.4 16.4 16.7a115 115 0 0 0 15.6 12.5 94 94 0 0 0 18.3 8.9c6.5 2.4 13 4.7 19.2 7.7a67.4 67.4 0 0 1 9 5.2 78.6 78.6 0 0 1 9.2 7.5c4.3 4 8.2 8.4 12.2 12.7a89 89 0 0 1 1.8 2l4 4.4 1.5 2.1a2 2 0 0 0 .6.6.4.4 0 0 1 .3.6.5.5 0 0 1-.6.2Z" data-name="Path 367"/></g><path fill="#f2720f" d="M471.3 647 465 638c-2.3-3.2-4.8-6.3-7.4-9.3-4-4.6-8-9-12.1-13.4-8.4-9-16.5-18.5-24.9-27.6-3.6-3.8-7.2-7.6-11-11.2-3.7-3.5-7.7-6.9-11.8-10.1-6.3-5-12.9-9.7-19.2-14.5-7.5-5.7-14.6-11.8-22.2-17.5a137 137 0 0 0-9.6-6.5 195 195 0 0 0-29.4-14.8 278.4 278.4 0 0 0-31.5-10.7c-26.2-7.5-55.4-11.6-82.3-20a150.3 150.3 0 0 1-51-25.7 3.2 3.2 0 0 1-.4-4.6 3.3 3.3 0 0 1 4.6-.6 146.2 146.2 0 0 0 49.7 22.1c27.2 7.3 56.4 10.6 83 17.3a269.5 269.5 0 0 1 33 10.9 196.3 196.3 0 0 1 31 16c3.5 2.2 6.9 4.6 10.2 7.2 7.5 5.8 14.6 12.1 22 18l18.9 15a171.3 171.3 0 0 1 23.2 23.1c8.2 9.4 16 19.1 24 28.5 4 4.6 8 9.2 11.9 14 2.5 3.2 5 6.5 7.4 9.9l6.1 10a3.6 3.6 0 0 1-1.3 4.8 3.4 3.4 0 0 1-4.7-1.1Z" data-name="Path 369"/></g><g data-name="Group 32"><g fill-rule="evenodd" data-name="No Dodos [_Blad 2"><path fill="#a693f1" d="M491.8 127c-.7-.4-1.5-1.8-2.2-2.2a132 132 0 0 1-5.2-3.6c-5.5-4-10.9-7.9-16.9-10.9-12.6-6.2-27.6-6-41-9.4-4.4-1-8.8-1.8-13-3.3-1.5-.6-4.7-2.5-6.3-2.4-.6 0 1.1.4 1.7.6a37.4 37.4 0 0 1 3.6 1.7c3.4 2 6.5 4.4 10 6.4 5.7 3.4 11.7 6.1 17.3 9.8 4.3 2.7 8 6.2 12.4 8.6 5.8 3.2 12 5.6 18.7 6 2.8.2 9.6-1.2 12 .9l3.8-1a11.7 11.7 0 0 0-.8 1l-2 3.7a67.4 67.4 0 0 0-4.6 12c-2.2 8.4.7 17.2.2 25.8a48.5 48.5 0 0 1-1.4 9l-.2 1c-.6 1-1.3 2.4-1.1 3 .1.6.4-.8.6-1.3l.5-1.7.7-1.4c2-3.9 4.5-7.4 6.4-11.3 4-8 9-15.5 10.6-24.3a36.3 36.3 0 0 0 .6-9.3c-.2-2.6-1.3-5.4-.5-8l-3.5.5a.6.6 0 0 0 .2-.1l-.7.1Zm0 0h-.5.6Zm-27 12.4c.2-.4-.5.3-.8.5l-1.8 1.4a19.3 19.3 0 0 0-4 4.8 66.3 66.3 0 0 0-7.5 18.3c-2.5 10.4-1.6 20.5-1.2 31 .3 9 0 18-.2 26.9l-.2 13.7c0 .5-.5 4.5 0 4.7a6.3 6.3 0 0 0 .3-.9l.7-1.9 2.8-6.2c2.9-6.2 6.4-12 9.2-18.2 6.3-14 2.8-29.2 4.1-44 .7-7.4 2.4-16.5 5.3-23.3 1-2.2 2.8-4 4-6.2 1.3-2.1 2-4.7 3-7l-13.6 6.4Zm-156.2-16.5 1.4.5 3.3 1a44 44 0 0 0 9.7 1.5c9.6.4 19-2.1 28.6-1.7 28.6 1.4 50.7 26.1 80 25 6-.2 12-.3 17.4-3.1l6.5-3.8-1.5-1.1-3.2-2.4a99.3 99.3 0 0 0-10-6.1c-10.5-5.9-20.9-10-32.2-14-13-4.5-26.7-11.2-40.6-12.2-20.8-1.6-41 8-59.4 16.4-.3 0-.4 0-.3.1l.3-.1Zm115.2 40.4c.4 0-.8.5-1.1.7l-1.8 1.5a51.2 51.2 0 0 0-5.4 5.6 52.5 52.5 0 0 0-11 21.9c-2.1 9-.7 18.6.2 27.7 1.2 11.1 2.2 22.2 3.9 33.2 1 6.5 2.6 13.6 2.5 20.2a53.4 53.4 0 0 1-.7 7.2 53 53 0 0 1-.4 2.1c0 .4-.5 1.6-.2 1.2 2.6-3.2 3.6-8.2 6.2-11.8 6.8-9.3 16.7-16.7 19-28.7 1.3-7 .2-14.4-.8-21.4-1.4-10.8-3.5-21.7-4.2-32.7a51 51 0 0 1 5.4-26.3c1.1-2.5 2.8-4.6 4-7 .2-.3 1.3-2 1.2-2.3-.2-.4-3.3 1.2-3.6 1.3-4 1.7-8 4.7-11.5 7.2l-1.7.4Zm-7 2.2c-.2 0-5.3-3.5-5.6-3.6a89.4 89.4 0 0 0-13.1-5.2 103.1 103.1 0 0 0-41.4-5.4c-23 1.3-44.2 8-66.6 12.8-13.5 3-26.6 6.7-40.2 2.4 1.2 1.2 4.6 2 6.3 2.6 5.6 1.8 11.4 2.9 17 4.9a142 142 0 0 0 47.2 10.5c17.8 0 35.2-5 52.6-8.1a54.9 54.9 0 0 1 13-1.2c5.2.4 10.2 1.8 15.3.1 3.8-1.2 6.5-4.3 9.5-6.7l6-3.1Zm-49.6 143.8a6.7 6.7 0 0 0-1.6 3.4c0 1 1-1.8 1.3-2.7l.3-.7c1.2-1.7 3-3.5 3.6-4.5 4.7-6.4 9.5-13.3 12.8-20.5 5.5-12.5 4.7-25.4 6-38.6.8-9.2 3.7-18 4.8-27.2.9-7.5.2-15.4 1.5-22.7l1.6-8 .5-2.6c.1-.5.8-1.5.3-1.4-1 .4-2.8 3.3-3.6 4.2-3.6 3.7-7.1 7.3-10.5 11.3l-3 1.1c-.5-1-1.1 2-1.6 3a60.3 60.3 0 0 0-2.4 5.8 61.8 61.8 0 0 0-3 19.5c-.2 20 1.7 39.4-1.8 59.4a145.7 145.7 0 0 1-3.6 16.4l-1.6 4.8Zm28.3-124.5-2.8 2a82.7 82.7 0 0 1-11.4 5.2c-7.8 3.1-15.8 6-24.2 7.2s-16.8.4-25.2.7c-6.2.3-12.4.5-18.4 2a88.1 88.1 0 0 0-31.4 16.5c-7 5.6-12.7 12.6-19.6 18.4-3 2.6-6.4 4.2-9.8 6.1.3.2 2-.5 2.2-.6l6.8-2a192.5 192.5 0 0 1 26.3-6.5c9.8-1.6 19.7-3.2 29.5-4.2 16.1-1.8 34.2-3.4 48-12.6 5-3.3 8.2-8 11.7-12.6 4-4.9 8.2-9.5 12.3-14.2l6-5.4.3-.2-.3.2ZM363.4 227c-.7.8-1.7 1.7-1.8 1.7A39 39 0 0 1 351 235c-14.1 5.9-29.8 7.3-44.9 9.3-24.6 3.3-45.8 19-63.7 35.4-7 6.4-13.2 13.8-20.6 20 .4.2 2-.4 2.5-.5a64 64 0 0 0 8.2-3.1c10.6-4.5 20.8-9.6 31.4-14a73 73 0 0 1 22.7-5.5c11.4-1 24-.5 34.7-5.3 5.2-2.4 9.1-6.2 13.3-10a171 171 0 0 0 16.3-16c-4.3 6-8 13.9-13.6 18.7l-1.2 1.4c-.2 0-3.3 5.4-3.5 5.7-3.9 6-7.6 12.1-10.2 18.8-3.4 8.9-4.1 18.5-5.6 27.8-1.4 8.3-3.6 16.4-5.4 24.6-2.2 10-4.9 19.9-12.2 27.4 2.6-.5 4-2.9 6-5.2 4-4.6 8-9.1 11.7-14 8.9-11.4 14.7-24.5 21.6-37.1 3.3-6 7.7-11.2 10.8-17.2a60.6 60.6 0 0 0 5.9-19.2c1.2-8.4-1.8-16.7-.6-25a81.2 81.2 0 0 1 2-9.7l.8-5.2-.4.3c.6-1.3 1-3 2.2-4l4.2-6.2c.4-.5.8-1 .6-1l-.6 1Zm-44 52.2c0-.3-2.2-.3-2.3-.3a46.5 46.5 0 0 0-8.3.3c-9.5 1.6-17.5 10-25 15.6-25.5 18.8-26.5 56.6-51.6 75.6.1.2 1.6-.3 1.8-.4 1.8-.5 3.6-1 5.5-1.7a50.5 50.5 0 0 0 22.6-13.5c14.1-15.3 26-32.5 38.9-48.6 4.3-5.3 9.8-9.4 13.9-14.9 4-5.2 7-11.2 11-16.5l-6.5 4.4Z" data-name="Path 460"/><g fill="#044928" clip-path="url(#e)" data-name="Group 30" transform="rotate(20 14.3 855.6)"><path d="M111.4 198.7a30.3 30.3 0 0 1-3.4 8 33.3 33.3 0 0 1-5.3 6.8c-2.8 2.7-6 4.8-9 7.3l-2.1 1.9a69.4 69.4 0 0 0-9 11.1 105.7 105.7 0 0 0-6.9 12.6 82.3 82.3 0 0 0-5 13.7 99.8 99.8 0 0 0-2.7 14.3c-.9 7.1-1.2 14.6-2.2 21.8a72.3 72.3 0 0 1-2 9.3 44.5 44.5 0 0 1-5.2 11.4c-3.2 5.4-7.3 10.3-10.9 15.3a.3.3 0 0 1-.5-.3c3.6-5 7.5-10 10.7-15.4a44 44 0 0 0 5-11.3 72.1 72.1 0 0 0 1.9-9.1c1-7.3 1.2-14.7 2-21.8a100.2 100.2 0 0 1 2.8-14.5 81.8 81.8 0 0 1 5.2-13.9 103.6 103.6 0 0 1 7-12.6A69.2 69.2 0 0 1 91 222a37 37 0 0 1 2.1-2c3-2.4 6.3-4.4 9-7a32.9 32.9 0 0 0 5.3-6.7 30.2 30.2 0 0 0 3.3-7.8.3.3 0 0 1 .4-.2.3.3 0 0 1 .3.4Z" data-name="Path 461"/><path d="M104.2 208a9.5 9.5 0 0 0-.8.7l-3 3c-2 1.6-4 2.9-6 4.4-.8.6-1.6 1.2-2.4 2a66.5 66.5 0 0 0-7.4 8 101.7 101.7 0 0 0-6.3 8.9 45.5 45.5 0 0 0-2.5 4.7c-1.2 2.4-2.2 5-3.3 7.4l-5.8 12.4-2.4 5.4a.3.3 0 0 1-.4.1.3.3 0 0 1-.1-.4 306 306 0 0 1 2.2-5.4l5.5-12.6c1.1-2.4 2-5 3.2-7.4a43 43 0 0 1 2.6-4.8 98 98 0 0 1 6.5-9 66 66 0 0 1 7.6-8 31.8 31.8 0 0 1 2.5-2c2-1.5 4-2.7 6-4.3 1-.8 2-2 3-2.9l.9-.7a.3.3 0 0 1 .4 0 .3.3 0 0 1 0 .5Z" data-name="Path 462"/><path d="M108 210a14.7 14.7 0 0 1-1.7 2.8l-3 3.7c-3 3.6-6.2 7-9.2 10.5l-2.3 2.7a101.3 101.3 0 0 0-9.5 14 140.2 140.2 0 0 0-7.4 15.4 46.5 46.5 0 0 0-3 12.3c-.8 6.3-.7 12.7-1.2 19.2a67.2 67.2 0 0 1-2 11.2 66.9 66.9 0 0 1-3.8 10.7 37.9 37.9 0 0 1-6.3 9.4c-3.8 4.2-8.2 8-12 11.9a.3.3 0 0 1-.5 0 .3.3 0 0 1 0-.5c3.9-4 8.2-7.7 11.9-12a37 37 0 0 0 6-9.1 66.2 66.2 0 0 0 3.7-10.7 66.6 66.6 0 0 0 1.9-11c.5-6.5.4-13 1.2-19.3a47.1 47.1 0 0 1 3.1-12.5 138.3 138.3 0 0 1 7.6-15.4 100.6 100.6 0 0 1 9.7-14.2 89 89 0 0 1 2.2-2.6l9.3-10.4 3-3.7a14.9 14.9 0 0 0 1.7-2.6.3.3 0 0 1 .4-.1.3.3 0 0 1 .2.4Z" data-name="Path 463"/><path d="m108 218.9-3.4 4c-2.5 3-4.9 6.3-7.4 9.4a166.4 166.4 0 0 0-10.8 14.2 55 55 0 0 0-5.4 10.4 58.5 58.5 0 0 0-2.7 10c-.7 4-1.2 8.1-1.7 12.2-.5 4-1.1 8.1-2 12.1a97.7 97.7 0 0 1-5.8 17.4 159.6 159.6 0 0 1-8.4 16.3.3.3 0 0 1-.4.1.3.3 0 0 1-.1-.4 158.7 158.7 0 0 0 8.1-16.3 96.6 96.6 0 0 0 5.6-17.3c.8-4 1.3-8 1.8-12 .6-4.1 1-8.2 1.8-12.2a59.8 59.8 0 0 1 2.8-10.2 54.9 54.9 0 0 1 5.6-10.7 163.2 163.2 0 0 1 11-14.1l7.5-9.4 3.4-4a.3.3 0 0 1 .4 0 .3.3 0 0 1 0 .5Z" data-name="Path 464"/><path d="M100 238h-.1l-.1.1a35.6 35.6 0 0 0-2.5 3c-2 2.3-4 4.7-5.8 7.3a51.5 51.5 0 0 0-3.3 5.2 40 40 0 0 0-3.4 8.5 115.7 115.7 0 0 0-2.4 12.6l-1.6 8.6a115 115 0 0 1-5 15.8 139.2 139.2 0 0 1-7.2 15 .3.3 0 0 1-.4.2.3.3 0 0 1-.1-.4 144 144 0 0 0 6.8-15.1 115.2 115.2 0 0 0 4.8-15.8c.7-3 1.1-6 1.6-9 .5-3.1 1-6.2 1.7-9.2a44 44 0 0 1 4.4-11.7 51.9 51.9 0 0 1 3.4-5.2c1.8-2.6 3.8-5 5.9-7.3.1-.1 1.4-1.8 2.3-2.6a2.8 2.8 0 0 1 .7-.6.4.4 0 0 1 .4 0 .3.3 0 0 1 .1.4.4.4 0 0 1-.2.2Zm-.1 0a1.2 1.2 0 0 0-.1 0 .5.5 0 0 0 .1 0Z" data-name="Path 465"/><path d="M126.8 151a5.6 5.6 0 0 0-1.8 1.7c-1.3 1.7-2.5 4-3.6 5.2a72.9 72.9 0 0 1-6.6 6.6 88.7 88.7 0 0 1-7.2 5.8c-10.4 7.3-22 12.3-32.7 19a79 79 0 0 0-12.8 9.8A113.4 113.4 0 0 0 47 217.3c-5.3 7.7-9.9 15.8-14.5 23.9-4.7 8.1-9.3 16.3-14.5 23.9a.3.3 0 0 1-.4 0 .3.3 0 0 1 0-.4c5-7.6 9.5-15.8 14.1-24 4.6-8.1 9.2-16.3 14.3-24a113.7 113.7 0 0 1 15.4-18.5 79.9 79.9 0 0 1 13-9.8c10.6-6.6 22.3-11.6 32.7-18.8a85.2 85.2 0 0 0 7.2-5.7 72.6 72.6 0 0 0 6.6-6.5c1-1.1 2.2-3.4 3.5-5.1a6.3 6.3 0 0 1 2.2-1.9.3.3 0 0 1 .4.2.3.3 0 0 1-.2.4Z" data-name="Path 466"/><path d="M124.7 158.3a.3.3 0 0 1 .2-.4.3.3 0 0 1 .4.1.5.5 0 0 1 0 .5 2.1 2.1 0 0 1-.3.6l-2 2.1-4.3 5-3.1 3a37.1 37.1 0 0 1-4.9 3.7l-7.7 4.6c-6.8 4-14 7.4-20.8 11.4-2.9 1.6-5.8 3.4-8.6 5.3a71.5 71.5 0 0 0-12.8 11.2 118 118 0 0 0-8 10 689 689 0 0 0-18.6 28.2L18 270.6a.3.3 0 0 1-.4 0 .3.3 0 0 1-.1-.4l16-27a660.7 660.7 0 0 1 18.4-28.3 116.7 116.7 0 0 1 8.2-10.1 72 72 0 0 1 13-11.4 128 128 0 0 1 8.7-5.3c7-4 14-7.4 20.9-11.3 2.6-1.5 5.2-2.9 7.7-4.5a37.7 37.7 0 0 0 4.8-3.5l3-3 4.5-5a22.3 22.3 0 0 0 2.1-2.3v-.1Z" data-name="Path 467"/><path d="M117.7 173.5a36.6 36.6 0 0 1-7.2 5c-3.9 2-8 3.6-11.9 5.5a106.4 106.4 0 0 0-9.7 5.3c-3.1 2-6.2 4.1-9 6.3a129.8 129.8 0 0 0-15.4 14A240.9 240.9 0 0 0 43 236.6 499.5 499.5 0 0 0 26.6 263a.3.3 0 0 1-.4.1.3.3 0 0 1 0-.4c5-8.9 10.3-18 16-26.7a226.4 226.4 0 0 1 21.5-27.4 128.2 128.2 0 0 1 15.5-13.9c3-2.2 6-4.3 9.2-6.3a99.6 99.6 0 0 1 9.9-5.3c3.8-1.8 8-3.4 11.8-5.4a35.2 35.2 0 0 0 7.2-4.8.3.3 0 0 1 .5 0 .3.3 0 0 1 0 .5Z" data-name="Path 468"/><path d="M115.5 183.6a2.1 2.1 0 0 1-1 .4c-.6.3-1.6.4-1.9.5a114 114 0 0 0-16.5 7.5 99.7 99.7 0 0 0-9.8 5.9 97.7 97.7 0 0 0-14 11.8A122 122 0 0 0 64 219a148 148 0 0 0-9 12.4c-2.8 4.4-5.4 8.8-7.8 13.3a.3.3 0 1 1-.6-.2c2.4-4.6 4.9-9.1 7.6-13.5a139.7 139.7 0 0 1 9-12.7 112.5 112.5 0 0 1 8.1-9.3A95.6 95.6 0 0 1 85.8 197a103.3 103.3 0 0 1 9.9-5.8 141.7 141.7 0 0 1 16.7-7.3l2-.5a1.6 1.6 0 0 0 .6-.3.3.3 0 1 1 .5.5Z" data-name="Path 469"/><path d="M112.7 188.9a87.2 87.2 0 0 0-16.1 8 114 114 0 0 0-9.9 6.8 132.6 132.6 0 0 0-9.1 7.8q-3.4 3.1-6.4 6.4c-2.1 2.2-4.1 4.4-6 6.7a.3.3 0 0 1-.5 0 .3.3 0 0 1 0-.3 129 129 0 0 1 5.8-7q3-3.4 6.3-6.5a115.4 115.4 0 0 1 9.2-8 104.8 104.8 0 0 1 10-6.8 85.8 85.8 0 0 1 16.5-7.7.3.3 0 0 1 .4.2.3.3 0 0 1-.2.4Z" data-name="Path 470"/><path d="M110.5 193.6a.3.3 0 0 1 .5 0 .3.3 0 0 1 0 .4 2 2 0 0 1-.8.5l-2.8 1a63.6 63.6 0 0 0-9.4 5.1 90.7 90.7 0 0 0-11.8 9.1l-5.5 5-5.4 5.3a.3.3 0 0 1-.4 0 .3.3 0 0 1 0-.4A204.6 204.6 0 0 1 87.7 207l3.8-3q2.9-2.2 6-4.1a71 71 0 0 1 9.6-5l2.6-.8a6.7 6.7 0 0 0 .7-.3h.2Zm0 0Z" data-name="Path 471"/><path d="M138.2 105a12.3 12.3 0 0 1-1.8 2.2c-1.6 1.6-3.5 3-4.9 4.5a67 67 0 0 1-17 13c-7.1 4-14.8 7.3-22.4 10.7-7.5 3.5-15 7.2-21.5 12.3a110.5 110.5 0 0 0-9.6 8.2 73.9 73.9 0 0 0-8.4 9.6c-4.7 6.5-8.4 14-12.7 20.8-1 1.7-2.2 3.4-3.4 5a47.3 47.3 0 0 1-4.6 5.5c-2.5 2.5-5.2 4.9-8 7.2a.3.3 0 0 1-.4 0 .3.3 0 0 1 0-.5c2.7-2.3 5.4-4.7 7.8-7.2a48.8 48.8 0 0 0 4.5-5.4c4.8-6.6 8.3-14 12.6-21 1-1.7 2.2-3.4 3.4-5a75.4 75.4 0 0 1 8.4-9.8 110.2 110.2 0 0 1 9.7-8.3 108 108 0 0 1 21.7-12.3c7.6-3.4 15.3-6.6 22.5-10.5a66 66 0 0 0 16.9-12.8c1.4-1.5 3.3-2.9 5-4.4a12.2 12.2 0 0 0 1.7-2.1.3.3 0 0 1 .4-.2.3.3 0 0 1 .1.5Z" data-name="Path 472"/><path d="m131.7 119.1-.9.6-2.4 1.4-4 2.1-3.9 2-14.1 6.7-9.4 4.5c-4.9 2.3-9.9 4.7-14.6 7.5a71.6 71.6 0 0 0-9 6.1 93.9 93.9 0 0 0-15.1 15.7c-6.8 8.6-12.5 18.1-18.2 27.3a.3.3 0 0 1-.4 0 .3.3 0 0 1 0-.4c5.4-9.2 11-18.8 17.8-27.6a106 106 0 0 1 8.6-10 79 79 0 0 1 6.6-5.9 72.1 72.1 0 0 1 9.1-6.2 921.4 921.4 0 0 1 24.1-12c4.8-2 9.5-4.2 14.3-6.4l4-2 3.8-2 2.5-1.4.9-.6a.8.8 0 0 1 .4-.1.4.4 0 0 1 .3.1.5.5 0 0 1 0 .4.3.3 0 0 1-.4.2Zm-.2-.4Z" data-name="Path 473"/><path d="M129 125.5c1.4-.6 1.9-.6 1.7-.3.2.1-.2.4-1.4.8l-1.4.6-2.2 1.2-4.8 2.5-2.1 1-4.2 2c-5.5 2.5-11.2 4.8-16.7 7.5a108.3 108.3 0 0 0-15 8.9q-3.5 2.5-6.8 5.2l-6.6 5.7a141.2 141.2 0 0 0-11.9 12.7 159.7 159.7 0 0 0-10.4 14 .3.3 0 0 1-.4 0 .3.3 0 0 1 0-.3A160.4 160.4 0 0 1 57 172.8a135.1 135.1 0 0 1 11.8-13 111.8 111.8 0 0 1 13.5-11.1 107.3 107.3 0 0 1 15.2-8.8l4.1-1.9c5.6-2.5 11.3-4.7 16.8-7.3l2.1-1 4.9-2.5 2.2-1.2 1.3-.5Z" data-name="Path 474"/><path d="M127.8 132.3a2.6 2.6 0 0 1-1 .5l-2 .7-2 .9-4.3 2c-6.3 3-12.8 5.4-19.2 8.2-2.7 1.2-5.4 2.4-8 3.8A86.4 86.4 0 0 0 79 156a104.1 104.1 0 0 0-10.8 9.4 135 135 0 0 0-9.7 10.7c-3 3.7-6 7.6-8.6 11.6a.3.3 0 0 1-.5 0 .3.3 0 0 1 0-.4c2.6-4 5.4-8 8.4-11.7a129 129 0 0 1 9.6-11 99.3 99.3 0 0 1 11-9.5 84.7 84.7 0 0 1 12.3-7.8c2.7-1.3 5.4-2.6 8.1-3.7 6.4-2.7 13-5 19.3-8l4.4-2 1.9-.8 2-.7a2 2 0 0 0 .8-.4.3.3 0 0 1 .4 0 .3.3 0 0 1 0 .5Z" data-name="Path 475"/><path d="M123.8 138.3a17.6 17.6 0 0 0-4.6 1.2c-3.7 1.4-7.5 3.7-10.4 5a122.6 122.6 0 0 0-15.5 8.3q-5 3.2-9.7 6.7t-9 7.4a175.8 175.8 0 0 0-12.7 12.3.3.3 0 0 1-.4 0 .3.3 0 0 1 0-.4 169.5 169.5 0 0 1 12.4-12.6q4.4-4 9-7.6a120 120 0 0 1 9.8-6.7 119.3 119.3 0 0 1 15.7-8.2c3-1.3 6.8-3.5 10.5-5a18 18 0 0 1 4.9-1 .3.3 0 0 1 .3.2.3.3 0 0 1-.3.4Z" data-name="Path 476"/><path d="m121.3 143.4-.3.2-.6.1-.7.3a72.5 72.5 0 0 0-14.8 6.9A212.4 212.4 0 0 0 82 165.8c-2.4 1.8-4.7 3.8-6.9 5.9a.3.3 0 0 1-.4 0 .3.3 0 0 1 0-.5q3.2-3.2 6.8-6.1c2.3-2 4.7-3.8 7.2-5.6l6.1-4a187 187 0 0 1 20.7-10.9 40.2 40.2 0 0 1 4.7-1.5 4.7 4.7 0 0 1 .5-.1l.7-.2a.6.6 0 0 1 .2 0 .4.4 0 0 1 .2.3.4.4 0 0 1 0 .3.3.3 0 0 1-.5 0Zm0-.4Zm0 .4h.2c0 .1 0 0-.1 0Z" data-name="Path 477"/><path d="M134.7 124.4a1 1 0 0 1 .5.5 5.7 5.7 0 0 1 .5 1.2c.5 1.5.8 3.7 1 4.2a120.6 120.6 0 0 0 6.1 16.8 261.4 261.4 0 0 1 11.7 31c1.2 4.2 2.3 8.5 3.1 12.8a123.9 123.9 0 0 1 2.3 19.7c0 2.7 0 5.2-.2 7.8l-1 11.4a.3.3 0 0 1-.4.3.3.3 0 0 1-.3-.3l1-11.5a74.1 74.1 0 0 0 0-7.6 125.7 125.7 0 0 0-2.4-19.6 169.2 169.2 0 0 0-7.2-25.3c-2.2-6.2-4.7-12.3-7.4-18.3a129.7 129.7 0 0 1-6-17c-.2-.5-.5-2.7-1-4.2a5.2 5.2 0 0 0-.3-1l-.3-.3a.3.3 0 0 1-.2-.4.3.3 0 0 1 .5-.2Z" data-name="Path 478"/><path d="M137.4 118a9.7 9.7 0 0 1 1 2.3l1.5 5.6c.7 2 1.4 4 2.2 5.8 1 3 2.3 5.8 3.4 8.7l2.1 6c1.5 4.7 2.7 9.5 4.3 14.3 1.4 4.2 2.9 8.5 4.2 12.9 1.3 4.3 2.6 8.7 3.6 13.2a103 103 0 0 1 2.6 18 42 42 0 0 1-.4 7.4c-.7 5.7-2.2 11.4-2.5 17a.3.3 0 0 1-.3.4.3.3 0 0 1-.3-.3c.2-5.8 1.6-11.5 2.2-17.2a43.2 43.2 0 0 0 .3-7.3 105.3 105.3 0 0 0-2.7-17.8 636.7 636.7 0 0 0-7.7-26c-1.6-4.8-2.8-9.6-4.2-14.3l-2-6-3.4-8.7-2-5.8c-.6-1.7-1-3.8-1.5-5.7a8.8 8.8 0 0 0-1-2.2.3.3 0 0 1 .1-.4.3.3 0 0 1 .5 0Z" data-name="Path 479"/><path d="M139 112.5v.2a10.9 10.9 0 0 1 1 1.2l.6 1.6 1.5 3.9 5.9 14.2a216.3 216.3 0 0 1 7.5 22.7c1.6 6.7 3 13.4 4.4 20 1 5.2 2 10.3 2.7 15.4a68.4 68.4 0 0 1 .6 10.5 59 59 0 0 1-.9 8.2c-.7 4-1.7 8.2-2.6 12a.3.3 0 0 1-.4.2.3.3 0 0 1-.2-.4c.8-3.8 1.8-7.9 2.4-12a59.5 59.5 0 0 0 .8-8 68.3 68.3 0 0 0-.7-10.3c-.7-5.2-1.8-10.3-2.9-15.3-1.3-6.6-2.7-13.4-4.3-20a164 164 0 0 0-7.3-22.7l-5.6-14.2-1.5-4-.7-1.6a3 3 0 0 0-.5-.7 2 2 0 0 1-.5-.6.7.7 0 0 1 .1-.7.3.3 0 0 1 .5 0 .3.3 0 0 1 0 .4Z" data-name="Path 480"/><path d="M141.3 105.9a9.3 9.3 0 0 1 .5 1l.5 1.7a56.2 56.2 0 0 0 2 6.3l1.3 3.3c2 5.2 4 10.3 5.8 15.5 1.2 3.4 2.3 7 3.2 10.5 1.4 5.4 3.2 10.9 4.8 16.4l2.9 11.1a83.5 83.5 0 0 1 2.3 19c0 3-.2 6-.5 9a53.7 53.7 0 0 1-1 6c-.8 3.9-2.1 7.7-3 11.6a39.5 39.5 0 0 0-1 5.1.3.3 0 0 1-.2.3.3.3 0 0 1-.3-.3 39.3 39.3 0 0 1 .8-5.2c.9-4 2.1-7.8 3-11.7a52.2 52.2 0 0 0 .8-5.9c.3-3 .3-6 .3-8.9a83.6 83.6 0 0 0-2.3-18.7l-2.9-11c-1.6-5.6-3.3-11.2-4.7-16.6-.9-3.5-2-7-3-10.4a359 359 0 0 0-7-18.9 255 255 0 0 1-1.6-5l-.3-1.3-.6-1.7-.4-1a1 1 0 0 1 0-.3.4.4 0 0 1 .1-.4.4.4 0 0 1 .5 0 .3.3 0 0 1 0 .5Zm0-.1Z" data-name="Path 481"/><path d="M143 97.8a30 30 0 0 0 1 4c.8 3 2.1 6 3 9a255.2 255.2 0 0 0 6 16.4l1.9 5.1 3 7.7 3 7.8a.3.3 0 0 1-.1.4.3.3 0 0 1-.4-.2l-4.7-10.9-2.7-6.6a243.3 243.3 0 0 1-6.9-19.4l-2.5-7.8a33.5 33.5 0 0 1-1.2-5.4.3.3 0 0 1 .3-.4.3.3 0 0 1 .3.3Z" data-name="Path 482"/><path d="M162.2 66.5a.3.3 0 0 1 .2-.5.5.5 0 0 1 .3 0 .4.4 0 0 1 .2.3.9.9 0 0 1-.1.5l-.6 1-.5 1.6-.5 1.7-.8 3.4-.8 5.3a94.2 94.2 0 0 0-1 14.5 52.8 52.8 0 0 0 2 14.3 74.8 74.8 0 0 0 4.3 10.9c2.5 5.3 5.5 10.5 8.2 15.7a178 178 0 0 1 4.8 10c2.2 5 4.3 10.2 6.4 15.4l3.6 8.4 1.4 3.7a28.2 28.2 0 0 1 1 5.2c.5 4 .4 8 .8 12a.3.3 0 0 1-.6.1c-.5-4-.4-8-.9-12a28.5 28.5 0 0 0-1-5l-1.5-3.7c-1.2-2.8-2.6-5.5-3.7-8.4l-6.5-15.2c-1.5-3.4-3-6.7-4.8-10-2.7-5.2-5.7-10.4-8.2-15.7a75 75 0 0 1-4.3-11.1 53.3 53.3 0 0 1-2-14.6 94.7 94.7 0 0 1 1.2-14.6c.3-1.8.5-3.6.9-5.3a39.8 39.8 0 0 1 1.3-5.2l.6-1.6c0-.3.4-.7.6-1Z" data-name="Path 483"/><path d="M168 58.3a21.4 21.4 0 0 0-1.8 5.2c-.7 2.8-1.2 5.8-1.6 8.3a87.7 87.7 0 0 0-1.4 22.2 64.1 64.1 0 0 0 5.1 21.6c3.4 7.6 8.3 14.3 12.1 21.6a64 64 0 0 1 2.7 5.7 116.1 116.1 0 0 1 5.6 18.6c2 9.5 3.2 19.2 4.5 28.8a.3.3 0 1 1-.6 0c-1.4-9.5-2.7-19.1-4.8-28.6a115.9 115.9 0 0 0-5.7-18.4l-2.6-5.6c-4-7.3-8.8-14-12.2-21.7a64.8 64.8 0 0 1-5-21.9 88 88 0 0 1 1.5-22.4c.5-2.5 1-5.5 1.7-8.3a22.2 22.2 0 0 1 2-5.4.3.3 0 0 1 .4-.1.3.3 0 0 1 .2.4Z" data-name="Path 484"/><path d="M172 52.1a74.3 74.3 0 0 0-5.6 33.2 99.3 99.3 0 0 0 7.7 33 110.9 110.9 0 0 0 5 10c1.8 3.4 3.6 6.7 5.3 10.2a62.5 62.5 0 0 1 3.7 9 51.5 51.5 0 0 1 2 11.9c.6 9.2-.5 18.6.6 27.8a.3.3 0 0 1-.3.3.3.3 0 0 1-.4-.3c-1-9.2 0-18.5-.8-27.7a50.3 50.3 0 0 0-2.1-11.6 62.6 62.6 0 0 0-3.7-9l-5.3-10a106.8 106.8 0 0 1-5-10.2 99.9 99.9 0 0 1-7.6-33.3 75 75 0 0 1 5.8-33.5.3.3 0 0 1 .5-.2.3.3 0 0 1 .1.4Z" data-name="Path 485"/><path d="M176.1 46.9v-.2a.3.3 0 0 1 .1-.1.4.4 0 0 1 .3-.1.3.3 0 0 1 .3.2.3.3 0 0 1 0 .2l-.3.6-.4 1-.7 1.4-.5 1.5a87.2 87.2 0 0 0-3 10 61.3 61.3 0 0 0-1.7 15.2 75.2 75.2 0 0 0 2 15.2 180.6 180.6 0 0 0 5 17.8c3 7.5 6.5 14.6 9.3 22a85 85 0 0 1 4.5 15.3 61.6 61.6 0 0 1 .9 12.8c-.3 9.9-2.2 19.9-1.8 29.6a.3.3 0 1 1-.6 0c-.5-9.7 1.2-19.7 1.4-29.6a60.6 60.6 0 0 0-.9-12.6 87.3 87.3 0 0 0-4.5-15.1c-2.9-7.4-6.3-14.5-9.3-22a75.1 75.1 0 0 1-2.4-7c-1-3.7-1.8-7.4-2.6-11a75.3 75.3 0 0 1-2-15.4 61.4 61.4 0 0 1 1.9-15.3l1.4-5.2c.5-1.7 1-3.3 1.7-5l.6-1.5.7-1.4.4-1a2 2 0 0 1 .2-.3Zm.6.2Zm-.6-.2a.7.7 0 0 1 0-.2c.1 0 0 0 0 .2Z" data-name="Path 486"/><path d="M178.4 57.4c-.4 2.2-1 4.3-1.5 6.5a22.1 22.1 0 0 0-.5 2.7 68.5 68.5 0 0 0-.2 11.5 86.4 86.4 0 0 0 1.5 11.3c1.7 8.2 4.6 16 7.6 23.9 2 5.2 4 10.5 5.6 15.8a93.3 93.3 0 0 1 2.5 10.3 61.2 61.2 0 0 1 .6 15c-.7 11.5-3.8 23-4.4 34.4a.3.3 0 0 1-.3.3.3.3 0 0 1-.3-.3c.5-11.4 3.4-23 4-34.5a60.5 60.5 0 0 0-.7-14.7 92.7 92.7 0 0 0-2.5-10.1c-1.6-5.4-3.6-10.6-5.5-15.8-3-8-5.9-15.8-7.5-24.1a87 87 0 0 1-1.4-11.5 70 70 0 0 1 .2-11.6 24.8 24.8 0 0 1 .6-2.8c.4-2.1 1.1-4.2 1.5-6.4a.3.3 0 1 1 .6.1Z" data-name="Path 487"/><path d="M189.7 107.3a19.4 19.4 0 0 0 .6 6.4 94.3 94.3 0 0 0 3.3 9.2 93.8 93.8 0 0 1 2.8 9 78.6 78.6 0 0 1 1.8 9.2 34.5 34.5 0 0 1 .1 7.6 95.8 95.8 0 0 1-2 11l-2.8 13-2 8.6a.3.3 0 0 1-.6-.2l1.4-6.4 3-15.2a96.2 96.2 0 0 0 1.9-11 33.1 33.1 0 0 0-.1-7.2 78.3 78.3 0 0 0-1.7-9.2 90.4 90.4 0 0 0-2.6-8.9 94.5 94.5 0 0 1-3.2-9.3 20.2 20.2 0 0 1-.6-6.6.3.3 0 0 1 .4-.3.3.3 0 0 1 .3.3Z" data-name="Path 488"/><path d="M191.6 32.2a13.1 13.1 0 0 0-1 4.3v6.8c-.2 3.2-.6 6.6-.6 10a30 30 0 0 0 .5 6.4 38.7 38.7 0 0 0 2.2 6.7c2 5 4.9 10 6.9 15l2.3 6.8 2.9 10.3c.8 3 1.9 6 2.8 8.9a64.2 64.2 0 0 1 2.1 8c1.3 5.6 2.3 11.2 3.6 16.7a.3.3 0 0 1-.2.4.3.3 0 0 1-.4-.3c-1.4-5.5-2.5-11-3.8-16.6a193.5 193.5 0 0 0-2.2-8c-1-2.9-2.1-5.8-3-8.8-1-3.4-1.9-6.9-3-10.3-.6-2.2-1.3-4.5-2.2-6.7-2-5-4.7-10-6.8-15a39.3 39.3 0 0 1-2.1-7 30.4 30.4 0 0 1-.5-6.6c0-3.3.5-6.7.6-10 .2-2.2 0-5.2.4-7.9a11.5 11.5 0 0 1 .9-3.3.3.3 0 0 1 .4-.2.3.3 0 0 1 .2.4Z" data-name="Path 489"/><path d="M194 27.4a3.4 3.4 0 0 0-.4 1.4V41c0 3.7-.2 7.6 0 11.4a37.8 37.8 0 0 0 1 7.5 31.6 31.6 0 0 0 1.4 4.4c.9 2.2 2 4.3 3 6.4a145.6 145.6 0 0 1 5.3 13.5 139 139 0 0 1 4.6 16.4 169.5 169.5 0 0 1 2.7 16.8c.5 4.9.6 9.8 1 14.6l.4 3.7a.3.3 0 0 1-.3.3.3.3 0 0 1-.3-.2l-.4-3.7c-.5-4.8-.7-9.7-1.3-14.6-.7-5.5-1.6-11-2.9-16.7a139.5 139.5 0 0 0-4.5-16.2A166.2 166.2 0 0 0 198 71l-3-6.5a31.5 31.5 0 0 1-1.4-4.6 38.4 38.4 0 0 1-1-7.7l.2-11.4V36l.2-4.8v-3a3.3 3.3 0 0 1 .4-1.2.3.3 0 0 1 .4-.2.3.3 0 0 1 .1.5Z" data-name="Path 490"/><path d="M197.2 26.3a1.3 1.3 0 0 1 0 .6l-.2 1.8a70.7 70.7 0 0 0 0 5.6c.2 4.2.3 8.4.7 12.6a72 72 0 0 0 1.2 8.3 47 47 0 0 0 1.6 5.4c2.5 7.2 6.4 14 8.2 21.4a112.2 112.2 0 0 1 3.3 20.7c1 10.5.9 21 .8 31.5a.3.3 0 0 1-.3.3.3.3 0 0 1-.3-.3c0-10.5-.2-21-1.2-31.4a155.6 155.6 0 0 0-3.4-20.5c-1.8-7.4-5.6-14.2-8-21.3a46.1 46.1 0 0 1-1.6-5.6 68.4 68.4 0 0 1-1.2-8.4l-.6-12.6v-5.8l.4-1.5a1.2 1.2 0 0 0 0-.5.3.3 0 0 1 .2-.4.3.3 0 0 1 .4.1Z" data-name="Path 491"/><path d="M202.1 19.8a2.4 2.4 0 0 1 0 1c0 .7-.3 1.4-.3 1.9l-.4 4.4-.1 2c-.3 4.3-.6 8.7-.6 13a57.2 57.2 0 0 0 .5 8.7 46.8 46.8 0 0 0 1.8 7.3c1.9 5.8 4.5 11.3 6.7 17a59.7 59.7 0 0 1 3.4 11.7 86.1 86.1 0 0 1 1 15c0 5.9-.5 11.7-1 17.5s-.9 11.6-.8 17.4a.3.3 0 0 1-.3.3.3.3 0 0 1-.3-.3c-.2-5.8.2-11.6.6-17.5s.8-11.6.8-17.4a84.5 84.5 0 0 0-1-14.8 67.8 67.8 0 0 0-4.5-14.4c-2-4.7-4-9.4-5.5-14.2a49.7 49.7 0 0 1-1.8-7.4 58.1 58.1 0 0 1-.5-8.8c0-4.4.4-8.8.7-13.2l.2-2 .4-4.4.4-1.9a1.6 1.6 0 0 0 0-.7.3.3 0 0 1 .6-.2Z" data-name="Path 492"/><path d="M211.6 9.2a6.5 6.5 0 0 1-.7-.2l-2.6-.8C203.3 7 198 5.9 192.8 5A87 87 0 0 0 182.4 4a37.5 37.5 0 0 0-3.7 0l-5.8.6-15.6 1.5-6.7.5c-4.4.3-8.9.4-13.4.4-6.7-.1-13.4-.5-20-.7a.3.3 0 0 1-.3-.3.3.3 0 0 1 .3-.3l20 .3a164 164 0 0 0 21.2-1.2l7.8-.7 6.7-.6 5.7-.4a33.7 33.7 0 0 1 3.9 0A88.8 88.8 0 0 1 193 4.1c5.2.9 10.4 2.1 15.4 3.3 1 .2 1.8.6 2.7.9l.7.2a.3.3 0 0 1 .2.4.3.3 0 0 1-.4.2Z" data-name="Path 493"/><path d="M205.3 10.6a92.3 92.3 0 0 0-19.7-2.3c-6-.2-11.9 0-17.9.3l-12 .4a264.9 264.9 0 0 1-23-.8c-2.2-.2-4.4-.5-6.6-1l-9.6-1.8a.3.3 0 0 1 0-.6l9.8 1.7a105.3 105.3 0 0 0 15.6 1.4h13.8c4 0 8-.2 12-.4 6-.2 12-.4 18-.2a92.8 92.8 0 0 1 19.8 2.7.3.3 0 1 1-.2.6Z" data-name="Path 494"/><path d="m202 13.2-.3-.1a4.5 4.5 0 0 0-1-.2h-2.2l-5.4-.4-8-.4-13.6-.6-9.2-.5-6.8-.3-6.9-.4-20.5-1.1a.3.3 0 0 1-.3-.3.3.3 0 0 1 .3-.3l17.2.5 11.4.5 14.3.7c4.8.2 9.5.6 14.2.9l8 .5c1.8 0 3.6.2 5.3.4a22.6 22.6 0 0 1 3.2.3 1.2 1.2 0 0 1 .8.5.3.3 0 0 1-.1.4.3.3 0 0 1-.4-.1Zm0 0Z" data-name="Path 495"/><path d="M200.3 15h-1.6a65.5 65.5 0 0 0-5.3 0l-5.4.3-8.1.1a90.1 90.1 0 0 1-11.4-.5l-4.6-.7q-3.4-.5-6.7-1.4c-3.5-.8-6.9-2-10.4-3a43.2 43.2 0 0 0-4.4-1 .3.3 0 0 1-.3-.3.3.3 0 0 1 .3-.3c1.6.2 3.1.5 4.6.9 3.5.8 7 2 10.4 2.8a95.7 95.7 0 0 0 11.2 1.8 93.8 93.8 0 0 0 11.3.7h8.1a201.5 201.5 0 0 0 10.7-.2l1.6.2a.8.8 0 0 1 .3 0 .3.3 0 0 1 .2.5.3.3 0 0 1-.5.2Zm-.1-.3Zm0 .2a.3.3 0 0 1 0-.2.4.4 0 0 0 0 .2Z" data-name="Path 496"/><path d="M182.3 36.7a5.8 5.8 0 0 1-2 0c-1.5-.3-3.2-1-4.3-1.2l-5.8-1.1a54.3 54.3 0 0 0-5.9-.6c-4.8-.3-9.6-.4-14.5-.6-2 0-4.1-.2-6.2-.4-4.1-.3-8.2-1.1-12.3-1.7a58.7 58.7 0 0 0-10.9-.5c-4 0-7.8.3-11.8.6-3.4.2-6.9.2-10.3.5a41.5 41.5 0 0 0-6.8 1 40.4 40.4 0 0 0-10.2 4c-4.7 2.7-9 6-13.7 9.4l-9 6a44 44 0 0 0-3.5 2.7c-3.8 3.3-7 6.6-10.6 9.6a50.8 50.8 0 0 1-8 5.4.3.3 0 0 1-.3-.1.3.3 0 0 1 .1-.4 51.4 51.4 0 0 0 7.7-5.5c3.6-3 6.8-6.3 10.5-9.6a45.7 45.7 0 0 1 3.7-2.9c2.9-2 6-3.9 8.8-6 4.8-3.4 9-6.8 13.8-9.5a40.7 40.7 0 0 1 10.4-4.2 42.2 42.2 0 0 1 7-1c3.4-.4 7-.4 10.4-.5l11.8-.6a92.2 92.2 0 0 1 11 .6c4.1.6 8.2 1.4 12.3 1.8q3 .3 6.2.4l14.5.7a60 60 0 0 1 11.7 1.8c1.2.3 2.8 1 4.3 1.2a5.2 5.2 0 0 0 1.8 0 .3.3 0 0 1 .4.3.3.3 0 0 1-.3.4Z" data-name="Path 497"/><path d="M179.5 38a.3.3 0 0 1 .3-.2.3.3 0 0 1 .3.4.6.6 0 0 1-.4.5 4.7 4.7 0 0 1-1.3.1 16 16 0 0 1-2 0l-2.7-.5a184 184 0 0 0-3.6-.5L155.7 36a120.7 120.7 0 0 0-13.2-1.2c-10.4-.3-20.7.1-31.1-.6a52 52 0 0 0-25 4.7 114.3 114.3 0 0 0-20.6 12.3c-10 7.2-19.6 15.2-29.7 20.9a.3.3 0 0 1-.4-.1.3.3 0 0 1 .1-.5c10-5.8 19.5-13.8 29.4-21C72 45.4 78.7 41 86 37.8a52.7 52.7 0 0 1 25.5-4.8c10.3.8 20.7.4 31 .8a119 119 0 0 1 13.3 1.3l14.4 2c1.2 0 2.4.3 3.6.5l2.7.4a13.5 13.5 0 0 0 1.8 0h1.2Zm0 .1Zm0 0Z" data-name="Path 498"/><path d="M173.8 43a.3.3 0 0 1 .2-.3.3.3 0 0 1 .4.3.6.6 0 0 1-.1.4.6.6 0 0 1-.5.2c-.4 0-1.1-.4-1.5-.5l-2.4-.4-1.6-.2a277.1 277.1 0 0 0-11.3-1L136 40c-4.6-.3-9.2-.6-13.9-.7-3.3 0-6.6-.4-10-.4H108a81.5 81.5 0 0 0-20 4 76.2 76.2 0 0 0-18.3 8.7 25.6 25.6 0 0 0-3.3 2.6c-2.4 2.3-4.5 4.8-7 7a49.7 49.7 0 0 1-5 3.6c-2.6 1.7-5.3 3.2-8 4.8a.3.3 0 0 1-.3-.1.3.3 0 0 1 0-.4c2.7-1.6 5.3-3.2 7.9-5a50.6 50.6 0 0 0 4.9-3.6c2.5-2.1 4.6-4.7 7-7a26.3 26.3 0 0 1 3.2-2.7 76.3 76.3 0 0 1 18.6-9 82.2 82.2 0 0 1 20.2-4 54 54 0 0 1 4.3 0c3.4 0 6.7.3 10 .5 4.7.1 9.4.4 14 .7l21 1.7a212.3 212.3 0 0 1 15.3 1.7c.4 0 1 .4 1.4.5Z" data-name="Path 499"/><path d="M170.9 45.7a.3.3 0 0 1 .2 0 .3.3 0 0 1 .3.4.3.3 0 0 1-.2.2 1 1 0 0 1-.4.1h-2.7l-8.8-.2a822.5 822.5 0 0 1-38.2-1.8c-4-.4-8.1-.8-12.2-1a71.4 71.4 0 0 0-8 0 42.7 42.7 0 0 0-7.2 1.2c-3.5.8-7 2-10.4 3.1l-6.2 2.1a29.6 29.6 0 0 0-4 1.8c-5.8 3.2-10.5 8-16 11.7a36.7 36.7 0 0 1-4.4 2.5.3.3 0 0 1-.4-.1.3.3 0 0 1 .1-.4 36.3 36.3 0 0 0 4.3-2.6c5.5-3.7 10.2-8.7 16-12a30.5 30.5 0 0 1 4-1.8l6.3-2.1c3.4-1.2 7-2.5 10.5-3.3a43.4 43.4 0 0 1 7.2-1.2 70.4 70.4 0 0 1 8.3 0c4 .2 8.2.7 12.2 1 6.3.6 12.7 1 19 1.4s12.8.6 19.2.7l8.8.3h2.6Z" data-name="Path 500"/><path d="M168.8 48.6a27.9 27.9 0 0 0-5.5.3c-2.7.3-5.5 1-8.2 1.3l-5.7.6h-8.5a161.3 161.3 0 0 1-19.7-2.1 188 188 0 0 0-13-1.6 63.7 63.7 0 0 0-14 .2 64 64 0 0 0-19.6 7 77.3 77.3 0 0 0-17.1 12 .3.3 0 0 1-.5 0 .3.3 0 0 1 0-.4 78.2 78.2 0 0 1 17.1-12.4A65 65 0 0 1 94 46.2a64 64 0 0 1 14.2-.3c4.4.4 8.8 1 13.1 1.7a162.3 162.3 0 0 0 19.6 2.3 112 112 0 0 0 14-.5c2.8-.3 5.6-.9 8.4-1.3a29.1 29.1 0 0 1 5.6-.2.3.3 0 0 1 .3.3.3.3 0 0 1-.4.4Z" data-name="Path 501"/></g><path fill="#044928" d="m537.4 114.9-8.2 1.9a352 352 0 0 0-21.4 7.7c-8.7 3.5-17.7 6.6-26.4 10.2A132 132 0 0 0 460 145c-5.2 3-10.4 6.4-15.5 9.5-6 3.7-12.4 7.1-18.5 11-2.5 1.5-5 3.1-7.3 4.9a152 152 0 0 0-18.6 16.5 214.6 214.6 0 0 0-16.4 19.1c-12.6 16.2-23.7 35.3-37.1 51.8a117.2 117.2 0 0 1-32.4 28.6 2.4 2.4 0 1 1-2.5-4.1 113.9 113.9 0 0 0 29.5-28.8c12.8-17 23.3-36.3 35.4-52.9a207.6 207.6 0 0 1 17-20 154.2 154.2 0 0 1 19.9-17.4 117 117 0 0 1 8-5.2c6.1-3.7 12.6-7 18.8-10.6 5.2-3 10.5-6.3 15.9-9.2a136.2 136.2 0 0 1 22.6-10.2c8.9-3.3 18-6.1 26.8-9.4a352.1 352.1 0 0 1 22.2-7.2l8.6-1.7a2.6 2.6 0 1 1 1 5.2Z" data-name="Path 503"/></g></g></g></svg>
