<svg xmlns="http://www.w3.org/2000/svg" viewBox="0 0 577 686"><defs><clipPath id="clip-path"><path id="Path_296" fill="#fcb817" d="M371.6 34.4c4.1 6 18.7 36.5 18.3 45.8a171 171 0 0 1-10.9 40.6c-10.5 26-37.5 43.4-64.7 51.4a302.6 302.6 0 0 1-86.8 12.1c-11.6 0-23-3-34.7-2.6-13.5.4-26 4.7-39.2 5.8a92 92 0 0 1-27.2-2.7c-15.2-3.4-28.8-10.5-43.3-15.3-15.6-5.3-31.8-8.5-47.5-13.2-11.7-3.5-22.8-8.3-35.2-9.4-1.6-.2 2.2-2 3.4-3l6.3-5A127.2 127.2 0 0 0 29 120.2c9.5-11.8 18.8-24.9 32-33.4 10.2-6.8 22.8-10.2 34-15a211.4 211.4 0 0 1 38.6-13.4c21.5-4.5 43.3-5.8 64.4-12.1A191.4 191.4 0 0 0 224.5 36c9.6-4.5 18.2-10.5 27.6-15.2 11-5.5 22.4-9.5 34-13.8 11.7-4 25.4-8.3 37.9-6.6 9 1.2 17.5 5.3 25 9.7a120 120 0 0 1 22.6 24.3Z" data-name="Path 296"/></clipPath><clipPath id="clip-path-2"><path id="Path_292" fill="#5440cc" d="M340 22c-1.6 0-4.3 2.1-5.5 2.8A73.5 73.5 0 0 0 320.7 35 101.5 101.5 0 0 0 295 74.5c-2.5 7.3-3.2 14.9-4.7 22.4 4.8-11.2-5.8-29.3-19-27.8-10.9 1.2-18.1 11.6-21.5 20.5.8-1.2 0-4.1-.4-5.2-2.3-5.8-8.3-7.9-14.8-7.2-16.6 1.6-25.2 19.4-25.9 33.1-.7-1 .7-4.7 1-5.7A27 27 0 0 0 210 92a23.6 23.6 0 0 0-3.9-8c-9.5-12.5-24.4-3.6-28.5 8.6.3-1.4-.6-3.7-1-5-2.1-10-12-13.3-21.8-9a46 46 0 0 0-25 37.6c.1-.4-.7-2-.7-2.4a46 46 0 0 1-.5-6.2q-.1-3.7-.4-7.3c-.5-7.3-1.8-16.4-10.6-18.2a8.5 8.5 0 0 0-5.7.7 14.4 14.4 0 0 0-3.6 2.6 26.3 26.3 0 0 0-4 5.7c.5-1.3-3.6-4.5-4.4-5-5-3.4-12.6-4.3-18.6-2.3A25.8 25.8 0 0 0 70.6 92a54.2 54.2 0 0 0-12.5 25.2c3.5-9-2.5-20-11-24.1-13.4-6.4-32.3-6.3-47.1-4.3 1 0 2.6-1.1 3.5-1.5 2.7-1 5.5-1.6 8.2-2.4 22.9-6 46.9-22.8 50.6-46.3.8 0 1.7 5.3 2 6A51.7 51.7 0 0 0 71 55.8c4.6 6.2 12.4 12.6 21 12.7 3.7 0 7-1.7 10-3.7 6.6-4.4 11-10.1 12.8-17.6 2 4.3 1 10 5.7 13.2 5.8 4 13 .7 18.3-3a42.9 42.9 0 0 0 16.8-34.3v1.3l.3 2.2.4 6.6c.4 6.7 2 13.6 5.7 19.2 4.4 6.9 10.6 12.3 19.3 7a11 11 0 0 0 3.8-3.4c1.4-2.2 1.1-4.8 1.4-7.2a8 8 0 0 0 .3.7l.7 1.6a40.4 40.4 0 0 0 2.4 4.5 10.8 10.8 0 0 0 14.6 3.7c3.3-1.9 5.7-5.6 7.7-8.6a55.1 55.1 0 0 0 7-32.4c-1.4 2.8 1 8 1.7 10.6a49 49 0 0 0 11.2 21.8c2.7 2.5 6.7 4.8 10.8 3.3 6.4-2.2 9.4-12.2 11.3-17.5-.2 1 1.3 3.4 1.8 4.2 3.3 5 10 6.7 15.7 4a17.3 17.3 0 0 0 6.1-5c11.2-14.1-2.3-31-13.6-39.8 6.1 2.7 11 7.2 17.1 10 15.5 6.8 36.3 7.4 53.6 6l5 6Z" data-name="Path 292"/></clipPath><clipPath id="clip-path-3"><path id="Path_335" d="m935.2-52.1-10.4-38.4-50.3 5.6-21.3 2.4c-25.7 3-70.6 5.3-104.2 32a260.8 260.8 0 0 0-58.3 66.2c-7 11.6-12.4 24-19.9 35.4-14.6 22.2-33.6 42.5-45 66.4-12.4 25.8-20.3 52.7-34.5 78-.8-.3 1.5-.3 2.3-.3l5-.4c4.5-.5 8.8-1 13.2-1.3 13.7-1 27 3 40.6 2a160.4 160.4 0 0 0 20.3-2.5 111.2 111.2 0 0 0 14.2-4l59-24.7c72-30 80.7-34 93.7-41.6 26.2-15.4 52.2-30.5 71.6-59.9a149.5 149.5 0 0 0 24.2-78.3 81.7 81.7 0 0 0 1.6-13 99.3 99.3 0 0 0-.6-14.6c-.3-3.8-.8-6.9-1.2-9Z" class="cls-3" data-name="Path 335" transform="translate(-591.1 90.5)"/></clipPath><clipPath id="clip-path-4"><path id="Path_368" d="M196.4 442c.7-.5 2.9-.8 3.8-1.4q3.7-2.3 7.5-4.4a163 163 0 0 0 22.8-14.5c14.8-11.8 22.9-30 34.6-44.3 3.7-4.7 7.1-9.6 11.3-13.8 1.5-1.5 5.7-4.4 6.5-6.3.3-.7-1.1 1.1-1.7 1.6a49 49 0 0 1-4.1 3.5c-4.3 3.1-9.2 5.5-13.6 8.5-7.4 5.1-14.2 11-21.8 15.7-5.8 3.7-12.2 6.2-17.7 10.3a61.8 61.8 0 0 0-17.8 19.2c-1.8 3.3-3.8 12.3-7.7 14l-1 5.2a14.6 14.6 0 0 0-.8-1.6l-3.5-4.3a90.2 90.2 0 0 0-12.3-12c-9.3-7.1-22-8.3-32.4-13.5a66.6 66.6 0 0 1-10.5-6.5l-1-.8c-1-1.3-2.4-2.8-3.3-3-.7 0 .9 1.1 1.4 1.5l1.8 1.5 1.3 1.6c3.8 4.4 6.8 9.4 10.6 13.8 7.7 9 14.3 19 24.5 25.7a50.5 50.5 0 0 0 11.3 5.7c3.3 1.1 7.5 1.3 10.2 3.7l1.3-4.5a.8.8 0 0 0 .1.2l.2-.8Zm-.1.1.2-.7Zm-.6-39c.4.3 0-1-.2-1.4l-.7-2.8a25.4 25.4 0 0 0-3.8-7.5 88.8 88.8 0 0 0-18.7-18.7c-11.6-8.6-24.6-13-38-18.1-11.3-4.4-22.4-9.5-33.4-14.5l-17-7.6c-.6-.3-5.4-3-5.9-2.6a7.9 7.9 0 0 0 1 .9 153.3 153.3 0 0 1 8.3 8.6c5.9 6.7 11.2 14.1 17.4 20.8 14 15 35 19 52.7 28.4 8.8 4.7 19.2 11.6 26.1 18.8 2.3 2.4 3.6 5.5 5.5 8.1 2 2.7 4.9 4.8 7.1 7.3l-.4-19.7ZM303 223.9l-1.5 1.4-3 3.6a57.6 57.6 0 0 0-7.2 10.7c-6 11.4-8 24-13.9 35.4-17.5 33.6-60.7 47-75.5 82.7-3.1 7.4-6.2 14.6-5.7 22.7l1.1 9.9 2.2-1.2c1.6-1 3.2-1.7 4.8-2.6a136.9 136.9 0 0 0 13.2-8.9 258 258 0 0 0 35.2-31.2c12.9-13.3 28.8-26.2 37.9-42.3 13.4-24.1 12.6-53.6 12.4-80.2.2-.2.3-.4 0-.4ZM188.7 341c-.3.5-.3-1.2-.4-1.7l-.8-3a65.8 65.8 0 0 0-4-9.5 69.9 69.9 0 0 0-21.2-24.9c-10.2-7.3-23-10.7-34.8-14.5-14.5-4.5-29-9.2-43.6-13.1-8.6-2.3-18.4-4-26.5-7.7a74.4 74.4 0 0 1-8.7-4.7l-2.5-1.6c-.4-.3-1.6-1.4-1.3-1 2.6 5 8.3 8.9 11.3 13.8 7.9 13.2 11.6 29 25.3 38.2a93 93 0 0 0 27.1 10.5c14.4 4 29.1 7.4 43.2 12.4a69.7 69.7 0 0 1 29.9 20.6c2.4 2.6 4.2 5.8 6.5 8.6.3.3 1.7 2.5 2.2 2.5.6 0 .3-4.5.3-5 .2-5.7-1.3-12.1-2.5-17.7l.5-2.2Zm1.2-9.6c0-.3 7.1-4.6 7.5-4.9 5-3.7 9.4-8.4 13.8-13a134.9 134.9 0 0 0 29.7-46.8c11-28.4 14.4-57.5 20.8-87 3.9-17.7 6.5-35.4 19.4-49.5-2.3.8-5.2 4.5-6.8 6.1-5.4 5.8-9.9 12.3-15.5 17.9-15.3 15.2-30.2 31.7-39.3 51.2-10 21.4-13.2 45-19 67.5-1.5 5.5-3 11.3-5.8 16.4-3.3 6-7.8 11.2-8.6 18.2-.6 5.2 1.8 10.1 3.2 15l.6 8.9ZM37.7 194.9c-1-1.7-2.2-3.2-3.4-3.7-1.2-.5 1.7 2.1 2.7 3l.7.7c1.4 2.4 2.7 5.4 3.6 6.8a158 158 0 0 0 18.6 26.2c12.4 13.3 29 19.4 44.8 27.9 11 6 20.5 14 31.4 20.3 8.8 5 19 8.4 27.4 14l9 6c1 .8 2.1 1.4 3.1 2.1.5.4 1.5 1.7 1.5 1.1.2-1.5-2.6-5.1-3.2-6.5a314 314 0 0 0-8.2-18.8l.1-4.1c1.6-.2-1.8-2.5-2.8-3.6a81.2 81.2 0 0 0-6-6 85.3 85.3 0 0 0-22.5-14c-25-11-50.3-19-73.3-33.8A200.2 200.2 0 0 1 43 199.4l-5.3-4.5Zm139.8 100.6-1-4.6c-.6-5.4-.3-11-.1-16.5.4-11 1.1-22.2 4.4-32.8 3.3-10.6 8.8-20.5 13-30.8 3.2-7.5 6.3-15 7.8-23.1 2.7-15.3.6-31.7-3.2-46.6-3-11.5-8.7-22-12.2-33.4-1.5-4.9-1.6-10-2.1-15-.4.2-.4 2.6-.5 3l-1.2 9.2a244 244 0 0 1-6.5 35c-3.5 12.7-7 25.5-11.1 37.9-6.7 20.2-14.8 42.8-10.9 64.4 1.4 7.6 5.6 14 9.2 20.8 4 7.3 7.4 14.9 11 22.4l3.4 10 .1.5-.1-.4Zm-35-61.3-1.1-3a48 48 0 0 1-1.8-16c.4-20.2 7.4-39.8 13.2-59 9.5-31.3 1.8-65.1-8.8-95.5-4.1-12-10-23.3-13.6-35.4-.5.4-.7 2.7-.7 3.2A80 80 0 0 0 129 40c-.2 15 .4 30.1.1 45.2a92.6 92.6 0 0 1-5.7 30.2c-5.2 14.3-12.7 29.1-12.7 44.6 0 7.5 2.7 14.3 5.1 21.3 3.2 9.5 6.5 19 11 28-5.2-8.3-12.9-17-15.9-26.2l-1-2.2c.1-.2-5-7-5.2-7.3A139.7 139.7 0 0 0 87 151.5c-9.2-8.9-20.8-14.9-31.6-21.7-9.6-6-18.5-13-27.7-19.5-11.3-8-22.2-16.5-27.4-29.4-.9 3.4 1.3 6.4 3.1 10 3.5 7.3 7 14.6 10.9 21.6 9.3 16.8 22.6 30.7 34.4 45.8 5.6 7.2 9.8 15.2 15.5 22.2a82 82 0 0 0 20.7 17.3c9.9 6 21.8 6.7 31.7 12.7a108.8 108.8 0 0 1 10.8 7.5l6.1 3.8a1 1 0 0 0 0-.7c1.2 1.5 3 2.9 3.6 4.7l5.5 8.4c.4.9.7 1.5 1 1.4l-1-1.4Zm-40.7-80.7c.3.2 1.5-2.5 1.6-2.7a59.2 59.2 0 0 0 4.2-10c3.3-12.3-2.9-26.4-5.6-38.3C92.8 61.7 46 40.3 36.2 0c-.2 0-.4 2.1-.5 2.3l-1 7.5c-1.3 12-.5 23.4 4.4 34.5 11.3 25 26.2 48.4 39.2 72.6 4.3 8 6.3 16.8 10.8 24.7 4.4 7.6 10.2 14.4 14.5 22l-1.8-10Z" class="cls-3" data-name="Path 368"/></clipPath><clipPath id="clip-path-5"><path id="Path_502" d="M213.8 7.6c-.7-.1-2-1.1-2.8-1.3l-6.2-1.6C198.4 2.9 192 1 185.3.3c-14-1.6-28 3.7-41.8 5.2-4.5.4-8.9 1.2-13.3 1.3-1.6 0-5.3-.7-6.7-.1-.6.2 1.1 0 1.7 0a37.4 37.4 0 0 1 4 .4c3.9.6 7.7 1.9 11.5 2.6 6.6 1.2 13.2 1.7 19.7 3.2 5 1.1 9.6 3.2 14.6 3.9 6.5 1 13.2 1 19.6-.8 2.7-.8 8.7-4.4 11.6-3.3l3.3-2.2a11.7 11.7 0 0 0-.4 1.3c-.3 1.3-.5 2.7-.6 4a67.4 67.4 0 0 0-.3 12.9c.8 8.7 6.6 16 9 24.2a48.5 48.5 0 0 1 1.8 9v1c-.1 1.1-.3 2.6.2 3.2.2.4 0-1 0-1.5l-.1-1.7.2-1.6c.5-4.3 1.7-8.5 2.2-12.8 1-8.8 3.2-17.6 1.6-26.5a36.3 36.3 0 0 0-2.6-9c-1.1-2.3-3.1-4.6-3.2-7.3l-3.1 1.7a.6.6 0 0 0 0-.2l-.5.4Zm0 0-.5.3.6-.3Zm-21 20.8c0-.3-.5.6-.7.9l-1.2 1.9a19.3 19.3 0 0 0-2.2 6 66.3 66.3 0 0 0-.7 19.6c1.2 10.7 5.5 19.8 9.4 29.6 3.4 8.3 6.2 16.8 9 25.3l4.6 13c.1.4 1 4.3 1.5 4.4a6.3 6.3 0 0 0 0-1v-2l.5-6.8c.7-6.8 2-13.5 2.5-20.2 1.2-15.3-7.3-28.5-11.2-42.8a80.4 80.4 0 0 1-3-23.7c.2-2.4 1.3-4.8 1.7-7.2.4-2.4.1-5 .4-7.6l-10.6 10.6Zm-152.5 38h1.4l3.5-.2a44 44 0 0 0 9.6-1.9C64 61.4 72 55.8 81 53c27.4-8.6 56.6 7.2 83.7-3.9 5.6-2.2 11.2-4.4 15.3-9l4.8-5.7-1.7-.5-3.9-1.2a99.3 99.3 0 0 0-11.5-2.3 186 186 0 0 0-35-2c-13.8.1-29-1.5-42.4 2.3-20 5.6-35.7 21.6-50.1 35.7-.3 0-.5.1-.3.3l.3-.3Zm122-1.4c.4-.1-.5.7-.7 1l-1.2 2a51.2 51.2 0 0 0-3.2 7.2 52.5 52.5 0 0 0-2.9 24.3c1.2 9.2 5.8 17.7 9.8 26 4.9 10 9.6 20 15 29.9 3 5.7 7 11.8 9.2 18a53.4 53.4 0 0 1 1.8 7l.4 2.2c0 .4 0 1.6.2 1.2 1.3-4 .6-9 1.8-13.2 3.1-11 10-21.4 8-33.5a68 68 0 0 0-8-19.8c-5.1-9.7-10.8-19.3-15.2-29.3a51 51 0 0 1-3.9-26.6c.2-2.7 1-5.3 1.4-8 0-.3.5-2.2.3-2.5-.4-.3-2.7 2.2-3 2.4-3.1 3-5.9 7.2-8.3 10.7l-1.5 1Zm-5.9 4.4c-.1.1-6-1.4-6.4-1.4a89.4 89.4 0 0 0-14.1-.4 103.1 103.1 0 0 0-40.7 9C74 85.8 56.4 99.4 37 111.6c-11.7 7.3-22.7 15.2-37 15.9 1.6.7 5 .3 6.8.3 5.9-.2 11.7-1.2 17.7-1.2 16 0 32.7-.9 48-6.4 16.7-6 31.3-16.7 46.6-25.5a54.9 54.9 0 0 1 11.8-5.6c5-1.4 10.2-1.8 14.4-5 3.2-2.6 4.6-6.4 6.6-9.7l4.5-5Zm2.7 152.2a6.7 6.7 0 0 0-.3 3.7c.3 1 .3-2 .3-3v-.7l1.9-5.5a128 128 0 0 0 4.9-23.7c1-13.5-4.2-25.5-7.5-38.3-2.4-9-2.7-18.2-4.9-27.2-1.7-7.3-5-14.5-6.3-21.8-.4-2.7-.7-5.4-1.2-8l-.4-2.7c0-.5.2-1.7-.2-1.4-.9.7-1.5 4-2 5.1-2.1 4.7-4.2 9.4-6 14.2l-2.4 2.1c-.8-.7-.4 2.3-.5 3.4a60.3 60.3 0 0 0-.3 6.3 61.8 61.8 0 0 0 3.8 19.3c6.8 19 15.2 36.5 18.7 56.5a145.7 145.7 0 0 1 2.2 16.6l.2 5Zm-16-126.8c-.5.8-2 2.8-2 3a82.7 82.7 0 0 1-9 8.7c-6.1 5.6-12.7 11.1-20.1 15s-15.7 6.1-23.5 9.3c-5.7 2.4-11.5 4.7-16.6 8.2A88.1 88.1 0 0 0 48 165.3c-4.7 7.6-7.6 16.2-12 24-2 3.3-4.7 6-7.2 9 .3.1 1.7-1.2 1.9-1.3l5.6-4.3a192.5 192.5 0 0 1 22.5-15c8.7-4.8 17.5-9.7 26.4-14.1 14.4-7.1 31-14.8 40.8-28.3 3.4-4.7 4.8-10.3 6.6-15.7 2-6 4.5-11.8 6.7-17.6l3.8-7.2.2-.3-.2.3Zm-15.7 50.8-1.1 2.1a39 39 0 0 1-7.9 9.4c-11.2 10.4-25.5 17.1-39 24.2-22 11.5-36.5 33.4-47.8 55-4.4 8.5-7.7 17.5-12.4 25.8.4.1 1.8-1 2-1.2A64 64 0 0 0 28 255c8.4-7.8 16.3-16.1 24.7-24A73 73 0 0 1 72 218.4c10.4-4.8 22.4-8.7 30.8-16.9 4.1-4 6.5-9 9.1-13.9a171 171 0 0 0 9.8-20.6c-2 7.2-2.8 15.8-6.3 22.2l-.7 1.8c-.2 0-1.3 6.2-1.3 6.5-1.6 7-3 14-3.2 21.1-.2 9.5 2.5 18.9 4.3 28.1 1.5 8.3 2.2 16.6 3.3 25a53.3 53.3 0 0 1-2.1 29.8c2.2-1.3 2.8-4 3.8-6.9 2.2-5.6 4.5-11.3 6.3-17 4.4-13.9 5.4-28.2 7.6-42.4 1.1-6.7 3.4-13.1 4.3-19.9a60.6 60.6 0 0 0-1-20c-1.8-8.3-7.5-15-9.2-23.3a81.2 81.2 0 0 1-1.4-9.7l-1-5.3c-.1 0-.3.2-.4.5.2-1.5 0-3.2.8-4.5l1.8-7.3c.2-.6.4-1.2.2-1.2l-.2 1.2Zm-23.5 64c0-.2-2.1.5-2.3.6a46.5 46.5 0 0 0-7.6 3c-8.4 4.8-13 15.5-18.2 23.2-17.6 26.4-5.6 62.3-22.6 88.7.1.1 1.3-.9 1.4-1 1.6-1 3.1-2.2 4.6-3.4a49 49 0 0 0 16.7-20.5c8-19.1 13.2-39.3 19.9-59 2.2-6.4 6-12.1 8-18.6 2-6.4 2.7-13 4.7-19.3l-4.6 6.3Z" class="cls-3" data-name="Path 502"/></clipPath><clipPath id="clip-Verzameling_bladeren"><path d="M0 0h577v686H0z"/></clipPath><style>.cls-5{fill:#fcb817}.cls-3,.cls-7{fill:#044928}.cls-10,.cls-11,.cls-12,.cls-13,.cls-5,.cls-7{fill-rule:evenodd}.cls-10{fill:#f2720f}.cls-11{fill:#f9e2d2}.cls-12{fill:#f2ba38}.cls-13{fill:#fff}</style></defs><g id="Verzameling_bladeren" clip-path="url(#clip-Verzameling_bladeren)" data-name="Verzameling bladeren"><g id="Bladeren" transform="translate(60 4)"><g id="No_Dodos__collectie_bladeren_V2" data-name="No Dodos [_collectie bladeren V2" transform="translate(-76.2 20)"><path id="Path_289" d="M371.6 34.4c4.1 6 18.7 36.5 18.3 45.8a171 171 0 0 1-10.9 40.6c-10.5 26-37.5 43.4-64.7 51.4a302.6 302.6 0 0 1-86.8 12.1c-11.6 0-23-3-34.7-2.6-13.5.4-26 4.7-39.2 5.8a92 92 0 0 1-27.2-2.7c-15.2-3.4-28.8-10.5-43.3-15.3-15.6-5.3-31.8-8.5-47.5-13.2-11.7-3.5-22.8-8.3-35.2-9.4-1.6-.2 2.2-2 3.4-3l6.3-5A127.2 127.2 0 0 0 29 120.2c9.5-11.8 18.8-24.9 32-33.4 10.2-6.8 22.8-10.2 34-15a211.4 211.4 0 0 1 38.6-13.4c21.5-4.5 43.3-5.8 64.4-12.1A191.4 191.4 0 0 0 224.5 36c9.6-4.5 18.2-10.5 27.6-15.2 11-5.5 22.4-9.5 34-13.8 11.7-4 25.4-8.3 37.9-6.6 9 1.2 17.5 5.3 25 9.7a120 120 0 0 1 22.6 24.3Z" class="cls-5" data-name="Path 289" transform="rotate(14 -735.3 765)"/><g id="Group_25" clip-path="url(#clip-path)" data-name="Group 25" transform="rotate(14 -735.3 765)"><path id="Path_290" d="M340 22c-1.6 0-4.3 2.1-5.5 2.8A73.5 73.5 0 0 0 320.7 35 101.5 101.5 0 0 0 295 74.5c-2.5 7.3-3.2 14.9-4.7 22.4 4.8-11.2-5.8-29.3-19-27.8-10.9 1.2-18.1 11.6-21.5 20.5.8-1.2 0-4.1-.4-5.2-2.3-5.8-8.3-7.9-14.8-7.2-16.6 1.6-25.2 19.4-25.9 33.1-.7-1 .7-4.7 1-5.7A27 27 0 0 0 210 92a23.6 23.6 0 0 0-3.9-8c-9.5-12.5-24.4-3.6-28.5 8.6.3-1.4-.6-3.7-1-5-2.1-10-12-13.3-21.8-9a46 46 0 0 0-25 37.6c.1-.4-.7-2-.7-2.4a46 46 0 0 1-.5-6.2q-.1-3.7-.4-7.3c-.5-7.3-1.8-16.4-10.6-18.2a8.5 8.5 0 0 0-5.7.7 14.4 14.4 0 0 0-3.6 2.6 26.3 26.3 0 0 0-4 5.7c.5-1.3-3.6-4.5-4.4-5-5-3.4-12.6-4.3-18.6-2.3A25.8 25.8 0 0 0 70.6 92a54.2 54.2 0 0 0-12.5 25.2c3.5-9-2.5-20-11-24.1-13.4-6.4-32.3-6.3-47.1-4.3 1 0 2.6-1.1 3.5-1.5 2.7-1 5.5-1.6 8.2-2.4 22.9-6 46.9-22.8 50.6-46.3.8 0 1.7 5.3 2 6A51.7 51.7 0 0 0 71 55.8c4.6 6.2 12.4 12.6 21 12.7 3.7 0 7-1.7 10-3.7 6.6-4.4 11-10.1 12.8-17.6 2 4.3 1 10 5.7 13.2 5.8 4 13 .7 18.3-3a42.9 42.9 0 0 0 16.8-34.3v1.3l.3 2.2.4 6.6c.4 6.7 2 13.6 5.7 19.2 4.4 6.9 10.6 12.3 19.3 7a11 11 0 0 0 3.8-3.4c1.4-2.2 1.1-4.8 1.4-7.2a8 8 0 0 0 .3.7l.7 1.6a40.4 40.4 0 0 0 2.4 4.5 10.8 10.8 0 0 0 14.6 3.7c3.3-1.9 5.7-5.6 7.7-8.6a55.1 55.1 0 0 0 7-32.4c-1.4 2.8 1 8 1.7 10.6a49 49 0 0 0 11.2 21.8c2.7 2.5 6.7 4.8 10.8 3.3 6.4-2.2 9.4-12.2 11.3-17.5-.2 1 1.3 3.4 1.8 4.2 3.3 5 10 6.7 15.7 4a17.3 17.3 0 0 0 6.1-5c11.2-14.1-2.3-31-13.6-39.8 6.1 2.7 11 7.2 17.1 10 15.5 6.8 36.3 7.4 53.6 6l5 6Z" class="cls-7" data-name="Path 290" transform="translate(52.9 44)"/><path id="Path_293" d="M58 12.4c5.4 5.5 7.7 13.5 13.1 19.2 9 9.5 20.5 16.7 27.3 28C101 64 106 77.8 97 79.9c-6.5 1.6-11.1-5.5-13.7-9.8-.7-1.1-2.3-5.2-4.1-5.2-1.5 0-2 3.1-2.4 4-1.1 3.4-4 10-9 8.2-3.1-1.1-4.3-4.6-5.1-7.2-2-6.5-2.6-13.4-5.2-19.6-1.4-3.3-3.8-7.2-8.1-7.2-4.2 0-6.4 3.6-7.8 6.8-3 7.2-1.4 15.2-5.6 22.1-2.5 4.1-7.9 8.2-13 6.3-7.2-2.6-6.8-11.4-9.9-16.8-3-5.3-10.4-6.7-12.4-12.6-2-5.6.8-12.3 3.4-17.5A80.3 80.3 0 0 1 34 0l24 12.4Z" class="cls-5" data-name="Path 293" transform="translate(158.7 10.9)"/><path id="Path_294" d="M23.5 4.6c-.8 0 1 .9 1.5 1.4l2.4 3a103.7 103.7 0 0 1 7.2 10.8 28.7 28.7 0 0 1 3.6 23c-1.1 4.3-3.7 8.5-8.6 9.6C12.7 56.2-.7 35 0 21.8.5 13.8 4.8 6.9 8.7 0l14.8 4.6Z" class="cls-5" data-name="Path 294" transform="translate(120.6 43.9)"/><path id="Path_295" d="M65.8 58.5c1-.2-1-1.5-1.4-2.3a28.2 28.2 0 0 1-2-5 31.4 31.4 0 0 1-.8-16.7c2.3-9.1 12-15 13.1-24.6.4-2.8-.2-9.3-4.1-9.9C66-.6 60.3 5.4 57.5 8.1c-1.3 1.3-3.2 3.7-5.3 3.8-2.4.2-4.7-3.7-6.3-5-6-4.6-12.4-4.8-17 1.8-8 11.4-8 25.2-14.2 37.3C12 51.4 7 57.7 0 57.6l65.8 1Z" class="cls-5" data-name="Path 295" transform="translate(100.7 137.3)"/></g><path id="Path_297" d="m935.2-52.1-10.4-38.4-50.3 5.6-21.3 2.4c-25.7 3-70.6 5.3-104.2 32a260.8 260.8 0 0 0-58.3 66.2c-7 11.6-12.4 24-19.9 35.4-14.6 22.2-33.6 42.5-45 66.4-12.4 25.8-20.3 52.7-34.5 78-.8-.3 1.5-.3 2.3-.3l5-.4c4.5-.5 8.8-1 13.2-1.3 13.7-1 27 3 40.6 2a160.4 160.4 0 0 0 20.3-2.5 111.2 111.2 0 0 0 14.2-4l59-24.7c72-30 80.7-34 93.7-41.6 26.2-15.4 52.2-30.5 71.6-59.9a149.5 149.5 0 0 0 24.2-78.3 81.7 81.7 0 0 0 1.6-13 99.3 99.3 0 0 0-.6-14.6c-.3-3.8-.8-6.9-1.2-9Z" class="cls-7" data-name="Path 297" transform="translate(-498.9 90.5)"/><g id="Group_26" clip-path="url(#clip-path-3)" data-name="Group 26" transform="translate(92.2)"><path id="Path_298" d="M851.6-42.1c0-.6 1 .8 1.7 1.1a28.6 28.6 0 0 0 3 1.7 618.3 618.3 0 0 0 38.9 14.8c16.6 5.7 33.9 9.7 50.9 13.8a57.2 57.2 0 0 1 12.1 4.1c.5.3 3 1.3 2.9 2-.3 1-2.8 2.5-3.7 3.3-3.7 3.3-7.8 6.4-11.6 9.7-4.8 4.3-10.5 13.2-17.7 14.8-3.2.7-6.7-1-9.6-2.3-5.5-2.3-11.2-4.3-16.7-6.6A437.6 437.6 0 0 1 856.5-7c-10-5.4-19-12-29.8-16.2l25-18.8Z" class="cls-10" data-name="Path 298" transform="translate(-681.5 72)"/><path id="Path_299" d="m803.3.6 2.3 1.7a46 46 0 0 0 4.9 2.6c8.4 4.3 17.1 8 25.5 12.4 14.7 7.6 29.3 15.4 44.3 22.4 5.8 2.7 15.6 5.5 19.3 10.7 3 4.3-7.4 10.8-10 12.8-5 3.8-10.9 9.5-17.5 10.8-7 1.2-16.4-3.2-22.7-5.6a253.3 253.3 0 0 1-30-14.2 104.6 104.6 0 0 1-21.8-15c-5.8-5.4-10.2-11.8-16.5-16.9Z" class="cls-11" data-name="Path 299" transform="translate(-664 55.5)"/><path id="Path_300" d="M759 44.4c-.1 1.1 2 3.5 2.6 4.3a55.3 55.3 0 0 0 10.8 10 299.2 299.2 0 0 0 47.4 30.7c5 2.4 10.3 4.3 15.3 6.6 2 1 4.9 2.3 5.2 4.6.4 3.4-3.3 6.8-5.6 9-2.2 2.2-5 5.3-8.4 6-3.5.9-8.2-1.1-11.5-2.2a122.9 122.9 0 0 1-26.1-12.2l-11.9-7.4c-13.3-8-27-13.1-41.6-18.5l23.9-30.9Z" class="cls-12" data-name="Path 300" transform="translate(-646.4 38.7)"/><path id="Path_301" d="M719.8 101.6c.5 1.2 3.4 2.6 4.5 3.2a105.3 105.3 0 0 0 15 6.8c16.5 6.6 31.7 15.7 48 22.8 5 2.2 18.1 5.7 20 11.1.6 1.5-1.3 2.6-2.3 3.4-3 2.3-6 4.5-8.8 6.9-4.1 3.6-8.8 10.4-14.5 12-2.8.8-6-.9-8.5-2a228.4 228.4 0 0 1-20.6-10.5c-15.2-8.8-27.4-15.5-45.1-18.2l12.3-35.5Z" class="cls-10" data-name="Path 301" transform="translate(-635.8 16.8)"/><path id="Path_302" d="M682.1 170c-.4-.8 2 .8 3 1.3l6 3a180.8 180.8 0 0 0 17 7.2c13.1 4.9 26.5 9 39.6 14 5.1 2 12.8 4.6 10.8 10.9-1.4 4.5-7.3 7.4-11 10.1-2.9 2-5.5 4.2-8.2 6.4-.8.6-2.3 2.3-3.5 2.4-1.5.1-4-1.6-5.2-2.2-4.8-2.5-9.3-5.5-13.9-8.4-14.3-8.7-28-18.8-44.8-22.9l10.2-21.7Z" class="cls-11" data-name="Path 302" transform="translate(-622 -9.4)"/><path id="Path_303" d="M644 218c3.7 3.7 10.3 5.7 15 7.9 8.8 4 17.4 8 26.4 11.3 8.6 3.2 18.7 6.6 25.2 13 6.1 6.1-6.7 14-10.6 17.8-.8.7-4.3 5.5-5.7 5.2-2-.5-4.4-2.4-6.2-3.4-6-3-11.7-6.6-17.6-9.9-13-7.3-26.3-13.2-41-16.5l14.4-25.4Z" class="cls-12" data-name="Path 303" transform="translate(-605.8 -27.9)"/><path id="Path_304" d="M620 271.3c-.7 1.2 2.6 1 4 1.6a78.8 78.8 0 0 1 8.1 4.3c10.6 6 21.5 10.1 33.1 14 2.7 1 11.7 2.8 12.9 5.8 1 2.4-5.9 6.6-7.3 7.8-2.8 2.4-5.4 5-8.1 7.5-.5.4-2 2.3-2.8 2.3-2.5 0-6.1-2.1-8.4-3l-6.1-2.4-9.7-4.3c-8.6-4-17-8.2-26-11.2l10.2-22.3Z" class="cls-7" data-name="Path 304" transform="translate(-598.2 -48.3)"/><path id="Path_305" d="M586.5 326.4c.2-.9 1.9.7 2.8 1 2.2.6 4.4 1.4 6.5 2.1 9.6 3.4 19 7.4 28.3 11.5 1 .4 8.3 2.8 7.3 4.4-.8 1.4-4.3 2-5.8 2.5a68.5 68.5 0 0 0-12.8 6.3c-2.8 1.7-5.4 3.6-8.1 5.5l-6 4.2c-8.3 5.6-28.8 20.7-32.7 3.1a25.8 25.8 0 0 1-.6-6.2 39.2 39.2 0 0 1 2.4-11.5 92.1 92.1 0 0 1 8.7-17.3l10-5.6Z" class="cls-5" data-name="Path 305" transform="translate(-581.2 -69.4)"/><path id="Path_306" d="M992-12.5c0-.2-.7-.4-1.5-.5-1.7-.4-4-.6-4.5-.8-2-.6-4-1-6.1-1.5-4.9-1-9.7-1.7-14.6-2.6L954-20.4l-4.7-1-16.8-2.7a134.1 134.1 0 0 1-14.3-3.5c-2.4-.8-4.9-1.8-7.4-2.5-2.1-.6-4.3-1-6.5-1.7l-2.7-.9c-4-1.5-7.8-3.3-11.7-4.8 4 1.4 7.8 3.1 11.8 4.6l2.7.9 6.5 1.6 7.5 2.5 3.2 1c3.7 1 7.3 1.7 11 2.3l16.8 2.7 4.8 1 11 2.5c4.3.8 8.4 1.4 12.6 2.3 2.7.5 5.5 1.1 8.3 2 .5.1 3.4.4 5 .8.7.2 1.2.5 1.3.7a.2.2 0 0 1-.1.2.2.2 0 0 1-.3-.1Z" class="cls-13" data-name="Path 306" transform="translate(-703.8 70.9)"/><path id="Path_307" d="M986.2-10.1a.2.2 0 0 1 .1.2.3.3 0 0 1-.2.1h-.3l-2.2-.8-3.9-1.4a22 22 0 0 0-1.7-.5L967.8-15a229 229 0 0 0-8.8-2c-2.8-.3-5.6-.5-8.4-1-9.6-2-19.4-4-29-6.4a238 238 0 0 1-18.9-5.7 65.4 65.4 0 0 1-6.6-2.7c-5-2.4-9.8-5.2-14.8-7.4 5 2.2 9.9 5 15 7.2a64.6 64.6 0 0 0 6.5 2.7c6.2 2.1 12.6 3.9 19 5.5a636 636 0 0 0 29 6.2c2.7.6 5.5.8 8.2 1.2l2.1.3 6.8 1.7 10.2 2.6 1.7.5 4 1.4 2.2.8h.2Z" class="cls-13" data-name="Path 307" transform="translate(-702.5 71.2)"/><path id="Path_308" d="M981.9-6.7a.2.2 0 0 1 .2 0 .2.2 0 0 1 .2.2.3.3 0 0 1-.2.2.4.4 0 0 1-.4 0l-.9-.8-2.1-1a56.6 56.6 0 0 0-7.1-2.6q-6-1.6-12-2.9-6-1.4-12-2.5a286 286 0 0 1-25-5.9 245 245 0 0 1-24.2-8.4c-4.3-1.7-8.7-3-12.8-5a44.9 44.9 0 0 1-8-4.3 45.2 45.2 0 0 0 8 4.3c4.2 1.8 8.6 3.1 12.9 4.8a252.7 252.7 0 0 0 24.3 8.2c8.1 2.2 16.4 4.2 24.9 5.8q6 1.1 12 2.5t12 3a39.6 39.6 0 0 1 7.2 2.6l2.2 1a10.8 10.8 0 0 1 .8.8Z" class="cls-13" data-name="Path 308" transform="translate(-701 71)"/><path id="Path_309" d="M924.7 35.9a13 13 0 0 0-1.4-.6l-2.9-1.3-1.9-.9c-4.6-1.9-9.5-3-14.2-4.7a42.4 42.4 0 0 1-6-2.6c-7-3.8-14.1-7-21.4-10.3s-14.6-6.5-21.7-10L844.6 0a113.7 113.7 0 0 1-14.4-9.3 51.4 51.4 0 0 1-8-7.8 51 51 0 0 0 8 7.7 114.9 114.9 0 0 0 14.6 9.1c3.5 2 7 3.7 10.6 5.5 7.1 3.4 14.5 6.6 21.7 9.8 7.3 3.2 14.6 6.6 21.5 10.4a43 43 0 0 0 5.9 2.6c4.6 1.7 9.6 2.8 14.2 4.7l2 .9 2.8 1.3 1.2.5.4.4a.2.2 0 0 1-.2.2.2.2 0 0 1-.2-.1Z" class="cls-13" data-name="Path 309" transform="translate(-679.8 62.3)"/><path id="Path_310" d="M923.2 41.4a.3.3 0 0 1 .2 0 .2.2 0 0 1 .1.3.2.2 0 0 1-.2 0 1 1 0 0 1-.4 0l-2.4-1.5-2.1-1.1-3.3-1.5c-1.5-.8-3-1.4-4.6-2-3.8-1.4-7.6-2.6-11.2-4.2-3.8-1.6-7.4-3.4-11-5.3-8.3-4.4-16.4-9.3-25-13.2-5.1-2.4-11-3.8-16.4-5.9a39 39 0 0 1-6.7-3.2 36.6 36.6 0 0 1-3-2.2c-4-3-7.3-6.6-11.4-9.4 4.1 2.7 7.5 6.3 11.4 9.3a36.7 36.7 0 0 0 3 2.1 38.6 38.6 0 0 0 6.8 3.2c5.5 2 11.3 3.3 16.6 5.7 9.8 4.5 19 10.2 28.6 15 2.4 1.2 4.8 2.4 7.3 3.4 3.6 1.6 7.4 2.8 11.1 4.3a61 61 0 0 1 4.7 2l3.3 1.5 2 1.1 2.5 1.5h.1Z" class="cls-13" data-name="Path 310" transform="translate(-681.2 58.8)"/><path id="Path_311" d="M917.6 46.4a.2.2 0 0 1 0 .3.2.2 0 0 1-.2 0 1.6 1.6 0 0 1-.2 0l-2-1.4-2.6-1.5-2.6-1.5a166.2 166.2 0 0 0-16.2-7.6 168 168 0 0 1-16.4-7.2c-3.6-2-7-4.2-10.4-6.2l-4.5-2.5-6.5-3.2c-8.8-4.1-17.7-7.9-26.4-12.2-1.2-.5-2.3-1.2-3.4-1.8-2.6-1.5-5.2-3.2-7.8-4.6l7.8 4.5 3.4 1.8c8.8 4.2 17.7 7.9 26.5 12a235.4 235.4 0 0 1 11.2 5.6l10.3 6.2a173.5 173.5 0 0 0 16.4 7.1l6.7 2.8a163.2 163.2 0 0 1 14.7 8l2 1.3.1.1Z" class="cls-13" data-name="Path 311" transform="translate(-678.3 57)"/><path id="Path_312" d="M864.8 91.1a92 92 0 0 1-6.8-2.4l-9.9-4.2c-3.8-1.5-7.8-3-11.6-4.7a112 112 0 0 1-16.2-8.5c-4.2-2.6-8.1-5.5-12.2-8.4l-7.1-4.8a64.2 64.2 0 0 1-9.1-7.8c-4.7-4.5-9-9.3-13.9-13.6 5 4.3 9.3 9 14 13.4a99.2 99.2 0 0 0 9.2 7.7l7.2 4.8c4 2.9 8 5.7 12.2 8.3a106.6 106.6 0 0 0 16.1 8.5l11.6 4.7 9.9 4.2a54 54 0 0 0 6.7 2.5.2.2 0 0 1 .1.2.2.2 0 0 1-.2.1Z" class="cls-13" data-name="Path 312" transform="translate(-662.8 41.7)"/><path id="Path_313" d="m855.1 88.2-.1-.1-1.8-.7a25 25 0 0 0-2.1-.7l-5-1.6c-1.2-.4-2.3-.9-3.3-1.4-2.5-1.1-5-2.5-7.4-3.6l-9.7-4.6a319.4 319.4 0 0 1-26.1-16 199 199 0 0 1-18.4-14.3c-2.4-2.1-4.7-4.3-7-6.6l-15-16c5.1 5.2 10 10.7 15.3 15.9 2.2 2.2 4.5 4.4 7 6.5a205.7 205.7 0 0 0 18.4 14.2A329.6 329.6 0 0 0 826 75l9.7 4.5 7.4 3.7 3.2 1.4 5 1.6 2.1.7 1.8.7a.6.6 0 0 1 .4.3.2.2 0 0 1-.3.2Z" class="cls-13" data-name="Path 313" transform="translate(-655.6 47.1)"/><path id="Path_314" d="M850.1 90.4c.9.5 1 .8 1 .8-.1 0-.4 0-1-.4h-.1l-1.2-.8-1-.5-1.7-.7a32.2 32.2 0 0 1-3-1.5l-4.3-2.6a38.2 38.2 0 0 0-3.6-1.8c-3-1.3-6-2.4-8.8-3.8-1-.5-2-1-3-1.7l-7-4a245.8 245.8 0 0 1-25-16 339 339 0 0 1-29-24.1 61.3 61.3 0 0 1-5.5-6.3c-.7-1-1.9-2-2.7-3a4.4 4.4 0 0 1-.8-1.5 4.4 4.4 0 0 0 .8 1.4c.8 1.1 2 2.1 2.8 3a61.3 61.3 0 0 0 5.4 6.3l6.2 5.6A352 352 0 0 0 791.7 57a252.6 252.6 0 0 0 25 15.9l7 4c1 .7 2 1.2 3 1.7 2.8 1.5 5.8 2.6 8.7 3.9a41 41 0 0 1 3.7 1.8l4.3 2.6a32.6 32.6 0 0 0 2.9 1.5l1.7.8 1 .5 1.2.7Z" class="cls-13" data-name="Path 314" transform="translate(-653.4 47.2)"/><path id="Path_315" d="M806.5 129.4a.3.3 0 0 1 .1 0 .2.2 0 0 1 .2.2.2.2 0 0 1-.2.2 1 1 0 0 1-.3 0l-1.9-.5a16.4 16.4 0 0 1-3-.9c-1.5-.5-3-1.2-4.4-1.9l-9-3.6a61.1 61.1 0 0 1-8.8-4.3l-11.3-6.5c-4.6-2.4-8.7-5.3-13-8a75.1 75.1 0 0 0-9.9-5.2c-5.6-2.5-11.4-4.6-17-7.3l-4.2-2c-5.4-3-10.7-6.2-16.2-8.9l-8-3.4c2.7 1.1 5.5 2.1 8 3.3 5.6 2.7 10.9 5.9 16.4 8.7l4.1 2c5.6 2.7 11.5 4.8 17.1 7.2l4.3 2c2 1 3.9 2 5.7 3.2 4.3 2.6 8.4 5.5 13 8 3.8 2 7.5 4.3 11.3 6.5a108.2 108.2 0 0 0 8.7 4.3l9 3.7 4.3 1.9a16.5 16.5 0 0 0 3 .9l1.9.4Z" class="cls-13" data-name="Path 315" transform="translate(-631.5 26.7)"/><path id="Path_316" d="M802 133c-2.1-1.2-4.2-2.2-6.3-3.2-8.4-4-17.3-7.1-25.6-11.5-1-.5-1.9-1-2.8-1.7-3.6-2.3-7-5-10.8-7.1l-5.4-2.7-12.6-6c-5.5-2.9-11-6-16.5-8.8a217.3 217.3 0 0 0-18-8.4 518 518 0 0 0 18.1 8.1c5.6 2.9 11 5.9 16.6 8.7l12.7 6q2.7 1.2 5.3 2.6c3.9 2.1 7.3 4.9 11 7.2.8.6 1.8 1.1 2.7 1.6 8.2 4.4 17 7.6 25.5 11.6 2.1 1 4.2 2 6.2 3.2a.2.2 0 0 1 .1.3.2.2 0 0 1-.3 0Z" class="cls-13" data-name="Path 316" transform="translate(-628 26.2)"/><path id="Path_317" d="M799 134.3a6 6 0 0 1-2.5-1c-1.8-1-3.7-2.8-5-3.6-.7-.5-2.3-1.3-5.6-2.8-4.7-2.1-7-3.2-7.8-3.4-3.2-1-4.4-.8-8.2-2.1l-3-1.2a97 97 0 0 1-6.9-3.8c-5.3-3-10.3-6.4-15.8-9.3l-9-4.3a77 77 0 0 1-3.9-2l-17-9.5a189.6 189.6 0 0 0-14.5-7l-16.5-7 16.5 6.9a180.5 180.5 0 0 1 14.6 6.8c5.8 3 11.4 6.4 17.2 9.5l3.8 1.9c3 1.4 6.1 2.7 9 4.3 6.3 3.2 12 7.1 18.2 10.6a86.7 86.7 0 0 0 7.5 3.6c3.4 1.2 4.8 1.1 7.6 1.9a107.6 107.6 0 0 1 14 6.5c1.3.8 3.2 2.6 5 3.7a5.6 5.6 0 0 0 2.4 1 .2.2 0 0 1 .2.2.2.2 0 0 1-.2.1Z" class="cls-13" data-name="Path 317" transform="translate(-626.5 26)"/><path id="Path_318" d="M758 182.1a.2.2 0 0 1 .1 0 .2.2 0 0 1 .2.2c0 .2-.2.3-.4.2l-.7-.5-2-.6-2.2-1-3.4-1.5a625.7 625.7 0 0 1-27-13.8 49.2 49.2 0 0 0-6.3-2.9l-10-3.4c-1.5-.5-3-1-4.6-1.7l-10.6-4.5c-5-2.1-9.7-4.4-14.4-6.8-7-3.6-14-7.4-21-11.2 7.1 3.7 14 7.5 21.1 11 4.7 2.4 9.5 4.6 14.5 6.6l10.6 4.5 4.7 1.7c3.2 1.1 6.6 2.1 9.9 3.4a48.8 48.8 0 0 1 6.4 2.8 664.3 664.3 0 0 0 27 13.9l3.3 1.6 2.2.9 2 .7.5.4Zm0 0Z" class="cls-13" data-name="Path 318" transform="translate(-616 4.1)"/><path id="Path_319" d="M758.6 188a.5.5 0 0 0 0-.1 17.8 17.8 0 0 0-2-1.2l-5.9-2.8-2.5-1.2c-2.9-1.6-5.8-3-8.7-4.4l-13.4-6-18.5-8.2c-9.3-4-18.6-8-27.8-12.2a601.8 601.8 0 0 1 .1-.2l27.9 12 18.5 8c4.6 2 9 4 13.4 6.2a197.8 197.8 0 0 1 12 6l5.1 2.4a18.7 18.7 0 0 1 2 1.3c.3.2.3.4.2.5a.2.2 0 0 1-.3 0 .2.2 0 0 1 0-.2Z" class="cls-13" data-name="Path 319" transform="translate(-617.6 1)"/><path id="Path_320" d="M746.3 187a31.5 31.5 0 0 1-3-1.5c-3.7-2-7.2-4.6-11.1-6.4-6.7-3-13.7-5.3-20.5-8.1l-5-2.2-18-8.8c-9-4.4-18-8.9-27.1-13a257 257 0 0 0-31.2-11.8 255.5 255.5 0 0 1 31.3 11.6c9.2 4 18.2 8.4 27.2 12.8l18 8.7 5 2.2c6.8 2.8 13.8 5.2 20.5 8.2 3.9 1.8 7.4 4.5 11.2 6.5a31.1 31.1 0 0 0 2.9 1.4.2.2 0 0 1 0 .2.2.2 0 0 1-.2.1Z" class="cls-13" data-name="Path 320" transform="translate(-606.2 3.9)"/><path id="Path_321" d="M748.4 188.5a12.8 12.8 0 0 1-2.1-1c-1.6-1-3-2.2-4.5-3.1-1.2-.8-2.5-1.4-3.7-2-2-1-4-1.8-5.9-2.6-9.1-3.9-18.8-6.4-28.1-9.9-2.4-.8-4.7-1.8-7-2.8-8-3.6-15.7-7.6-23.4-12-11.4-6.4-22.5-13.4-33.6-20.2 11.2 6.7 22.3 13.6 33.8 20a286.8 286.8 0 0 0 30.4 14.5c9.3 3.5 19 6 28.1 10a113.8 113.8 0 0 1 9.6 4.6l4.5 3.1a12.8 12.8 0 0 0 2 1 .2.2 0 0 1 .1.3.2.2 0 0 1-.2.1Z" class="cls-13" data-name="Path 321" transform="translate(-610 4)"/><path id="Path_322" d="M717.6 235a7.2 7.2 0 0 0-1.7-1.4c-1.4-1-3.2-1.7-4.5-2.5l-14.5-9.2c-5-3-9.7-6.2-14.7-9.2a140.8 140.8 0 0 0-26.2-12.6c-8.1-3.2-16.5-6-24.9-8.8 8.4 2.8 16.8 5.4 25 8.5a193.3 193.3 0 0 1 26.4 12.5c5 3 9.8 6 14.7 9.2l14.5 9.2c1.2.8 3 1.6 4.5 2.6a8 8 0 0 1 1.7 1.5.2.2 0 0 1 0 .2.2.2 0 0 1-.3 0Z" class="cls-13" data-name="Path 322" transform="translate(-606.5 -17.6)"/><path id="Path_323" d="M708.5 231.3c.1-.1-.5 0-.7-.1l-1.7-.8a66.3 66.3 0 0 1-8.7-5.2l-9.3-6.3c-4.3-2.9-8.7-5.5-13.2-8a1464.3 1464.3 0 0 0-46.4-23.3l-17.4-8q11 4.8 21.8 9.8 10.8 5 21.5 10.3c7 3.5 14 7 20.8 10.7a222 222 0 0 1 13.2 8.1c3.1 2 6.2 4.3 9.3 6.4a150.2 150.2 0 0 0 8.6 5.2l1.6.7.8.2a.3.3 0 0 1 .2.4.2.2 0 0 1-.2.1.2.2 0 0 1-.2-.2Z" class="cls-13" data-name="Path 323" transform="translate(-598.8 -13.1)"/><path id="Path_324" d="m707.1 237-.3-.2-.8-.4a15 15 0 0 0-2.3-1.2 27.2 27.2 0 0 1-2.8-1.4l-3.8-2.3L685 224c-7.5-4.8-6.4-4.3-8-5.2-7.4-4-10.6-2.7-17.1-5.3-7.7-3.1-5.8-6-15.9-12.3-6.1-3.8-11.7-5.7-19.6-8.8a107 107 0 0 0-13.7-4.4 109.3 109.3 0 0 1 13.7 4.3c7 2.6 13 4.6 19.8 8.6 11 6.4 9.3 9.2 17.5 12.3 5.8 2.1 9 1.6 15.7 5.2 1.5.8.3.3 7.9 5.1l12 7.6 3.9 2.4a25.4 25.4 0 0 0 2.7 1.3 12.7 12.7 0 0 1 1.2.6 13.1 13.1 0 0 1 1.1.6l.8.5.5.2a.2.2 0 0 1 0 .2h-.4Zm0-.3a.2.2 0 0 1 .1 0Zm0 0Z" class="cls-13" data-name="Path 324" transform="translate(-598.6 -16.4)"/><path id="Path_325" d="m711.7 244.2.2.2a.2.2 0 0 1-.3.2 2.8 2.8 0 0 1-.4-.2l-.7-.4-1.8-1.2-2.4-1.5-3.7-2.2-7.4-3.9c-3.8-1.8-7.6-3.5-11.5-5.1-5-2.2-10.4-4-15.5-5.9a92.5 92.5 0 0 1-10.4-4.7l-8.4-4.9a833 833 0 0 0-23.1-12.2l11.7 6 11.5 6c3 1.5 5.7 3.2 8.6 4.8a58.8 58.8 0 0 0 8 3.7c6 2.3 12 4.2 17.8 6.7 4 1.7 7.8 3.3 11.5 5.2q3.8 1.8 7.4 4l3.7 2.1 2.4 1.5 1.8 1.3.7.4a2.3 2.3 0 0 0 .3.1Zm-.2.3Z" class="cls-13" data-name="Path 325" transform="translate(-604.6 -21.9)"/><path id="Path_326" d="m673.2 281.5-1.2-.7-2-1.2-1.9-1-3-1.7c-4.3-2-8.6-4-12.7-6.1l-16.6-8.9a181.8 181.8 0 0 0-13.2-6.3l-14.4-5.9-3-1.2c-3.7-1.7-7.4-3.5-11.3-5l-3.9-1.7-9.1-3.4 9.2 3.4 4 1.5 11.3 5 2.9 1.1 14.5 5.8 6 2.7c2.5 1.1 5 2.3 7.3 3.6 5.6 2.8 11 6 16.5 8.8 4.2 2.2 8.5 4.1 12.6 6.2a107.6 107.6 0 0 1 7 4l1.1.6a.7.7 0 0 1 .3.3.2.2 0 0 1-.1.3.2.2 0 0 1-.3-.2Z" class="cls-13" data-name="Path 326" transform="translate(-587.2 -35.7)"/><path id="Path_327" d="M667.8 283.3a18 18 0 0 1-1.2-.6L662 280c-3.6-1.6-7.4-3-11-4.7l-2.8-1.2c-5.4-2.7-10.7-5.6-16.1-8.4l-7-3.5q-10.9-5.1-22-9.8a457.4 457.4 0 0 1 22.3 9.4l7 3.4c5.3 2.8 10.6 5.7 16.1 8.4l4 1.9c3.3 1.4 6.5 2.7 9.7 4.2 1.6.7 3 1.7 4.6 2.5l1.1.6a.2.2 0 0 1 .2.3.2.2 0 0 1-.3 0Z" class="cls-13" data-name="Path 327" transform="translate(-587 -37.8)"/><path id="Path_328" d="m665.3 281.7-9-3-12.9-5.5-10.3-4.6a80.7 80.7 0 0 1-11.4-6.5l-6.7-4.7-8-5.5-8-5.4 8.1 5.3 8 5.3 6.9 4.7a78.3 78.3 0 0 0 11.3 6.3l10.4 4.6c4.3 1.9 8.5 3.8 12.9 5.5a112 112 0 0 0 8.8 3.1.2.2 0 0 1 .1.3.2.2 0 0 1-.2 0Z" class="cls-13" data-name="Path 328" transform="translate(-594.1 -38.8)"/><path id="Path_329" d="M645.6 324.8a2.5 2.5 0 0 1-1.4-.3c-1-.4-2.3-1.2-2.8-1.5a114.3 114.3 0 0 0-11.6-4.8c-3.8-1.4-7.7-3-11.4-4.7-5.7-2.5-11.2-5.2-16.8-7.8l-6.9-3.2-16-7.3 16.1 7 7 3.2c5.6 2.5 11.1 5.2 16.8 7.7a226.4 226.4 0 0 0 17.3 7c2 .8 3.8 1.6 5.7 2.6l2.8 1.5a2.1 2.1 0 0 0 1 .2.2.2 0 0 1 .4.2.2.2 0 0 1-.2.2Z" class="cls-13" data-name="Path 329" transform="translate(-586.3 -57.5)"/><path id="Path_330" d="m642 326.7-20.3-8.3-8.7-3.7-27.8-12.8c-4-1.8-8-3.6-12-5.2q6.1 2.4 12.1 5c9.4 4.1 18.6 8.5 28 12.6l8.6 3.6 20.2 8.5a.2.2 0 0 1 .1.2.2.2 0 0 1-.2.1Z" class="cls-13" data-name="Path 330" transform="translate(-584.2 -58)"/><path id="Path_331" d="M642.3 330.4a2.7 2.7 0 0 0-1-.8l-3.2-1.3-5.1-2-7.7-3.1q-7.2-2.9-14.2-6c-11-5-21.6-10.3-32.6-15.2 11 4.7 21.9 9.9 32.8 14.7l14.2 6 6.4 2.6 6.3 2.7c.7.2 2.2.7 3.3 1.3a3.2 3.2 0 0 1 1.2 1 .2.2 0 0 1-.1.2.2.2 0 0 1-.3 0Z" class="cls-13" data-name="Path 331" transform="translate(-586.3 -60.1)"/><path id="Path_332" d="M638 332.8c.1 0 .2.5-.2.4l-.8-.3-1.6-.6-4.8-2-10.5-4-4.4-1.8-5.7-2.6c-4.4-2-8.7-4.2-13.1-6.1a291.5 291.5 0 0 0-9.3-4.2l9.4 3.8 3.8 1.7 15 6.9 4.5 1.8 10.5 4 4.8 2.1 1.5.7.9.2Z" class="cls-13" data-name="Path 332" transform="translate(-584.2 -61.7)"/><path id="Path_333" d="M636 337.2a8.1 8.1 0 0 1-1.4-.6l-3.1-1.6a297 297 0 0 0-10.4-4.4c-4-1.6-8-3-11.8-4.7l-7.8-3.3c-6.8-3-13.4-6.2-20.1-9.3a297 297 0 0 0 3 1.2l17.3 7.7 7.8 3.2 11.8 4.7 5.2 2.2 5.1 2.3 3.2 1.6a7 7 0 0 0 1.3.6.2.2 0 1 1 0 .4Z" class="cls-13" data-name="Path 333" transform="translate(-584 -63)"/><path id="Path_334" d="M939-43.9c.4.2 2.6 1.9 2.2 2.3-1 1-6.2 1.4-7.7 2a84 84 0 0 0-25.2 16c-20 17-36.9 36-58.6 51.5-17.3 12.3-25.5 30.5-41 43.9-9.5 8.1-20.5 14.5-29.8 23-20.2 18.5-38.2 39-59.6 56.4-24.3 19.8-51.1 37.6-76.1 56.7-17 13.1-37 25-51.1 40.8-5.7 6.4-11.1 17-2.8 24.5 10 8.9 28.5 4.4 39.6 1.8 36.3-8.5 70-24.2 105-35.6 36.4-11.8 77.8-17.3 110.3-36.6C890.7 175.1 948.3 108.6 967 60c7.2-18.7 7.8-37.3 9.9-57 2.3-22.8 6.1-42.6 3.9-65.9l-41.9 19Z" class="cls-10" data-name="Path 334" transform="translate(-588.8 79.9)"/></g><path id="Path_336" d="M196.4 442c.7-.5 2.9-.8 3.8-1.4q3.7-2.3 7.5-4.4a163 163 0 0 0 22.8-14.5c14.8-11.8 22.9-30 34.6-44.3 3.7-4.7 7.1-9.6 11.3-13.8 1.5-1.5 5.7-4.4 6.5-6.3.3-.7-1.1 1.1-1.7 1.6a49 49 0 0 1-4.1 3.5c-4.3 3.1-9.2 5.5-13.6 8.5-7.4 5.1-14.2 11-21.8 15.7-5.8 3.7-12.2 6.2-17.7 10.3a61.8 61.8 0 0 0-17.8 19.2c-1.8 3.3-3.8 12.3-7.7 14l-1 5.2a14.6 14.6 0 0 0-.8-1.6l-3.5-4.3a90.2 90.2 0 0 0-12.3-12c-9.3-7.1-22-8.3-32.4-13.5a66.6 66.6 0 0 1-10.5-6.5l-1-.8c-1-1.3-2.4-2.8-3.3-3-.7 0 .9 1.1 1.4 1.5l1.8 1.5 1.3 1.6c3.8 4.4 6.8 9.4 10.6 13.8 7.7 9 14.3 19 24.5 25.7a50.5 50.5 0 0 0 11.3 5.7c3.3 1.1 7.5 1.3 10.2 3.7l1.3-4.5a.8.8 0 0 0 .1.2l.2-.8Zm-.1.1.2-.7Zm-.6-39c.4.3 0-1-.2-1.4l-.7-2.8a25.4 25.4 0 0 0-3.8-7.5 88.8 88.8 0 0 0-18.7-18.7c-11.6-8.6-24.6-13-38-18.1-11.3-4.4-22.4-9.5-33.4-14.5l-17-7.6c-.6-.3-5.4-3-5.9-2.6a7.9 7.9 0 0 0 1 .9 153.3 153.3 0 0 1 8.3 8.6c5.9 6.7 11.2 14.1 17.4 20.8 14 15 35 19 52.7 28.4 8.8 4.7 19.2 11.6 26.1 18.8 2.3 2.4 3.6 5.5 5.5 8.1 2 2.7 4.9 4.8 7.1 7.3l-.4-19.7ZM303 223.9l-1.5 1.4-3 3.6a57.6 57.6 0 0 0-7.2 10.7c-6 11.4-8 24-13.9 35.4-17.5 33.6-60.7 47-75.5 82.7-3.1 7.4-6.2 14.6-5.7 22.7l1.1 9.9 2.2-1.2c1.6-1 3.2-1.7 4.8-2.6a136.9 136.9 0 0 0 13.2-8.9 258 258 0 0 0 35.2-31.2c12.9-13.3 28.8-26.2 37.9-42.3 13.4-24.1 12.6-53.6 12.4-80.2.2-.2.3-.4 0-.4ZM188.7 341c-.3.5-.3-1.2-.4-1.7l-.8-3a65.8 65.8 0 0 0-4-9.5 69.9 69.9 0 0 0-21.2-24.9c-10.2-7.3-23-10.7-34.8-14.5-14.5-4.5-29-9.2-43.6-13.1-8.6-2.3-18.4-4-26.5-7.7a74.4 74.4 0 0 1-8.7-4.7l-2.5-1.6c-.4-.3-1.6-1.4-1.3-1 2.6 5 8.3 8.9 11.3 13.8 7.9 13.2 11.6 29 25.3 38.2a93 93 0 0 0 27.1 10.5c14.4 4 29.1 7.4 43.2 12.4a69.7 69.7 0 0 1 29.9 20.6c2.4 2.6 4.2 5.8 6.5 8.6.3.3 1.7 2.5 2.2 2.5.6 0 .3-4.5.3-5 .2-5.7-1.3-12.1-2.5-17.7l.5-2.2Zm1.2-9.6c0-.3 7.1-4.6 7.5-4.9 5-3.7 9.4-8.4 13.8-13a134.9 134.9 0 0 0 29.7-46.8c11-28.4 14.4-57.5 20.8-87 3.9-17.7 6.5-35.4 19.4-49.5-2.3.8-5.2 4.5-6.8 6.1-5.4 5.8-9.9 12.3-15.5 17.9-15.3 15.2-30.2 31.7-39.3 51.2-10 21.4-13.2 45-19 67.5-1.5 5.5-3 11.3-5.8 16.4-3.3 6-7.8 11.2-8.6 18.2-.6 5.2 1.8 10.1 3.2 15l.6 8.9ZM37.7 194.9c-1-1.7-2.2-3.2-3.4-3.7-1.2-.5 1.7 2.1 2.7 3l.7.7c1.4 2.4 2.7 5.4 3.6 6.8a158 158 0 0 0 18.6 26.2c12.4 13.3 29 19.4 44.8 27.9 11 6 20.5 14 31.4 20.3 8.8 5 19 8.4 27.4 14l9 6c1 .8 2.1 1.4 3.1 2.1.5.4 1.5 1.7 1.5 1.1.2-1.5-2.6-5.1-3.2-6.5a314 314 0 0 0-8.2-18.8l.1-4.1c1.6-.2-1.8-2.5-2.8-3.6a81.2 81.2 0 0 0-6-6 85.3 85.3 0 0 0-22.5-14c-25-11-50.3-19-73.3-33.8A200.2 200.2 0 0 1 43 199.4l-5.3-4.5Zm139.8 100.6-1-4.6c-.6-5.4-.3-11-.1-16.5.4-11 1.1-22.2 4.4-32.8 3.3-10.6 8.8-20.5 13-30.8 3.2-7.5 6.3-15 7.8-23.1 2.7-15.3.6-31.7-3.2-46.6-3-11.5-8.7-22-12.2-33.4-1.5-4.9-1.6-10-2.1-15-.4.2-.4 2.6-.5 3l-1.2 9.2a244 244 0 0 1-6.5 35c-3.5 12.7-7 25.5-11.1 37.9-6.7 20.2-14.8 42.8-10.9 64.4 1.4 7.6 5.6 14 9.2 20.8 4 7.3 7.4 14.9 11 22.4l3.4 10 .1.5-.1-.4Zm-35-61.3-1.1-3a48 48 0 0 1-1.8-16c.4-20.2 7.4-39.8 13.2-59 9.5-31.3 1.8-65.1-8.8-95.5-4.1-12-10-23.3-13.6-35.4-.5.4-.7 2.7-.7 3.2A80 80 0 0 0 129 40c-.2 15 .4 30.1.1 45.2a92.6 92.6 0 0 1-5.7 30.2c-5.2 14.3-12.7 29.1-12.7 44.6 0 7.5 2.7 14.3 5.1 21.3 3.2 9.5 6.5 19 11 28-5.2-8.3-12.9-17-15.9-26.2l-1-2.2c.1-.2-5-7-5.2-7.3A139.7 139.7 0 0 0 87 151.5c-9.2-8.9-20.8-14.9-31.6-21.7-9.6-6-18.5-13-27.7-19.5-11.3-8-22.2-16.5-27.4-29.4-.9 3.4 1.3 6.4 3.1 10 3.5 7.3 7 14.6 10.9 21.6 9.3 16.8 22.6 30.7 34.4 45.8 5.6 7.2 9.8 15.2 15.5 22.2a82 82 0 0 0 20.7 17.3c9.9 6 21.8 6.7 31.7 12.7a108.8 108.8 0 0 1 10.8 7.5l6.1 3.8a1 1 0 0 0 0-.7c1.2 1.5 3 2.9 3.6 4.7l5.5 8.4c.4.9.7 1.5 1 1.4l-1-1.4Zm-40.7-80.7c.3.2 1.5-2.5 1.6-2.7a59.2 59.2 0 0 0 4.2-10c3.3-12.3-2.9-26.4-5.6-38.3C92.8 61.7 46 40.3 36.2 0c-.2 0-.4 2.1-.5 2.3l-1 7.5c-1.3 12-.5 23.4 4.4 34.5 11.3 25 26.2 48.4 39.2 72.6 4.3 8 6.3 16.8 10.8 24.7 4.4 7.6 10.2 14.4 14.5 22l-1.8-10Z" class="cls-7" data-name="Path 336" transform="rotate(-45 481.5 199.5)"/><g id="Group_27" clip-path="url(#clip-path-4)" data-name="Group 27" transform="rotate(-45 481.5 199.5)"><path id="Path_337" d="M71 182.7a39.6 39.6 0 0 1-4.6-10.5 42.6 42.6 0 0 1-1.7-11.2c0-5.1 1-10.1 1.4-15.2l.1-3.8a87.2 87.2 0 0 0-2.5-18.6 134.9 134.9 0 0 0-5.8-18A106 106 0 0 0 49.2 88a130.8 130.8 0 0 0-11.5-15.6c-6.2-7.3-13.3-14.5-19.4-22A94.5 94.5 0 0 1 11 40.2a57.8 57.8 0 0 1-6.3-15.4C2.6 16.8 1.6 8.5 0 .5A.4.4 0 0 1 .3 0a.4.4 0 0 1 .5.3c1.7 8 2.8 16.3 5 24.2a57 57 0 0 0 6.3 15 95.3 95.3 0 0 0 7.3 10.1c6.2 7.6 13.3 14.6 19.5 22a131.3 131.3 0 0 1 11.6 15.8 105.8 105.8 0 0 1 8.8 17.5A131.3 131.3 0 0 1 65 123a88.2 88.2 0 0 1 2.4 19l-.1 3.8c-.4 5-1.5 10-1.5 15a41.7 41.7 0 0 0 1.6 11 38.7 38.7 0 0 0 4.4 10.3.4.4 0 0 1-.1.6.5.5 0 0 1-.7-.1Z" class="cls-13" data-name="Path 337" transform="translate(34.4 -12.1)"/><path id="Path_338" d="M18.2 90.2a12.3 12.3 0 0 0 0-1.3c0-1.9-.2-3.8 0-5.7.2-3.2.9-6.4 1.3-9.6.2-1.3.3-2.7.3-4a84.8 84.8 0 0 0-.8-14.4 130.5 130.5 0 0 0-3-14.1 59.6 59.6 0 0 0-2.2-6.7l-4.1-9.9L3 7.7 0 .6A.4.4 0 0 1 .3 0a.4.4 0 0 1 .5.2L4 7.3 11 24c1.4 3.3 3 6.5 4.3 9.9a56.3 56.3 0 0 1 2.3 6.8A125 125 0 0 1 20.4 55a83.3 83.3 0 0 1 .7 14.6 20 20 0 0 1-.5 4.2c-.4 3.2-1.1 6.3-1.4 9.5-.2 1.8 0 3.7 0 5.6l-.1 1.4a.4.4 0 0 1-.5.4.4.4 0 0 1-.4-.5Z" class="cls-13" data-name="Path 338" transform="translate(84.9 65)"/><path id="Path_339" d="M63.5 171.5a18.9 18.9 0 0 1-1.1-4.1c-.4-2-.5-4.2-.8-6.2-.7-6-1-12.2-1.6-18.3l-.5-4.6a128.8 128.8 0 0 0-4.8-21.8 180.4 180.4 0 0 0-8-21 61 61 0 0 0-9.3-14.1C32 74.9 25.6 69 19.7 62.7a88.7 88.7 0 0 1-9.2-12.1 86.8 86.8 0 0 1-7-13.4A48.3 48.3 0 0 1 .3 22.6C-.3 15.2.3 7.7 0 .4A.4.4 0 0 1 .4 0a.4.4 0 0 1 .5.4c.2 7.3-.2 14.8.5 22.1a47 47 0 0 0 3.3 14.2 86.4 86.4 0 0 0 7 13.2 88.4 88.4 0 0 0 9.1 11.8c6 6.4 12.3 12.2 17.8 18.7A61.5 61.5 0 0 1 48 95a177.6 177.6 0 0 1 8 21.2 129.1 129.1 0 0 1 4.7 22l.5 4.7c.5 6 .7 12.2 1.4 18.3l.7 6.1a19.5 19.5 0 0 0 1 4 .4.4 0 0 1-.2.5.5.5 0 0 1-.6-.2Z" class="cls-13" data-name="Path 339" transform="translate(34 -14.6)"/><path id="Path_340" d="M59.2 142.3a76 76 0 0 0-.7-6.7c-.7-5.3-1.6-10.5-2.2-15.7-1-8-2-15.6-3.7-23.2a70.2 70.2 0 0 0-5.2-14.6A77 77 0 0 0 40 70.3c-3.2-4.3-6.7-8.5-10.2-12.7-3.6-4.2-7-8.4-10.1-13A126.1 126.1 0 0 1 8 23.3 206.4 206.4 0 0 1 0 .5.4.4 0 0 1 .2 0a.4.4 0 0 1 .5.3 207.1 207.1 0 0 0 8.4 22.5 125.7 125.7 0 0 0 11.7 21c3 4.5 6.6 8.7 10 12.9 3.6 4.2 7.2 8.4 10.4 12.8a77 77 0 0 1 7.4 12 70.5 70.5 0 0 1 5.2 15c1.8 7.5 2.6 15.3 3.5 23.2l2 15.7c.3 2.3.6 4.6.7 6.8a.4.4 0 0 1-.4.5.4.4 0 0 1-.5-.4Z" class="cls-13" data-name="Path 340" transform="translate(29.5 6.6)"/><path id="Path_341" d="M45.2 99.7v-.3a47.2 47.2 0 0 0-.4-5c-.4-4.1-1-8.2-1.7-12.2a63.8 63.8 0 0 0-2-7.8 51.6 51.6 0 0 0-5.2-11 153.3 153.3 0 0 0-10.1-13.9c-2.4-3-4.8-6-7-9.3A149 149 0 0 1 8.2 21 179 179 0 0 1 0 .5.4.4 0 0 1 .2 0a.4.4 0 0 1 .5.3 184.4 184.4 0 0 0 8.4 20.1 149.6 149.6 0 0 0 11 19c2.3 3.4 4.8 6.6 7.3 9.9 2.6 3.2 5 6.5 7.4 10A56.7 56.7 0 0 1 42.3 74a64 64 0 0 1 2 8c.7 4 1 8.2 1.4 12.2l.5 4.6a3.6 3.6 0 0 1-.1 1.2.6.6 0 0 1-.4.4.5.5 0 0 1-.5-.3.4.4 0 0 1 0-.4Zm0 0 .2-.1a.8.8 0 0 0-.1 0v.2a.4.4 0 0 0 0-.1Z" class="cls-13" data-name="Path 341" transform="translate(32.3 24.2)"/><path id="Path_342" d="M9 207.6a7 7 0 0 0 .2-3.3c-.5-2.8-1.6-6-1.8-8a91.7 91.7 0 0 1-.2-12.3 112 112 0 0 1 1.2-12.2c2.6-16.5 8.7-32.1 12.2-48.3a100 100 0 0 0 2.5-21 143.7 143.7 0 0 0-3.6-31A424.8 424.8 0 0 0 9.8 36 440.4 440.4 0 0 1 0 .5.4.4 0 0 1 .3 0a.4.4 0 0 1 .5.3C3.5 12.1 7.2 23.8 11 35.7c3.7 11.7 7.4 23.5 10 35.4a144 144 0 0 1 3.6 31.4 101.5 101.5 0 0 1-2.6 21.3c-3.5 16.1-9.8 31.7-12.4 48.2a109 109 0 0 0-1.3 12 92 92 0 0 0 0 12.2c.2 2 1.4 5.3 1.8 8a7.8 7.8 0 0 1-.2 3.7.5.5 0 0 1-.6.3.4.4 0 0 1-.3-.6Z" class="cls-13" data-name="Path 342" transform="translate(128.6 21)"/><path id="Path_343" d="M9 204.1a.4.4 0 0 1 .3.5.4.4 0 0 1-.6.3.6.6 0 0 1-.4-.3 2.6 2.6 0 0 1-.2-.9l-.3-3.8-.7-8.7c-.1-1.9-.2-3.8-.1-5.8a47.6 47.6 0 0 1 1-7.9c.7-3.8 1.9-7.7 2.8-11.5 2.6-10 5.8-20 8.5-30a202 202 0 0 0 2.9-13 90.4 90.4 0 0 0 1-22.5 149.3 149.3 0 0 0-2.1-16.7c-1-5.6-2.3-11.1-3.6-16.7-2-9-4.3-17.8-6.6-26.7C7.4 27.1 3.6 13.8 0 .5A.4.4 0 0 1 .3 0a.4.4 0 0 1 .5.3c3.8 13.3 7.7 26.5 11.3 39.8a853.2 853.2 0 0 1 10.5 43.4 147.8 147.8 0 0 1 2.2 17 91.3 91.3 0 0 1-1.2 22.7c-.8 4.4-1.8 8.8-3 13-2.7 10.1-6 20-8.6 30.1l-3 11.4a47 47 0 0 0-1 7.8l.1 5.7.7 8.6A26.8 26.8 0 0 0 9 204v.1Z" class="cls-13" data-name="Path 343" transform="translate(123.4 16)"/><path id="Path_344" d="M1.8 168.6a46 46 0 0 1 2-11.4c1.7-5.5 4-11 5.8-16.2a136.3 136.3 0 0 0 4-14.1c1-4.8 1.8-9.6 2.4-14.4a165.3 165.3 0 0 0 .9-27.2 282.5 282.5 0 0 0-6.4-45.1C7.5 26.9 3.8 13.6 0 .6A.4.4 0 0 1 .3 0a.4.4 0 0 1 .5.3c4 13 7.9 26.2 11 39.7 2 9 3.8 18 5 27 .8 6 1.4 12.1 1.6 18.2a163.8 163.8 0 0 1-1 27.5 144.6 144.6 0 0 1-2.6 14.4 130.4 130.4 0 0 1-4 14.2c-2 5.3-4.3 10.7-6 16.2a45 45 0 0 0-2 11.1.4.4 0 0 1-.5.4.4.4 0 0 1-.5-.4Z" class="cls-13" data-name="Path 344" transform="translate(122.3 31)"/><path id="Path_345" d="M0 121a2.7 2.7 0 0 1 .4-1.4c.4-.9 1.2-1.9 1.4-2.3a115.2 115.2 0 0 0 3.4-8.3 182 182 0 0 0 5-14.2 128.9 128.9 0 0 0 3.4-14.6A123.3 123.3 0 0 0 15.3 56 155.6 155.6 0 0 0 14 40a186.5 186.5 0 0 0-3.7-20A239 239 0 0 0 4.6.5a.4.4 0 0 1 .3-.5.4.4 0 0 1 .5.3c2.3 6.4 4.3 12.9 6 19.5a176.7 176.7 0 0 1 4 20A141.4 141.4 0 0 1 16.9 56 122 122 0 0 1 15 80.4a130.8 130.8 0 0 1-3.7 14.7 180 180 0 0 1-8.6 22.6L1.2 120a2 2 0 0 0-.3.8.4.4 0 0 1-.4.5.4.4 0 0 1-.5-.4Z" class="cls-13" data-name="Path 345" transform="translate(116.4 67.4)"/><path id="Path_346" d="M0 78.1a111.6 111.6 0 0 0 7.5-22.5 146 146 0 0 0 2.6-15.7A184 184 0 0 0 9.9.4a.4.4 0 0 1 .4-.4.4.4 0 0 1 .5.4c.5 3.8 1 7.8 1.3 11.8q.4 6 .4 12c0 2.6 0 5.3-.2 8l-.7 8a135 135 0 0 1-2.8 15.6 110.8 110.8 0 0 1-8 22.7.5.5 0 0 1-.5.2.4.4 0 0 1-.3-.6Z" class="cls-13" data-name="Path 346" transform="translate(113.8 102.7)"/><path id="Path_347" d="M.9 57.9a.4.4 0 0 1-.4.5.4.4 0 0 1-.5-.4 2.5 2.5 0 0 1 .3-1.2l1.8-3.6a83.4 83.4 0 0 0 3.8-13.6A114 114 0 0 0 8 20.1q.3-4.9.3-9.8V.4a.4.4 0 0 1 .4-.4.4.4 0 0 1 .4.4A266.5 266.5 0 0 1 9.4 24c-.1 2.2-.3 4.3-.6 6.4q-.5 4.7-1.6 9.4a93.8 93.8 0 0 1-4.1 13.7l-1.7 3.1a9.8 9.8 0 0 0-.4 1l-.1.2Zm0 0Z" class="cls-13" data-name="Path 347" transform="translate(110.3 116.5)"/><path id="Path_348" d="m.3 154.6.2-1.3 1-3.6 1.5-5.6 1.9-5.6 6.8-19.5 4.5-13c2.3-6.8 4.6-13.7 6.4-20.7a90.2 90.2 0 0 0 2.5-14.1 118.6 118.6 0 0 0-1-28.6C22 28.3 18 14.2 14.3.6a.4.4 0 0 1 .3-.6.4.4 0 0 1 .5.3c3.9 13.7 8 27.8 10.2 42.1A133.8 133.8 0 0 1 27 59.7a100 100 0 0 1-.4 11.6A91.3 91.3 0 0 1 24 85.6c-1.8 7-4.3 14-6.6 20.8l-4.6 13-7 19.4-1.9 5.5-1.7 5.6-.9 3.6-.2 1.4a1.2 1.2 0 0 1-.3.5.5.5 0 0 1-.4.1.6.6 0 0 1-.5-.3.4.4 0 0 1 .3-.6Zm.6.2Z" class="cls-13" data-name="Path 348" transform="translate(164.2 107.8)"/><path id="Path_349" d="M1.5 134.3c-.8 1.8-1.3 2.3-1.4 2-.2 0-.1-.7.5-2.2l.7-1.8 1-3.2 2.1-6.9a102 102 0 0 1 3-8.6c2.8-7.6 5.9-15 8.4-22.7a137 137 0 0 0 5.5-22.2q.9-5.7 1.4-11.4.4-5.7.5-11.4A176.9 176.9 0 0 0 22 23.1 204.9 204.9 0 0 0 18.2.5a.4.4 0 0 1 .8-.2A202 202 0 0 1 23.2 23a170.7 170.7 0 0 1 1.5 23 157 157 0 0 1-1.9 23 136.8 136.8 0 0 1-5.6 22.4L15 97c-2.9 7.6-6 15-8.7 22.6l-1 3-2.2 6.8-1 3.2-.7 1.7Z" class="cls-13" data-name="Path 349" transform="translate(159.3 119.8)"/><path id="Path_350" d="M0 124.9a3.4 3.4 0 0 1 .3-1.4l1.3-2.7 1-2.5 2-6c3-8.7 6.9-17 10.2-25.6a161 161 0 0 0 3.9-11.1 108.8 108.8 0 0 0 4-18.5 132.2 132.2 0 0 0 1-19 170.2 170.2 0 0 0-1.4-18.9A174 174 0 0 0 19.1.5a.4.4 0 0 1 .3-.5.4.4 0 0 1 .5.3 201 201 0 0 1 3.6 18.8 162.4 162.4 0 0 1 1.6 19 125.9 125.9 0 0 1-.9 19.2 107.1 107.1 0 0 1-4 18.7c-1.3 3.8-2.6 7.5-4.1 11.1-3.4 8.6-7.3 16.9-10.5 25.5l-2.1 6-1 2.6c-.2.5-1 1.6-1.3 2.6a2.3 2.3 0 0 0-.3 1 .5.5 0 0 1-.4.5.5.5 0 0 1-.5-.4Z" class="cls-13" data-name="Path 350" transform="translate(155.2 121.9)"/><path id="Path_351" d="M.1 96.5a22.9 22.9 0 0 0 3.2-5.6c2-4.7 3.4-10.4 5-14.4a157.4 157.4 0 0 0 6.5-22.3q1.6-7.6 2.5-15.2t1.4-15.4A225.2 225.2 0 0 0 18.5.4a.4.4 0 0 1 .4-.4.4.4 0 0 1 .4.4 213.8 213.8 0 0 1 .7 23.3c0 5.2-.5 10.3-1 15.5a153 153 0 0 1-2.7 15.3A154 154 0 0 1 9.4 77c-1.6 4-3 9.7-5.1 14.4A23.3 23.3 0 0 1 .8 97a.5.5 0 0 1-.6 0 .4.4 0 0 1 0-.5Z" class="cls-13" data-name="Path 351" transform="translate(153 141)"/><path id="Path_352" d="m.4 69.8.2-.5.4-.6.4-1L2.8 65a63 63 0 0 0 3-8c1.1-3.1 2-6.3 2.9-9.4a275 275 0 0 0 7-35.2c.3-4 .6-8 .6-11.9a.4.4 0 0 1 .5-.4.4.4 0 0 1 .4.4q0 6-.4 12a147 147 0 0 1-3.2 21.4 237 237 0 0 1-6 21.9 105.8 105.8 0 0 1-5.8 13.5 6.7 6.7 0 0 1-.4.6l-.5.8a.7.7 0 0 1-.3.2.5.5 0 0 1-.3 0 .5.5 0 0 1-.3-.4.4.4 0 0 1 .3-.5h.1Zm.5.3ZM.4 70c0 .1-.1.2-.2.1h.2Z" class="cls-13" data-name="Path 352" transform="translate(150 160.6)"/><path id="Path_353" d="M126.6 74.2a1.5 1.5 0 0 1-1 0 8 8 0 0 1-1.7-.6c-2-1-4.3-2.6-5-3a168.9 168.9 0 0 0-22.4-9.4A369.9 369.9 0 0 1 55 44a214 214 0 0 1-15.6-8.8 169.3 169.3 0 0 1-21.6-15.8c-2.6-2.3-5-4.8-7.4-7.2L0 .7a.4.4 0 0 1 0-.6.4.4 0 0 1 .6 0l10.5 11.4a101.3 101.3 0 0 0 7.4 7A171.9 171.9 0 0 0 40.2 34a232.6 232.6 0 0 0 31.6 16.3c8.3 3.6 16.7 6.8 25 9.8 4 1.4 7.8 2.8 11.5 4.5q5.6 2.4 11.1 5.3c.6.3 3 2 4.9 3a7 7 0 0 0 1.5.6.7.7 0 0 0 .4 0 .5.5 0 0 1 .6.2.4.4 0 0 1-.2.5Z" class="cls-13" data-name="Path 353" transform="translate(29.8 186.2)"/><path id="Path_354" d="M130.5 81.4a13.5 13.5 0 0 1-3.3-1.1c-2.4-1.1-4.8-2.8-7-3.7-2.5-1.2-5-2.3-7.7-3.3l-11.7-4.6c-2.7-1.1-5.4-2.3-8-3.6l-18-8.9a420.3 420.3 0 0 1-33.1-16.5 141.5 141.5 0 0 1-20.2-14 55.6 55.6 0 0 1-7-7C9.6 12.6 5.5 6.1.1.6a.4.4 0 0 1 0-.6.4.4 0 0 1 .6 0c5.5 5.5 9.7 12 14.7 17.8a58.4 58.4 0 0 0 7 7 144.2 144.2 0 0 0 20 13.6A286 286 0 0 0 58.7 47l16.7 8c6 2.8 12 6 18 9 2.6 1.3 5.2 2.5 7.9 3.6l11.6 4.7 7.8 3.4c2 1 4.5 2.6 7 3.8a12.6 12.6 0 0 0 3 1 .4.4 0 1 1-.2 1Z" class="cls-13" data-name="Path 354" transform="translate(29.7 187.5)"/><path id="Path_355" d="m127.8 81.3-.3-.2a14.7 14.7 0 0 1-2-.1l-2.3-.9L118 78l-19.5-7.5A219.2 219.2 0 0 1 69 57c-8.1-4.5-16-9.4-23.9-14.1-6-3.7-12-7.4-17.7-11.5a93 93 0 0 1-10.8-9 78 78 0 0 1-7.2-8.2C6 9.7 2.9 4.9 0 .6A.4.4 0 0 1 .2.1a.4.4 0 0 1 .6 0c2.9 4.4 6 9 9.4 13.3a79.6 79.6 0 0 0 7.2 8.1 93.1 93.1 0 0 0 10.8 8.8C34 34.3 40 37.9 46 41.5c7.8 4.8 15.7 9.6 23.7 14.2A228.7 228.7 0 0 0 99 69.5l19.4 7.6 5.2 2.2 2.2.8a4.3 4.3 0 0 0 1.2.1 2.8 2.8 0 0 1 1 .2 1 1 0 0 1 .6.7.4.4 0 0 1-.3.5.5.5 0 0 1-.5-.3Z" class="cls-13" data-name="Path 355" transform="translate(36.3 194.1)"/><path id="Path_356" d="M131.6 90.1h-.1l-1.3-.5-2.2-1.1-1.5-.7a300.4 300.4 0 0 0-11.1-4.9c-7-2.8-13.9-5.6-20.6-8.6-4.5-2-9-4.2-13.4-6.5-6.7-3.6-13.7-7-20.7-10.6C56 55 51.5 52.4 47 49.8a114 114 0 0 1-20.8-15.2c-3-2.7-5.8-5.5-8.4-8.5a71 71 0 0 1-5-6.3c-3-4.5-5.6-9.2-8.6-13.7A51.2 51.2 0 0 0 .1.7a.4.4 0 0 1 0-.6.4.4 0 0 1 .6 0A51.7 51.7 0 0 1 5 5.6c3 4.4 5.6 9.1 8.8 13.5a68.2 68.2 0 0 0 5 6.2c2.6 3 5.4 5.7 8.3 8.4a113.4 113.4 0 0 0 20.7 14.8c4.5 2.6 9 5 13.6 7.4 7 3.6 14 7 20.7 10.7a270.6 270.6 0 0 0 33.7 15.3l4.5 2 6.6 3 1.5.8 2.3 1.1c.2.2.9.4 1.3.5a1.4 1.4 0 0 1 .4.3.5.5 0 0 1 .2.4.5.5 0 0 1-.5.4.5.5 0 0 1-.5-.3Zm.2 0v.1Z" class="cls-13" data-name="Path 356" transform="translate(36.7 193.6)"/><path id="Path_357" d="M66.4 29.4a40.5 40.5 0 0 0-4.8-2.8c-3.9-2-8-3.5-11.9-5.3C45 19 40 17 35.1 14.8L28 12c-2.3-1-4.6-2-7-2.8L10.8 5 .3.8A.4.4 0 0 1 0 .2.4.4 0 0 1 .6 0l15 5.6L24.8 9l6 2.4c2.7 1 5.3 2.2 8 3.4l11.6 5.4c3.3 1.6 6.8 3 10.1 4.7a45.8 45.8 0 0 1 6.5 3.8.4.4 0 0 1 .1.6.5.5 0 0 1-.6.1Z" class="cls-13" data-name="Path 357" transform="translate(108.3 263.3)"/><path id="Path_358" d="M149 86a.5.5 0 0 1 .2 0 .4.4 0 0 1 .2.6.7.7 0 0 1-.4.3.6.6 0 0 1-.4-.1 1.1 1.1 0 0 1-.4-.6l-.4-1.4-1.1-2a55 55 0 0 0-3.8-5.8l-4.4-5.6a126.2 126.2 0 0 0-13.3-14.2 72 72 0 0 0-16-11.2 103.8 103.8 0 0 0-14.8-6c-7.7-2.4-15.6-4.3-23.3-6.5-4.9-1.4-9.6-3-14.4-4.6-7-2.5-14-5.2-21-8-4-1.5-8-2.7-11.9-4.2l-5-2.1a39.7 39.7 0 0 1-6-3.7C8.4 7.8 4.7 4 .2.7A.4.4 0 0 1 0 .2.4.4 0 0 1 .7 0C5.2 3.3 9 7 13.4 10a39.6 39.6 0 0 0 6 3.6l4.8 2c4 1.5 8 2.6 12 4.1 7 2.7 14 5.4 21 7.8a241 241 0 0 0 14.4 4.6c7.7 2.2 15.6 4.1 23.2 6.6a104 104 0 0 1 15 6A72.8 72.8 0 0 1 126 56.3a126 126 0 0 1 13.3 14.5l4.4 5.6a55 55 0 0 1 3.8 6l1 2 .5 1.5Z" class="cls-13" data-name="Path 358" transform="translate(38.2 253.4)"/><path id="Path_359" d="M153.8 97.4a28.4 28.4 0 0 0-3.3-6.6c-2-3.2-4.6-6.3-6.7-9a117 117 0 0 0-20.5-21.6 88.5 88.5 0 0 0-26-14.8c-10.7-3.8-22-5.2-32.8-8.3a55 55 0 0 1-8.1-2.7 160.2 160.2 0 0 1-23.7-11.7C21.5 16 11 8.3.2.7A.4.4 0 0 1 0 .2.4.4 0 0 1 .7 0C11.4 7.5 22 15 33.4 21.7A161.6 161.6 0 0 0 57 33c2.6 1 5.3 1.8 8 2.6 10.9 3 22.2 4.6 32.9 8.3a89.4 89.4 0 0 1 26.4 15.2 117 117 0 0 1 20.5 22c2 2.8 4.5 5.9 6.6 9.2a29 29 0 0 1 3.4 6.8.4.4 0 0 1-.3.5.4.4 0 0 1-.6-.3Z" class="cls-13" data-name="Path 359" transform="translate(36 255)"/><path id="Path_360" d="M150.7 106.2a98.2 98.2 0 0 0-27.4-35.5A136.9 136.9 0 0 0 83.7 48c-4.8-1.8-9.8-3.2-14.7-4.5-5-1.3-10-2.6-15-4.1a88.2 88.2 0 0 1-12.5-4.9A70 70 0 0 1 28 25.6C18.3 17.7 10.2 8 .2.7A.4.4 0 0 1 0 .2.4.4 0 0 1 .7 0c10 7.3 18.3 16.8 28 24.5a69 69 0 0 0 13.5 8.6A88 88 0 0 0 54.4 38c5 1.5 10 2.7 15 4a149.9 149.9 0 0 1 14.9 4.6A137.7 137.7 0 0 1 124 69.8a99 99 0 0 1 27.5 36.1.4.4 0 0 1-.3.6.5.5 0 0 1-.6-.3Z" class="cls-13" data-name="Path 360" transform="translate(41.5 255.5)"/><path id="Path_361" d="m153.5 117.5.2.2a.4.4 0 0 1 0 .2.5.5 0 0 1-.1.3.4.4 0 0 1-.6.1.4.4 0 0 1-.2-.2l-.2-.7-.6-1.4-.8-1.9-.9-1.9a112.4 112.4 0 0 0-7-12 81.5 81.5 0 0 0-13.4-15.4 101.7 101.7 0 0 0-16.8-12 279 279 0 0 0-13.2-7.3c-3-1.6-6-3-9.2-4.2-10-4-20.4-7.2-30.4-11.2A117.9 117.9 0 0 1 41 40.3a83.3 83.3 0 0 1-13.4-10.9C18.1 20.1 10.1 9.3.1.7a.4.4 0 0 1 0-.6.4.4 0 0 1 .6 0c10 8.5 18.2 19.3 27.8 28.4a82.2 82.2 0 0 0 13.2 10.7A121 121 0 0 0 61 48.7c10 4 20.3 7.3 30.4 11.3a107 107 0 0 1 9.3 4.2c4.5 2.3 8.9 4.9 13.2 7.5a102.9 102.9 0 0 1 17 12.2 82 82 0 0 1 13.4 15.7 99.7 99.7 0 0 1 7 12.3l.8 1.9.9 1.9.5 1.3a2.7 2.7 0 0 1 .1.5Zm-.7.3Zm.7-.2a.5.5 0 0 1 .2.1l-.2-.1Z" class="cls-13" data-name="Path 361" transform="translate(39.9 253)"/><path id="Path_362" d="m140 110-4.9-7.4a30.6 30.6 0 0 0-2.2-3 91.5 91.5 0 0 0-11.1-10.5 116.4 116.4 0 0 0-12.6-9C99.5 74.2 89 70 78.5 65.5c-7-2.9-14-5.8-20.9-9.1a128.6 128.6 0 0 1-12.4-7 83 83 0 0 1-15.4-13C19.3 25 10.8 11.5.1.6a.4.4 0 0 1 0-.6.4.4 0 0 1 .6 0C11.5 11 20.2 24.3 31 35.4a82.3 82.3 0 0 0 15 12.8A129 129 0 0 0 58.3 55c6.8 3.4 13.8 6.3 20.8 9.2 10.6 4.4 21.1 8.9 30.8 15a118.3 118.3 0 0 1 12.6 9 94 94 0 0 1 11.2 10.9 34.1 34.1 0 0 1 2.3 3c1.6 2.4 3 5 4.8 7.3a.4.4 0 0 1-.1.6.5.5 0 0 1-.6 0Z" class="cls-13" data-name="Path 362" transform="translate(40.8 253)"/><path id="Path_363" d="M74.6 66.4a26.3 26.3 0 0 0-6.9-5.3 132.1 132.1 0 0 0-12.2-5.3c-3.9-1.6-7.8-3.5-11.5-5.5a108.7 108.7 0 0 1-10.8-6.7 46.4 46.4 0 0 1-7.5-6.8 127.4 127.4 0 0 1-9-12l-10-14.4C4.3 7.2 2.1 3.9 0 .6a.4.4 0 0 1 0-.5.4.4 0 0 1 .7 0c1.6 2.5 3.3 5 5 7.3l12 16.7a127.5 127.5 0 0 0 9 11.7 44.5 44.5 0 0 0 7.3 6.6 109.4 109.4 0 0 0 10.6 6.7A123.1 123.1 0 0 0 56 54.7a131.6 131.6 0 0 1 12.2 5.6 27.4 27.4 0 0 1 7 5.5.4.4 0 0 1 0 .6.5.5 0 0 1-.6 0Z" class="cls-13" data-name="Path 363" transform="translate(46.5 261.8)"/><path id="Path_364" d="M119 71.3a17 17 0 0 0-3.3-4.8c-2.1-2.3-4.7-4.4-6.6-6.3-3-3-6-6.5-9.2-9.6a40.6 40.6 0 0 0-6.9-5.4 52.9 52.9 0 0 0-8.5-4c-7-2.7-14.6-4.5-21.4-7.2-3-1.2-6-2.6-8.8-4l-13-6.7c-3.7-2-7.5-3.6-11.4-5.4a92 92 0 0 1-9.9-5.4C13.4 8.7 7 4.5.2.7A.4.4 0 0 1 .1.2.4.4 0 0 1 .6.1c6.8 3.6 13.3 7.6 20 11.4a233.6 233.6 0 0 0 10 5.2C34.3 18.5 38.2 20 42 22c4.3 2.2 8.5 4.5 12.9 6.6a131 131 0 0 0 8.7 4c6.8 2.7 14.3 4.6 21.3 7.3a54.8 54.8 0 0 1 8.7 4.3 41 41 0 0 1 7 5.6c3.3 3.1 6.3 6.6 9.2 9.7 2.2 2.2 5.3 4.8 7.6 7.5a15.3 15.3 0 0 1 2.4 4 .4.4 0 0 1-.3.5.5.5 0 0 1-.5-.2Z" class="cls-13" data-name="Path 364" transform="translate(74 327.2)"/><path id="Path_365" d="M124.7 81.5a4.4 4.4 0 0 0-1.2-1.7l-2.4-2.2-4.6-4.4-4.8-4.4c-3.6-3.3-7.3-7-11.2-10.4a52.4 52.4 0 0 0-8.2-6 43.9 43.9 0 0 0-5.8-2.6c-3-1.2-6-2-9.1-3A190.3 190.3 0 0 1 59 39.4a191 191 0 0 1-20.4-10.7 219 219 0 0 1-19.1-12.8C14.2 12 9.2 7.8 4 3.7l-4-3a.4.4 0 0 1 0-.5.4.4 0 0 1 .6-.1l4 3C9.8 7 14.8 11.1 20.1 15c6 4.4 12.5 8.6 19.1 12.6a192.5 192.5 0 0 0 20.4 10.5 237.9 237.9 0 0 0 18.2 7.2l9.2 3.1a43.2 43.2 0 0 1 5.9 2.8 52.8 52.8 0 0 1 8.3 6.2c4 3.4 7.6 7.1 11.2 10.5a334.6 334.6 0 0 1 9.3 9c.7.7 2 1.6 2.8 2.7a4.4 4.4 0 0 1 1 1.5.4.4 0 0 1-.4.5.5.5 0 0 1-.5-.3Z" class="cls-13" data-name="Path 365" transform="translate(71 323.7)"/><path id="Path_366" d="M121 84.3a1.8 1.8 0 0 1-.6-.5l-1.5-1.8a97.3 97.3 0 0 0-5.6-5.1c-4.2-3.7-8.5-7.4-13-10.9a98.1 98.1 0 0 0-9.3-6.4 62.8 62.8 0 0 0-6.8-3.5c-9.5-4.1-19.8-6.6-28.9-11.6a156.2 156.2 0 0 1-23.5-15.8A450 450 0 0 1 0 .7a.4.4 0 0 1 0-.6.4.4 0 0 1 .6 0c10.3 9.5 20.8 19 32 27.5A212.7 212.7 0 0 0 56 43.2c9 5 19.3 7.5 28.6 11.7a65 65 0 0 1 7 3.6 93 93 0 0 1 9.3 6.6c4.5 3.5 8.8 7.4 13 11l2.9 2.6 2.7 2.7 1.3 1.7.4.4a.4.4 0 0 1 .3.6.4.4 0 0 1-.6.2Z" class="cls-13" data-name="Path 366" transform="translate(72.6 324.9)"/><path id="Path_367" d="M124.8 97.8a3.2 3.2 0 0 1-1-.8l-1.6-2.1-4-4.5-1.7-1.8c-4-4.3-8-8.6-12.3-12.6a76 76 0 0 0-9.1-7.3 65.3 65.3 0 0 0-8.9-5c-7.3-3.5-15.3-6-23-9.1a83.3 83.3 0 0 1-14.8-7.5 116.3 116.3 0 0 1-15.7-12.7c-5.7-5.4-11-11.2-16.2-17A273 273 0 0 0 0 .7a.4.4 0 0 1 0-.6.4.4 0 0 1 .6 0 267 267 0 0 1 16.6 16.6C22.7 22.3 28 28 33.7 33.4a115 115 0 0 0 15.6 12.5 94 94 0 0 0 18.4 8.8c6.4 2.5 13 4.8 19.1 7.8a67.4 67.4 0 0 1 9 5.2 78.6 78.6 0 0 1 9.2 7.5c4.3 4 8.2 8.4 12.2 12.7a89 89 0 0 1 1.8 1.9l4 4.5 1.5 2.1a2 2 0 0 0 .6.6.4.4 0 0 1 .3.6.5.5 0 0 1-.6.2Z" class="cls-13" data-name="Path 367" transform="translate(70.6 322)"/></g><path id="Path_369" d="m90.5 363.5 2.2-10.8c.6-4 1-7.9 1.3-11.9l.9-18c.5-12.3 1.5-24.7 2-37.1a274 274 0 0 0-1.1-31.2c-1-8-2.3-16-3.3-23.8-1.3-9.3-2-18.7-3.4-28a137 137 0 0 0-2.1-11.5A195 195 0 0 0 76.6 160 278.4 278.4 0 0 0 62 130.1C48.7 106.3 31 82.8 18 58A149.9 149.9 0 0 1 0 3.6 3.2 3.2 0 0 1 3 0a3.3 3.3 0 0 1 3.6 2.8c2.7 18 10.2 34.8 19.5 50.8 14.1 24.5 32.4 47.4 46.4 70.9a269.5 269.5 0 0 1 15.7 31 196.3 196.3 0 0 1 10.6 33.2c1 4.1 1.6 8.3 2.2 12.5 1.2 9.3 1.7 18.8 2.7 28.2 1 8 2 16 2.7 24a171.3 171.3 0 0 1 .2 32.7c-.8 12.4-2.3 24.8-3.1 37.2l-1.6 18.2c-.5 4.1-1 8.2-1.8 12.3L97.5 365a3.6 3.6 0 0 1-4.4 2.6 3.4 3.4 0 0 1-2.6-4.2Z" class="cls-10" data-name="Path 369" transform="rotate(-45 602.4 14.1)"/></g><g id="Group_32" data-name="Group 32" transform="translate(122.3 20)"><g id="No_Dodos__Blad_2" data-name="No Dodos [_Blad 2" transform="rotate(20 59.7 338.8)"><path id="Path_460" fill="#a693f1" fill-rule="evenodd" d="M213.8 7.6c-.7-.1-2-1.1-2.8-1.3l-6.2-1.6C198.4 2.9 192 1 185.3.3c-14-1.6-28 3.7-41.8 5.2-4.5.4-8.9 1.2-13.3 1.3-1.6 0-5.3-.7-6.7-.1-.6.2 1.1 0 1.7 0a37.4 37.4 0 0 1 4 .4c3.9.6 7.7 1.9 11.5 2.6 6.6 1.2 13.2 1.7 19.7 3.2 5 1.1 9.6 3.2 14.6 3.9 6.5 1 13.2 1 19.6-.8 2.7-.8 8.7-4.4 11.6-3.3l3.3-2.2a11.7 11.7 0 0 0-.4 1.3c-.3 1.3-.5 2.7-.6 4a67.4 67.4 0 0 0-.3 12.9c.8 8.7 6.6 16 9 24.2a48.5 48.5 0 0 1 1.8 9v1c-.1 1.1-.3 2.6.2 3.2.2.4 0-1 0-1.5l-.1-1.7.2-1.6c.5-4.3 1.7-8.5 2.2-12.8 1-8.8 3.2-17.6 1.6-26.5a36.3 36.3 0 0 0-2.6-9c-1.1-2.3-3.1-4.6-3.2-7.3l-3.1 1.7a.6.6 0 0 0 0-.2l-.5.4Zm0 0-.5.3.6-.3Zm-21 20.8c0-.3-.5.6-.7.9l-1.2 1.9a19.3 19.3 0 0 0-2.2 6 66.3 66.3 0 0 0-.7 19.6c1.2 10.7 5.5 19.8 9.4 29.6 3.4 8.3 6.2 16.8 9 25.3l4.6 13c.1.4 1 4.3 1.5 4.4a6.3 6.3 0 0 0 0-1v-2l.5-6.8c.7-6.8 2-13.5 2.5-20.2 1.2-15.3-7.3-28.5-11.2-42.8a80.4 80.4 0 0 1-3-23.7c.2-2.4 1.3-4.8 1.7-7.2.4-2.4.1-5 .4-7.6l-10.6 10.6Zm-152.5 38h1.4l3.5-.2a44 44 0 0 0 9.6-1.9C64 61.4 72 55.8 81 53c27.4-8.6 56.6 7.2 83.7-3.9 5.6-2.2 11.2-4.4 15.3-9l4.8-5.7-1.7-.5-3.9-1.2a99.3 99.3 0 0 0-11.5-2.3 186 186 0 0 0-35-2c-13.8.1-29-1.5-42.4 2.3-20 5.6-35.7 21.6-50.1 35.7-.3 0-.5.1-.3.3l.3-.3Zm122-1.4c.4-.1-.5.7-.7 1l-1.2 2a51.2 51.2 0 0 0-3.2 7.2 52.5 52.5 0 0 0-2.9 24.3c1.2 9.2 5.8 17.7 9.8 26 4.9 10 9.6 20 15 29.9 3 5.7 7 11.8 9.2 18a53.4 53.4 0 0 1 1.8 7l.4 2.2c0 .4 0 1.6.2 1.2 1.3-4 .6-9 1.8-13.2 3.1-11 10-21.4 8-33.5a68 68 0 0 0-8-19.8c-5.1-9.7-10.8-19.3-15.2-29.3a51 51 0 0 1-3.9-26.6c.2-2.7 1-5.3 1.4-8 0-.3.5-2.2.3-2.5-.4-.3-2.7 2.2-3 2.4-3.1 3-5.9 7.2-8.3 10.7l-1.5 1Zm-5.9 4.4c-.1.1-6-1.4-6.4-1.4a89.4 89.4 0 0 0-14.1-.4 103.1 103.1 0 0 0-40.7 9C74 85.8 56.4 99.4 37 111.6c-11.7 7.3-22.7 15.2-37 15.9 1.6.7 5 .3 6.8.3 5.9-.2 11.7-1.2 17.7-1.2 16 0 32.7-.9 48-6.4 16.7-6 31.3-16.7 46.6-25.5a54.9 54.9 0 0 1 11.8-5.6c5-1.4 10.2-1.8 14.4-5 3.2-2.6 4.6-6.4 6.6-9.7l4.5-5Zm2.7 152.2a6.7 6.7 0 0 0-.3 3.7c.3 1 .3-2 .3-3v-.7l1.9-5.5a128 128 0 0 0 4.9-23.7c1-13.5-4.2-25.5-7.5-38.3-2.4-9-2.7-18.2-4.9-27.2-1.7-7.3-5-14.5-6.3-21.8-.4-2.7-.7-5.4-1.2-8l-.4-2.7c0-.5.2-1.7-.2-1.4-.9.7-1.5 4-2 5.1-2.1 4.7-4.2 9.4-6 14.2l-2.4 2.1c-.8-.7-.4 2.3-.5 3.4a60.3 60.3 0 0 0-.3 6.3 61.8 61.8 0 0 0 3.8 19.3c6.8 19 15.2 36.5 18.7 56.5a145.7 145.7 0 0 1 2.2 16.6l.2 5Zm-16-126.8c-.5.8-2 2.8-2 3a82.7 82.7 0 0 1-9 8.7c-6.1 5.6-12.7 11.1-20.1 15s-15.7 6.1-23.5 9.3c-5.7 2.4-11.5 4.7-16.6 8.2A88.1 88.1 0 0 0 48 165.3c-4.7 7.6-7.6 16.2-12 24-2 3.3-4.7 6-7.2 9 .3.1 1.7-1.2 1.9-1.3l5.6-4.3a192.5 192.5 0 0 1 22.5-15c8.7-4.8 17.5-9.7 26.4-14.1 14.4-7.1 31-14.8 40.8-28.3 3.4-4.7 4.8-10.3 6.6-15.7 2-6 4.5-11.8 6.7-17.6l3.8-7.2.2-.3-.2.3Zm-15.7 50.8-1.1 2.1a39 39 0 0 1-7.9 9.4c-11.2 10.4-25.5 17.1-39 24.2-22 11.5-36.5 33.4-47.8 55-4.4 8.5-7.7 17.5-12.4 25.8.4.1 1.8-1 2-1.2A64 64 0 0 0 28 255c8.4-7.8 16.3-16.1 24.7-24A73 73 0 0 1 72 218.4c10.4-4.8 22.4-8.7 30.8-16.9 4.1-4 6.5-9 9.1-13.9a171 171 0 0 0 9.8-20.6c-2 7.2-2.8 15.8-6.3 22.2l-.7 1.8c-.2 0-1.3 6.2-1.3 6.5-1.6 7-3 14-3.2 21.1-.2 9.5 2.5 18.9 4.3 28.1 1.5 8.3 2.2 16.6 3.3 25a53.3 53.3 0 0 1-2.1 29.8c2.2-1.3 2.8-4 3.8-6.9 2.2-5.6 4.5-11.3 6.3-17 4.4-13.9 5.4-28.2 7.6-42.4 1.1-6.7 3.4-13.1 4.3-19.9a60.6 60.6 0 0 0-1-20c-1.8-8.3-7.5-15-9.2-23.3a81.2 81.2 0 0 1-1.4-9.7l-1-5.3c-.1 0-.3.2-.4.5.2-1.5 0-3.2.8-4.5l1.8-7.3c.2-.6.4-1.2.2-1.2l-.2 1.2Zm-23.5 64c0-.2-2.1.5-2.3.6a46.5 46.5 0 0 0-7.6 3c-8.4 4.8-13 15.5-18.2 23.2-17.6 26.4-5.6 62.3-22.6 88.7.1.1 1.3-.9 1.4-1 1.6-1 3.1-2.2 4.6-3.4a49 49 0 0 0 16.7-20.5c8-19.1 13.2-39.3 19.9-59 2.2-6.4 6-12.1 8-18.6 2-6.4 2.7-13 4.7-19.3l-4.6 6.3Z" data-name="Path 460" transform="translate(0 24.2)"/><g id="Group_30" clip-path="url(#clip-path-5)" data-name="Group 30" transform="translate(0 24.2)"><path id="Path_461" d="M64.2.4a30.3 30.3 0 0 1-3.4 8 33.3 33.3 0 0 1-5.3 6.8c-2.7 2.7-6 4.8-9 7.3l-2 1.9a69.4 69.4 0 0 0-9 11.2 105.7 105.7 0 0 0-7 12.5 82.3 82.3 0 0 0-5 13.7A99.8 99.8 0 0 0 20.9 76c-.8 7.1-1.1 14.6-2.2 21.8a72.3 72.3 0 0 1-1.9 9.3 44.5 44.5 0 0 1-5.2 11.5C8.2 124 4.2 128.9.5 134a.3.3 0 0 1-.4-.4c3.5-5 7.5-10 10.7-15.4a44 44 0 0 0 5-11.2 72.1 72.1 0 0 0 1.8-9.2c1-7.2 1.3-14.7 2.1-21.8a100.2 100.2 0 0 1 2.8-14.5 81.8 81.8 0 0 1 5.1-13.9 103.6 103.6 0 0 1 7-12.6 69.2 69.2 0 0 1 9.2-11.2 37 37 0 0 1 2.2-2c3-2.4 6.2-4.5 9-7.2A32.9 32.9 0 0 0 60.2 8 30.2 30.2 0 0 0 63.6.2.3.3 0 0 1 64 0a.3.3 0 0 1 .2.4Z" class="cls-7" data-name="Path 461" transform="translate(47.2 198.3)"/><path id="Path_462" d="M40.5.6a9.5 9.5 0 0 0-.8.7l-3 3-6 4.3-2.4 2a66.5 66.5 0 0 0-7.4 8 101.7 101.7 0 0 0-6.3 9 45.5 45.5 0 0 0-2.6 4.7l-3.3 7.3L3 52.1.6 57.4a.3.3 0 0 1-.4.2.3.3 0 0 1-.2-.4 306 306 0 0 1 2.3-5.4l5.5-12.6c1-2.4 2-5 3.2-7.4a43 43 0 0 1 2.6-4.8 98 98 0 0 1 6.5-9 66 66 0 0 1 7.6-8 31.8 31.8 0 0 1 2.5-2l6-4.3 3-3 .8-.6a.3.3 0 0 1 .5 0 .3.3 0 0 1 0 .5Z" class="cls-7" data-name="Path 462" transform="translate(63.7 207.4)"/><path id="Path_463" d="M62 .5a14.7 14.7 0 0 1-1.8 2.7c-.9 1.3-2 2.5-3 3.7-2.9 3.6-6.1 7-9.2 10.5L45.8 20a101.3 101.3 0 0 0-9.5 14.1 140.2 140.2 0 0 0-7.4 15.3 46.5 46.5 0 0 0-3 12.3C25 68 25.2 74.5 24.6 81a67.2 67.2 0 0 1-2 11.3 66.9 66.9 0 0 1-3.7 10.7 37.9 37.9 0 0 1-6.4 9.4c-3.7 4.2-8 7.9-12 11.8a.3.3 0 0 1-.4 0 .3.3 0 0 1 0-.4c3.8-4 8.2-7.7 11.8-12a37 37 0 0 0 6.1-9.2A66.2 66.2 0 0 0 21.7 92a66.6 66.6 0 0 0 1.8-11c.6-6.5.5-13 1.2-19.3A47.1 47.1 0 0 1 28 49a138.3 138.3 0 0 1 7.5-15.4 100.6 100.6 0 0 1 9.7-14.1 89 89 0 0 1 2.3-2.7c3-3.5 6.3-6.8 9.3-10.4l3-3.6A14.9 14.9 0 0 0 61.4.2a.3.3 0 0 1 .4-.2.3.3 0 0 1 .1.5Z" class="cls-7" data-name="Path 463" transform="translate(46 209.6)"/><path id="Path_464" d="m48.1.6-3.3 3.9-7.5 9.4a166.4 166.4 0 0 0-10.8 14.2 55 55 0 0 0-5.3 10.5 58.5 58.5 0 0 0-2.8 10c-.7 4-1.2 8-1.7 12.1s-1 8.2-2 12.2A97.7 97.7 0 0 1 9 90.3a159.6 159.6 0 0 1-8.3 16.2.3.3 0 0 1-.4.2.3.3 0 0 1-.2-.5 158.7 158.7 0 0 0 8-16.2 96.6 96.6 0 0 0 5.6-17.2c.9-4 1.4-8 1.9-12.1.5-4 1-8.2 1.7-12.2a59.8 59.8 0 0 1 2.8-10.2 54.9 54.9 0 0 1 5.6-10.6 163.2 163.2 0 0 1 11-14.2L44.2 4 47.6.1a.3.3 0 0 1 .5 0 .3.3 0 0 1 0 .4Z" class="cls-7" data-name="Path 464" transform="translate(59.9 218.4)"/><path id="Path_465" d="M32 .7h-.2a35.6 35.6 0 0 0-2.6 3c-2 2.4-4 4.8-5.8 7.3a51.5 51.5 0 0 0-3.3 5.2 40 40 0 0 0-3.3 8.5 115.7 115.7 0 0 0-2.5 12.7l-1.6 8.5a115 115 0 0 1-5 15.9 139.2 139.2 0 0 1-7.1 15 .3.3 0 0 1-.4.1.3.3 0 0 1-.2-.4 144 144 0 0 0 6.8-15 115.2 115.2 0 0 0 4.8-15.8c.7-3 1.2-6 1.7-9.1.5-3 1-6.1 1.7-9.2a44 44 0 0 1 4.3-11.6 51.9 51.9 0 0 1 3.4-5.3 104 104 0 0 1 6-7.2c0-.2 1.4-1.8 2.2-2.7a2.8 2.8 0 0 1 .7-.6.4.4 0 0 1 .4 0 .3.3 0 0 1 .2.5.4.4 0 0 1-.3.2Zm-.2 0h.1Z" class="cls-7" data-name="Path 465" transform="translate(68 237.3)"/><path id="Path_466" d="M109.3.6a5.6 5.6 0 0 0-1.8 1.7c-1.3 1.7-2.5 4-3.5 5.2a72.9 72.9 0 0 1-6.6 6.6 88.7 88.7 0 0 1-7.3 5.8c-10.3 7.3-22 12.3-32.7 19a79 79 0 0 0-12.7 9.8 113.4 113.4 0 0 0-15.2 18.2c-5.2 7.7-9.9 15.8-14.5 23.9-4.6 8.1-9.3 16.3-14.4 23.8a.3.3 0 0 1-.5.1.3.3 0 0 1 0-.4c5-7.6 9.6-15.8 14.1-24 4.6-8.1 9.2-16.3 14.4-24a113.7 113.7 0 0 1 15.3-18.5 79.9 79.9 0 0 1 13-9.8c10.6-6.7 22.3-11.6 32.7-19a85.2 85.2 0 0 0 7.2-5.6 72.6 72.6 0 0 0 6.6-6.5c1-1.1 2.2-3.5 3.6-5.1a6.3 6.3 0 0 1 2-1.9.3.3 0 0 1 .5.2.3.3 0 0 1-.2.4Z" class="cls-7" data-name="Path 466" transform="translate(17.5 150.4)"/><path id="Path_467" d="M107.4.4a.3.3 0 0 1 .2-.4.3.3 0 0 1 .4.2.5.5 0 0 1 0 .4 2.1 2.1 0 0 1-.3.6c-.6.8-1.9 2-2 2.1l-4.4 5-3 3a37.1 37.1 0 0 1-4.9 3.7l-7.7 4.6c-6.9 4-14 7.4-20.8 11.4-3 1.6-5.8 3.4-8.6 5.3a71.5 71.5 0 0 0-12.8 11.3 118 118 0 0 0-8 10c-2.6 3.4-5 7-7.4 10.6A689 689 0 0 0 17 85.8L.6 112.6a.3.3 0 0 1-.5 0 .3.3 0 0 1 0-.3l16-27a660.7 660.7 0 0 1 18.4-28.4 116.7 116.7 0 0 1 8.2-10.1 72 72 0 0 1 13-11.4 128 128 0 0 1 8.7-5.3c6.9-3.9 14-7.4 20.8-11.3 2.6-1.5 5.3-2.9 7.8-4.5a37.7 37.7 0 0 0 4.7-3.5l3.1-3 4.4-5a22.3 22.3 0 0 0 2.2-2.3V.4Z" class="cls-7" data-name="Path 467" transform="translate(17.3 157.9)"/><path id="Path_468" d="M91.7.6a36.6 36.6 0 0 1-7.3 4.9c-3.9 2-8 3.7-11.8 5.5a106.4 106.4 0 0 0-9.8 5.4c-3.1 2-6.1 4-9 6.3a129.8 129.8 0 0 0-15.4 13.9A240.9 240.9 0 0 0 17 63.7 499.5 499.5 0 0 0 .6 90.2a.3.3 0 0 1-.5 0 .3.3 0 0 1 0-.3c5-9 10.3-18 16.1-26.8a226.4 226.4 0 0 1 21.4-27.3 128.2 128.2 0 0 1 15.5-14c3-2.2 6-4.3 9.3-6.2a99.6 99.6 0 0 1 9.8-5.3c3.9-1.8 8-3.4 11.9-5.5A35.2 35.2 0 0 0 91.2.1a.3.3 0 0 1 .5 0 .3.3 0 0 1 0 .5Z" class="cls-7" data-name="Path 468" transform="translate(26 173)"/><path id="Path_469" d="M68.8.5a2.1 2.1 0 0 1-1 .5l-1.9.5A114 114 0 0 0 49.4 9a99.7 99.7 0 0 0-9.8 5.9 97.7 97.7 0 0 0-14 11.8 122 122 0 0 0-8.2 9.2 148 148 0 0 0-9 12.4C5.6 52.6 3 57.1.6 61.6a.3.3 0 1 1-.6-.3c2.4-4.5 4.9-9 7.6-13.4a139.7 139.7 0 0 1 9-12.7 112.5 112.5 0 0 1 8.1-9.3A95.6 95.6 0 0 1 39 14a103.3 103.3 0 0 1 10-5.8A141.7 141.7 0 0 1 65.6.9c.3-.2 1.3-.3 2-.5a1.6 1.6 0 0 0 .6-.3.3.3 0 1 1 .5.4Z" class="cls-7" data-name="Path 469" transform="translate(46.7 183)"/><path id="Path_470" d="M48 .6a87.2 87.2 0 0 0-16 8 114 114 0 0 0-10 6.9 132.6 132.6 0 0 0-9 7.8q-3.4 3-6.5 6.3l-6 6.8a.3.3 0 0 1-.4 0 .3.3 0 0 1 0-.4 129 129 0 0 1 5.8-7q3-3.3 6.3-6.5a115.4 115.4 0 0 1 9.2-7.9 104.8 104.8 0 0 1 10-6.8A85.8 85.8 0 0 1 48 0a.3.3 0 0 1 .4.2.3.3 0 0 1-.2.4Z" class="cls-7" data-name="Path 470" transform="translate(64.6 188.3)"/><path id="Path_471" d="M35.7.1a.3.3 0 0 1 .5 0 .3.3 0 0 1 0 .4 2 2 0 0 1-.8.5l-2.8 1a63.6 63.6 0 0 0-9.4 5 90.7 90.7 0 0 0-11.8 9.1l-5.5 5-5.4 5.3a.3.3 0 0 1-.4 0 .3.3 0 0 1 0-.4 204.6 204.6 0 0 1 12.8-12.7l3.8-3q2.9-2.2 6-4.1a71 71 0 0 1 9.6-5l2.6-.8a6.7 6.7 0 0 0 .7-.3h.1Zm0 0Z" class="cls-7" data-name="Path 471" transform="translate(74.8 193.5)"/><path id="Path_472" d="M114.8.5a12.3 12.3 0 0 1-1.9 2.3c-1.5 1.5-3.5 3-4.9 4.4a67 67 0 0 1-17 13c-7.1 4-14.8 7.3-22.4 10.7-7.5 3.5-14.9 7.2-21.5 12.3a110.5 110.5 0 0 0-9.6 8.3 73.9 73.9 0 0 0-8.3 9.5c-4.8 6.5-8.4 14-12.8 20.8a55 55 0 0 1-3.4 5 47.3 47.3 0 0 1-4.6 5.5c-2.5 2.5-5.2 4.9-7.9 7.2a.3.3 0 0 1-.4 0 .3.3 0 0 1 0-.5 133 133 0 0 0 7.8-7.2 48.8 48.8 0 0 0 4.5-5.4c4.7-6.6 8.2-14 12.5-21a55 55 0 0 1 3.4-5 75.4 75.4 0 0 1 8.4-9.8 110.2 110.2 0 0 1 9.7-8.3A108 108 0 0 1 68.2 30c7.5-3.4 15.3-6.6 22.5-10.5a66 66 0 0 0 16.8-12.7c1.4-1.5 3.4-3 5-4.5a12.2 12.2 0 0 0 1.7-2.1.3.3 0 0 1 .5-.2.3.3 0 0 1 0 .5Z" class="cls-7" data-name="Path 472" transform="translate(23.5 104.5)"/><path id="Path_473" d="m92 .7-.8.6-2.4 1.4L85 5l-4 2-14.1 6.6-9.4 4.5c-4.9 2.4-9.9 4.8-14.6 7.5a71.6 71.6 0 0 0-9 6.2 93.9 93.9 0 0 0-15 15.6C12 55.9 6.1 65.5.5 74.6a.3.3 0 0 1-.5 0 .3.3 0 0 1 0-.3C5.5 65 11.1 55.4 17.8 46.7a106 106 0 0 1 8.6-10 79 79 0 0 1 6.6-6 72.1 72.1 0 0 1 9.2-6.1C47 21.8 52 19.4 57 17l9.4-4.4L80.6 6l4-1.9 3.9-2L90.9.6c.2 0 .6-.4.9-.6a.8.8 0 0 1 .4-.1.4.4 0 0 1 .3.1.5.5 0 0 1 0 .5.3.3 0 0 1-.4.2Zm0-.4Z" class="cls-7" data-name="Path 473" transform="translate(39.6 118.4)"/><path id="Path_474" d="M82.2.5c1.5-.6 2-.6 1.8-.4.2.2-.2.5-1.4 1-.3 0-1 .3-1.3.5L79 2.8l-4.8 2.5-2.1 1-4.2 2c-5.5 2.5-11.2 4.8-16.7 7.5a108.3 108.3 0 0 0-14.9 8.9l-7 5.2c-2.2 1.8-4.3 3.7-6.4 5.7a141.2 141.2 0 0 0-12 12.7 159.7 159.7 0 0 0-10.3 14 .3.3 0 0 1-.5 0 .3.3 0 0 1 0-.4 160.4 160.4 0 0 1 10.2-14.2A135.1 135.1 0 0 1 22 35a111.8 111.8 0 0 1 13.5-11.1A107.3 107.3 0 0 1 50.7 15l4.2-2c5.5-2.4 11.2-4.6 16.7-7.3l2.1-1 4.9-2.5 2.2-1 1.3-.6Z" class="cls-7" data-name="Path 474" transform="translate(46.7 125)"/><path id="Path_475" d="M78.3.5a2.6 2.6 0 0 1-.9.6l-2 .7-2 .9-4.3 2c-6.3 3-12.8 5.4-19.2 8.2-2.7 1.2-5.4 2.4-8 3.8a86.4 86.4 0 0 0-12.2 7.6 104.1 104.1 0 0 0-10.9 9.5 135 135 0 0 0-9.6 10.7c-3 3.7-6 7.6-8.6 11.6a.3.3 0 0 1-.5 0 .3.3 0 0 1 0-.4c2.6-4 5.4-8 8.4-11.8A129 129 0 0 1 18.1 33a99.3 99.3 0 0 1 11-9.6 84.7 84.7 0 0 1 12.3-7.7c2.6-1.4 5.4-2.6 8.1-3.7 6.4-2.7 13-5 19.3-8l4.4-2 1.8-.8 2.1-.7a2 2 0 0 0 .7-.4.3.3 0 0 1 .5 0 .3.3 0 0 1 0 .4Z" class="cls-7" data-name="Path 475" transform="translate(49.4 131.7)"/><path id="Path_476" d="M62.4.7a17.6 17.6 0 0 0-4.6 1.2c-3.7 1.4-7.5 3.7-10.4 5a122.6 122.6 0 0 0-15.5 8.3q-5 3.2-9.7 6.7t-9 7.4A175.8 175.8 0 0 0 .4 41.6a.3.3 0 0 1-.4 0 .3.3 0 0 1 0-.4 169.5 169.5 0 0 1 12.4-12.6q4.4-4 9-7.6a120 120 0 0 1 9.8-6.7A119.3 119.3 0 0 1 47 6c3-1.3 6.8-3.5 10.5-5a18 18 0 0 1 4.9-1 .3.3 0 0 1 .4.3.3.3 0 0 1-.3.4Z" class="cls-7" data-name="Path 476" transform="translate(61.4 137.6)"/><path id="Path_477" d="m46.6.6-.3.2-.6.1-.7.3A72.5 72.5 0 0 0 30.2 8 212.4 212.4 0 0 0 7.4 23a76.8 76.8 0 0 0-6.9 5.9.3.3 0 0 1-.4 0 .3.3 0 0 1 0-.5q3.2-3.2 6.8-6.1c2.3-2 4.7-3.8 7.2-5.6l6.1-4A187 187 0 0 1 41 1.8 40.2 40.2 0 0 1 45.6.3a4.7 4.7 0 0 1 .5-.1l.7-.2a.6.6 0 0 1 .2 0 .4.4 0 0 1 .2.3.4.4 0 0 1 0 .3.3.3 0 0 1-.5 0Zm0-.3Zm0 .3h.2c0 .1 0 0-.1 0Z" class="cls-7" data-name="Path 477" transform="translate(74.7 142.8)"/><path id="Path_478" d="M.4 0a1 1 0 0 1 .6.5 5.7 5.7 0 0 1 .5 1.3c.5 1.5.7 3.7.9 4.2a120.6 120.6 0 0 0 6.2 16.8 261.4 261.4 0 0 1 11.7 31c1.2 4.1 2.3 8.5 3.1 12.8a123.9 123.9 0 0 1 2.3 19.7c0 2.6 0 5.2-.2 7.7-.3 3.8-.8 7.6-1 11.5a.3.3 0 0 1-.4.3.3.3 0 0 1-.3-.3l.9-11.5a74.1 74.1 0 0 0 0-7.7 125.7 125.7 0 0 0-2.4-19.5 169.2 169.2 0 0 0-7.1-25.3c-2.3-6.2-4.8-12.4-7.4-18.3a129.7 129.7 0 0 1-6.1-17C1.6 5.5 1.3 3.4.8 2A5.2 5.2 0 0 0 .4.9L.2.6A.3.3 0 0 1 0 .2.3.3 0 0 1 .4 0Z" class="cls-7" data-name="Path 478" transform="translate(134.2 124.3)"/><path id="Path_479" d="M.6.1a9.7 9.7 0 0 1 1 2.4c.7 1.9 1 4 1.6 5.6.6 2 1.4 3.9 2.1 5.8l3.4 8.6 2.1 6 4.3 14.3c1.5 4.3 3 8.6 4.2 13C20.7 60 22 64.5 23 68.9a103 103 0 0 1 2.6 18 42 42 0 0 1-.4 7.5c-.7 5.7-2.2 11.3-2.5 17a.3.3 0 0 1-.3.4.3.3 0 0 1-.3-.4c.2-5.7 1.6-11.4 2.3-17a43.2 43.2 0 0 0 .3-7.4 105.3 105.3 0 0 0-2.8-17.8c-1-4.4-2.2-8.8-3.5-13l-4.2-13c-1.5-4.8-2.7-9.6-4.2-14.3l-2-6-3.4-8.7-2-5.8c-.7-1.7-1-3.8-1.6-5.7A8.8 8.8 0 0 0 0 .5.3.3 0 0 1 .3.1a.3.3 0 0 1 .4 0Z" class="cls-7" data-name="Path 479" transform="translate(136.8 117.8)"/><path id="Path_480" d="M.7.5v.2a10.9 10.9 0 0 1 1 1.2l.6 1.6 1.6 4 5.8 14.1a216.3 216.3 0 0 1 7.5 22.7c1.6 6.7 3 13.4 4.4 20 1 5.2 2 10.3 2.7 15.4a68.4 68.4 0 0 1 .6 10.5 59 59 0 0 1-.9 8.2c-.7 4-1.7 8.2-2.6 12a.3.3 0 0 1-.4.2.3.3 0 0 1-.2-.4c.8-3.8 1.8-7.9 2.4-12a59.5 59.5 0 0 0 .8-8 68.3 68.3 0 0 0-.7-10.3c-.7-5.2-1.8-10.2-2.9-15.3-1.3-6.6-2.6-13.4-4.3-20a164 164 0 0 0-7.3-22.7L3.2 7.7l-1.5-4L1 2.2a3 3 0 0 0-.5-.6A2 2 0 0 1 0 .8.7.7 0 0 1 .1.1a.3.3 0 0 1 .5 0 .3.3 0 0 1 0 .4Z" class="cls-7" data-name="Path 480" transform="translate(138.3 112)"/><path id="Path_481" d="M.7.5a9.3 9.3 0 0 1 .4 1l.5 1.7a56.2 56.2 0 0 0 2.1 6.3L5 12.9a175.6 175.6 0 0 1 9 26c1.4 5.1 3 10.7 4.7 16.1l3 11.1a83.5 83.5 0 0 1 2.2 19c0 3-.1 6-.4 9a53.7 53.7 0 0 1-1 6c-.8 3.9-2.2 7.7-3 11.6a39.5 39.5 0 0 0-1 5.1.3.3 0 0 1-.3.3.3.3 0 0 1-.3-.3 39.3 39.3 0 0 1 .8-5.2c1-4 2.2-7.8 3-11.7a52.2 52.2 0 0 0 .9-5.9l.3-8.9a83.6 83.6 0 0 0-2.4-18.7c-.8-3.7-1.8-7.4-2.8-11C16 50 14.4 44.5 13 39L9.9 28.6A359 359 0 0 0 3 9.8a255 255 0 0 1-1.6-5.2L1 3.5.5 1.7 0 .7a1 1 0 0 1 0-.3.4.4 0 0 1 .2-.4.4.4 0 0 1 .4 0 .3.3 0 0 1 .1.5Zm0-.1Z" class="cls-7" data-name="Path 481" transform="translate(140.6 105.4)"/><path id="Path_482" d="M.6.3a30 30 0 0 0 1 4l3 9a255.2 255.2 0 0 0 6 16.3l2 5.2 3 7.7 3 7.7a.3.3 0 0 1-.2.4.3.3 0 0 1-.4-.1l-4.7-11-2.7-6.5a243.3 243.3 0 0 1-6.8-19.4L1.2 5.8A33.5 33.5 0 0 1 0 .4.3.3 0 0 1 .3 0a.3.3 0 0 1 .3.3Z" class="cls-7" data-name="Path 482" transform="translate(142.4 97.5)"/><path id="Path_483" d="M4.5.5a.3.3 0 0 1 .2-.5.5.5 0 0 1 .4 0 .4.4 0 0 1 .2.3.9.9 0 0 1-.2.5l-.5 1L4 3.4a28.2 28.2 0 0 0-1.2 5.1L2 13.8a94.2 94.2 0 0 0-1 14.5 52.8 52.8 0 0 0 2 14.3 74.8 74.8 0 0 0 4.2 10.9c2.6 5.3 5.6 10.5 8.3 15.7a178 178 0 0 1 4.8 10c2.2 5 4.2 10.2 6.3 15.4l3.7 8.4 1.4 3.7a28.2 28.2 0 0 1 1 5.2c.5 4 .3 8 .8 12a.3.3 0 0 1-.6.1c-.5-4-.4-8-1-12a28.5 28.5 0 0 0-1-5l-1.4-3.7c-1.2-2.8-2.6-5.5-3.8-8.4-2.1-5.1-4.2-10.2-6.5-15.2-1.5-3.4-3-6.7-4.7-10-2.7-5.2-5.7-10.4-8.3-15.7A75 75 0 0 1 2 42.9a53.3 53.3 0 0 1-2-14.6 94.7 94.7 0 0 1 1.2-14.6L2 8.4a39.8 39.8 0 0 1 1.4-5.2l.5-1.6.6-1Z" class="cls-7" data-name="Path 483" transform="translate(157.6 66)"/><path id="Path_484" d="M6 .5a21.4 21.4 0 0 0-2 5.2L2.6 14A87.7 87.7 0 0 0 1 36.2a64.1 64.1 0 0 0 5.1 21.5c3.4 7.6 8.3 14.3 12.2 21.7A64 64 0 0 1 21 85a116.1 116.1 0 0 1 5.6 18.7c2 9.5 3.2 19.1 4.5 28.8a.3.3 0 1 1-.6 0c-1.4-9.5-2.7-19.2-4.8-28.6A115.9 115.9 0 0 0 20 85.5c-.8-2-1.7-3.8-2.6-5.6-3.9-7.4-8.8-14.1-12.2-21.7a64.8 64.8 0 0 1-5-22 88 88 0 0 1 1.5-22.4c.5-2.5 1-5.5 1.7-8.3a22.2 22.2 0 0 1 2-5.3A.3.3 0 0 1 6 0a.3.3 0 0 1 0 .5Z" class="cls-7" data-name="Path 484" transform="translate(162 57.8)"/><path id="Path_485" d="M6.5.4A74.3 74.3 0 0 0 1 33.6a99.3 99.3 0 0 0 7.6 33 110.9 110.9 0 0 0 5 10L19 86.9a62.5 62.5 0 0 1 3.7 9 51.5 51.5 0 0 1 2 11.9c.6 9.2-.5 18.6.5 27.8a.3.3 0 0 1-.2.3.3.3 0 0 1-.4-.3c-1.1-9.1-.1-18.5-.8-27.7a50.3 50.3 0 0 0-2.1-11.6 62.6 62.6 0 0 0-3.7-9l-5.4-10a106.8 106.8 0 0 1-5-10.2A99.9 99.9 0 0 1 .1 33.7 75 75 0 0 1 5.9.2a.3.3 0 0 1 .4-.2.3.3 0 0 1 .2.5Z" class="cls-7" data-name="Path 485" transform="translate(165.4 51.7)"/><path id="Path_486" d="M6.9.4c0-.1-.1-.2 0-.2a.4.4 0 0 1 .3-.2.3.3 0 0 1 .3.2.3.3 0 0 1 0 .3l-.3.5-.4 1-.6 1.4L5.6 5a87.2 87.2 0 0 0-3 10A61.3 61.3 0 0 0 .8 30.2a75.2 75.2 0 0 0 2 15.2 180.6 180.6 0 0 0 5 17.9c3 7.4 6.5 14.5 9.4 22a85 85 0 0 1 4.4 15.2 61.6 61.6 0 0 1 .9 12.8c-.3 10-2.2 19.9-1.8 29.7a.3.3 0 1 1-.6 0c-.5-9.8 1.3-19.8 1.4-29.7a60.6 60.6 0 0 0-.9-12.6 87.3 87.3 0 0 0-4.5-15C13.3 78 9.9 71 6.9 63.5a75.1 75.1 0 0 1-2.3-7.2c-1-3.6-1.9-7.2-2.7-10.9A75.3 75.3 0 0 1 0 30.2a61.4 61.4 0 0 1 1.8-15.4l1.4-5.2c.5-1.6 1-3.3 1.7-5l.6-1.4.7-1.5.4-1a2 2 0 0 1 .2-.3Zm.5.2ZM6.9.4a.7.7 0 0 1 0-.2v.2Z" class="cls-7" data-name="Path 486" transform="translate(169.3 46.5)"/><path id="Path_487" d="M3.1.4c-.4 2.2-1 4.3-1.5 6.4a22.1 22.1 0 0 0-.5 2.8A68.5 68.5 0 0 0 1 21a86.4 86.4 0 0 0 1.5 11.4C4 40.6 7 48.4 10 56.2c2 5.3 4 10.5 5.6 15.9a93.3 93.3 0 0 1 2.6 10.2 61.2 61.2 0 0 1 .6 15c-.8 11.5-3.8 23.1-4.4 34.5a.3.3 0 0 1-.3.3.3.3 0 0 1-.3-.4c.4-11.3 3.3-23 4-34.5a60.5 60.5 0 0 0-.8-14.7 92.7 92.7 0 0 0-2.5-10C13 67 11 61.8 9 56.5c-3-7.9-5.8-15.8-7.4-24A87 87 0 0 1 0 21 70 70 0 0 1 .4 9.5a24.8 24.8 0 0 1 .5-2.8C1.4 4.5 2.1 2.4 2.4.3a.3.3 0 1 1 .7 0Z" class="cls-7" data-name="Path 487" transform="translate(175.3 57)"/><path id="Path_488" d="M.7.3a19.4 19.4 0 0 0 .7 6.4A94.3 94.3 0 0 0 4.7 16a93.8 93.8 0 0 1 2.8 9 78.6 78.6 0 0 1 1.8 9.2 34.5 34.5 0 0 1 0 7.5 95.8 95.8 0 0 1-1.9 11l-2.8 13-2 8.6a.3.3 0 0 1-.6-.1l1.4-6.5 3-15.2a96.2 96.2 0 0 0 1.8-11 33.1 33.1 0 0 0 0-7.2 78.3 78.3 0 0 0-1.7-9.1 90.4 90.4 0 0 0-2.7-9A94.5 94.5 0 0 1 .6 7 20.2 20.2 0 0 1 .1.3.3.3 0 0 1 .4 0a.3.3 0 0 1 .3.4Z" class="cls-7" data-name="Path 488" transform="translate(189 107)"/><path id="Path_489" d="M2.5.5a13.1 13.1 0 0 0-1 4.3v6.8c-.2 3.1-.6 6.5-.6 9.8a30 30 0 0 0 .5 6.5 38.7 38.7 0 0 0 2.2 6.7c2 5.1 5 10 6.9 15 .9 2.3 1.6 4.5 2.3 6.8l2.9 10.3c.8 3 1.9 6 2.8 9a64.2 64.2 0 0 1 2.1 8c1.3 5.5 2.3 11.1 3.6 16.6a.3.3 0 0 1-.2.4.3.3 0 0 1-.3-.2c-1.5-5.5-2.6-11.1-4-16.6a193.5 193.5 0 0 0-2.1-8c-1-3-2.1-5.9-3-8.9l-2.9-10.3c-.7-2.2-1.4-4.4-2.3-6.7-2-5-4.7-10-6.8-15a39.3 39.3 0 0 1-2-6.9 30.4 30.4 0 0 1-.6-6.7c0-3.3.5-6.7.6-9.9.2-2.3 0-5.3.4-8A11.5 11.5 0 0 1 1.9.3a.3.3 0 0 1 .4-.2.3.3 0 0 1 .2.5Z" class="cls-7" data-name="Path 489" transform="translate(189 31.8)"/><path id="Path_490" d="M1.3.5A3.4 3.4 0 0 0 1 1.9V14c0 3.7-.2 7.6 0 11.4a37.8 37.8 0 0 0 .9 7.5 31.6 31.6 0 0 0 1.4 4.4l3 6.4a145.6 145.6 0 0 1 5.4 13.5 139 139 0 0 1 4.5 16.4A169.5 169.5 0 0 1 19 90.4c.5 4.9.7 9.8 1 14.7l.4 3.6a.3.3 0 0 1-.2.3.3.3 0 0 1-.4-.2l-.4-3.7c-.5-4.8-.7-9.7-1.3-14.6-.6-5.5-1.6-11-2.8-16.7a139.5 139.5 0 0 0-4.6-16.2 166.2 166.2 0 0 0-5.3-13.4l-2.9-6.5A31.5 31.5 0 0 1 .9 33a38.4 38.4 0 0 1-.9-7.7L.1 14V9.2l.2-4.8v-3A3.3 3.3 0 0 1 .8.3a.3.3 0 0 1 .5-.2.3.3 0 0 1 .1.5Z" class="cls-7" data-name="Path 490" transform="translate(192.6 26.9)"/><path id="Path_491" d="M1 .2a1.3 1.3 0 0 1 0 .6L.8 2.5a70.7 70.7 0 0 0 0 5.7c.2 4.1.3 8.4.7 12.6A72 72 0 0 0 2.7 29a47 47 0 0 0 1.6 5.4c2.5 7.2 6.4 14 8.2 21.4a112.2 112.2 0 0 1 3.3 20.7c1 10.4.9 21 .8 31.4a.3.3 0 0 1-.3.3.3.3 0 0 1-.3-.3c0-10.4-.2-21-1.2-31.3A155.6 155.6 0 0 0 11.4 56c-1.8-7.4-5.6-14.1-8-21.3a46.1 46.1 0 0 1-1.6-5.5 68.4 68.4 0 0 1-1.2-8.4L0 8.2V2.5L.5.9a1.2 1.2 0 0 0 0-.4.3.3 0 0 1 .1-.5.3.3 0 0 1 .5.2Z" class="cls-7" data-name="Path 491" transform="translate(196.2 26.1)"/><path id="Path_492" d="M2.3.2a2.4 2.4 0 0 1 0 1c0 .7-.2 1.4-.3 1.9l-.4 4.4-.1 2c-.3 4.3-.6 8.7-.6 13a57.2 57.2 0 0 0 .6 8.7 46.8 46.8 0 0 0 1.8 7.3c1.8 5.8 4.4 11.3 6.6 17a59.7 59.7 0 0 1 3.5 11.7 86.1 86.1 0 0 1 1 15c0 5.8-.6 11.7-1 17.5s-1 11.6-1 17.4a.3.3 0 0 1-.2.3.3.3 0 0 1-.3-.3c-.1-5.8.2-11.6.6-17.5s.8-11.6.8-17.4a84.5 84.5 0 0 0-1-14.8A67.8 67.8 0 0 0 7.7 53c-2-4.7-4-9.4-5.5-14.2a49.7 49.7 0 0 1-1.8-7.4 58.1 58.1 0 0 1-.5-8.9c0-4.3.4-8.7.7-13.1l.2-2L1.4 3l.3-1.9a1.6 1.6 0 0 0 0-.7.3.3 0 0 1 .6-.2Z" class="cls-7" data-name="Path 492" transform="translate(199.8 19.6)"/><path id="Path_493" d="M94.7 6.2a6.5 6.5 0 0 1-.7-.1l-2.6-.9c-5-1-10.3-2.3-15.5-3A87 87 0 0 0 65.5 1a37.5 37.5 0 0 0-3.8.1l-5.7.5-15.6 1.5-6.7.5c-4.4.3-9 .4-13.4.4C13.6 4 7 3.6.3 3.3A.3.3 0 0 1 0 3a.3.3 0 0 1 .3-.3c6.6.1 13.4.4 20 .3a164 164 0 0 0 21.1-1l7.8-.8L56 .6l5.8-.5a33.7 33.7 0 0 1 3.9 0 88.8 88.8 0 0 1 10.3 1c5.2 1 10.4 2.2 15.4 3.3 1 .2 1.8.7 2.7 1l.6.1a.3.3 0 0 1 .3.4.3.3 0 0 1-.4.2Z" class="cls-7" data-name="Path 493" transform="translate(117 3)"/><path id="Path_494" d="M89.1 5.8a92.3 92.3 0 0 0-19.7-2.3c-6-.1-11.9.1-17.9.4l-12 .4a264.9 264.9 0 0 1-23-.8l-6.6-1L.3.6a.3.3 0 0 1 0-.6l9.8 1.7a105.3 105.3 0 0 0 15.6 1.4c4.6.2 9.3.1 13.8 0l12-.3c6-.2 12-.4 18-.2a92.8 92.8 0 0 1 19.8 2.6.3.3 0 1 1-.2.7Z" class="cls-7" data-name="Path 494" transform="translate(116.2 4.8)"/><path id="Path_495" d="M74.1 4.6h-.2a4.5 4.5 0 0 0-1-.3h-2.3l-5.3-.5-8-.4L43.6 3l-9.1-.4-6.8-.4-6.9-.4C14 1.3 7.1 1 .3.7A.3.3 0 0 1 0 .2.3.3 0 0 1 .3 0l17.2.6 11.4.4 14.2.8 14.3.8 8 .5 5.3.4a22.6 22.6 0 0 1 3.1.3 1.2 1.2 0 0 1 1 .6.3.3 0 0 1-.3.4.3.3 0 0 1-.4-.2Zm0 0Z" class="cls-7" data-name="Path 495" transform="translate(127.8 8.6)"/><path id="Path_496" d="m58.2 6.8-1.6-.1a65.5 65.5 0 0 0-5.3.2L46 7l-8 .1a90.1 90.1 0 0 1-11.5-.5L21.8 6q-3.4-.5-6.7-1.4c-3.5-.9-6.9-2-10.4-3A43.2 43.2 0 0 0 .3.6.3.3 0 0 1 0 .3.3.3 0 0 1 .3 0C2 .2 3.4.5 5 .9c3.5.8 7 2 10.4 2.7a95.7 95.7 0 0 0 11.2 2 93.8 93.8 0 0 0 11.3.6H46A201.5 201.5 0 0 0 56.6 6l1.6.2a.8.8 0 0 1 .3 0 .3.3 0 0 1 .2.5.3.3 0 0 1-.5.2Zm-.1-.3Zm0 .2a.3.3 0 0 1 0-.2.4.4 0 0 0 0 .2Z" class="cls-7" data-name="Path 496" transform="translate(142.1 8.2)"/><path id="Path_497" d="M146.2 7.1a5.8 5.8 0 0 1-2 0c-1.5-.3-3.2-.9-4.4-1.2-2-.4-3.8-.8-5.8-1a54.3 54.3 0 0 0-5.8-.7l-14.5-.5-6.3-.4c-4-.4-8.1-1.2-12.2-1.7a58.7 58.7 0 0 0-11-.5c-3.9 0-7.8.3-11.7.5-3.4.2-7 .2-10.4.5a41.5 41.5 0 0 0-6.7 1 40.4 40.4 0 0 0-10.2 4c-4.8 2.7-9 6-13.7 9.5-3 2-6 3.8-9 5.9a44 44 0 0 0-3.5 2.8c-3.8 3.3-7 6.5-10.7 9.5a50.8 50.8 0 0 1-7.9 5.4.3.3 0 0 1-.4 0 .3.3 0 0 1 .2-.5 51.4 51.4 0 0 0 7.7-5.4c3.5-3 6.8-6.4 10.5-9.7a45.7 45.7 0 0 1 3.6-2.8l9-6c4.7-3.5 8.9-6.9 13.7-9.6A40.7 40.7 0 0 1 55 2a42.2 42.2 0 0 1 7-1c3.4-.3 7-.3 10.3-.5l12-.5a92.2 92.2 0 0 1 11 .6c4 .5 8.1 1.4 12.2 1.7l6.2.5 14.5.6A60 60 0 0 1 140 5.3c1.1.2 2.8.9 4.3 1.1a5.2 5.2 0 0 0 1.8 0 .3.3 0 0 1 .3.4.3.3 0 0 1-.2.3Z" class="cls-7" data-name="Path 497" transform="translate(36.1 29.6)"/><path id="Path_498" d="M143.8 5a.3.3 0 0 1 .4-.2.3.3 0 0 1 .3.4.6.6 0 0 1-.5.5 4.7 4.7 0 0 1-1.3.1 16 16 0 0 1-2 0l-2.7-.5a184 184 0 0 0-3.6-.5L120 3a120.7 120.7 0 0 0-13.2-1.2c-10.3-.4-20.7.1-31-.6a52 52 0 0 0-25 4.7A114.3 114.3 0 0 0 30 18.2C20.1 25.4 10.6 33.3.5 39.1a.3.3 0 0 1-.5-.2.3.3 0 0 1 .2-.4c10-5.8 19.5-13.8 29.4-21A99.4 99.4 0 0 1 50.3 4.8 52.7 52.7 0 0 1 75.8 0c10.4.8 20.7.4 31 .8a119 119 0 0 1 13.4 1.3c4.7.7 9.5 1.2 14.3 2 1.2 0 2.4.2 3.6.4l2.8.5a13.5 13.5 0 0 0 1.8 0h1.1Zm0 0Zm0 0Z" class="cls-7" data-name="Path 498" transform="translate(35.7 33)"/><path id="Path_499" d="M127.8 5.2a.3.3 0 0 1 .3-.2.3.3 0 0 1 .3.3.6.6 0 0 1 0 .4.6.6 0 0 1-.6.2c-.3 0-1-.5-1.4-.5l-2.5-.4-1.6-.2a277.1 277.1 0 0 0-11.3-1L90.1 2.2a320 320 0 0 0-14-.7l-10-.5-4.2.1a81.5 81.5 0 0 0-20 3.9 76.2 76.2 0 0 0-18.3 8.8 25.6 25.6 0 0 0-3.2 2.6c-2.4 2.2-4.5 4.8-7 7a49.7 49.7 0 0 1-5 3.6l-8 4.8a.3.3 0 0 1-.4-.1.3.3 0 0 1 .1-.5c2.6-1.6 5.3-3.1 7.9-4.8a50.6 50.6 0 0 0 4.8-3.7c2.5-2.1 4.6-4.7 7-7a26.3 26.3 0 0 1 3.3-2.7 76.3 76.3 0 0 1 18.5-9A82.2 82.2 0 0 1 62 0a54 54 0 0 1 4.3 0c3.3 0 6.7.3 10 .4l14 .8L111 3a212.3 212.3 0 0 1 15.4 1.8c.3 0 1 .4 1.3.5Z" class="cls-7" data-name="Path 499" transform="translate(46 37.7)"/><path id="Path_500" d="M118.6 3.6a.3.3 0 0 1 .3-.1.3.3 0 0 1 .3.4.3.3 0 0 1-.2.2 1 1 0 0 1-.4.1h-2.7l-8.8-.2a822.5 822.5 0 0 1-38.2-1.8c-4-.3-8.1-.8-12.2-1a71.4 71.4 0 0 0-8.1 0 42.7 42.7 0 0 0-7.1 1.2c-3.5.8-7 2-10.4 3.2l-6.2 2a29.6 29.6 0 0 0-4 1.8c-5.8 3.2-10.6 8-16.1 11.7a36.7 36.7 0 0 1-4.4 2.5.3.3 0 0 1-.4-.1.3.3 0 0 1 .2-.4 36.3 36.3 0 0 0 4.2-2.5c5.5-3.8 10.3-8.7 16.1-12a30.5 30.5 0 0 1 4-1.8l6.3-2.2c3.4-1.2 6.9-2.4 10.4-3.3A43.4 43.4 0 0 1 48.5.1a70.4 70.4 0 0 1 8.2 0c4.1.2 8.2.7 12.3 1 6.3.6 12.6 1 19 1.4s12.8.6 19.1.8l8.8.2 2.6.1a.3.3 0 0 1 .1 0Z" class="cls-7" data-name="Path 500" transform="translate(52.2 42.2)"/><path id="Path_501" d="M111.9 2.9a27.9 27.9 0 0 0-5.5.3L98 4.6l-5.7.5H84A161.3 161.3 0 0 1 64.2 3a188 188 0 0 0-13-1.6 63.7 63.7 0 0 0-14 .3 64 64 0 0 0-19.6 7 77.3 77.3 0 0 0-17 12 .3.3 0 0 1-.5 0 .3.3 0 0 1 0-.5A78.2 78.2 0 0 1 17 7.8 65 65 0 0 1 37 .6 64 64 0 0 1 51.1.2c4.4.4 8.8 1 13.2 1.7a162.3 162.3 0 0 0 19.5 2.3A112 112 0 0 0 98 3.8c2.7-.4 5.5-1 8.3-1.3a29.1 29.1 0 0 1 5.6-.3.3.3 0 0 1 .3.4.3.3 0 0 1-.3.3Z" class="cls-7" data-name="Path 501" transform="translate(57 45.7)"/></g><path id="Path_503" d="m155.4 4.9-7 4.6a97.7 97.7 0 0 0-7.2 5.5l-10.3 9c-7 6.3-14.4 12.3-21.4 18.6a132 132 0 0 0-16.5 17c-4 4.7-7.6 9.6-11.3 14.4-4.5 5.6-9.3 11-13.7 16.6l-5.2 7.1a152 152 0 0 0-11.8 22 214.6 214.6 0 0 0-8.9 23.5C35.9 162.6 32 184.3 25 204.4a114 114 0 0 1-20.6 38 2.4 2.4 0 1 1-3.8-3c8.5-11 13.9-23.7 18-37.1 6.2-20.3 9.4-42.1 15.2-61.9a207.6 207.6 0 0 1 9-24.6 154.2 154.2 0 0 1 12.8-23.1 117 117 0 0 1 5.7-7.7c4.5-5.6 9.4-10.8 14-16.3 4-4.7 7.8-9.5 11.8-14.1a136.2 136.2 0 0 1 17.8-17.4l22-18A352.1 352.1 0 0 1 145 5l7.6-4.5a2.6 2.6 0 1 1 2.7 4.5Z" class="cls-7" data-name="Path 503" transform="translate(97.1)"/></g></g></g></g></svg>
