<svg xmlns="http://www.w3.org/2000/svg" viewBox="0 0 45 45"><clipPath id="a"><path d="M0 36h36V0H0z"/></clipPath><g fill="currentColor" clip-path="url(#a)" transform="matrix(1.3 0 0 -1.3 0 45)"><path d="M16.7 19.9c0-4.5-2.5-2-5.7-2s-5.7-2.5-5.7 2c0 3 2.5 6.1 5.7 6.1s5.7-3.2 5.7-6.1M5 28c.5-1.4 0-2.7-.8-3-.9-.2-1.9.7-2.3 2-.4 1.4 0 2.7.9 3 .9.2 1.9-.7 2.3-2M20 27c-.3-1.3-1.4-2.2-2.2-2-1 .4-1.3 1.6-.9 3 .4 1.3 1.5 2.2 2.3 2 1-.4 1.3-1.6.9-3M10 31.9c.3-2-.3-3.6-1.3-3.8-1.1-.2-2.3 1.1-2.7 3s.3 3.6 1.3 3.8c1.1.2 2.3-1.1 2.7-3m6-.8c-.4-1.9-1.6-3.3-2.7-3s-1.6 2-1.3 3.8c.4 1.9 1.6 3.3 2.7 3 1-.2 1.6-2 1.3-3.8M30.7 3.9c0-4.5-2.5-2-5.7-2s-5.7-2.5-5.7 2c0 3 2.5 6.1 5.7 6.1s5.7-3.2 5.7-6.1M19 12c.5-1.4 0-2.7-.8-3-.9-.2-1.9.7-2.3 2-.4 1.4 0 2.7.9 3 .9.2 1.9-.7 2.3-2M34 11c-.3-1.3-1.4-2.2-2.2-2-1 .4-1.3 1.7-.9 3s1.5 2.2 2.3 2c1-.4 1.3-1.6.9-3M24 15.9c.3-2-.3-3.6-1.3-3.8-1.1-.2-2.3 1.1-2.7 3s.3 3.6 1.3 3.8c1.1.2 2.3-1.1 2.7-3m6-.8c-.4-1.9-1.6-3.3-2.7-3s-1.6 2-1.3 3.8c.4 1.9 1.6 3.3 2.7 3 1-.2 1.6-2 1.3-3.8"/></g></svg>